<?xml version="1.0" encoding="UTF-8" standalone="no"?>
<!DOCTYPE svg PUBLIC "-//W3C//DTD SVG 1.1//EN"
 "http://www.w3.org/Graphics/SVG/1.1/DTD/svg11.dtd">
<!-- Generated by graphviz version 2.38.0 (20140413.2041)
 -->
<!-- Title: G Pages: 1 -->
<svg width="1686pt" height="459pt"
 viewBox="0.00 0.00 1686.00 459.00" xmlns="http://www.w3.org/2000/svg" xmlns:xlink="http://www.w3.org/1999/xlink">
<g id="graph0" class="graph" transform="scale(1 1) rotate(0) translate(4 455)">
<title>G</title>
<polygon fill="white" stroke="none" points="-4,4 -4,-455 1682,-455 1682,4 -4,4"/>
<!-- PROPERTY -->
<g id="node1" class="node"><title>PROPERTY</title>
<polygon fill="white" stroke="black" points="364.5,-368 301.5,-368 301.5,-332 364.5,-332 364.5,-368"/>
<text text-anchor="middle" x="333" y="-347.5" font-family="Times New Roman,serif" font-size="10.00">PROPERTY</text>
</g>
<!-- CONCEPTUAL_KNOWLEDGE -->
<g id="node2" class="node"><title>CONCEPTUAL_KNOWLEDGE</title>
<ellipse fill="none" stroke="black" cx="1028" cy="-433" rx="133.776" ry="18"/>
<text text-anchor="middle" x="1028" y="-429.3" font-family="Times New Roman,serif" font-size="14.00">CONCEPTUAL_KNOWLEDGE</text>
</g>
<!-- PROPERTY&#45;&gt;CONCEPTUAL_KNOWLEDGE -->
<g id="edge1" class="edge"><title>PROPERTY&#45;&gt;CONCEPTUAL_KNOWLEDGE</title>
<path fill="none" stroke="black" d="M364.669,-354.691C461.818,-366.013 758.802,-400.626 920.445,-419.465"/>
<polygon fill="black" stroke="black" points="920.079,-422.946 930.417,-420.627 920.889,-415.993 920.079,-422.946"/>
<text text-anchor="middle" x="731.5" y="-389" font-family="Times New Roman,serif" font-size="10.00">is_a</text>
</g>
<!-- COLOR -->
<g id="node3" class="node"><title>COLOR</title>
<polygon fill="white" stroke="black" points="468,-285 414,-285 414,-249 468,-249 468,-285"/>
<text text-anchor="middle" x="441" y="-264.5" font-family="Times New Roman,serif" font-size="10.00">COLOR</text>
</g>
<!-- COLOR&#45;&gt;PROPERTY -->
<g id="edge2" class="edge"><title>COLOR&#45;&gt;PROPERTY</title>
<path fill="none" stroke="black" d="M418.096,-285.178C402.345,-296.991 381.241,-312.82 363.99,-325.758"/>
<polygon fill="black" stroke="black" points="361.771,-323.047 355.871,-331.847 365.971,-328.647 361.771,-323.047"/>
<text text-anchor="middle" x="402.5" y="-306" font-family="Times New Roman,serif" font-size="10.00">is_a</text>
</g>
<!-- BLUE -->
<g id="node4" class="node"><title>BLUE</title>
<polygon fill="white" stroke="black" points="360,-202 306,-202 306,-166 360,-166 360,-202"/>
<text text-anchor="middle" x="333" y="-181.5" font-family="Times New Roman,serif" font-size="10.00">BLUE</text>
</g>
<!-- BLUE&#45;&gt;COLOR -->
<g id="edge3" class="edge"><title>BLUE&#45;&gt;COLOR</title>
<path fill="none" stroke="black" d="M355.904,-202.178C371.655,-213.991 392.759,-229.82 410.01,-242.758"/>
<polygon fill="black" stroke="black" points="408.029,-245.647 418.129,-248.847 412.229,-240.047 408.029,-245.647"/>
<text text-anchor="middle" x="402.5" y="-223" font-family="Times New Roman,serif" font-size="10.00">is_a</text>
</g>
<!-- GREEN -->
<g id="node5" class="node"><title>GREEN</title>
<polygon fill="white" stroke="black" points="432,-202 378,-202 378,-166 432,-166 432,-202"/>
<text text-anchor="middle" x="405" y="-181.5" font-family="Times New Roman,serif" font-size="10.00">GREEN</text>
</g>
<!-- GREEN&#45;&gt;COLOR -->
<g id="edge4" class="edge"><title>GREEN&#45;&gt;COLOR</title>
<path fill="none" stroke="black" d="M412.635,-202.178C417.455,-213.024 423.781,-227.256 429.235,-239.528"/>
<polygon fill="black" stroke="black" points="426.117,-241.13 433.376,-248.847 432.513,-238.287 426.117,-241.13"/>
<text text-anchor="middle" x="434.5" y="-223" font-family="Times New Roman,serif" font-size="10.00">is_a</text>
</g>
<!-- WHITE -->
<g id="node6" class="node"><title>WHITE</title>
<polygon fill="white" stroke="black" points="504,-202 450,-202 450,-166 504,-166 504,-202"/>
<text text-anchor="middle" x="477" y="-181.5" font-family="Times New Roman,serif" font-size="10.00">WHITE</text>
</g>
<!-- WHITE&#45;&gt;COLOR -->
<g id="edge5" class="edge"><title>WHITE&#45;&gt;COLOR</title>
<path fill="none" stroke="black" d="M469.365,-202.178C464.545,-213.024 458.219,-227.256 452.765,-239.528"/>
<polygon fill="black" stroke="black" points="449.487,-238.287 448.624,-248.847 455.883,-241.13 449.487,-238.287"/>
<text text-anchor="middle" x="470.5" y="-223" font-family="Times New Roman,serif" font-size="10.00">is_a</text>
</g>
<!-- BLACK -->
<g id="node7" class="node"><title>BLACK</title>
<polygon fill="white" stroke="black" points="576,-202 522,-202 522,-166 576,-166 576,-202"/>
<text text-anchor="middle" x="549" y="-181.5" font-family="Times New Roman,serif" font-size="10.00">BLACK</text>
</g>
<!-- BLACK&#45;&gt;COLOR -->
<g id="edge6" class="edge"><title>BLACK&#45;&gt;COLOR</title>
<path fill="none" stroke="black" d="M526.096,-202.178C510.345,-213.991 489.241,-229.82 471.99,-242.758"/>
<polygon fill="black" stroke="black" points="469.771,-240.047 463.871,-248.847 473.971,-245.647 469.771,-240.047"/>
<text text-anchor="middle" x="510.5" y="-223" font-family="Times New Roman,serif" font-size="10.00">is_a</text>
</g>
<!-- RED -->
<g id="node8" class="node"><title>RED</title>
<polygon fill="white" stroke="black" points="648,-202 594,-202 594,-166 648,-166 648,-202"/>
<text text-anchor="middle" x="621" y="-181.5" font-family="Times New Roman,serif" font-size="10.00">RED</text>
</g>
<!-- RED&#45;&gt;COLOR -->
<g id="edge7" class="edge"><title>RED&#45;&gt;COLOR</title>
<path fill="none" stroke="black" d="M593.878,-197.821C590.883,-199.232 587.877,-200.648 585,-202 557.468,-214.939 550.771,-218.583 523,-231 508.189,-237.622 491.761,-244.689 477.522,-250.726"/>
<polygon fill="black" stroke="black" points="475.911,-247.607 468.061,-254.723 478.635,-254.055 475.911,-247.607"/>
<text text-anchor="middle" x="555.5" y="-223" font-family="Times New Roman,serif" font-size="10.00">is_a</text>
</g>
<!-- APPEARANCE -->
<g id="node9" class="node"><title>APPEARANCE</title>
<polygon fill="white" stroke="black" points="147.5,-285 68.5,-285 68.5,-249 147.5,-249 147.5,-285"/>
<text text-anchor="middle" x="108" y="-264.5" font-family="Times New Roman,serif" font-size="10.00">APPEARANCE</text>
</g>
<!-- APPEARANCE&#45;&gt;PROPERTY -->
<g id="edge8" class="edge"><title>APPEARANCE&#45;&gt;PROPERTY</title>
<path fill="none" stroke="black" d="M147.708,-282.295C188.235,-296.885 250.851,-319.426 291.882,-334.198"/>
<polygon fill="black" stroke="black" points="290.717,-337.498 301.312,-337.592 293.088,-330.912 290.717,-337.498"/>
<text text-anchor="middle" x="242.5" y="-306" font-family="Times New Roman,serif" font-size="10.00">is_a</text>
</g>
<!-- PRETTY -->
<g id="node10" class="node"><title>PRETTY</title>
<polygon fill="white" stroke="black" points="54,-202 0,-202 0,-166 54,-166 54,-202"/>
<text text-anchor="middle" x="27" y="-181.5" font-family="Times New Roman,serif" font-size="10.00">PRETTY</text>
</g>
<!-- PRETTY&#45;&gt;APPEARANCE -->
<g id="edge9" class="edge"><title>PRETTY&#45;&gt;APPEARANCE</title>
<path fill="none" stroke="black" d="M44.178,-202.178C55.6688,-213.669 70.9591,-228.959 83.6928,-241.693"/>
<polygon fill="black" stroke="black" points="81.3008,-244.251 90.8467,-248.847 86.2505,-239.301 81.3008,-244.251"/>
<text text-anchor="middle" x="81.5" y="-223" font-family="Times New Roman,serif" font-size="10.00">is_a</text>
</g>
<!-- HANDSOME -->
<g id="node11" class="node"><title>HANDSOME</title>
<polygon fill="white" stroke="black" points="143.5,-202 72.5,-202 72.5,-166 143.5,-166 143.5,-202"/>
<text text-anchor="middle" x="108" y="-181.5" font-family="Times New Roman,serif" font-size="10.00">HANDSOME</text>
</g>
<!-- HANDSOME&#45;&gt;APPEARANCE -->
<g id="edge10" class="edge"><title>HANDSOME&#45;&gt;APPEARANCE</title>
<path fill="none" stroke="black" d="M108,-202.178C108,-212.81 108,-226.694 108,-238.796"/>
<polygon fill="black" stroke="black" points="104.5,-238.847 108,-248.847 111.5,-238.847 104.5,-238.847"/>
<text text-anchor="middle" x="116.5" y="-223" font-family="Times New Roman,serif" font-size="10.00">is_a</text>
</g>
<!-- SIZE -->
<g id="node12" class="node"><title>SIZE</title>
<polygon fill="white" stroke="black" points="288,-285 234,-285 234,-249 288,-249 288,-285"/>
<text text-anchor="middle" x="261" y="-264.5" font-family="Times New Roman,serif" font-size="10.00">SIZE</text>
</g>
<!-- SIZE&#45;&gt;PROPERTY -->
<g id="edge11" class="edge"><title>SIZE&#45;&gt;PROPERTY</title>
<path fill="none" stroke="black" d="M276.269,-285.178C286.388,-296.561 299.821,-311.674 311.076,-324.335"/>
<polygon fill="black" stroke="black" points="308.493,-326.698 317.753,-331.847 313.725,-322.047 308.493,-326.698"/>
<text text-anchor="middle" x="310.5" y="-306" font-family="Times New Roman,serif" font-size="10.00">is_a</text>
</g>
<!-- SMALL -->
<g id="node13" class="node"><title>SMALL</title>
<polygon fill="white" stroke="black" points="216,-202 162,-202 162,-166 216,-166 216,-202"/>
<text text-anchor="middle" x="189" y="-181.5" font-family="Times New Roman,serif" font-size="10.00">SMALL</text>
</g>
<!-- SMALL&#45;&gt;SIZE -->
<g id="edge12" class="edge"><title>SMALL&#45;&gt;SIZE</title>
<path fill="none" stroke="black" d="M204.269,-202.178C214.388,-213.561 227.821,-228.674 239.076,-241.335"/>
<polygon fill="black" stroke="black" points="236.493,-243.698 245.753,-248.847 241.725,-239.047 236.493,-243.698"/>
<text text-anchor="middle" x="238.5" y="-223" font-family="Times New Roman,serif" font-size="10.00">is_a</text>
</g>
<!-- BIG -->
<g id="node14" class="node"><title>BIG</title>
<polygon fill="white" stroke="black" points="288,-202 234,-202 234,-166 288,-166 288,-202"/>
<text text-anchor="middle" x="261" y="-181.5" font-family="Times New Roman,serif" font-size="10.00">BIG</text>
</g>
<!-- BIG&#45;&gt;SIZE -->
<g id="edge13" class="edge"><title>BIG&#45;&gt;SIZE</title>
<path fill="none" stroke="black" d="M261,-202.178C261,-212.81 261,-226.694 261,-238.796"/>
<polygon fill="black" stroke="black" points="257.5,-238.847 261,-248.847 264.5,-238.847 257.5,-238.847"/>
<text text-anchor="middle" x="269.5" y="-223" font-family="Times New Roman,serif" font-size="10.00">is_a</text>
</g>
<!-- ENTITY -->
<g id="node15" class="node"><title>ENTITY</title>
<polygon fill="white" stroke="black" points="957,-368 903,-368 903,-332 957,-332 957,-368"/>
<text text-anchor="middle" x="930" y="-347.5" font-family="Times New Roman,serif" font-size="10.00">ENTITY</text>
</g>
<!-- ENTITY&#45;&gt;CONCEPTUAL_KNOWLEDGE -->
<g id="edge14" class="edge"><title>ENTITY&#45;&gt;CONCEPTUAL_KNOWLEDGE</title>
<path fill="none" stroke="black" d="M943.346,-368.288C950.889,-377.429 960.826,-388.487 971,-397 976.385,-401.506 982.407,-405.836 988.463,-409.822"/>
<polygon fill="black" stroke="black" points="986.968,-413.017 997.292,-415.396 990.705,-407.098 986.968,-413.017"/>
<text text-anchor="middle" x="979.5" y="-389" font-family="Times New Roman,serif" font-size="10.00">is_a</text>
</g>
<!-- OBJECT -->
<g id="node16" class="node"><title>OBJECT</title>
<polygon fill="white" stroke="black" points="957,-285 903,-285 903,-249 957,-249 957,-285"/>
<text text-anchor="middle" x="930" y="-264.5" font-family="Times New Roman,serif" font-size="10.00">OBJECT</text>
</g>
<!-- OBJECT&#45;&gt;ENTITY -->
<g id="edge15" class="edge"><title>OBJECT&#45;&gt;ENTITY</title>
<path fill="none" stroke="black" d="M930,-285.178C930,-295.81 930,-309.694 930,-321.796"/>
<polygon fill="black" stroke="black" points="926.5,-321.847 930,-331.847 933.5,-321.847 926.5,-321.847"/>
<text text-anchor="middle" x="938.5" y="-306" font-family="Times New Roman,serif" font-size="10.00">is_a</text>
</g>
<!-- ITEM -->
<g id="node17" class="node"><title>ITEM</title>
<polygon fill="white" stroke="black" points="884,-202 830,-202 830,-166 884,-166 884,-202"/>
<text text-anchor="middle" x="857" y="-181.5" font-family="Times New Roman,serif" font-size="10.00">ITEM</text>
</g>
<!-- ITEM&#45;&gt;OBJECT -->
<g id="edge16" class="edge"><title>ITEM&#45;&gt;OBJECT</title>
<path fill="none" stroke="black" d="M872.481,-202.178C882.741,-213.561 896.36,-228.674 907.771,-241.335"/>
<polygon fill="black" stroke="black" points="905.246,-243.762 914.541,-248.847 910.446,-239.075 905.246,-243.762"/>
<text text-anchor="middle" x="906.5" y="-223" font-family="Times New Roman,serif" font-size="10.00">is_a</text>
</g>
<!-- CLOTHING -->
<g id="node18" class="node"><title>CLOTHING</title>
<polygon fill="white" stroke="black" points="825.5,-119 762.5,-119 762.5,-83 825.5,-83 825.5,-119"/>
<text text-anchor="middle" x="794" y="-98.5" font-family="Times New Roman,serif" font-size="10.00">CLOTHING</text>
</g>
<!-- CLOTHING&#45;&gt;ITEM -->
<g id="edge17" class="edge"><title>CLOTHING&#45;&gt;ITEM</title>
<path fill="none" stroke="black" d="M807.361,-119.178C816.047,-130.347 827.526,-145.105 837.257,-157.616"/>
<polygon fill="black" stroke="black" points="834.756,-160.102 843.659,-165.847 840.282,-155.804 834.756,-160.102"/>
<text text-anchor="middle" x="838.5" y="-140" font-family="Times New Roman,serif" font-size="10.00">is_a</text>
</g>
<!-- TSHIRT -->
<g id="node19" class="node"><title>TSHIRT</title>
<polygon fill="white" stroke="black" points="785,-36 731,-36 731,-0 785,-0 785,-36"/>
<text text-anchor="middle" x="758" y="-15.5" font-family="Times New Roman,serif" font-size="10.00">TSHIRT</text>
</g>
<!-- TSHIRT&#45;&gt;CLOTHING -->
<g id="edge18" class="edge"><title>TSHIRT&#45;&gt;CLOTHING</title>
<path fill="none" stroke="black" d="M765.635,-36.178C770.455,-47.0244 776.781,-61.2563 782.235,-73.5277"/>
<polygon fill="black" stroke="black" points="779.117,-75.1301 786.376,-82.8467 785.513,-72.2871 779.117,-75.1301"/>
<text text-anchor="middle" x="787.5" y="-57" font-family="Times New Roman,serif" font-size="10.00">is_a</text>
</g>
<!-- DRESS -->
<g id="node20" class="node"><title>DRESS</title>
<polygon fill="white" stroke="black" points="857,-36 803,-36 803,-0 857,-0 857,-36"/>
<text text-anchor="middle" x="830" y="-15.5" font-family="Times New Roman,serif" font-size="10.00">DRESS</text>
</g>
<!-- DRESS&#45;&gt;CLOTHING -->
<g id="edge19" class="edge"><title>DRESS&#45;&gt;CLOTHING</title>
<path fill="none" stroke="black" d="M822.365,-36.178C817.545,-47.0244 811.219,-61.2563 805.765,-73.5277"/>
<polygon fill="black" stroke="black" points="802.487,-72.2871 801.624,-82.8467 808.883,-75.1301 802.487,-72.2871"/>
<text text-anchor="middle" x="823.5" y="-57" font-family="Times New Roman,serif" font-size="10.00">is_a</text>
</g>
<!-- ANIMAL -->
<g id="node21" class="node"><title>ANIMAL</title>
<polygon fill="white" stroke="black" points="958,-202 902,-202 902,-166 958,-166 958,-202"/>
<text text-anchor="middle" x="930" y="-181.5" font-family="Times New Roman,serif" font-size="10.00">ANIMAL</text>
</g>
<!-- ANIMAL&#45;&gt;OBJECT -->
<g id="edge20" class="edge"><title>ANIMAL&#45;&gt;OBJECT</title>
<path fill="none" stroke="black" d="M930,-202.178C930,-212.81 930,-226.694 930,-238.796"/>
<polygon fill="black" stroke="black" points="926.5,-238.847 930,-248.847 933.5,-238.847 926.5,-238.847"/>
<text text-anchor="middle" x="938.5" y="-223" font-family="Times New Roman,serif" font-size="10.00">is_a</text>
</g>
<!-- ANIMATE -->
<g id="node44" class="node"><title>ANIMATE</title>
<polygon fill="white" stroke="black" points="1092,-285 1030,-285 1030,-249 1092,-249 1092,-285"/>
<text text-anchor="middle" x="1061" y="-264.5" font-family="Times New Roman,serif" font-size="10.00">ANIMATE</text>
</g>
<!-- ANIMAL&#45;&gt;ANIMATE -->
<g id="edge46" class="edge"><title>ANIMAL&#45;&gt;ANIMATE</title>
<path fill="none" stroke="black" d="M953.083,-202.06C965.558,-211.031 981.366,-222.001 996,-231 1003.94,-235.881 1012.61,-240.812 1020.96,-245.372"/>
<polygon fill="black" stroke="black" points="1019.38,-248.495 1029.84,-250.154 1022.69,-242.332 1019.38,-248.495"/>
<text text-anchor="middle" x="1004.5" y="-223" font-family="Times New Roman,serif" font-size="10.00">is_a</text>
</g>
<!-- TURTLE -->
<g id="node22" class="node"><title>TURTLE</title>
<polygon fill="white" stroke="black" points="898,-119 844,-119 844,-83 898,-83 898,-119"/>
<text text-anchor="middle" x="871" y="-98.5" font-family="Times New Roman,serif" font-size="10.00">TURTLE</text>
</g>
<!-- TURTLE&#45;&gt;ANIMAL -->
<g id="edge21" class="edge"><title>TURTLE&#45;&gt;ANIMAL</title>
<path fill="none" stroke="black" d="M883.512,-119.178C891.648,-130.347 902.397,-145.105 911.51,-157.616"/>
<polygon fill="black" stroke="black" points="908.789,-159.824 917.506,-165.847 914.447,-155.703 908.789,-159.824"/>
<text text-anchor="middle" x="913.5" y="-140" font-family="Times New Roman,serif" font-size="10.00">is_a</text>
</g>
<!-- MOUSE -->
<g id="node23" class="node"><title>MOUSE</title>
<polygon fill="white" stroke="black" points="970,-119 916,-119 916,-83 970,-83 970,-119"/>
<text text-anchor="middle" x="943" y="-98.5" font-family="Times New Roman,serif" font-size="10.00">MOUSE</text>
</g>
<!-- MOUSE&#45;&gt;ANIMAL -->
<g id="edge22" class="edge"><title>MOUSE&#45;&gt;ANIMAL</title>
<path fill="none" stroke="black" d="M940.243,-119.178C938.537,-129.81 936.308,-143.694 934.366,-155.796"/>
<polygon fill="black" stroke="black" points="930.882,-155.418 932.753,-165.847 937.794,-156.528 930.882,-155.418"/>
<text text-anchor="middle" x="946.5" y="-140" font-family="Times New Roman,serif" font-size="10.00">is_a</text>
</g>
<!-- HUMAN -->
<g id="node24" class="node"><title>HUMAN</title>
<polygon fill="white" stroke="black" points="1102,-202 1048,-202 1048,-166 1102,-166 1102,-202"/>
<text text-anchor="middle" x="1075" y="-181.5" font-family="Times New Roman,serif" font-size="10.00">HUMAN</text>
</g>
<!-- HUMAN&#45;&gt;OBJECT -->
<g id="edge23" class="edge"><title>HUMAN&#45;&gt;OBJECT</title>
<path fill="none" stroke="black" d="M1054.62,-202.062C1042.92,-211.354 1027.67,-222.628 1013,-231 998.405,-239.331 981.438,-246.835 966.662,-252.738"/>
<polygon fill="black" stroke="black" points="965.363,-249.488 957.316,-256.379 967.904,-256.011 965.363,-249.488"/>
<text text-anchor="middle" x="1038.5" y="-223" font-family="Times New Roman,serif" font-size="10.00">is_a</text>
</g>
<!-- HUMAN&#45;&gt;ANIMATE -->
<g id="edge47" class="edge"><title>HUMAN&#45;&gt;ANIMATE</title>
<path fill="none" stroke="black" d="M1072.03,-202.178C1070.19,-212.81 1067.79,-226.694 1065.7,-238.796"/>
<polygon fill="black" stroke="black" points="1062.22,-238.397 1063.96,-248.847 1069.12,-239.589 1062.22,-238.397"/>
<text text-anchor="middle" x="1077.5" y="-223" font-family="Times New Roman,serif" font-size="10.00">is_a</text>
</g>
<!-- PEOPLE -->
<g id="node25" class="node"><title>PEOPLE</title>
<polygon fill="white" stroke="black" points="1186,-119 1132,-119 1132,-83 1186,-83 1186,-119"/>
<text text-anchor="middle" x="1159" y="-98.5" font-family="Times New Roman,serif" font-size="10.00">PEOPLE</text>
</g>
<!-- PEOPLE&#45;&gt;HUMAN -->
<g id="edge24" class="edge"><title>PEOPLE&#45;&gt;HUMAN</title>
<path fill="none" stroke="black" d="M1141.66,-119.11C1132.82,-127.799 1121.87,-138.5 1112,-148 1108.27,-151.587 1104.32,-155.362 1100.43,-159.052"/>
<polygon fill="black" stroke="black" points="1097.98,-156.554 1093.12,-165.971 1102.79,-161.636 1097.98,-156.554"/>
<text text-anchor="middle" x="1131.5" y="-140" font-family="Times New Roman,serif" font-size="10.00">is_a</text>
</g>
<!-- BOY -->
<g id="node26" class="node"><title>BOY</title>
<polygon fill="white" stroke="black" points="1114,-119 1060,-119 1060,-83 1114,-83 1114,-119"/>
<text text-anchor="middle" x="1087" y="-98.5" font-family="Times New Roman,serif" font-size="10.00">BOY</text>
</g>
<!-- BOY&#45;&gt;HUMAN -->
<g id="edge25" class="edge"><title>BOY&#45;&gt;HUMAN</title>
<path fill="none" stroke="black" d="M1089.63,-119.178C1090.49,-127.885 1090.81,-138.581 1089,-148 1088.47,-150.737 1087.73,-153.533 1086.87,-156.291"/>
<polygon fill="black" stroke="black" points="1083.48,-155.355 1083.33,-165.948 1090.05,-157.765 1083.48,-155.355"/>
<text text-anchor="middle" x="1099.5" y="-140" font-family="Times New Roman,serif" font-size="10.00">is_a</text>
</g>
<!-- MALE -->
<g id="node45" class="node"><title>MALE</title>
<polygon fill="white" stroke="black" points="1030,-202 976,-202 976,-166 1030,-166 1030,-202"/>
<text text-anchor="middle" x="1003" y="-181.5" font-family="Times New Roman,serif" font-size="10.00">MALE</text>
</g>
<!-- BOY&#45;&gt;MALE -->
<g id="edge49" class="edge"><title>BOY&#45;&gt;MALE</title>
<path fill="none" stroke="black" d="M1074.16,-119.419C1067.17,-128.387 1058.11,-139.245 1049,-148 1044.93,-151.911 1040.43,-155.793 1035.88,-159.47"/>
<polygon fill="black" stroke="black" points="1033.46,-156.919 1027.73,-165.829 1037.76,-162.438 1033.46,-156.919"/>
<text text-anchor="middle" x="1068.5" y="-140" font-family="Times New Roman,serif" font-size="10.00">is_a</text>
</g>
<!-- GIRL -->
<g id="node27" class="node"><title>GIRL</title>
<polygon fill="white" stroke="black" points="1271,-119 1217,-119 1217,-83 1271,-83 1271,-119"/>
<text text-anchor="middle" x="1244" y="-98.5" font-family="Times New Roman,serif" font-size="10.00">GIRL</text>
</g>
<!-- GIRL&#45;&gt;HUMAN -->
<g id="edge26" class="edge"><title>GIRL&#45;&gt;HUMAN</title>
<path fill="none" stroke="black" d="M1216.85,-115.014C1188.27,-128.712 1143.11,-150.354 1111.45,-165.531"/>
<polygon fill="black" stroke="black" points="1109.59,-162.54 1102.09,-170.018 1112.62,-168.852 1109.59,-162.54"/>
<text text-anchor="middle" x="1178.5" y="-140" font-family="Times New Roman,serif" font-size="10.00">is_a</text>
</g>
<!-- FEMALE -->
<g id="node33" class="node"><title>FEMALE</title>
<polygon fill="white" stroke="black" points="1678,-202 1624,-202 1624,-166 1678,-166 1678,-202"/>
<text text-anchor="middle" x="1651" y="-181.5" font-family="Times New Roman,serif" font-size="10.00">FEMALE</text>
</g>
<!-- GIRL&#45;&gt;FEMALE -->
<g id="edge33" class="edge"><title>GIRL&#45;&gt;FEMALE</title>
<path fill="none" stroke="black" d="M1244.17,-119.117C1245.24,-129.157 1248.43,-141.173 1257,-148 1286.45,-171.463 1545.61,-157.994 1614.02,-167.047"/>
<polygon fill="black" stroke="black" points="1613.43,-170.497 1623.89,-168.856 1614.69,-163.611 1613.43,-170.497"/>
<text text-anchor="middle" x="1265.5" y="-140" font-family="Times New Roman,serif" font-size="10.00">is_a</text>
</g>
<!-- WOMAN -->
<g id="node28" class="node"><title>WOMAN</title>
<polygon fill="white" stroke="black" points="1431,-119 1375,-119 1375,-83 1431,-83 1431,-119"/>
<text text-anchor="middle" x="1403" y="-98.5" font-family="Times New Roman,serif" font-size="10.00">WOMAN</text>
</g>
<!-- WOMAN&#45;&gt;HUMAN -->
<g id="edge27" class="edge"><title>WOMAN&#45;&gt;HUMAN</title>
<path fill="none" stroke="black" d="M1374.82,-114.64C1349.87,-125.273 1312.22,-139.987 1278,-148 1208.29,-164.321 1184.79,-147.298 1111.8,-166.377"/>
<polygon fill="black" stroke="black" points="1110.87,-163.003 1102.15,-169.029 1112.72,-169.752 1110.87,-163.003"/>
<text text-anchor="middle" x="1322.5" y="-140" font-family="Times New Roman,serif" font-size="10.00">is_a</text>
</g>
<!-- WOMAN&#45;&gt;FEMALE -->
<g id="edge34" class="edge"><title>WOMAN&#45;&gt;FEMALE</title>
<path fill="none" stroke="black" d="M1431.22,-109.093C1470.51,-119.272 1543.93,-139.399 1614.22,-165.963"/>
<polygon fill="black" stroke="black" points="1613.07,-169.273 1623.66,-169.58 1615.58,-162.736 1613.07,-169.273"/>
<text text-anchor="middle" x="1571.5" y="-140" font-family="Times New Roman,serif" font-size="10.00">is_a</text>
</g>
<!-- MAN -->
<g id="node29" class="node"><title>MAN</title>
<polygon fill="white" stroke="black" points="1042,-119 988,-119 988,-83 1042,-83 1042,-119"/>
<text text-anchor="middle" x="1015" y="-98.5" font-family="Times New Roman,serif" font-size="10.00">MAN</text>
</g>
<!-- MAN&#45;&gt;HUMAN -->
<g id="edge28" class="edge"><title>MAN&#45;&gt;HUMAN</title>
<path fill="none" stroke="black" d="M1019,-119.228C1021.68,-128.352 1025.86,-139.412 1032,-148 1034.79,-151.905 1038.13,-155.617 1041.69,-159.063"/>
<polygon fill="black" stroke="black" points="1039.42,-161.723 1049.22,-165.739 1044.06,-156.485 1039.42,-161.723"/>
<text text-anchor="middle" x="1040.5" y="-140" font-family="Times New Roman,serif" font-size="10.00">is_a</text>
</g>
<!-- MAN&#45;&gt;MALE -->
<g id="edge50" class="edge"><title>MAN&#45;&gt;MALE</title>
<path fill="none" stroke="black" d="M1000.9,-119.156C997.275,-124.544 993.876,-130.731 992,-137 990.191,-143.048 990.46,-149.611 991.723,-155.835"/>
<polygon fill="black" stroke="black" points="988.471,-157.193 994.594,-165.839 995.199,-155.262 988.471,-157.193"/>
<text text-anchor="middle" x="1000.5" y="-140" font-family="Times New Roman,serif" font-size="10.00">is_a</text>
</g>
<!-- PLACE -->
<g id="node30" class="node"><title>PLACE</title>
<polygon fill="white" stroke="black" points="812,-285 758,-285 758,-249 812,-249 812,-285"/>
<text text-anchor="middle" x="785" y="-264.5" font-family="Times New Roman,serif" font-size="10.00">PLACE</text>
</g>
<!-- PLACE&#45;&gt;ENTITY -->
<g id="edge29" class="edge"><title>PLACE&#45;&gt;ENTITY</title>
<path fill="none" stroke="black" d="M812.273,-283.235C835.362,-296.133 868.639,-314.722 893.927,-328.849"/>
<polygon fill="black" stroke="black" points="892.412,-332.011 902.849,-333.833 895.826,-325.9 892.412,-332.011"/>
<text text-anchor="middle" x="875.5" y="-306" font-family="Times New Roman,serif" font-size="10.00">is_a</text>
</g>
<!-- BOXINGRING -->
<g id="node31" class="node"><title>BOXINGRING</title>
<polygon fill="white" stroke="black" points="740,-202 666,-202 666,-166 740,-166 740,-202"/>
<text text-anchor="middle" x="703" y="-181.5" font-family="Times New Roman,serif" font-size="10.00">BOXINGRING</text>
</g>
<!-- BOXINGRING&#45;&gt;PLACE -->
<g id="edge30" class="edge"><title>BOXINGRING&#45;&gt;PLACE</title>
<path fill="none" stroke="black" d="M720.39,-202.178C732.023,-213.669 747.502,-228.959 760.393,-241.693"/>
<polygon fill="black" stroke="black" points="758.061,-244.309 767.635,-248.847 762.98,-239.329 758.061,-244.309"/>
<text text-anchor="middle" x="757.5" y="-223" font-family="Times New Roman,serif" font-size="10.00">is_a</text>
</g>
<!-- PARK -->
<g id="node32" class="node"><title>PARK</title>
<polygon fill="white" stroke="black" points="812,-202 758,-202 758,-166 812,-166 812,-202"/>
<text text-anchor="middle" x="785" y="-181.5" font-family="Times New Roman,serif" font-size="10.00">PARK</text>
</g>
<!-- PARK&#45;&gt;PLACE -->
<g id="edge31" class="edge"><title>PARK&#45;&gt;PLACE</title>
<path fill="none" stroke="black" d="M785,-202.178C785,-212.81 785,-226.694 785,-238.796"/>
<polygon fill="black" stroke="black" points="781.5,-238.847 785,-248.847 788.5,-238.847 781.5,-238.847"/>
<text text-anchor="middle" x="793.5" y="-223" font-family="Times New Roman,serif" font-size="10.00">is_a</text>
</g>
<!-- FEMALE&#45;&gt;CONCEPTUAL_KNOWLEDGE -->
<g id="edge32" class="edge"><title>FEMALE&#45;&gt;CONCEPTUAL_KNOWLEDGE</title>
<path fill="none" stroke="black" d="M1623.92,-199.091C1584.73,-219.248 1509.71,-256.971 1444,-285 1310.4,-341.983 1274.8,-351.097 1137,-397 1120.99,-402.332 1103.62,-407.976 1087.54,-413.139"/>
<polygon fill="black" stroke="black" points="1086.18,-409.9 1077.72,-416.284 1088.31,-416.567 1086.18,-409.9"/>
<text text-anchor="middle" x="1407.5" y="-306" font-family="Times New Roman,serif" font-size="10.00">is_a</text>
</g>
<!-- ACTION -->
<g id="node34" class="node"><title>ACTION</title>
<polygon fill="white" stroke="black" points="1212,-368 1158,-368 1158,-332 1212,-332 1212,-368"/>
<text text-anchor="middle" x="1185" y="-347.5" font-family="Times New Roman,serif" font-size="10.00">ACTION</text>
</g>
<!-- ACTION&#45;&gt;CONCEPTUAL_KNOWLEDGE -->
<g id="edge35" class="edge"><title>ACTION&#45;&gt;CONCEPTUAL_KNOWLEDGE</title>
<path fill="none" stroke="black" d="M1157.65,-365.109C1133.26,-377.692 1097.2,-396.296 1069.3,-410.692"/>
<polygon fill="black" stroke="black" points="1067.46,-407.702 1060.18,-415.398 1070.67,-413.923 1067.46,-407.702"/>
<text text-anchor="middle" x="1124.5" y="-389" font-family="Times New Roman,serif" font-size="10.00">is_a</text>
</g>
<!-- INTRANSITIVE -->
<g id="node35" class="node"><title>INTRANSITIVE</title>
<polygon fill="white" stroke="black" points="1225.5,-285 1144.5,-285 1144.5,-249 1225.5,-249 1225.5,-285"/>
<text text-anchor="middle" x="1185" y="-264.5" font-family="Times New Roman,serif" font-size="10.00">INTRANSITIVE</text>
</g>
<!-- INTRANSITIVE&#45;&gt;ACTION -->
<g id="edge36" class="edge"><title>INTRANSITIVE&#45;&gt;ACTION</title>
<path fill="none" stroke="black" d="M1185,-285.178C1185,-295.81 1185,-309.694 1185,-321.796"/>
<polygon fill="black" stroke="black" points="1181.5,-321.847 1185,-331.847 1188.5,-321.847 1181.5,-321.847"/>
<text text-anchor="middle" x="1193.5" y="-306" font-family="Times New Roman,serif" font-size="10.00">is_a</text>
</g>
<!-- WATCH -->
<g id="node36" class="node"><title>WATCH</title>
<polygon fill="white" stroke="black" points="1246,-202 1192,-202 1192,-166 1246,-166 1246,-202"/>
<text text-anchor="middle" x="1219" y="-181.5" font-family="Times New Roman,serif" font-size="10.00">WATCH</text>
</g>
<!-- WATCH&#45;&gt;INTRANSITIVE -->
<g id="edge37" class="edge"><title>WATCH&#45;&gt;INTRANSITIVE</title>
<path fill="none" stroke="black" d="M1211.79,-202.178C1207.24,-213.024 1201.26,-227.256 1196.11,-239.528"/>
<polygon fill="black" stroke="black" points="1192.84,-238.271 1192.2,-248.847 1199.3,-240.981 1192.84,-238.271"/>
<text text-anchor="middle" x="1213.5" y="-223" font-family="Times New Roman,serif" font-size="10.00">is_a</text>
</g>
<!-- LAUGH -->
<g id="node37" class="node"><title>LAUGH</title>
<polygon fill="white" stroke="black" points="1174,-202 1120,-202 1120,-166 1174,-166 1174,-202"/>
<text text-anchor="middle" x="1147" y="-181.5" font-family="Times New Roman,serif" font-size="10.00">LAUGH</text>
</g>
<!-- LAUGH&#45;&gt;INTRANSITIVE -->
<g id="edge38" class="edge"><title>LAUGH&#45;&gt;INTRANSITIVE</title>
<path fill="none" stroke="black" d="M1155.06,-202.178C1160.15,-213.024 1166.82,-227.256 1172.58,-239.528"/>
<polygon fill="black" stroke="black" points="1169.54,-241.28 1176.95,-248.847 1175.87,-238.307 1169.54,-241.28"/>
<text text-anchor="middle" x="1177.5" y="-223" font-family="Times New Roman,serif" font-size="10.00">is_a</text>
</g>
<!-- TRANSITIVE -->
<g id="node38" class="node"><title>TRANSITIVE</title>
<polygon fill="white" stroke="black" points="1434.5,-285 1363.5,-285 1363.5,-249 1434.5,-249 1434.5,-285"/>
<text text-anchor="middle" x="1399" y="-264.5" font-family="Times New Roman,serif" font-size="10.00">TRANSITIVE</text>
</g>
<!-- TRANSITIVE&#45;&gt;ACTION -->
<g id="edge39" class="edge"><title>TRANSITIVE&#45;&gt;ACTION</title>
<path fill="none" stroke="black" d="M1363.18,-281.558C1323.91,-296.421 1261.23,-320.145 1221.64,-335.131"/>
<polygon fill="black" stroke="black" points="1220.22,-331.929 1212.1,-338.742 1222.69,-338.475 1220.22,-331.929"/>
<text text-anchor="middle" x="1313.5" y="-306" font-family="Times New Roman,serif" font-size="10.00">is_a</text>
</g>
<!-- SQUIRT -->
<g id="node39" class="node"><title>SQUIRT</title>
<polygon fill="white" stroke="black" points="1318,-202 1264,-202 1264,-166 1318,-166 1318,-202"/>
<text text-anchor="middle" x="1291" y="-181.5" font-family="Times New Roman,serif" font-size="10.00">SQUIRT</text>
</g>
<!-- SQUIRT&#45;&gt;TRANSITIVE -->
<g id="edge40" class="edge"><title>SQUIRT&#45;&gt;TRANSITIVE</title>
<path fill="none" stroke="black" d="M1313.9,-202.178C1329.65,-213.991 1350.76,-229.82 1368.01,-242.758"/>
<polygon fill="black" stroke="black" points="1366.03,-245.647 1376.13,-248.847 1370.23,-240.047 1366.03,-245.647"/>
<text text-anchor="middle" x="1360.5" y="-223" font-family="Times New Roman,serif" font-size="10.00">is_a</text>
</g>
<!-- HIT -->
<g id="node40" class="node"><title>HIT</title>
<polygon fill="white" stroke="black" points="1390,-202 1336,-202 1336,-166 1390,-166 1390,-202"/>
<text text-anchor="middle" x="1363" y="-181.5" font-family="Times New Roman,serif" font-size="10.00">HIT</text>
</g>
<!-- HIT&#45;&gt;TRANSITIVE -->
<g id="edge41" class="edge"><title>HIT&#45;&gt;TRANSITIVE</title>
<path fill="none" stroke="black" d="M1370.63,-202.178C1375.46,-213.024 1381.78,-227.256 1387.23,-239.528"/>
<polygon fill="black" stroke="black" points="1384.12,-241.13 1391.38,-248.847 1390.51,-238.287 1384.12,-241.13"/>
<text text-anchor="middle" x="1392.5" y="-223" font-family="Times New Roman,serif" font-size="10.00">is_a</text>
</g>
<!-- KICK -->
<g id="node41" class="node"><title>KICK</title>
<polygon fill="white" stroke="black" points="1462,-202 1408,-202 1408,-166 1462,-166 1462,-202"/>
<text text-anchor="middle" x="1435" y="-181.5" font-family="Times New Roman,serif" font-size="10.00">KICK</text>
</g>
<!-- KICK&#45;&gt;TRANSITIVE -->
<g id="edge42" class="edge"><title>KICK&#45;&gt;TRANSITIVE</title>
<path fill="none" stroke="black" d="M1427.37,-202.178C1422.54,-213.024 1416.22,-227.256 1410.77,-239.528"/>
<polygon fill="black" stroke="black" points="1407.49,-238.287 1406.62,-248.847 1413.88,-241.13 1407.49,-238.287"/>
<text text-anchor="middle" x="1427.5" y="-223" font-family="Times New Roman,serif" font-size="10.00">is_a</text>
</g>
<!-- TALK -->
<g id="node42" class="node"><title>TALK</title>
<polygon fill="white" stroke="black" points="1534,-202 1480,-202 1480,-166 1534,-166 1534,-202"/>
<text text-anchor="middle" x="1507" y="-181.5" font-family="Times New Roman,serif" font-size="10.00">TALK</text>
</g>
<!-- TALK&#45;&gt;TRANSITIVE -->
<g id="edge43" class="edge"><title>TALK&#45;&gt;TRANSITIVE</title>
<path fill="none" stroke="black" d="M1484.1,-202.178C1468.35,-213.991 1447.24,-229.82 1429.99,-242.758"/>
<polygon fill="black" stroke="black" points="1427.77,-240.047 1421.87,-248.847 1431.97,-245.647 1427.77,-240.047"/>
<text text-anchor="middle" x="1467.5" y="-223" font-family="Times New Roman,serif" font-size="10.00">is_a</text>
</g>
<!-- WEAR -->
<g id="node43" class="node"><title>WEAR</title>
<polygon fill="white" stroke="black" points="1606,-202 1552,-202 1552,-166 1606,-166 1606,-202"/>
<text text-anchor="middle" x="1579" y="-181.5" font-family="Times New Roman,serif" font-size="10.00">WEAR</text>
</g>
<!-- WEAR&#45;&gt;TRANSITIVE -->
<g id="edge44" class="edge"><title>WEAR&#45;&gt;TRANSITIVE</title>
<path fill="none" stroke="black" d="M1551.89,-197.838C1548.89,-199.247 1545.88,-200.656 1543,-202 1515.06,-215.026 1508.15,-218.441 1480,-231 1468.3,-236.22 1455.6,-241.766 1443.8,-246.866"/>
<polygon fill="black" stroke="black" points="1442.36,-243.674 1434.56,-250.847 1445.13,-250.102 1442.36,-243.674"/>
<text text-anchor="middle" x="1512.5" y="-223" font-family="Times New Roman,serif" font-size="10.00">is_a</text>
</g>
<!-- ANIMATE&#45;&gt;CONCEPTUAL_KNOWLEDGE -->
<g id="edge45" class="edge"><title>ANIMATE&#45;&gt;CONCEPTUAL_KNOWLEDGE</title>
<path fill="none" stroke="black" d="M1057.53,-285.241C1051.8,-313.737 1040.3,-370.879 1033.46,-404.843"/>
<polygon fill="black" stroke="black" points="1029.96,-404.496 1031.42,-414.99 1036.83,-405.877 1029.96,-404.496"/>
<text text-anchor="middle" x="1056.5" y="-347.5" font-family="Times New Roman,serif" font-size="10.00">is_a</text>
</g>
<!-- MALE&#45;&gt;CONCEPTUAL_KNOWLEDGE -->
<g id="edge48" class="edge"><title>MALE&#45;&gt;CONCEPTUAL_KNOWLEDGE</title>
<path fill="none" stroke="black" d="M1004.76,-202.369C1009.05,-244.811 1020.11,-354.034 1025.27,-405.026"/>
<polygon fill="black" stroke="black" points="1021.79,-405.382 1026.28,-414.979 1028.75,-404.677 1021.79,-405.382"/>
<text text-anchor="middle" x="1024.5" y="-306" font-family="Times New Roman,serif" font-size="10.00">is_a</text>
</g>
</g>
</svg>
