<?xml version="1.0" encoding="UTF-8" standalone="no"?>
<!DOCTYPE svg PUBLIC "-//W3C//DTD SVG 1.1//EN"
 "http://www.w3.org/Graphics/SVG/1.1/DTD/svg11.dtd">
<!-- Generated by graphviz version 2.38.0 (20140413.2041)
 -->
<!-- Title: G Pages: 1 -->
<svg width="398pt" height="226pt"
 viewBox="0.00 0.00 397.81 226.00" xmlns="http://www.w3.org/2000/svg" xmlns:xlink="http://www.w3.org/1999/xlink">
<g id="graph0" class="graph" transform="scale(1 1) rotate(0) translate(4 222)">
<title>G</title>
<polygon fill="white" stroke="none" points="-4,4 -4,-222 393.811,-222 393.811,4 -4,4"/>
<g id="clust1" class="cluster"><title>cluster_SemFrame</title>
<polygon fill="lightcoral" stroke="black" points="8,-91 8,-210 267.811,-210 267.811,-91 8,-91"/>
<text text-anchor="middle" x="137.906" y="-194.8" font-family="consolas" font-size="14.00">SemFrame</text>
</g>
<g id="clust2" class="cluster"><title>cluster_SynForm</title>
<polygon fill="lightblue" stroke="black" points="188.435,-8 188.435,-83 381.811,-83 381.811,-8 188.435,-8"/>
<text text-anchor="middle" x="285.123" y="-67.8" font-family="consolas" font-size="14.00">SynForm</text>
</g>
<!-- OBJ -->
<g id="node1" class="node"><title>OBJ</title>
<ellipse fill="white" stroke="black" cx="223.435" cy="-136" rx="32.2669" ry="32.2669"/>
<ellipse fill="none" stroke="black" cx="223.435" cy="-136" rx="36.2533" ry="36.2533"/>
<text text-anchor="middle" x="223.435" y="-133.5" font-family="Times New Roman,serif" font-size="10.00">ENTITY+</text>
</g>
<!-- S2 -->
<g id="node4" class="node"><title>S2</title>
<polygon fill="white" stroke="black" points="373.811,-52 319.811,-52 319.811,-16 373.811,-16 373.811,-52"/>
<text text-anchor="middle" x="346.811" y="-31.5" font-family="Times New Roman,serif" font-size="10.00">[NP, N]</text>
</g>
<!-- OBJ&#45;&gt;S2 -->
<g id="edge3" class="edge"><title>OBJ&#45;&gt;S2</title>
<path fill="none" stroke="red" d="M251.977,-112.855C273.799,-94.5159 303.87,-69.2458 324.033,-52.3018"/>
</g>
<!-- ATTR -->
<g id="node2" class="node"><title>ATTR</title>
<ellipse fill="white" stroke="black" cx="56.0291" cy="-139" rx="40.0582" ry="40.0582"/>
<text text-anchor="middle" x="56.0291" y="-136.5" font-family="Times New Roman,serif" font-size="10.00">PROPERTY+</text>
</g>
<!-- ATTR&#45;&gt;OBJ -->
<g id="edge1" class="edge"><title>ATTR&#45;&gt;OBJ</title>
<path fill="none" stroke="black" d="M96.2279,-138.289C120.41,-137.85 151.528,-137.286 176.814,-136.827"/>
<polygon fill="black" stroke="black" points="176.965,-140.325 186.9,-136.644 176.838,-133.327 176.965,-140.325"/>
<text text-anchor="middle" x="141.558" y="-140.8" font-family="Times New Roman,serif" font-size="14.00">MODIFY</text>
</g>
<!-- S1 -->
<g id="node3" class="node"><title>S1</title>
<polygon fill="white" stroke="black" points="250.435,-52 196.435,-52 196.435,-16 250.435,-16 250.435,-52"/>
<text text-anchor="middle" x="223.435" y="-31.5" font-family="Times New Roman,serif" font-size="10.00">[A]</text>
</g>
<!-- ATTR&#45;&gt;S1 -->
<g id="edge4" class="edge"><title>ATTR&#45;&gt;S1</title>
<path fill="none" stroke="red" d="M90.5014,-117.752C121.747,-97.9167 167.734,-68.7244 196.343,-50.5633"/>
</g>
<!-- S1&#45;&gt;S2 -->
<g id="edge2" class="edge"><title>S1&#45;&gt;S2</title>
<path fill="none" stroke="black" d="M250.473,-34C267.635,-34 290.356,-34 309.312,-34"/>
<polygon fill="black" stroke="black" points="309.397,-37.5001 319.397,-34 309.397,-30.5001 309.397,-37.5001"/>
<text text-anchor="middle" x="289.811" y="-37.8" font-family="Times New Roman,serif" font-size="14.00">next</text>
</g>
</g>
</svg>
