<?xml version="1.0" encoding="UTF-8" standalone="no"?>
<!DOCTYPE svg PUBLIC "-//W3C//DTD SVG 1.1//EN"
 "http://www.w3.org/Graphics/SVG/1.1/DTD/svg11.dtd">
<!-- Generated by graphviz version 2.38.0 (20140413.2041)
 -->
<!-- Title: G Pages: 1 -->
<svg width="105pt" height="210pt"
 viewBox="0.00 0.00 104.51 210.00" xmlns="http://www.w3.org/2000/svg" xmlns:xlink="http://www.w3.org/1999/xlink">
<g id="graph0" class="graph" transform="scale(1 1) rotate(0) translate(4 206)">
<title>G</title>
<polygon fill="white" stroke="none" points="-4,4 -4,-206 100.512,-206 100.512,4 -4,4"/>
<g id="clust1" class="cluster"><title>cluster_SemFrame</title>
<polygon fill="lightcoral" stroke="black" points="8,-8 8,-111 88.5116,-111 88.5116,-8 8,-8"/>
<text text-anchor="middle" x="48.2558" y="-95.8" font-family="consolas" font-size="14.00">SemFrame</text>
</g>
<g id="clust2" class="cluster"><title>cluster_SynForm</title>
<polygon fill="lightblue" stroke="black" points="13.2558,-119 13.2558,-194 83.2558,-194 83.2558,-119 13.2558,-119"/>
<text text-anchor="middle" x="48.2558" y="-178.8" font-family="consolas" font-size="14.00">SynForm</text>
</g>
<!-- N1 -->
<g id="node1" class="node"><title>N1</title>
<ellipse fill="white" stroke="black" cx="48.2558" cy="-48" rx="28.0435" ry="28.0435"/>
<ellipse fill="none" stroke="black" cx="48.2558" cy="-48" rx="32.0135" ry="32.0135"/>
<text text-anchor="middle" x="48.2558" y="-45.5" font-family="Times New Roman,serif" font-size="10.00">BLACK</text>
</g>
<!-- S1 -->
<g id="node2" class="node"><title>S1</title>
<polygon fill="white" stroke="black" points="75.2558,-163 21.2558,-163 21.2558,-127 75.2558,-127 75.2558,-163"/>
<text text-anchor="middle" x="48.2558" y="-142.5" font-family="Times New Roman,serif" font-size="10.00">black</text>
</g>
</g>
</svg>
