<?xml version="1.0" encoding="UTF-8" standalone="no"?>
<!DOCTYPE svg PUBLIC "-//W3C//DTD SVG 1.1//EN"
 "http://www.w3.org/Graphics/SVG/1.1/DTD/svg11.dtd">
<!-- Generated by graphviz version 2.38.0 (20140413.2041)
 -->
<!-- Title: G Pages: 1 -->
<svg width="135pt" height="242pt"
 viewBox="0.00 0.00 135.12 242.00" xmlns="http://www.w3.org/2000/svg" xmlns:xlink="http://www.w3.org/1999/xlink">
<g id="graph0" class="graph" transform="scale(1 1) rotate(0) translate(4 238)">
<title>G</title>
<polygon fill="white" stroke="none" points="-4,4 -4,-238 131.122,-238 131.122,4 -4,4"/>
<g id="clust1" class="cluster"><title>cluster_SemFrame</title>
<polygon fill="lightcoral" stroke="black" points="8,-8 8,-143 119.122,-143 119.122,-8 8,-8"/>
<text text-anchor="middle" x="63.5611" y="-127.8" font-family="consolas" font-size="14.00">SemFrame</text>
</g>
<g id="clust2" class="cluster"><title>cluster_SynForm</title>
<polygon fill="lightblue" stroke="black" points="24.5611,-151 24.5611,-226 102.561,-226 102.561,-151 24.5611,-151"/>
<text text-anchor="middle" x="63.5611" y="-210.8" font-family="consolas" font-size="14.00">SynForm</text>
</g>
<!-- N1 -->
<g id="node1" class="node"><title>N1</title>
<ellipse fill="white" stroke="black" cx="63.5611" cy="-64" rx="43.6171" ry="43.6171"/>
<ellipse fill="none" stroke="black" cx="63.5611" cy="-64" rx="47.6222" ry="47.6222"/>
<text text-anchor="middle" x="63.5611" y="-61.5" font-family="Times New Roman,serif" font-size="10.00">BOXINGRING</text>
</g>
<!-- S1 -->
<g id="node2" class="node"><title>S1</title>
<polygon fill="white" stroke="black" points="94.5611,-195 32.5611,-195 32.5611,-159 94.5611,-159 94.5611,-195"/>
<text text-anchor="middle" x="63.5611" y="-174.5" font-family="Times New Roman,serif" font-size="10.00">boxing ring</text>
</g>
</g>
</svg>
