<?xml version="1.0" encoding="UTF-8" standalone="no"?>
<!DOCTYPE svg PUBLIC "-//W3C//DTD SVG 1.1//EN"
 "http://www.w3.org/Graphics/SVG/1.1/DTD/svg11.dtd">
<!-- Generated by graphviz version 2.38.0 (20140413.2041)
 -->
<!-- Title: G Pages: 1 -->
<svg width="542pt" height="222pt"
 viewBox="0.00 0.00 541.57 222.00" xmlns="http://www.w3.org/2000/svg" xmlns:xlink="http://www.w3.org/1999/xlink">
<g id="graph0" class="graph" transform="scale(1 1) rotate(0) translate(4 218)">
<title>G</title>
<polygon fill="white" stroke="none" points="-4,4 -4,-218 537.57,-218 537.57,4 -4,4"/>
<g id="clust1" class="cluster"><title>cluster_SemFrame</title>
<polygon fill="lightcoral" stroke="black" points="8,-91 8,-206 297.57,-206 297.57,-91 8,-91"/>
<text text-anchor="middle" x="152.785" y="-190.8" font-family="consolas" font-size="14.00">SemFrame</text>
</g>
<g id="clust2" class="cluster"><title>cluster_SynForm</title>
<polygon fill="lightblue" stroke="black" points="216.427,-8 216.427,-83 525.57,-83 525.57,-8 216.427,-8"/>
<text text-anchor="middle" x="370.999" y="-67.8" font-family="consolas" font-size="14.00">SynForm</text>
</g>
<!-- EVT1 -->
<g id="node1" class="node"><title>EVT1</title>
<ellipse fill="white" stroke="black" cx="54.1425" cy="-137" rx="34.2704" ry="34.2704"/>
<ellipse fill="none" stroke="black" cx="54.1425" cy="-137" rx="38.2854" ry="38.2854"/>
<text text-anchor="middle" x="54.1425" y="-134.5" font-family="Times New Roman,serif" font-size="10.00">ACTION+</text>
</g>
<!-- EVT2 -->
<g id="node2" class="node"><title>EVT2</title>
<ellipse fill="white" stroke="black" cx="251.427" cy="-137" rx="34.2704" ry="34.2704"/>
<ellipse fill="none" stroke="black" cx="251.427" cy="-137" rx="38.2854" ry="38.2854"/>
<text text-anchor="middle" x="251.427" y="-134.5" font-family="Times New Roman,serif" font-size="10.00">ACTION+</text>
</g>
<!-- EVT1&#45;&gt;EVT2 -->
<g id="edge1" class="edge"><title>EVT1&#45;&gt;EVT2</title>
<path fill="none" stroke="black" d="M92.3337,-137C123.724,-137 168.857,-137 202.871,-137"/>
<polygon fill="black" stroke="black" points="203.043,-140.5 213.042,-137 203.042,-133.5 203.043,-140.5"/>
<text text-anchor="middle" x="152.785" y="-140.8" font-family="Times New Roman,serif" font-size="14.00">SUCCESSIVE</text>
</g>
<!-- S1 -->
<g id="node3" class="node"><title>S1</title>
<polygon fill="white" stroke="black" points="278.427,-52 224.427,-52 224.427,-16 278.427,-16 278.427,-52"/>
<text text-anchor="middle" x="251.427" y="-31.5" font-family="Times New Roman,serif" font-size="10.00">[S]</text>
</g>
<!-- EVT1&#45;&gt;S1 -->
<g id="edge4" class="edge"><title>EVT1&#45;&gt;S1</title>
<path fill="none" stroke="red" d="M88.2699,-119.527C126.683,-99.2669 189.209,-66.2887 224.339,-47.76"/>
</g>
<!-- S3 -->
<g id="node5" class="node"><title>S3</title>
<polygon fill="white" stroke="black" points="517.57,-52 463.57,-52 463.57,-16 517.57,-16 517.57,-52"/>
<text text-anchor="middle" x="490.57" y="-31.5" font-family="Times New Roman,serif" font-size="10.00">[S]</text>
</g>
<!-- EVT2&#45;&gt;S3 -->
<g id="edge5" class="edge"><title>EVT2&#45;&gt;S3</title>
<path fill="none" stroke="red" d="M286.657,-122.133C334.5,-101.353 420.327,-64.0748 463.402,-45.3655"/>
</g>
<!-- S2 -->
<g id="node4" class="node"><title>S2</title>
<polygon fill="white" stroke="black" points="403.57,-52 349.57,-52 349.57,-16 403.57,-16 403.57,-52"/>
<text text-anchor="middle" x="376.57" y="-31.5" font-family="Times New Roman,serif" font-size="10.00">and</text>
</g>
<!-- S1&#45;&gt;S2 -->
<g id="edge2" class="edge"><title>S1&#45;&gt;S2</title>
<path fill="none" stroke="black" d="M278.543,-34C296.257,-34 319.91,-34 339.428,-34"/>
<polygon fill="black" stroke="black" points="339.492,-37.5001 349.492,-34 339.492,-30.5001 339.492,-37.5001"/>
<text text-anchor="middle" x="319.57" y="-37.8" font-family="Times New Roman,serif" font-size="14.00">next</text>
</g>
<!-- S2&#45;&gt;S3 -->
<g id="edge3" class="edge"><title>S2&#45;&gt;S3</title>
<path fill="none" stroke="black" d="M403.829,-34C418.573,-34 437.193,-34 453.311,-34"/>
<polygon fill="black" stroke="black" points="453.475,-37.5001 463.475,-34 453.475,-30.5001 453.475,-37.5001"/>
<text text-anchor="middle" x="433.57" y="-37.8" font-family="Times New Roman,serif" font-size="14.00">next</text>
</g>
</g>
</svg>
