<?xml version="1.0" encoding="UTF-8" standalone="no"?>
<!DOCTYPE svg PUBLIC "-//W3C//DTD SVG 1.1//EN"
 "http://www.w3.org/Graphics/SVG/1.1/DTD/svg11.dtd">
<!-- Generated by graphviz version 2.38.0 (20140413.2041)
 -->
<!-- Title: G Pages: 1 -->
<svg width="94pt" height="198pt"
 viewBox="0.00 0.00 94.00 198.00" xmlns="http://www.w3.org/2000/svg" xmlns:xlink="http://www.w3.org/1999/xlink">
<g id="graph0" class="graph" transform="scale(1 1) rotate(0) translate(4 194)">
<title>G</title>
<polygon fill="white" stroke="none" points="-4,4 -4,-194 90,-194 90,4 -4,4"/>
<g id="clust1" class="cluster"><title>cluster_SemFrame</title>
<polygon fill="lightcoral" stroke="black" points="5.21947,-8 5.21947,-99 81.7805,-99 81.7805,-8 5.21947,-8"/>
<text text-anchor="middle" x="43.5" y="-83.8" font-family="consolas" font-size="14.00">SemFrame</text>
</g>
<g id="clust2" class="cluster"><title>cluster_SynForm</title>
<polygon fill="lightblue" stroke="black" points="8,-107 8,-182 78,-182 78,-107 8,-107"/>
<text text-anchor="middle" x="43" y="-166.8" font-family="consolas" font-size="14.00">SynForm</text>
</g>
<!-- N1 -->
<g id="node1" class="node"><title>N1</title>
<ellipse fill="white" stroke="black" cx="43" cy="-42" rx="21.5967" ry="21.5967"/>
<ellipse fill="none" stroke="black" cx="43" cy="-42" rx="25.5629" ry="25.5629"/>
<text text-anchor="middle" x="43" y="-39.5" font-family="Times New Roman,serif" font-size="10.00">GIRL</text>
</g>
<!-- S1 -->
<g id="node2" class="node"><title>S1</title>
<polygon fill="white" stroke="black" points="70,-151 16,-151 16,-115 70,-115 70,-151"/>
<text text-anchor="middle" x="43" y="-130.5" font-family="Times New Roman,serif" font-size="10.00">girl</text>
</g>
</g>
</svg>
