<?xml version="1.0" encoding="UTF-8" standalone="no"?>
<!DOCTYPE svg PUBLIC "-//W3C//DTD SVG 1.1//EN"
 "http://www.w3.org/Graphics/SVG/1.1/DTD/svg11.dtd">
<!-- Generated by graphviz version 2.38.0 (20140413.2041)
 -->
<!-- Title: G Pages: 1 -->
<svg width="596pt" height="251pt"
 viewBox="0.00 0.00 596.46 251.00" xmlns="http://www.w3.org/2000/svg" xmlns:xlink="http://www.w3.org/1999/xlink">
<g id="graph0" class="graph" transform="scale(1 1) rotate(0) translate(4 247)">
<title>G</title>
<polygon fill="white" stroke="none" points="-4,4 -4,-247 592.456,-247 592.456,4 -4,4"/>
<g id="clust1" class="cluster"><title>cluster_SemFrame</title>
<polygon fill="lightcoral" stroke="black" points="8,-20 8,-235 261.456,-235 261.456,-20 8,-20"/>
<text text-anchor="middle" x="134.728" y="-219.8" font-family="consolas" font-size="14.00">SemFrame</text>
</g>
<g id="clust2" class="cluster"><title>cluster_SynForm</title>
<polygon fill="lightblue" stroke="black" points="282.456,-50 282.456,-125 580.456,-125 580.456,-50 282.456,-50"/>
<text text-anchor="middle" x="431.456" y="-109.8" font-family="consolas" font-size="14.00">SynForm</text>
</g>
<!-- HUMAN -->
<g id="node1" class="node"><title>HUMAN</title>
<ellipse fill="white" stroke="black" cx="213.427" cy="-165" rx="34.9396" ry="34.9396"/>
<ellipse fill="none" stroke="black" cx="213.427" cy="-165" rx="38.9636" ry="38.9636"/>
<text text-anchor="middle" x="213.427" y="-162.5" font-family="Times New Roman,serif" font-size="10.00">HUMAN+</text>
</g>
<!-- S1 -->
<g id="node5" class="node"><title>S1</title>
<polygon fill="white" stroke="black" points="344.456,-94 290.456,-94 290.456,-58 344.456,-58 344.456,-94"/>
<text text-anchor="middle" x="317.456" y="-73.5" font-family="Times New Roman,serif" font-size="10.00">[NP, N]</text>
</g>
<!-- HUMAN&#45;&gt;S1 -->
<g id="edge7" class="edge"><title>HUMAN&#45;&gt;S1</title>
<path fill="none" stroke="red" d="M243.12,-139.972C259.859,-125.37 280.592,-107.284 295.738,-94.0725"/>
</g>
<!-- WEAR -->
<g id="node2" class="node"><title>WEAR</title>
<ellipse fill="white" stroke="black" cx="47.1991" cy="-151" rx="26.4797" ry="26.4797"/>
<text text-anchor="middle" x="47.1991" y="-148.5" font-family="Times New Roman,serif" font-size="10.00">WEAR</text>
</g>
<!-- WEAR&#45;&gt;HUMAN -->
<g id="edge1" class="edge"><title>WEAR&#45;&gt;HUMAN</title>
<path fill="none" stroke="black" d="M73.8598,-153.188C98.0694,-155.251 134.968,-158.397 164.603,-160.923"/>
<polygon fill="black" stroke="black" points="164.489,-164.426 174.75,-161.788 165.084,-157.451 164.489,-164.426"/>
<text text-anchor="middle" x="125.898" y="-163.8" font-family="Times New Roman,serif" font-size="14.00">AGENT</text>
</g>
<!-- CLOTH -->
<g id="node3" class="node"><title>CLOTH</title>
<ellipse fill="white" stroke="black" cx="213.427" cy="-68" rx="40.0582" ry="40.0582"/>
<text text-anchor="middle" x="213.427" y="-65.5" font-family="Times New Roman,serif" font-size="10.00">CLOTHING+</text>
</g>
<!-- WEAR&#45;&gt;CLOTH -->
<g id="edge2" class="edge"><title>WEAR&#45;&gt;CLOTH</title>
<path fill="none" stroke="black" d="M71.3807,-139.284C96.4884,-126.595 137.133,-106.053 168.356,-90.2733"/>
<polygon fill="black" stroke="black" points="169.957,-93.3859 177.303,-85.7515 166.8,-87.1384 169.957,-93.3859"/>
<text text-anchor="middle" x="125.898" y="-129.8" font-family="Times New Roman,serif" font-size="14.00">PATIENT</text>
</g>
<!-- COLOR -->
<g id="node4" class="node"><title>COLOR</title>
<ellipse fill="white" stroke="black" cx="47.1991" cy="-63" rx="31.3996" ry="31.3996"/>
<text text-anchor="middle" x="47.1991" y="-60.5" font-family="Times New Roman,serif" font-size="10.00">COLOR+</text>
</g>
<!-- COLOR&#45;&gt;CLOTH -->
<g id="edge3" class="edge"><title>COLOR&#45;&gt;CLOTH</title>
<path fill="none" stroke="black" d="M78.7043,-63.9287C102.393,-64.65 135.719,-65.6646 163.174,-66.5005"/>
<polygon fill="black" stroke="black" points="163.275,-70.0051 173.377,-66.8111 163.489,-63.0083 163.275,-70.0051"/>
<text text-anchor="middle" x="125.898" y="-70.8" font-family="Times New Roman,serif" font-size="14.00">MODIFY</text>
</g>
<!-- S3 -->
<g id="node7" class="node"><title>S3</title>
<polygon fill="white" stroke="black" points="572.456,-94 518.456,-94 518.456,-58 572.456,-58 572.456,-94"/>
<text text-anchor="middle" x="545.456" y="-73.5" font-family="Times New Roman,serif" font-size="10.00">[A]</text>
</g>
<!-- COLOR&#45;&gt;S3 -->
<g id="edge6" class="edge"><title>COLOR&#45;&gt;S3</title>
<path fill="none" stroke="red" d="M73.772,-46.4475C105.126,-27.7817 160.513,-0 212.427,-0 212.427,-0 212.427,-0 432.456,-0 473.579,-0 510.817,-35.5148 530.265,-57.9891"/>
</g>
<!-- S2 -->
<g id="node6" class="node"><title>S2</title>
<polygon fill="white" stroke="black" points="458.456,-94 404.456,-94 404.456,-58 458.456,-58 458.456,-94"/>
<text text-anchor="middle" x="431.456" y="-73.5" font-family="Times New Roman,serif" font-size="10.00">in</text>
</g>
<!-- S1&#45;&gt;S2 -->
<g id="edge4" class="edge"><title>S1&#45;&gt;S2</title>
<path fill="none" stroke="black" d="M344.715,-76C359.46,-76 378.08,-76 394.197,-76"/>
<polygon fill="black" stroke="black" points="394.362,-79.5001 404.362,-76 394.362,-72.5001 394.362,-79.5001"/>
<text text-anchor="middle" x="374.456" y="-79.8" font-family="Times New Roman,serif" font-size="14.00">next</text>
</g>
<!-- S2&#45;&gt;S3 -->
<g id="edge5" class="edge"><title>S2&#45;&gt;S3</title>
<path fill="none" stroke="black" d="M458.715,-76C473.46,-76 492.08,-76 508.197,-76"/>
<polygon fill="black" stroke="black" points="508.362,-79.5001 518.362,-76 508.362,-72.5001 508.362,-79.5001"/>
<text text-anchor="middle" x="488.456" y="-79.8" font-family="Times New Roman,serif" font-size="14.00">next</text>
</g>
</g>
</svg>
