<?xml version="1.0" encoding="UTF-8" standalone="no"?>
<!DOCTYPE svg PUBLIC "-//W3C//DTD SVG 1.1//EN"
 "http://www.w3.org/Graphics/SVG/1.1/DTD/svg11.dtd">
<!-- Generated by graphviz version 2.38.0 (20140413.2041)
 -->
<!-- Title: G Pages: 1 -->
<svg width="591pt" height="143pt"
 viewBox="0.00 0.00 591.04 143.00" xmlns="http://www.w3.org/2000/svg" xmlns:xlink="http://www.w3.org/1999/xlink">
<g id="graph0" class="graph" transform="scale(1 1) rotate(0) translate(4 139)">
<title>G</title>
<polygon fill="white" stroke="none" points="-4,4 -4,-139 587.038,-139 587.038,4 -4,4"/>
<g id="clust1" class="cluster"><title>cluster_SemFrame</title>
<polygon fill="lightcoral" stroke="black" points="8,-8 8,-127 256.038,-127 256.038,-8 8,-8"/>
<text text-anchor="middle" x="132.019" y="-111.8" font-family="consolas" font-size="14.00">SemFrame</text>
</g>
<g id="clust2" class="cluster"><title>cluster_SynForm</title>
<polygon fill="lightblue" stroke="black" points="277.038,-28 277.038,-103 575.038,-103 575.038,-28 277.038,-28"/>
<text text-anchor="middle" x="426.038" y="-87.8" font-family="consolas" font-size="14.00">SynForm</text>
</g>
<!-- OBJ -->
<g id="node1" class="node"><title>OBJ</title>
<ellipse fill="white" stroke="black" cx="217.548" cy="-63" rx="26.481" ry="26.481"/>
<ellipse fill="none" stroke="black" cx="217.548" cy="-63" rx="30.4797" ry="30.4797"/>
<text text-anchor="middle" x="217.548" y="-60.5" font-family="Times New Roman,serif" font-size="10.00">ITEM+</text>
</g>
<!-- S1 -->
<g id="node3" class="node"><title>S1</title>
<polygon fill="white" stroke="black" points="339.038,-72 285.038,-72 285.038,-36 339.038,-36 339.038,-72"/>
<text text-anchor="middle" x="312.038" y="-51.5" font-family="Times New Roman,serif" font-size="10.00">[NP, N]</text>
</g>
<!-- OBJ&#45;&gt;S1 -->
<g id="edge4" class="edge"><title>OBJ&#45;&gt;S1</title>
<path fill="none" stroke="red" d="M248.067,-60.1276C259.909,-58.9753 273.442,-57.6584 284.92,-56.5415"/>
</g>
<!-- ATTR -->
<g id="node2" class="node"><title>ATTR</title>
<ellipse fill="white" stroke="black" cx="56.0291" cy="-56" rx="40.0582" ry="40.0582"/>
<text text-anchor="middle" x="56.0291" y="-53.5" font-family="Times New Roman,serif" font-size="10.00">PROPERTY+</text>
</g>
<!-- ATTR&#45;&gt;OBJ -->
<g id="edge1" class="edge"><title>ATTR&#45;&gt;OBJ</title>
<path fill="none" stroke="black" d="M96.0518,-57.7124C120.587,-58.789 152.152,-60.1742 176.82,-61.2567"/>
<polygon fill="black" stroke="black" points="176.785,-64.7584 186.929,-61.7003 177.092,-57.7651 176.785,-64.7584"/>
<text text-anchor="middle" x="141.558" y="-63.8" font-family="Times New Roman,serif" font-size="14.00">MODIFY</text>
</g>
<!-- S3 -->
<g id="node5" class="node"><title>S3</title>
<polygon fill="white" stroke="black" points="567.038,-72 513.038,-72 513.038,-36 567.038,-36 567.038,-72"/>
<text text-anchor="middle" x="540.038" y="-51.5" font-family="Times New Roman,serif" font-size="10.00">[A]</text>
</g>
<!-- ATTR&#45;&gt;S3 -->
<g id="edge5" class="edge"><title>ATTR&#45;&gt;S3</title>
<path fill="none" stroke="red" d="M91.805,-38.0193C123.457,-23.3361 171.918,-5 216.548,-5 216.548,-5 216.548,-5 427.038,-5 458.874,-5 491.854,-21.8228 513.708,-35.7542"/>
</g>
<!-- S2 -->
<g id="node4" class="node"><title>S2</title>
<polygon fill="white" stroke="black" points="453.038,-72 399.038,-72 399.038,-36 453.038,-36 453.038,-72"/>
<text text-anchor="middle" x="426.038" y="-51.5" font-family="Times New Roman,serif" font-size="10.00">which is</text>
</g>
<!-- S1&#45;&gt;S2 -->
<g id="edge2" class="edge"><title>S1&#45;&gt;S2</title>
<path fill="none" stroke="black" d="M339.297,-54C354.041,-54 372.661,-54 388.779,-54"/>
<polygon fill="black" stroke="black" points="388.943,-57.5001 398.943,-54 388.943,-50.5001 388.943,-57.5001"/>
<text text-anchor="middle" x="369.038" y="-57.8" font-family="Times New Roman,serif" font-size="14.00">next</text>
</g>
<!-- S2&#45;&gt;S3 -->
<g id="edge3" class="edge"><title>S2&#45;&gt;S3</title>
<path fill="none" stroke="black" d="M453.297,-54C468.041,-54 486.661,-54 502.779,-54"/>
<polygon fill="black" stroke="black" points="502.943,-57.5001 512.943,-54 502.943,-50.5001 502.943,-57.5001"/>
<text text-anchor="middle" x="483.038" y="-57.8" font-family="Times New Roman,serif" font-size="14.00">next</text>
</g>
</g>
</svg>
