<?xml version="1.0" encoding="UTF-8" standalone="no"?>
<!DOCTYPE svg PUBLIC "-//W3C//DTD SVG 1.1//EN"
 "http://www.w3.org/Graphics/SVG/1.1/DTD/svg11.dtd">
<!-- Generated by graphviz version 2.38.0 (20140413.2041)
 -->
<!-- Title: G Pages: 1 -->
<svg width="837pt" height="235pt"
 viewBox="0.00 0.00 836.75 235.00" xmlns="http://www.w3.org/2000/svg" xmlns:xlink="http://www.w3.org/1999/xlink">
<g id="graph0" class="graph" transform="scale(1 1) rotate(0) translate(4 231)">
<title>G</title>
<polygon fill="white" stroke="none" points="-4,4 -4,-231 832.747,-231 832.747,4 -4,4"/>
<g id="clust1" class="cluster"><title>cluster_SemFrame</title>
<polygon fill="lightcoral" stroke="black" points="8,-20 8,-219 264.747,-219 264.747,-20 8,-20"/>
<text text-anchor="middle" x="136.374" y="-203.8" font-family="consolas" font-size="14.00">SemFrame</text>
</g>
<g id="clust2" class="cluster"><title>cluster_SynForm</title>
<polygon fill="lightblue" stroke="black" points="285.747,-41 285.747,-116 820.747,-116 820.747,-41 285.747,-41"/>
<text text-anchor="middle" x="553.247" y="-100.8" font-family="consolas" font-size="14.00">SynForm</text>
</g>
<!-- SUBJ -->
<g id="node1" class="node"><title>SUBJ</title>
<ellipse fill="white" stroke="black" cx="218.016" cy="-156" rx="32.2534" ry="32.2534"/>
<text text-anchor="middle" x="218.016" y="-153.5" font-family="Times New Roman,serif" font-size="10.00">ENTITY+</text>
</g>
<!-- S5 -->
<g id="node8" class="node"><title>S5</title>
<polygon fill="white" stroke="black" points="812.747,-85 749.747,-85 749.747,-49 812.747,-49 812.747,-85"/>
<text text-anchor="middle" x="781.247" y="-64.5" font-family="Times New Roman,serif" font-size="10.00">[NC, NP, N]</text>
</g>
<!-- SUBJ&#45;&gt;S5 -->
<g id="edge8" class="edge"><title>SUBJ&#45;&gt;S5</title>
<path fill="none" stroke="red" d="M249.058,-145.901C268.891,-140.118 295.582,-134 319.747,-134 319.747,-134 319.747,-134 663.747,-134 702.945,-134 740.868,-105.146 762.308,-85.308"/>
</g>
<!-- OBJ -->
<g id="node2" class="node"><title>OBJ</title>
<ellipse fill="white" stroke="black" cx="218.016" cy="-67" rx="34.9396" ry="34.9396"/>
<ellipse fill="none" stroke="black" cx="218.016" cy="-67" rx="38.9636" ry="38.9636"/>
<text text-anchor="middle" x="218.016" y="-64.5" font-family="Times New Roman,serif" font-size="10.00">HUMAN+</text>
</g>
<!-- S1 -->
<g id="node4" class="node"><title>S1</title>
<polygon fill="white" stroke="black" points="347.747,-85 293.747,-85 293.747,-49 347.747,-49 347.747,-85"/>
<text text-anchor="middle" x="320.747" y="-64.5" font-family="Times New Roman,serif" font-size="10.00">[NP, N]</text>
</g>
<!-- OBJ&#45;&gt;S1 -->
<g id="edge9" class="edge"><title>OBJ&#45;&gt;S1</title>
<path fill="none" stroke="red" d="M256.811,-67C269.093,-67 282.44,-67 293.669,-67"/>
</g>
<!-- ACTION -->
<g id="node3" class="node"><title>ACTION</title>
<ellipse fill="white" stroke="black" cx="50.1425" cy="-67" rx="34.2855" ry="34.2855"/>
<text text-anchor="middle" x="50.1425" y="-64.5" font-family="Times New Roman,serif" font-size="10.00">ACTION+</text>
</g>
<!-- ACTION&#45;&gt;SUBJ -->
<g id="edge1" class="edge"><title>ACTION&#45;&gt;SUBJ</title>
<path fill="none" stroke="black" d="M80.7973,-82.9114C108.581,-97.819 150.2,-120.15 180.118,-136.202"/>
<polygon fill="black" stroke="black" points="178.533,-139.324 189,-140.968 181.843,-133.156 178.533,-139.324"/>
<text text-anchor="middle" x="131.785" y="-127.8" font-family="Times New Roman,serif" font-size="14.00">AGENT</text>
</g>
<!-- ACTION&#45;&gt;OBJ -->
<g id="edge2" class="edge"><title>ACTION&#45;&gt;OBJ</title>
<path fill="none" stroke="black" d="M84.3108,-67C108.622,-67 141.988,-67 169.18,-67"/>
<polygon fill="black" stroke="black" points="169.268,-70.5001 179.268,-67 169.268,-63.5001 169.268,-70.5001"/>
<text text-anchor="middle" x="131.785" y="-70.8" font-family="Times New Roman,serif" font-size="14.00">PATIENT</text>
</g>
<!-- S3 -->
<g id="node6" class="node"><title>S3</title>
<polygon fill="white" stroke="black" points="575.747,-85 521.747,-85 521.747,-49 575.747,-49 575.747,-85"/>
<text text-anchor="middle" x="548.747" y="-64.5" font-family="Times New Roman,serif" font-size="10.00">[VP, V]</text>
</g>
<!-- ACTION&#45;&gt;S3 -->
<g id="edge7" class="edge"><title>ACTION&#45;&gt;S3</title>
<path fill="none" stroke="red" d="M78.8273,-48.1585C110.693,-28.3415 165.304,-0 217.016,-0 217.016,-0 217.016,-0 435.747,-0 473.813,-0 510.152,-28.8545 530.637,-48.692"/>
</g>
<!-- S2 -->
<g id="node5" class="node"><title>S2</title>
<polygon fill="white" stroke="black" points="461.747,-85 407.747,-85 407.747,-49 461.747,-49 461.747,-85"/>
<text text-anchor="middle" x="434.747" y="-64.5" font-family="Times New Roman,serif" font-size="10.00">who is</text>
</g>
<!-- S1&#45;&gt;S2 -->
<g id="edge3" class="edge"><title>S1&#45;&gt;S2</title>
<path fill="none" stroke="black" d="M348.006,-67C362.751,-67 381.37,-67 397.488,-67"/>
<polygon fill="black" stroke="black" points="397.653,-70.5001 407.653,-67 397.653,-63.5001 397.653,-70.5001"/>
<text text-anchor="middle" x="377.747" y="-70.8" font-family="Times New Roman,serif" font-size="14.00">next</text>
</g>
<!-- S2&#45;&gt;S3 -->
<g id="edge4" class="edge"><title>S2&#45;&gt;S3</title>
<path fill="none" stroke="black" d="M462.006,-67C476.751,-67 495.37,-67 511.488,-67"/>
<polygon fill="black" stroke="black" points="511.653,-70.5001 521.653,-67 511.653,-63.5001 511.653,-70.5001"/>
<text text-anchor="middle" x="491.747" y="-70.8" font-family="Times New Roman,serif" font-size="14.00">next</text>
</g>
<!-- S4 -->
<g id="node7" class="node"><title>S4</title>
<polygon fill="white" stroke="black" points="689.747,-85 635.747,-85 635.747,-49 689.747,-49 689.747,-85"/>
<text text-anchor="middle" x="662.747" y="-64.5" font-family="Times New Roman,serif" font-size="10.00">&#45;ed by</text>
</g>
<!-- S3&#45;&gt;S4 -->
<g id="edge5" class="edge"><title>S3&#45;&gt;S4</title>
<path fill="none" stroke="black" d="M576.006,-67C590.751,-67 609.37,-67 625.488,-67"/>
<polygon fill="black" stroke="black" points="625.653,-70.5001 635.653,-67 625.653,-63.5001 625.653,-70.5001"/>
<text text-anchor="middle" x="605.747" y="-70.8" font-family="Times New Roman,serif" font-size="14.00">next</text>
</g>
<!-- S4&#45;&gt;S5 -->
<g id="edge6" class="edge"><title>S4&#45;&gt;S5</title>
<path fill="none" stroke="black" d="M689.892,-67C704.42,-67 722.824,-67 739.225,-67"/>
<polygon fill="black" stroke="black" points="739.652,-70.5001 749.652,-67 739.652,-63.5001 739.652,-70.5001"/>
<text text-anchor="middle" x="719.747" y="-70.8" font-family="Times New Roman,serif" font-size="14.00">next</text>
</g>
</g>
</svg>
