<?xml version="1.0" encoding="UTF-8" standalone="no"?>
<!DOCTYPE svg PUBLIC "-//W3C//DTD SVG 1.1//EN"
 "http://www.w3.org/Graphics/SVG/1.1/DTD/svg11.dtd">
<!-- Generated by graphviz version 2.38.0 (20140413.2041)
 -->
<!-- Title: G Pages: 1 -->
<svg width="605pt" height="165pt"
 viewBox="0.00 0.00 605.23 165.00" xmlns="http://www.w3.org/2000/svg" xmlns:xlink="http://www.w3.org/1999/xlink">
<g id="graph0" class="graph" transform="scale(1 1) rotate(0) translate(4 161)">
<title>G</title>
<polygon fill="white" stroke="none" points="-4,4 -4,-161 601.23,-161 601.23,4 -4,4"/>
<g id="clust1" class="cluster"><title>cluster_SemFrame</title>
<polygon fill="lightcoral" stroke="black" points="8,-8 8,-149 270.23,-149 270.23,-8 8,-8"/>
<text text-anchor="middle" x="139.115" y="-133.8" font-family="consolas" font-size="14.00">SemFrame</text>
</g>
<g id="clust2" class="cluster"><title>cluster_SynForm</title>
<polygon fill="lightblue" stroke="black" points="291.23,-47 291.23,-122 589.23,-122 589.23,-47 291.23,-47"/>
<text text-anchor="middle" x="440.23" y="-106.8" font-family="consolas" font-size="14.00">SynForm</text>
</g>
<!-- SUBJ -->
<g id="node1" class="node"><title>SUBJ</title>
<ellipse fill="white" stroke="black" cx="231.74" cy="-82" rx="26.481" ry="26.481"/>
<ellipse fill="none" stroke="black" cx="231.74" cy="-82" rx="30.4797" ry="30.4797"/>
<text text-anchor="middle" x="231.74" y="-79.5" font-family="Times New Roman,serif" font-size="10.00">ITEM+</text>
</g>
<!-- S1 -->
<g id="node3" class="node"><title>S1</title>
<polygon fill="white" stroke="black" points="353.23,-91 299.23,-91 299.23,-55 353.23,-55 353.23,-91"/>
<text text-anchor="middle" x="326.23" y="-70.5" font-family="Times New Roman,serif" font-size="10.00">[NP, N]</text>
</g>
<!-- SUBJ&#45;&gt;S1 -->
<g id="edge5" class="edge"><title>SUBJ&#45;&gt;S1</title>
<path fill="none" stroke="red" d="M262.259,-79.1276C274.101,-77.9753 287.634,-76.6584 299.112,-75.5415"/>
</g>
<!-- ACTION -->
<g id="node2" class="node"><title>ACTION</title>
<ellipse fill="white" stroke="black" cx="66.625" cy="-67" rx="50.7503" ry="50.7503"/>
<text text-anchor="middle" x="66.625" y="-64.5" font-family="Times New Roman,serif" font-size="10.00">INTRANSITIVE+</text>
</g>
<!-- ACTION&#45;&gt;SUBJ -->
<g id="edge1" class="edge"><title>ACTION&#45;&gt;SUBJ</title>
<path fill="none" stroke="black" d="M117.451,-71.582C141.068,-73.7538 168.891,-76.3124 191.054,-78.3505"/>
<polygon fill="black" stroke="black" points="190.84,-81.8455 201.118,-79.276 191.481,-74.8749 190.84,-81.8455"/>
<text text-anchor="middle" x="159.25" y="-80.8" font-family="Times New Roman,serif" font-size="14.00">AGENT</text>
</g>
<!-- S3 -->
<g id="node5" class="node"><title>S3</title>
<polygon fill="white" stroke="black" points="581.23,-91 527.23,-91 527.23,-55 581.23,-55 581.23,-91"/>
<text text-anchor="middle" x="554.23" y="-70.5" font-family="Times New Roman,serif" font-size="10.00">[VP, V]</text>
</g>
<!-- ACTION&#45;&gt;S3 -->
<g id="edge4" class="edge"><title>ACTION&#45;&gt;S3</title>
<path fill="none" stroke="red" d="M113.884,-48.0144C146.083,-36.4953 190.325,-24 230.74,-24 230.74,-24 230.74,-24 441.23,-24 473.066,-24 506.046,-40.8228 527.9,-54.7542"/>
</g>
<!-- S2 -->
<g id="node4" class="node"><title>S2</title>
<polygon fill="white" stroke="black" points="467.23,-91 413.23,-91 413.23,-55 467.23,-55 467.23,-91"/>
<text text-anchor="middle" x="440.23" y="-70.5" font-family="Times New Roman,serif" font-size="10.00">which</text>
</g>
<!-- S1&#45;&gt;S2 -->
<g id="edge2" class="edge"><title>S1&#45;&gt;S2</title>
<path fill="none" stroke="black" d="M353.489,-73C368.233,-73 386.853,-73 402.971,-73"/>
<polygon fill="black" stroke="black" points="403.135,-76.5001 413.135,-73 403.135,-69.5001 403.135,-76.5001"/>
<text text-anchor="middle" x="383.23" y="-76.8" font-family="Times New Roman,serif" font-size="14.00">next</text>
</g>
<!-- S2&#45;&gt;S3 -->
<g id="edge3" class="edge"><title>S2&#45;&gt;S3</title>
<path fill="none" stroke="black" d="M467.489,-73C482.233,-73 500.853,-73 516.971,-73"/>
<polygon fill="black" stroke="black" points="517.135,-76.5001 527.135,-73 517.135,-69.5001 517.135,-76.5001"/>
<text text-anchor="middle" x="497.23" y="-76.8" font-family="Times New Roman,serif" font-size="14.00">next</text>
</g>
</g>
</svg>
