<?xml version="1.0" encoding="UTF-8" standalone="no"?>
<!DOCTYPE svg PUBLIC "-//W3C//DTD SVG 1.1//EN"
 "http://www.w3.org/Graphics/SVG/1.1/DTD/svg11.dtd">
<!-- Generated by graphviz version 2.38.0 (20140413.2041)
 -->
<!-- Title: G Pages: 1 -->
<svg width="612pt" height="148pt"
 viewBox="0.00 0.00 611.81 148.00" xmlns="http://www.w3.org/2000/svg" xmlns:xlink="http://www.w3.org/1999/xlink">
<g id="graph0" class="graph" transform="scale(1 1) rotate(0) translate(4 144)">
<title>G</title>
<polygon fill="white" stroke="none" points="-4,4 -4,-144 607.811,-144 607.811,4 -4,4"/>
<g id="clust1" class="cluster"><title>cluster_SemFrame</title>
<polygon fill="lightcoral" stroke="black" points="8,-13 8,-132 267.811,-132 267.811,-13 8,-13"/>
<text text-anchor="middle" x="137.906" y="-116.8" font-family="consolas" font-size="14.00">SemFrame</text>
</g>
<g id="clust2" class="cluster"><title>cluster_SynForm</title>
<polygon fill="lightblue" stroke="black" points="288.811,-24 288.811,-99 595.811,-99 595.811,-24 288.811,-24"/>
<text text-anchor="middle" x="442.311" y="-83.8" font-family="consolas" font-size="14.00">SynForm</text>
</g>
<!-- OBJ -->
<g id="node1" class="node"><title>OBJ</title>
<ellipse fill="white" stroke="black" cx="223.435" cy="-64" rx="32.2669" ry="32.2669"/>
<ellipse fill="none" stroke="black" cx="223.435" cy="-64" rx="36.2533" ry="36.2533"/>
<text text-anchor="middle" x="223.435" y="-61.5" font-family="Times New Roman,serif" font-size="10.00">ENTITY+</text>
</g>
<!-- S1 -->
<g id="node3" class="node"><title>S1</title>
<polygon fill="white" stroke="black" points="359.811,-68 296.811,-68 296.811,-32 359.811,-32 359.811,-68"/>
<text text-anchor="middle" x="328.311" y="-47.5" font-family="Times New Roman,serif" font-size="10.00">[NC, NP, N]</text>
</g>
<!-- OBJ&#45;&gt;S1 -->
<g id="edge4" class="edge"><title>OBJ&#45;&gt;S1</title>
<path fill="none" stroke="red" d="M259.551,-59.2212C271.542,-57.5894 284.853,-55.7779 296.481,-54.1956"/>
</g>
<!-- ATTR -->
<g id="node2" class="node"><title>ATTR</title>
<ellipse fill="white" stroke="black" cx="56.0291" cy="-61" rx="40.0582" ry="40.0582"/>
<text text-anchor="middle" x="56.0291" y="-58.5" font-family="Times New Roman,serif" font-size="10.00">PROPERTY+</text>
</g>
<!-- ATTR&#45;&gt;OBJ -->
<g id="edge1" class="edge"><title>ATTR&#45;&gt;OBJ</title>
<path fill="none" stroke="black" d="M96.2279,-61.711C120.41,-62.1495 151.528,-62.714 176.814,-63.1726"/>
<polygon fill="black" stroke="black" points="176.838,-66.6735 186.9,-63.3555 176.965,-59.6746 176.838,-66.6735"/>
<text text-anchor="middle" x="141.558" y="-66.8" font-family="Times New Roman,serif" font-size="14.00">MODIFY</text>
</g>
<!-- S3 -->
<g id="node5" class="node"><title>S3</title>
<polygon fill="white" stroke="black" points="587.811,-68 533.811,-68 533.811,-32 587.811,-32 587.811,-68"/>
<text text-anchor="middle" x="560.811" y="-47.5" font-family="Times New Roman,serif" font-size="10.00">[A]</text>
</g>
<!-- ATTR&#45;&gt;S3 -->
<g id="edge5" class="edge"><title>ATTR&#45;&gt;S3</title>
<path fill="none" stroke="red" d="M90.5477,-40.6879C123.058,-22.9429 174.382,-7.10543e-015 222.435,-0 222.435,-0 222.435,-0 447.811,-0 480.178,-0 513.594,-17.627 535.402,-31.9489"/>
</g>
<!-- S2 -->
<g id="node4" class="node"><title>S2</title>
<polygon fill="white" stroke="black" points="473.811,-68 419.811,-68 419.811,-32 473.811,-32 473.811,-68"/>
<text text-anchor="middle" x="446.811" y="-47.5" font-family="Times New Roman,serif" font-size="10.00">is</text>
</g>
<!-- S1&#45;&gt;S2 -->
<g id="edge2" class="edge"><title>S1&#45;&gt;S2</title>
<path fill="none" stroke="black" d="M359.92,-50C375.183,-50 393.743,-50 409.699,-50"/>
<polygon fill="black" stroke="black" points="409.748,-53.5001 419.748,-50 409.748,-46.5001 409.748,-53.5001"/>
<text text-anchor="middle" x="389.811" y="-53.8" font-family="Times New Roman,serif" font-size="14.00">next</text>
</g>
<!-- S2&#45;&gt;S3 -->
<g id="edge3" class="edge"><title>S2&#45;&gt;S3</title>
<path fill="none" stroke="black" d="M474.07,-50C488.815,-50 507.434,-50 523.552,-50"/>
<polygon fill="black" stroke="black" points="523.717,-53.5001 533.717,-50 523.717,-46.5001 523.717,-53.5001"/>
<text text-anchor="middle" x="503.811" y="-53.8" font-family="Times New Roman,serif" font-size="14.00">next</text>
</g>
</g>
</svg>
