<?xml version="1.0" encoding="UTF-8" standalone="no"?>
<!DOCTYPE svg PUBLIC "-//W3C//DTD SVG 1.1//EN"
 "http://www.w3.org/Graphics/SVG/1.1/DTD/svg11.dtd">
<!-- Generated by graphviz version 2.38.0 (20140413.2041)
 -->
<!-- Title: G Pages: 1 -->
<svg width="621pt" height="218pt"
 viewBox="0.00 0.00 621.04 218.00" xmlns="http://www.w3.org/2000/svg" xmlns:xlink="http://www.w3.org/1999/xlink">
<g id="graph0" class="graph" transform="scale(1 1) rotate(0) translate(4 214)">
<title>G</title>
<polygon fill="white" stroke="none" points="-4,4 -4,-214 617.038,-214 617.038,4 -4,4"/>
<g id="clust1" class="cluster"><title>cluster_SemFrame</title>
<polygon fill="lightcoral" stroke="black" points="8,-8 8,-202 268.038,-202 268.038,-8 8,-8"/>
<text text-anchor="middle" x="138.019" y="-186.8" font-family="consolas" font-size="14.00">SemFrame</text>
</g>
<g id="clust2" class="cluster"><title>cluster_SynForm</title>
<polygon fill="lightblue" stroke="black" points="289.038,-26 289.038,-101 605.038,-101 605.038,-26 289.038,-26"/>
<text text-anchor="middle" x="447.038" y="-85.8" font-family="consolas" font-size="14.00">SynForm</text>
</g>
<!-- SUBJ -->
<g id="node1" class="node"><title>SUBJ</title>
<ellipse fill="white" stroke="black" cx="223.661" cy="-52" rx="32.2669" ry="32.2669"/>
<ellipse fill="none" stroke="black" cx="223.661" cy="-52" rx="36.2533" ry="36.2533"/>
<text text-anchor="middle" x="223.661" y="-49.5" font-family="Times New Roman,serif" font-size="10.00">ENTITY+</text>
</g>
<!-- S1 -->
<g id="node4" class="node"><title>S1</title>
<polygon fill="white" stroke="black" points="360.038,-70 297.038,-70 297.038,-34 360.038,-34 360.038,-70"/>
<text text-anchor="middle" x="328.538" y="-49.5" font-family="Times New Roman,serif" font-size="10.00">[NC, NP, N]</text>
</g>
<!-- SUBJ&#45;&gt;S1 -->
<g id="edge6" class="edge"><title>SUBJ&#45;&gt;S1</title>
<path fill="none" stroke="red" d="M260.066,-52C272.039,-52 285.3,-52 296.874,-52"/>
</g>
<!-- OBJ -->
<g id="node2" class="node"><title>OBJ</title>
<ellipse fill="white" stroke="black" cx="223.661" cy="-139" rx="32.2534" ry="32.2534"/>
<text text-anchor="middle" x="223.661" y="-136.5" font-family="Times New Roman,serif" font-size="10.00">ENTITY+</text>
</g>
<!-- S3 -->
<g id="node6" class="node"><title>S3</title>
<polygon fill="white" stroke="black" points="597.038,-70 534.038,-70 534.038,-34 597.038,-34 597.038,-70"/>
<text text-anchor="middle" x="565.538" y="-49.5" font-family="Times New Roman,serif" font-size="10.00">[NC, NP, N]</text>
</g>
<!-- OBJ&#45;&gt;S3 -->
<g id="edge5" class="edge"><title>OBJ&#45;&gt;S3</title>
<path fill="none" stroke="red" d="M255.675,-133.29C309.354,-123.07 422.78,-99.9833 516.038,-71 521.91,-69.175 528.085,-66.9789 533.987,-64.7377"/>
</g>
<!-- ACT -->
<g id="node3" class="node"><title>ACT</title>
<ellipse fill="white" stroke="black" cx="54.1425" cy="-54" rx="34.2704" ry="34.2704"/>
<ellipse fill="none" stroke="black" cx="54.1425" cy="-54" rx="38.2854" ry="38.2854"/>
<text text-anchor="middle" x="54.1425" y="-51.5" font-family="Times New Roman,serif" font-size="10.00">ACTION+</text>
</g>
<!-- ACT&#45;&gt;SUBJ -->
<g id="edge1" class="edge"><title>ACT&#45;&gt;SUBJ</title>
<path fill="none" stroke="black" d="M92.3203,-53.5561C117.253,-53.2585 150.261,-52.8644 176.821,-52.5473"/>
<polygon fill="black" stroke="black" points="177.065,-56.0447 187.023,-52.4255 176.982,-49.0452 177.065,-56.0447"/>
<text text-anchor="middle" x="139.785" y="-57.8" font-family="Times New Roman,serif" font-size="14.00">AGENT</text>
</g>
<!-- ACT&#45;&gt;OBJ -->
<g id="edge2" class="edge"><title>ACT&#45;&gt;OBJ</title>
<path fill="none" stroke="black" d="M88.6398,-70.9967C116.641,-85.2045 156.534,-105.447 185.51,-120.149"/>
<polygon fill="black" stroke="black" points="184.004,-123.31 194.505,-124.713 187.171,-117.067 184.004,-123.31"/>
<text text-anchor="middle" x="139.785" y="-114.8" font-family="Times New Roman,serif" font-size="14.00">PATIENT</text>
</g>
<!-- S2 -->
<g id="node5" class="node"><title>S2</title>
<polygon fill="white" stroke="black" points="474.038,-70 420.038,-70 420.038,-34 474.038,-34 474.038,-70"/>
<text text-anchor="middle" x="447.038" y="-49.5" font-family="Times New Roman,serif" font-size="10.00">[VP, V]</text>
</g>
<!-- ACT&#45;&gt;S2 -->
<g id="edge7" class="edge"><title>ACT&#45;&gt;S2</title>
<path fill="none" stroke="red" d="M89.0492,-38.3067C115.241,-27.0877 152.732,-12.9618 187.285,-7 272.432,7.69168 373.305,-24.0248 419.965,-41.4939"/>
</g>
<!-- S1&#45;&gt;S2 -->
<g id="edge3" class="edge"><title>S1&#45;&gt;S2</title>
<path fill="none" stroke="black" d="M360.147,-52C375.41,-52 393.97,-52 409.926,-52"/>
<polygon fill="black" stroke="black" points="409.975,-55.5001 419.975,-52 409.975,-48.5001 409.975,-55.5001"/>
<text text-anchor="middle" x="390.038" y="-55.8" font-family="Times New Roman,serif" font-size="14.00">next</text>
</g>
<!-- S2&#45;&gt;S3 -->
<g id="edge4" class="edge"><title>S2&#45;&gt;S3</title>
<path fill="none" stroke="black" d="M474.183,-52C488.711,-52 507.114,-52 523.515,-52"/>
<polygon fill="black" stroke="black" points="523.943,-55.5001 533.943,-52 523.943,-48.5001 523.943,-55.5001"/>
<text text-anchor="middle" x="504.038" y="-55.8" font-family="Times New Roman,serif" font-size="14.00">next</text>
</g>
</g>
</svg>
