<?xml version="1.0" encoding="UTF-8" standalone="no"?>
<!DOCTYPE svg PUBLIC "-//W3C//DTD SVG 1.1//EN"
 "http://www.w3.org/Graphics/SVG/1.1/DTD/svg11.dtd">
<!-- Generated by graphviz version 2.38.0 (20140413.2041)
 -->
<!-- Title: G Pages: 1 -->
<svg width="97pt" height="204pt"
 viewBox="0.00 0.00 97.45 204.00" xmlns="http://www.w3.org/2000/svg" xmlns:xlink="http://www.w3.org/1999/xlink">
<g id="graph0" class="graph" transform="scale(1 1) rotate(0) translate(4 200)">
<title>G</title>
<polygon fill="white" stroke="none" points="-4,4 -4,-200 93.4477,-200 93.4477,4 -4,4"/>
<g id="clust1" class="cluster"><title>cluster_SemFrame</title>
<polygon fill="lightcoral" stroke="black" points="7,-8 7,-105 83.4477,-105 83.4477,-8 7,-8"/>
<text text-anchor="middle" x="45.2238" y="-89.8" font-family="consolas" font-size="14.00">SemFrame</text>
</g>
<g id="clust2" class="cluster"><title>cluster_SynForm</title>
<polygon fill="lightblue" stroke="black" points="9.72384,-113 9.72384,-188 79.7238,-188 79.7238,-113 9.72384,-113"/>
<text text-anchor="middle" x="44.7238" y="-172.8" font-family="consolas" font-size="14.00">SynForm</text>
</g>
<!-- N1 -->
<g id="node1" class="node"><title>N1</title>
<ellipse fill="white" stroke="black" cx="44.7238" cy="-45" rx="24.918" ry="24.918"/>
<ellipse fill="none" stroke="black" cx="44.7238" cy="-45" rx="28.9494" ry="28.9494"/>
<text text-anchor="middle" x="44.7238" y="-42.5" font-family="Times New Roman,serif" font-size="10.00">TALK</text>
</g>
<!-- S1 -->
<g id="node2" class="node"><title>S1</title>
<polygon fill="white" stroke="black" points="71.7238,-157 17.7238,-157 17.7238,-121 71.7238,-121 71.7238,-157"/>
<text text-anchor="middle" x="44.7238" y="-136.5" font-family="Times New Roman,serif" font-size="10.00">talk to</text>
</g>
</g>
</svg>
