<?xml version="1.0" encoding="UTF-8" standalone="no"?>
<!DOCTYPE svg PUBLIC "-//W3C//DTD SVG 1.1//EN"
 "http://www.w3.org/Graphics/SVG/1.1/DTD/svg11.dtd">
<!-- Generated by graphviz version 2.38.0 (20140413.2041)
 -->
<!-- Title: G Pages: 1 -->
<svg width="231pt" height="214pt"
 viewBox="0.00 0.00 231.04 214.00" xmlns="http://www.w3.org/2000/svg" xmlns:xlink="http://www.w3.org/1999/xlink">
<g id="graph0" class="graph" transform="scale(1 1) rotate(0) translate(4 210)">
<title>G</title>
<polygon fill="white" stroke="none" points="-4,4 -4,-210 227.044,-210 227.044,4 -4,4"/>
<g id="clust1" class="cluster"><title>cluster_SemFrame</title>
<polygon fill="lightcoral" stroke="black" points="8,-91 8,-198 92.0436,-198 92.0436,-91 8,-91"/>
<text text-anchor="middle" x="50.0218" y="-182.8" font-family="consolas" font-size="14.00">SemFrame</text>
</g>
<g id="clust2" class="cluster"><title>cluster_SynForm</title>
<polygon fill="lightblue" stroke="black" points="15.0218,-8 15.0218,-83 215.044,-83 215.044,-8 15.0218,-8"/>
<text text-anchor="middle" x="115.033" y="-67.8" font-family="consolas" font-size="14.00">SynForm</text>
</g>
<!-- SUBJ -->
<g id="node1" class="node"><title>SUBJ</title>
<ellipse fill="white" stroke="black" cx="50.0218" cy="-133" rx="30.0411" ry="30.0411"/>
<ellipse fill="none" stroke="black" cx="50.0218" cy="-133" rx="34.0436" ry="34.0436"/>
<text text-anchor="middle" x="50.0218" y="-130.5" font-family="Times New Roman,serif" font-size="10.00">PLACE+</text>
</g>
<!-- S2 -->
<g id="node3" class="node"><title>S2</title>
<polygon fill="white" stroke="black" points="207.044,-52 144.044,-52 144.044,-16 207.044,-16 207.044,-52"/>
<text text-anchor="middle" x="175.544" y="-31.5" font-family="Times New Roman,serif" font-size="10.00">[NC, NP, N]</text>
</g>
<!-- SUBJ&#45;&gt;S2 -->
<g id="edge2" class="edge"><title>SUBJ&#45;&gt;S2</title>
<path fill="none" stroke="red" d="M77.2176,-112.005C99.3128,-94.2959 130.62,-69.2036 151.708,-52.3024"/>
</g>
<!-- S1 -->
<g id="node2" class="node"><title>S1</title>
<polygon fill="white" stroke="black" points="77.0218,-52 23.0218,-52 23.0218,-16 77.0218,-16 77.0218,-52"/>
<text text-anchor="middle" x="50.0218" y="-31.5" font-family="Times New Roman,serif" font-size="10.00">it is</text>
</g>
<!-- S1&#45;&gt;S2 -->
<g id="edge1" class="edge"><title>S1&#45;&gt;S2</title>
<path fill="none" stroke="black" d="M77.2176,-34C93.7093,-34 115.333,-34 134.009,-34"/>
<polygon fill="black" stroke="black" points="134.03,-37.5001 144.03,-34 134.03,-30.5001 134.03,-37.5001"/>
<text text-anchor="middle" x="114.044" y="-37.8" font-family="Times New Roman,serif" font-size="14.00">next</text>
</g>
</g>
</svg>
