<?xml version="1.0" encoding="UTF-8" standalone="no"?>
<!DOCTYPE svg PUBLIC "-//W3C//DTD SVG 1.1//EN"
 "http://www.w3.org/Graphics/SVG/1.1/DTD/svg11.dtd">
<!-- Generated by graphviz version 2.38.0 (20140413.2041)
 -->
<!-- Title: G Pages: 1 -->
<svg width="107pt" height="212pt"
 viewBox="0.00 0.00 106.87 212.00" xmlns="http://www.w3.org/2000/svg" xmlns:xlink="http://www.w3.org/1999/xlink">
<g id="graph0" class="graph" transform="scale(1 1) rotate(0) translate(4 208)">
<title>G</title>
<polygon fill="white" stroke="none" points="-4,4 -4,-208 102.866,-208 102.866,4 -4,4"/>
<g id="clust1" class="cluster"><title>cluster_SemFrame</title>
<polygon fill="lightcoral" stroke="black" points="8,-8 8,-113 90.8663,-113 90.8663,-8 8,-8"/>
<text text-anchor="middle" x="49.4331" y="-97.8" font-family="consolas" font-size="14.00">SemFrame</text>
</g>
<g id="clust2" class="cluster"><title>cluster_SynForm</title>
<polygon fill="lightblue" stroke="black" points="14.4331,-121 14.4331,-196 84.4331,-196 84.4331,-121 14.4331,-121"/>
<text text-anchor="middle" x="49.4331" y="-180.8" font-family="consolas" font-size="14.00">SynForm</text>
</g>
<!-- N1 -->
<g id="node1" class="node"><title>N1</title>
<ellipse fill="white" stroke="black" cx="49.4331" cy="-49" rx="29.3744" ry="29.3744"/>
<ellipse fill="none" stroke="black" cx="49.4331" cy="-49" rx="33.3664" ry="33.3664"/>
<text text-anchor="middle" x="49.4331" y="-46.5" font-family="Times New Roman,serif" font-size="10.00">TSHIRT</text>
</g>
<!-- S1 -->
<g id="node2" class="node"><title>S1</title>
<polygon fill="white" stroke="black" points="76.4331,-165 22.4331,-165 22.4331,-129 76.4331,-129 76.4331,-165"/>
<text text-anchor="middle" x="49.4331" y="-144.5" font-family="Times New Roman,serif" font-size="10.00">t&#45;shirt</text>
</g>
</g>
</svg>
