<?xml version="1.0" encoding="UTF-8" standalone="no"?>
<!DOCTYPE svg PUBLIC "-//W3C//DTD SVG 1.1//EN"
 "http://www.w3.org/Graphics/SVG/1.1/DTD/svg11.dtd">
<!-- Generated by graphviz version 2.38.0 (20140413.2041)
 -->
<!-- Title: G Pages: 1 -->
<svg width="101pt" height="206pt"
 viewBox="0.00 0.00 100.98 206.00" xmlns="http://www.w3.org/2000/svg" xmlns:xlink="http://www.w3.org/1999/xlink">
<g id="graph0" class="graph" transform="scale(1 1) rotate(0) translate(4 202)">
<title>G</title>
<polygon fill="white" stroke="none" points="-4,4 -4,-202 96.9797,-202 96.9797,4 -4,4"/>
<g id="clust1" class="cluster"><title>cluster_SemFrame</title>
<polygon fill="lightcoral" stroke="black" points="8,-8 8,-107 84.9797,-107 84.9797,-8 8,-8"/>
<text text-anchor="middle" x="46.4898" y="-91.8" font-family="consolas" font-size="14.00">SemFrame</text>
</g>
<g id="clust2" class="cluster"><title>cluster_SynForm</title>
<polygon fill="lightblue" stroke="black" points="11.4898,-115 11.4898,-190 81.4898,-190 81.4898,-115 11.4898,-115"/>
<text text-anchor="middle" x="46.4898" y="-174.8" font-family="consolas" font-size="14.00">SynForm</text>
</g>
<!-- N1 -->
<g id="node1" class="node"><title>N1</title>
<ellipse fill="white" stroke="black" cx="46.4898" cy="-46" rx="26.481" ry="26.481"/>
<ellipse fill="none" stroke="black" cx="46.4898" cy="-46" rx="30.4797" ry="30.4797"/>
<text text-anchor="middle" x="46.4898" y="-43.5" font-family="Times New Roman,serif" font-size="10.00">WEAR</text>
</g>
<!-- S1 -->
<g id="node2" class="node"><title>S1</title>
<polygon fill="white" stroke="black" points="73.4898,-159 19.4898,-159 19.4898,-123 73.4898,-123 73.4898,-159"/>
<text text-anchor="middle" x="46.4898" y="-138.5" font-family="Times New Roman,serif" font-size="10.00">wear</text>
</g>
</g>
</svg>
