<?xml version="1.0" encoding="UTF-8" standalone="no"?>
<!DOCTYPE svg PUBLIC "-//W3C//DTD SVG 1.1//EN"
 "http://www.w3.org/Graphics/SVG/1.1/DTD/svg11.dtd">
<!-- Generated by graphviz version 2.38.0 (20140413.2041)
 -->
<!-- Title: G Pages: 1 -->
<svg width="114pt" height="220pt"
 viewBox="0.00 0.00 113.93 220.00" xmlns="http://www.w3.org/2000/svg" xmlns:xlink="http://www.w3.org/1999/xlink">
<g id="graph0" class="graph" transform="scale(1 1) rotate(0) translate(4 216)">
<title>G</title>
<polygon fill="white" stroke="none" points="-4,4 -4,-216 109.93,-216 109.93,4 -4,4"/>
<g id="clust1" class="cluster"><title>cluster_SemFrame</title>
<polygon fill="lightcoral" stroke="black" points="8,-8 8,-121 97.9302,-121 97.9302,-8 8,-8"/>
<text text-anchor="middle" x="52.9651" y="-105.8" font-family="consolas" font-size="14.00">SemFrame</text>
</g>
<g id="clust2" class="cluster"><title>cluster_SynForm</title>
<polygon fill="lightblue" stroke="black" points="17.9651,-129 17.9651,-204 87.9651,-204 87.9651,-129 17.9651,-129"/>
<text text-anchor="middle" x="52.9651" y="-188.8" font-family="consolas" font-size="14.00">SynForm</text>
</g>
<!-- N1 -->
<g id="node1" class="node"><title>N1</title>
<ellipse fill="white" stroke="black" cx="52.9651" cy="-53" rx="32.9341" ry="32.9341"/>
<ellipse fill="none" stroke="black" cx="52.9651" cy="-53" rx="36.9303" ry="36.9303"/>
<text text-anchor="middle" x="52.9651" y="-50.5" font-family="Times New Roman,serif" font-size="10.00">WOMAN</text>
</g>
<!-- S1 -->
<g id="node2" class="node"><title>S1</title>
<polygon fill="white" stroke="black" points="79.9651,-173 25.9651,-173 25.9651,-137 79.9651,-137 79.9651,-173"/>
<text text-anchor="middle" x="52.9651" y="-152.5" font-family="Times New Roman,serif" font-size="10.00">woman</text>
</g>
</g>
</svg>
