<?xml version="1.0" encoding="UTF-8" standalone="no"?>
<!DOCTYPE svg PUBLIC "-//W3C//DTD SVG 1.1//EN"
 "http://www.w3.org/Graphics/SVG/1.1/DTD/svg11.dtd">
<!-- Generated by graphviz version 2.38.0 (20140413.2041)
 -->
<!-- Title: G Pages: 1 -->
<svg width="433pt" height="210pt"
 viewBox="0.00 0.00 432.50 210.00" xmlns="http://www.w3.org/2000/svg" xmlns:xlink="http://www.w3.org/1999/xlink">
<g id="graph0" class="graph" transform="scale(1 1) rotate(0) translate(4 206)">
<title>G</title>
<polygon fill="white" stroke="none" points="-4,4 -4,-206 428.5,-206 428.5,4 -4,4"/>
<!-- THEMATIC -->
<g id="node1" class="node"><title>THEMATIC</title>
<polygon fill="white" stroke="black" points="360.5,-119 294.5,-119 294.5,-83 360.5,-83 360.5,-119"/>
<text text-anchor="middle" x="327.5" y="-98.5" font-family="Times New Roman,serif" font-size="10.00">THEMATIC</text>
</g>
<!-- SEMANTIC_RELATIONS -->
<g id="node2" class="node"><title>SEMANTIC_RELATIONS</title>
<ellipse fill="none" stroke="black" cx="203.5" cy="-184" rx="112.38" ry="18"/>
<text text-anchor="middle" x="203.5" y="-180.3" font-family="Times New Roman,serif" font-size="14.00">SEMANTIC_RELATIONS</text>
</g>
<!-- THEMATIC&#45;&gt;SEMANTIC_RELATIONS -->
<g id="edge1" class="edge"><title>THEMATIC&#45;&gt;SEMANTIC_RELATIONS</title>
<path fill="none" stroke="black" d="M301.203,-119.178C282.624,-131.314 257.558,-147.688 237.467,-160.812"/>
<polygon fill="black" stroke="black" points="235.369,-158.002 228.911,-166.401 239.197,-163.862 235.369,-158.002"/>
<text text-anchor="middle" x="282" y="-140" font-family="Times New Roman,serif" font-size="10.00">is_a</text>
</g>
<!-- PATIENT -->
<g id="node3" class="node"><title>PATIENT</title>
<polygon fill="white" stroke="black" points="352.5,-36 296.5,-36 296.5,-0 352.5,-0 352.5,-36"/>
<text text-anchor="middle" x="324.5" y="-15.5" font-family="Times New Roman,serif" font-size="10.00">PATIENT</text>
</g>
<!-- PATIENT&#45;&gt;THEMATIC -->
<g id="edge2" class="edge"><title>PATIENT&#45;&gt;THEMATIC</title>
<path fill="none" stroke="black" d="M325.136,-36.178C325.53,-46.8097 326.044,-60.694 326.492,-72.7965"/>
<polygon fill="black" stroke="black" points="322.997,-72.9832 326.865,-82.8467 329.992,-72.724 322.997,-72.9832"/>
<text text-anchor="middle" x="335" y="-57" font-family="Times New Roman,serif" font-size="10.00">is_a</text>
</g>
<!-- AGENT -->
<g id="node4" class="node"><title>AGENT</title>
<polygon fill="white" stroke="black" points="424.5,-36 370.5,-36 370.5,-0 424.5,-0 424.5,-36"/>
<text text-anchor="middle" x="397.5" y="-15.5" font-family="Times New Roman,serif" font-size="10.00">AGENT</text>
</g>
<!-- AGENT&#45;&gt;THEMATIC -->
<g id="edge3" class="edge"><title>AGENT&#45;&gt;THEMATIC</title>
<path fill="none" stroke="black" d="M382.655,-36.178C372.91,-47.454 360.003,-62.3889 349.126,-74.9761"/>
<polygon fill="black" stroke="black" points="346.214,-72.9921 342.324,-82.8467 351.511,-77.5691 346.214,-72.9921"/>
<text text-anchor="middle" x="376" y="-57" font-family="Times New Roman,serif" font-size="10.00">is_a</text>
</g>
<!-- TEMPORAL -->
<g id="node5" class="node"><title>TEMPORAL</title>
<polygon fill="white" stroke="black" points="130.5,-119 62.5,-119 62.5,-83 130.5,-83 130.5,-119"/>
<text text-anchor="middle" x="96.5" y="-98.5" font-family="Times New Roman,serif" font-size="10.00">TEMPORAL</text>
</g>
<!-- TEMPORAL&#45;&gt;SEMANTIC_RELATIONS -->
<g id="edge4" class="edge"><title>TEMPORAL&#45;&gt;SEMANTIC_RELATIONS</title>
<path fill="none" stroke="black" d="M119.192,-119.178C134.902,-131.071 155.989,-147.034 173.143,-160.02"/>
<polygon fill="black" stroke="black" points="171.122,-162.879 181.208,-166.124 175.347,-157.298 171.122,-162.879"/>
<text text-anchor="middle" x="165" y="-140" font-family="Times New Roman,serif" font-size="10.00">is_a</text>
</g>
<!-- CONCURRENT -->
<g id="node6" class="node"><title>CONCURRENT</title>
<polygon fill="white" stroke="black" points="79,-36 0,-36 0,-0 79,-0 79,-36"/>
<text text-anchor="middle" x="39.5" y="-15.5" font-family="Times New Roman,serif" font-size="10.00">CONCURRENT</text>
</g>
<!-- CONCURRENT&#45;&gt;TEMPORAL -->
<g id="edge5" class="edge"><title>CONCURRENT&#45;&gt;TEMPORAL</title>
<path fill="none" stroke="black" d="M51.5882,-36.178C59.4476,-47.3466 69.833,-62.1047 78.6371,-74.6159"/>
<polygon fill="black" stroke="black" points="75.8119,-76.6829 84.4292,-82.8467 81.5365,-72.6544 75.8119,-76.6829"/>
<text text-anchor="middle" x="80" y="-57" font-family="Times New Roman,serif" font-size="10.00">is_a</text>
</g>
<!-- SUCCESSIVE -->
<g id="node7" class="node"><title>SUCCESSIVE</title>
<polygon fill="white" stroke="black" points="168,-36 97,-36 97,-0 168,-0 168,-36"/>
<text text-anchor="middle" x="132.5" y="-15.5" font-family="Times New Roman,serif" font-size="10.00">SUCCESSIVE</text>
</g>
<!-- SUCCESSIVE&#45;&gt;TEMPORAL -->
<g id="edge6" class="edge"><title>SUCCESSIVE&#45;&gt;TEMPORAL</title>
<path fill="none" stroke="black" d="M124.865,-36.178C120.045,-47.0244 113.719,-61.2563 108.265,-73.5277"/>
<polygon fill="black" stroke="black" points="104.987,-72.2871 104.124,-82.8467 111.383,-75.1301 104.987,-72.2871"/>
<text text-anchor="middle" x="126" y="-57" font-family="Times New Roman,serif" font-size="10.00">is_a</text>
</g>
<!-- MODIFY -->
<g id="node8" class="node"><title>MODIFY</title>
<polygon fill="white" stroke="black" points="202.5,-119 148.5,-119 148.5,-83 202.5,-83 202.5,-119"/>
<text text-anchor="middle" x="175.5" y="-98.5" font-family="Times New Roman,serif" font-size="10.00">MODIFY</text>
</g>
<!-- MODIFY&#45;&gt;SEMANTIC_RELATIONS -->
<g id="edge7" class="edge"><title>MODIFY&#45;&gt;SEMANTIC_RELATIONS</title>
<path fill="none" stroke="black" d="M181.438,-119.178C185.15,-129.917 190.01,-143.975 194.223,-156.163"/>
<polygon fill="black" stroke="black" points="190.995,-157.539 197.57,-165.847 197.611,-155.252 190.995,-157.539"/>
<text text-anchor="middle" x="200" y="-140" font-family="Times New Roman,serif" font-size="10.00">is_a</text>
</g>
<!-- SPATIAL -->
<g id="node9" class="node"><title>SPATIAL</title>
<polygon fill="white" stroke="black" points="276.5,-119 220.5,-119 220.5,-83 276.5,-83 276.5,-119"/>
<text text-anchor="middle" x="248.5" y="-98.5" font-family="Times New Roman,serif" font-size="10.00">SPATIAL</text>
</g>
<!-- SPATIAL&#45;&gt;SEMANTIC_RELATIONS -->
<g id="edge8" class="edge"><title>SPATIAL&#45;&gt;SEMANTIC_RELATIONS</title>
<path fill="none" stroke="black" d="M238.957,-119.178C232.871,-130.132 224.868,-144.538 218.005,-156.892"/>
<polygon fill="black" stroke="black" points="214.827,-155.405 213.03,-165.847 220.946,-158.805 214.827,-155.405"/>
<text text-anchor="middle" x="238" y="-140" font-family="Times New Roman,serif" font-size="10.00">is_a</text>
</g>
<!-- IN -->
<g id="node10" class="node"><title>IN</title>
<polygon fill="white" stroke="black" points="275.5,-36 221.5,-36 221.5,-0 275.5,-0 275.5,-36"/>
<text text-anchor="middle" x="248.5" y="-15.5" font-family="Times New Roman,serif" font-size="10.00">IN</text>
</g>
<!-- IN&#45;&gt;SPATIAL -->
<g id="edge9" class="edge"><title>IN&#45;&gt;SPATIAL</title>
<path fill="none" stroke="black" d="M248.5,-36.178C248.5,-46.8097 248.5,-60.694 248.5,-72.7965"/>
<polygon fill="black" stroke="black" points="245,-72.8467 248.5,-82.8467 252,-72.8468 245,-72.8467"/>
<text text-anchor="middle" x="257" y="-57" font-family="Times New Roman,serif" font-size="10.00">is_a</text>
</g>
</g>
</svg>
