<?xml version="1.0" encoding="UTF-8" standalone="no"?>
<!-- Created with Inkscape (http://www.inkscape.org/) -->
<svg
   xmlns:dc="http://purl.org/dc/elements/1.1/"
   xmlns:cc="http://creativecommons.org/ns#"
   xmlns:rdf="http://www.w3.org/1999/02/22-rdf-syntax-ns#"
   xmlns:svg="http://www.w3.org/2000/svg"
   xmlns="http://www.w3.org/2000/svg"
   xmlns:sodipodi="http://sodipodi.sourceforge.net/DTD/sodipodi-0.dtd"
   xmlns:inkscape="http://www.inkscape.org/namespaces/inkscape"
   version="1.0"
   x="0"
   y="0"
   width="470"
   height="350"
   id="svg2"
   sodipodi:version="0.32"
   inkscape:version="0.46"
   sodipodi:docname="Knot_table.svg"
   sodipodi:docbase="/Users/jvl"
   inkscape:output_extension="org.inkscape.output.svg.inkscape">
  <metadata
     id="metadata2224">
    <rdf:RDF>
      <cc:Work
         rdf:about="">
        <dc:format>image/svg+xml</dc:format>
        <dc:type
           rdf:resource="http://purl.org/dc/dcmitype/StillImage" />
      </cc:Work>
    </rdf:RDF>
  </metadata>
  <sodipodi:namedview
     inkscape:window-height="830"
     inkscape:window-width="1248"
     inkscape:pageshadow="2"
     inkscape:pageopacity="0.0"
     guidetolerance="10.0"
     gridtolerance="10.0"
     objecttolerance="10.0"
     borderopacity="1.0"
     bordercolor="#666666"
     pagecolor="#ffffff"
     id="base"
     inkscape:zoom="2.8501371"
     inkscape:cx="293.00293"
     inkscape:cy="126.15951"
     inkscape:window-x="130"
     inkscape:window-y="99"
     inkscape:current-layer="svg2"
     showgrid="false" />
  <defs
     id="defs4">
    <inkscape:perspective
       sodipodi:type="inkscape:persp3d"
       inkscape:vp_x="0 : 175 : 1"
       inkscape:vp_y="0 : 1000 : 0"
       inkscape:vp_z="470 : 175 : 1"
       inkscape:persp3d-origin="235 : 116.66667 : 1"
       id="perspective68" />
    <marker
       refX="0"
       refY="0"
       orient="auto"
       style="overflow:visible"
       id="Arrow1Sstart">
      <path
         d="M 0,0 L 5,-5 L -12.5,0 L 5,5 L 0,0 z "
         transform="matrix(0.2,0,0,0.2,1.2,0)"
         style="fill-rule:evenodd;stroke:#000000;stroke-width:1pt;marker-start:none"
         id="path4338" />
    </marker>
  </defs>
  <rect
     style="fill:#ffffff;fill-opacity:1;fill-rule:evenodd;stroke:none;stroke-width:0.99125367;stroke-miterlimit:4;stroke-dasharray:none;stroke-dashoffset:122.88000439;stroke-opacity:1"
     id="rect2226"
     width="469.00873"
     height="349.00876"
     x="0.49562684"
     y="0.4956325" />
  <path
     style="fill:none;fill-rule:evenodd;stroke:#00c900;stroke-width:2.4000001;stroke-linecap:butt;stroke-linejoin:round;stroke-miterlimit:4;stroke-dasharray:9.6, 2.4;stroke-dashoffset:0;stroke-opacity:1"
     d="M 294.7835,160.79258 C 298.91694,144.56236 305.52462,132.09335 305.52462,132.09335 C 319.21154,128.29735 331.15058,119.2306 330.08432,122.62711 C 341.49672,128.17107 350.92436,131.76132 354.89389,136.52046 C 358.7464,151.02724 359.73878,167.40156 359.73878,167.40156 C 353.78448,178.31777 341.87589,187.24921 341.87589,187.24921 C 322.52442,188.73779 318.0587,187.24921 318.0587,187.24921 C 305.65391,180.79873 294.7377,161.94345 294.7377,161.94345"
     id="path3392"
     sodipodi:nodetypes="cccc" />
  <path
     style="fill:none;fill-rule:evenodd;stroke:#00c900;stroke-width:2.4;stroke-linecap:butt;stroke-linejoin:round;stroke-opacity:1;stroke-miterlimit:4;stroke-dasharray:9.6,2.4;stroke-dashoffset:0"
     d="M 118.51852,67.129629 C 123.14815,30.555555 148.61111,24.537037 148.61111,24.537037 C 177.18377,29.176285 164.31324,69.232488 163.24698,72.628997 C 138.9336,86.60822 119.08594,70.350809 119.08594,69.651849"
     id="path2586"
     sodipodi:nodetypes="cccc" />
  <path
     style="fill:none;fill-rule:evenodd;stroke:#00c900;stroke-width:2.4000001;stroke-linecap:butt;stroke-linejoin:round;stroke-miterlimit:4;stroke-dasharray:9.6, 2.4;stroke-dashoffset:0;stroke-opacity:1"
     d="M 215.88906,60.561913 C 215.55678,18.529733 238.04259,19.954087 238.04259,19.954087 C 258.67618,31.540015 259.20282,54.72571 260.12133,62.09175 C 233.32699,55.230933 216.45648,63.783093 216.45648,63.084133 C 260.50049,105.37763 259.01192,63.20136 259.01192,63.20136"
     id="path3370"
     sodipodi:nodetypes="ccccc" />
  <path
     style="fill:none;fill-rule:evenodd;stroke:#00c900;stroke-width:2.4000001;stroke-linecap:butt;stroke-linejoin:round;stroke-miterlimit:4;stroke-dasharray:9.6, 2.4;stroke-dashoffset:0;stroke-opacity:1"
     d="M 302.72256,54.607616 C 309.33696,22.995457 320.41037,23.923618 320.41037,23.923618 C 345.01349,29.555249 353.4792,32.397096 352.41294,35.793605 C 358.36723,54.734742 356.87865,48.401159 355.88627,66.557473 C 339.39493,84.0414 325.00538,80.071869 325.00538,80.071869 C 304.16534,70.644232 302.67677,55.758489 302.67677,55.758489"
     id="path3372"
     sodipodi:nodetypes="cccccc" />
  <path
     style="fill:none;fill-rule:evenodd;stroke:#00c900;stroke-width:2.4000001;stroke-linecap:butt;stroke-linejoin:round;stroke-miterlimit:4;stroke-dasharray:9.6, 2.4;stroke-dashoffset:0;stroke-opacity:1"
     d="M 441.11417,55.758489 C 441.11417,55.758489 422.2589,33.926067 394.09301,56.137453 C 407.49018,56.836413 416.42163,72.597633 440.73501,58.61841 C 441.80127,55.221901 444.74797,30.547632 420.64103,19.954087 C 420.64103,19.954087 402.12475,22.003073 393.52559,55.103807 C 422.75509,110.83574 441.61036,59.231829 441.61036,59.231829"
     id="path3376"
     sodipodi:nodetypes="cccccc" />
  <path
     style="fill:none;fill-rule:evenodd;stroke:#00c900;stroke-width:2.4000001;stroke-linecap:butt;stroke-linejoin:round;stroke-miterlimit:4;stroke-dasharray:9.6, 2.4;stroke-dashoffset:0;stroke-opacity:1"
     d="M 22.870604,155.83067 C 40.401211,131.16518 52.467003,129.61239 52.467003,129.61239 C 65.299218,132.44543 73.801409,134.87749 75.797433,143.2382 C 78.161847,153.14199 73.801282,172.39015 73.553361,173.23862 C 77.522892,193.17215 59.659997,192.79286 43.285681,181.67389 C 25.801954,168.39394 21.832422,157.47773 21.832422,157.47773 M 42.672462,180.30254 C 58.054396,167.40156 72.443947,171.37109 72.443947,171.37109"
     id="path3380"
     sodipodi:nodetypes="ccscc" />
  <path
     style="fill:none;fill-rule:evenodd;stroke:#00c900;stroke-width:2.4000001;stroke-linecap:butt;stroke-linejoin:round;stroke-miterlimit:4;stroke-dasharray:9.6, 2.4;stroke-dashoffset:0;stroke-opacity:1"
     d="M 118.13936,129.53252 C 139.14331,118.26421 157.65959,126.13905 157.65959,126.13905 C 168.36936,143.67928 166.41504,150.49065 165.34878,153.88716 C 159.39448,175.80544 163.36401,177.90712 139.54682,183.16245 C 115.11641,168.39394 119.58214,156.48535 119.58214,156.48535 C 115.6126,138.62246 116.60498,129.69101 116.60498,129.69101 M 118.58975,156.48535 C 143.89551,153.5082 163.24698,154.00439 163.24698,154.00439"
     id="path3388"
     sodipodi:nodetypes="cccccccc" />
  <path
     style="fill:none;fill-rule:evenodd;stroke:#00c900;stroke-width:2.4000001;stroke-linecap:butt;stroke-linejoin:round;stroke-miterlimit:4;stroke-dasharray:9.6, 2.4;stroke-dashoffset:0;stroke-opacity:1"
     d="M 217.94506,177.70435 C 217.94506,178.40331 238.78511,195.15691 254.16704,168.27671 C 255.2333,164.8802 271.57717,147.64881 259.87502,131.10097 C 259.87502,131.10097 240.86254,119.75279 226.80528,142.4335 C 245.61475,163.92822 252.56143,168.39394 252.56143,168.39394 M 217.33184,177.82158 C 217.33184,177.82158 182.10225,146.56152 225.2709,143.58437 L 226.26329,142.59198 C 230.23282,156.48534 218.32422,177.32539 218.32422,177.32539"
     id="path3390"
     sodipodi:nodetypes="ccccccccc" />
  <path
     style="fill:none;fill-rule:evenodd;stroke:#00c900;stroke-width:2.4000001;stroke-linecap:butt;stroke-linejoin:round;stroke-miterlimit:4;stroke-dasharray:9.6, 2.4;stroke-dashoffset:0;stroke-opacity:1"
     d="M 410.46733,172.74244 C 410.46733,173.4414 413.94067,208.05789 437.26167,176.71197 C 438.32793,173.31546 464.09944,157.57263 431.06105,128.62001 C 431.06105,128.62001 400.63618,111.31752 389.55606,144.41826 C 396.95313,158.47011 408.36554,172.36347 408.36554,172.36347 C 419.77794,173.85205 437.14464,178.31777 437.14464,178.31777"
     id="path3394"
     sodipodi:nodetypes="cccc" />
  <path
     style="fill:none;fill-rule:evenodd;stroke:#00c900;stroke-width:2.4000001;stroke-linecap:butt;stroke-linejoin:round;stroke-miterlimit:4;stroke-dasharray:9.6, 2.4;stroke-dashoffset:0;stroke-opacity:1"
     d="M 23.862987,245.64131 C 34.943106,237.84635 49.489854,236.78973 49.489854,236.78973 C 56.085217,240.34984 64.724568,242.22012 73.07037,246.97422 C 68.515195,257.18643 73.5903,284.17583 73.05717,285.87408 C 49.736173,293.40281 25.42279,279.13017 25.42279,278.43121 C 23.320997,263.66269 23.320997,246.79219 23.320997,246.79219 M 73.932521,286.4875 C 73.932521,286.4875 50.115334,251.25791 26.298145,278.05224 C 49.12295,323.20566 73.932521,288.47226 73.932521,288.47226"
     id="path3396"
     sodipodi:nodetypes="ccccccccc" />
  <path
     style="fill:none;fill-rule:evenodd;stroke:#00c900;stroke-width:2.4000001;stroke-linecap:butt;stroke-linejoin:round;stroke-miterlimit:4;stroke-dasharray:9.60000038,2.4000001;stroke-dashoffset:0;stroke-opacity:1"
     d="M 112.18506,245.14512 C 122.76899,240.3273 142.27765,245.22499 142.27765,245.22499 C 155.07541,244.07128 162.22618,241.10368 171.1302,247.90457 C 180.88225,261.27867 174.31716,288.64155 173.78403,290.3398 C 161.62734,297.32941 156.29328,297.3801 143.08218,292.61888 C 130.49907,296.06333 114.73725,292.17785 114.73725,291.82837 C 107.17735,275.0751 112.63545,247.28838 112.63545,247.28838 M 142.90313,245.7998 C 142.40694,262.67031 143.39932,293.43418 143.39932,293.43418"
     id="path3398"
     sodipodi:nodetypes="cccccc" />
  <path
     style="fill:none;fill-rule:evenodd;stroke:#00c900;stroke-width:2.4;stroke-linecap:butt;stroke-linejoin:round;stroke-miterlimit:4;stroke-dasharray:9.6,2.4;stroke-dashoffset:0;stroke-opacity:1"
     d="M 210.03093,270.50675 C 210.03093,271.20571 220.22049,294.96619 227.35204,300.4941 C 242.50259,305.1777 265.60221,287.32972 255.27429,245.91211 C 255.27429,245.91211 235.76563,234.22767 221.21217,236.72447 C 210.73602,255.55764 210.26477,270.24818 210.26477,270.24818 M 257.54828,277.39612 C 234.61341,249.94992 210.05924,270.39351 210.05924,270.39351 C 230.25775,289.92558 257.05209,276.98506 257.05209,276.98506"
     id="path3400"
     sodipodi:nodetypes="cccccccc" />
  <path
     style="fill:none;fill-rule:evenodd;stroke:#00c900;stroke-width:2.4000001;stroke-linecap:butt;stroke-linejoin:round;stroke-miterlimit:4;stroke-dasharray:9.60000038,2.4000001;stroke-dashoffset:0;stroke-opacity:1"
     d="M 334.26517,236.9539 C 309.28564,236.16757 294.69935,250.14809 294.69935,250.14809 C 298.7567,267.76917 317.94271,296.94871 319.00897,300.34522 C 340.16461,289.41336 348.43388,285.78692 348.43388,285.08796 C 372.80158,240.18072 335.96125,238.42642 335.96125,238.42642 M 347.89049,284.73998 C 335.61038,272.10901 333.50522,238.42642 333.50522,238.42642 C 318.41823,261.93405 308.945,274.56503 308.945,274.56503"
     id="path3405"
     sodipodi:nodetypes="cccccccc" />
  <path
     style="fill:none;fill-rule:evenodd;stroke:#00c900;stroke-width:2.4000001;stroke-linecap:butt;stroke-linejoin:round;stroke-miterlimit:4;stroke-dasharray:9.6, 2.4;stroke-dashoffset:0;stroke-opacity:1"
     d="M 402.94599,290.00001 C 413.82266,295.61101 421.74107,307.30724 433.77434,292.97716 C 434.8406,289.58065 447.36026,277.94412 450.01417,255.76186 C 450.01417,255.76186 424.90207,224.58919 387.64243,248.88315 C 391.20925,267.19696 401.73506,290.00289 401.73506,290.00289 C 419.27808,266.49525 421.03238,240.18072 421.03238,240.18072 C 424.54099,274.91589 434.01421,291.75719 434.01421,291.75719"
     id="path3407"
     sodipodi:nodetypes="ccccccc" />
  <g
     id="g2975">
    <path
       d="M 166.75304,45.280166 C 175.66075,86.219948 64.312832,102.32855 123.74865,45.04304 M 135.84917,76.053918 C 108.16546,40.281041 151.16992,-21.143067 165.6448,35.061771 M 134.27684,39.203957 C 190.22322,15.475219 197.50054,107.16116 142.49853,81.893002"
       style="fill:none;fill-rule:evenodd;stroke:#000000;stroke-width:1.3;stroke-linecap:butt;stroke-linejoin:miter;stroke-miterlimit:4;stroke-opacity:1;stroke-dasharray:none"
       id="path2162" />
    <path
       d="M 217.38205,30.547617 C 198.0529,30.376975 188.14295,62.345075 211.48902,76.01126 C 254.48181,101.17812 262.17958,70.665422 243.69592,59.888067 M 251.24745,84.488589 C 278.1493,99.042175 287.27522,25.653737 225.30502,30.547617 M 236.23902,55.9625 C 195.58856,37.073885 247.29899,-14.557915 251.67566,30.108406 M 249.81144,36.532074 C 249.28971,47.304476 224.05928,75.039964 244.72266,80.206142"
       style="fill:none;fill-rule:evenodd;stroke:#000000;stroke-width:1.3;stroke-linecap:butt;stroke-linejoin:miter;stroke-miterlimit:4;stroke-opacity:1;stroke-dasharray:none"
       id="path2168" />
    <path
       d="M 310.23684,65.137213 C 299.73667,1.8566186 320.1576,7.6883269 335.21128,23.392214 M 335.08181,75.545788 C 301.8705,65.581884 270.83306,60.700365 303.41806,40.466972 M 354.42327,52.523661 C 341.71556,81.179685 322.95724,101.51304 311.85646,73.95105 M 340.47505,30.202908 C 358.34999,47.262853 380.75853,82.932206 343.17991,77.949562 M 311.92108,37.26194 C 348.79779,17.825196 366.12131,25.958264 358.06744,44.110448"
       style="fill:none;fill-rule:evenodd;stroke:#000000;stroke-width:1.3;stroke-linecap:butt;stroke-linejoin:miter;stroke-miterlimit:4;stroke-opacity:1;stroke-dasharray:none"
       id="path2170" />
    <path
       d="M 430.67518,30.878854 C 428.13944,39.425605 404.36501,52.697789 417.76742,60.499938 M 414.30013,79.563334 C 400.66758,67.218363 432.06251,74.575198 421.77641,47.131334 M 424.81695,64.963029 C 431.27532,75.164434 417.05927,87.771505 399.08395,82.747293 C 364.91606,73.053371 387.53521,28.671785 404.5607,28.37985 M 412.94103,27.016785 C 483.87451,22.053107 451.05851,99.569609 420.22286,85.418854 M 416.68429,42.850568 C 391.94242,19.286109 428.60906,-0.56757383 430.9959,25.362416"
       style="fill:none;fill-rule:evenodd;stroke:#000000;stroke-width:1.3;stroke-linecap:butt;stroke-linejoin:miter;stroke-miterlimit:4;stroke-opacity:1;stroke-dasharray:none"
       id="path2172" />
    <path
       d="M 88.494713,49.820195 C 88.494713,70.245244 71.917864,86.822092 51.492818,86.822092 C 31.067771,86.822092 14.490921,70.245244 14.490921,49.820195 C 14.490921,29.395147 31.067771,12.818295 51.492818,12.818295 C 71.917864,12.818295 88.494713,29.395147 88.494713,49.820195 z "
       style="fill:none;fill-opacity:1;fill-rule:evenodd;stroke:#000000;stroke-width:1.3;marker-start:none;stroke-miterlimit:4;stroke-dashoffset:122.88000439;stroke-opacity:1;stroke-dasharray:none"
       id="path2174" />
    <path
       d="M 70.647939,190.48195 C 101.37459,205.28627 72.303719,154.00084 65.787396,136.00327 M 70.560164,158.6421 C 62.497305,165.93051 48.911869,176.10245 63.571983,186.33502 M 63.621797,128.1241 C 54.204974,101.56707 29.424638,140.30206 28.823989,161.15395 M 37.394223,143.73176 C 97.664572,113.93609 95.398147,143.3221 76.842649,154.58298 M 54.386801,169.98384 C 25.191421,165.17091 -2.4959219,162.9846 27.560976,146.55671 M 28.412267,172.20832 C 29.269634,208.43435 97.690653,186.44096 61.824831,172.88668"
       style="fill:none;fill-rule:evenodd;stroke:#000000;stroke-width:1.3;stroke-linecap:butt;stroke-linejoin:miter;stroke-miterlimit:4;stroke-opacity:1;stroke-dasharray:none"
       id="path5497"
       sodipodi:nodetypes="cccccccccccc" />
    <path
       d="M 120.67779,138.09213 C 127.49417,125.95226 169.37545,106.3945 163.66877,131.10894 M 156.74231,173.58287 C 102.15188,177.15986 97.775913,158.37874 115.72667,144.16323 M 133.80098,151.60616 C 107.80795,136.77163 91.610317,116.39633 133.0044,122.94421 M 120.88757,175.82032 C 112.20298,191.96577 149.88316,199.72182 162.03718,186.10563 C 171.45196,171.42464 151.65262,165.73791 141.85137,157.12635 M 160.20298,137.61368 C 150.38951,154.75261 133.51196,150.143 124.35335,168.01462 M 143.1767,126.47204 C 162.73208,129.01785 200.54057,161.23024 167.13967,171.41463"
       style="fill:none;fill-rule:evenodd;stroke:#000000;stroke-width:1.3;stroke-linecap:butt;stroke-linejoin:miter;stroke-miterlimit:4;stroke-opacity:1;stroke-dasharray:none"
       id="path5786"
       sodipodi:nodetypes="ccccccccccccc" />
    <path
       d="M 240.83953,160.95249 C 254.89417,210.40067 194.39043,195.99122 203.09542,164.1386 M 229.35333,158.82299 C 239.45927,154.80901 249.67263,161.64959 260.8659,155.893 M 265.30705,152.21066 C 292.53384,116.58237 225.99857,99.849759 239.88787,153.58779 M 243.79237,184.7444 C 268.02154,199.79537 274.77664,140.07564 242.31566,130.71798 M 236.28841,129.61327 C 200.00907,125.69934 178.70672,168.85728 222.05719,161.76889 M 205.60132,156.47967 C 214.63626,137.55247 230.31913,164.56483 239.35124,180.32557"
       style="fill:none;fill-rule:evenodd;stroke:#000000;stroke-width:1.3;stroke-linecap:butt;stroke-linejoin:miter;stroke-miterlimit:4;stroke-opacity:1;stroke-dasharray:none"
       id="path5839" />
    <path
       d="M 357.91567,157.05725 C 350.58299,185.80848 352.16288,197.61395 335.00817,191.67163 M 304.23513,171.80368 C 295.3686,133.10306 296.69641,129.094 311.03294,128.57502 M 321.09541,128.04834 C 331.3552,125.13633 365.98589,125.78469 360.79067,148.6303 M 303.14234,140.30291 C 327.63572,116.75355 332.02535,114.88548 340.1213,124.87204 M 327.34152,185.87809 C 296.73823,174.79317 279.52196,164.3114 295.95486,146.62312 M 349.94547,179.34618 C 326.12711,191.37006 309.83946,200.27209 306.63096,180.75732 M 345.87128,132.7723 C 361.7443,155.55844 370.48622,163.21449 356.91683,175.81651"
       style="fill:none;fill-rule:evenodd;stroke:#000000;stroke-width:1.3;stroke-linecap:butt;stroke-linejoin:miter;stroke-miterlimit:4;stroke-opacity:1;stroke-dasharray:none"
       id="path6026" />
    <path
       d="M 391.31517,136.18612 C 358.91685,146.64131 415.54273,158.22449 422.35963,170.954 M 440.4369,135.67515 C 436.42319,109.66746 410.80977,130.70666 399.65122,133.77944 M 441.35899,169.81109 C 429.46546,174.73995 402.14698,182.57583 422.62935,187.82937 M 422.23255,128.04875 C 433.62755,139.15279 470.20017,152.86375 448.50418,166.60218 M 395.89267,150.69265 C 395.39999,129.74352 397.33847,111.66663 415.08737,122.43317 M 426.32917,179.37738 C 431.50039,208.0292 396.14878,187.03506 396.68657,159.91825 M 430.56845,188.23047 C 456.47401,182.46677 443.49551,163.77476 442.02472,145.70297"
       style="fill:none;fill-rule:evenodd;stroke:#000000;stroke-width:1.3;stroke-linecap:butt;stroke-linejoin:miter;stroke-miterlimit:4;stroke-opacity:1;stroke-dasharray:none"
       id="path7136" />
    <path
       d="M 53.225107,288.23658 C 78.741179,320.67929 -10.518911,301.48507 22.469272,255.57382 M 65.693201,257.73806 C 52.019758,265.6073 35.373017,274.14324 47.849987,284.38585 M 40.259408,239.64514 C 88.080426,243.89158 94.488305,238.51799 73.6444,253.32709 M 45.553423,265.42591 C 32.608976,258.80996 -7.762644,236.75296 30.698167,239.64513 M 48.927279,300.65696 C 20.941023,290.06597 80.117635,285.14134 52.78247,269.23377 M 63.833049,245.62447 C 117.47195,315.53642 68.112523,306.02481 59.988076,303.06053 M 27.632869,250.76669 C 37.529517,242.84669 45.005167,219.91751 58.336008,237.94812"
       style="fill:none;fill-rule:evenodd;stroke:#000000;stroke-width:1.3;stroke-linecap:butt;stroke-linejoin:miter;stroke-miterlimit:4;stroke-opacity:1;stroke-dasharray:none"
       id="path7183" />
    <path
       d="M 174.64602,269.11632 C 166.75392,297.30531 137.1914,313.86568 125.17824,300.45541 M 120.8802,294.04268 C 93.941377,251.20763 110.51088,227.03692 122.27427,240.05158 M 126.94604,245.39553 C 136.82966,257.03837 150.90092,283.13125 156.40937,292.60576 M 159.00134,298.66045 C 166.00619,314.78989 199.81674,298.24754 164.01037,244.64256 M 160.55669,239.6602 C 143.59712,215.57184 115.5928,248.78691 111.25348,267.59457 M 108.4504,273.98779 C 103.64571,288.49702 103.33383,331.99616 141.76908,274.28824 M 144.9459,267.51924 C 164.33451,224.40227 184.57668,236.43217 177.07535,260.92228"
       style="fill:none;fill-rule:evenodd;stroke:#000000;stroke-width:1.29999995;stroke-linecap:butt;stroke-linejoin:miter;stroke-miterlimit:4;stroke-dasharray:none;stroke-opacity:1"
       id="path7225" />
    <g
       id="g3402"
       transform="matrix(-1,0,0,1,469.80876,0)">
      <path
         id="path7257"
         style="fill:none;fill-rule:evenodd;stroke:#000000;stroke-width:1.29999995;stroke-linecap:butt;stroke-linejoin:miter;stroke-miterlimit:4;stroke-dasharray:none;stroke-opacity:1"
         d="M 218.64803,295.57918 C 179.53878,285.93186 203.37621,257.50892 227.95191,241.5147 M 248.54134,297.24589 C 262.65399,310.30213 203.10321,307.63258 229.81169,286.48291 M 234.87341,235.31448 C 242.3722,226.23796 278.08663,231.51863 238.36716,258.3435 M 255.60232,247.88184 C 283.21586,260.95299 276.5392,292.62053 229.29763,297.28632 M 230.29204,264.95708 C 222.45796,273.21629 230.55093,279.46546 243.39232,290.9382 M 207.46272,251.997 C 193.61134,243.1136 222.25503,230.41471 249.03237,244.36008 M 238.46357,279.86933 C 255.77174,261.86311 240.30666,266.72231 215.69517,256.69943" />
    </g>
    <path
       d="M 297.92681,268.24499 C 296.56349,280.88167 309.2924,293.71677 323.47559,294.36662 M 337.46655,271.97668 C 335.23251,287.99117 315.47306,320.85564 313.13441,296.49906 M 333.81674,295.96591 C 368.10148,307.3896 366.00138,228.23743 339.2915,262.38098 M 316.17593,286.90335 C 317.73221,272.60775 327.70514,247.51846 308.26799,243.18959 M 296.71024,243.18959 C 276.84467,246.94333 297.24366,272.33006 314.351,262.36737 M 324.08387,260.24862 C 334.19577,261.32615 344.28591,275.08206 352.67415,264.51337 M 361.19042,255.98381 C 378.82154,228.46425 293.98838,217.0292 299.1434,258.11625"
       style="fill:none;fill-rule:evenodd;stroke:#000000;stroke-width:1.29999995;stroke-linecap:butt;stroke-linejoin:miter;stroke-miterlimit:4;stroke-dasharray:none;stroke-opacity:1"
       id="path8242"
       sodipodi:nodetypes="cccccccccccccc" />
    <path
       d="M 438.03959,244.57037 C 418.17843,217.17938 400.80421,236.42586 399.21459,261.62468 M 396.99602,270.80778 C 387.5985,324.78902 424.5305,305.92713 425.37319,273.59924 M 406.74214,245.13475 C 412.37753,252.01866 413.93234,269.07266 412.50586,277.69326 C 411.62368,283.84032 410.9933,289.52147 414.07653,295.33659 M 419.18174,300.98075 C 447.99485,316.22196 453.35578,268.63121 443.58601,253.75351 M 426.39209,262.93658 C 441.57409,234.25536 463.89706,252.34994 451.90566,264.90438 M 408.08889,266.87216 C 374.36899,269.78511 373.32625,229.73221 400.32386,241.29073 M 444.69529,268.83998 C 434.52648,272.87277 430.37071,268.32609 416.96314,267.52807"
       style="fill:none;fill-rule:evenodd;stroke:#000000;stroke-width:1.29999995;stroke-linecap:butt;stroke-linejoin:miter;stroke-miterlimit:4;stroke-dasharray:none;stroke-opacity:1"
       id="path9235"
       sodipodi:nodetypes="ccccccccccccccc" />
    <path
       d="M 22.390624,92.658924 L 24.063386,92.658924 L 24.063386,99.744862 C 24.063384,100.99487 24.30235,101.89591 24.780285,102.44799 C 25.258213,102.99486 26.032792,103.2683 27.104024,103.2683 C 28.169751,103.2683 28.941583,102.99486 29.419523,102.44799 C 29.897446,101.89591 30.136412,100.99487 30.136421,99.744862 L 30.136421,92.658924 L 31.809183,92.658924 L 31.809183,99.940174 C 31.809173,101.46101 31.410896,102.60945 30.614353,103.38549 C 29.823285,104.16153 28.653176,104.54955 27.104024,104.54955 C 25.549366,104.54955 24.373764,104.16153 23.577214,103.38549 C 22.786152,102.60945 22.390623,101.46101 22.390624,99.940174 L 22.390624,92.658924 M 42.546176,99.041737 L 42.546176,104.32299 L 41.029978,104.32299 L 41.029978,99.088612 C 41.02997,98.260493 40.859672,97.640702 40.519085,97.229237 C 40.178483,96.817786 39.66759,96.612057 38.986406,96.612049 C 38.167874,96.612057 37.522391,96.859452 37.049956,97.354237 C 36.577515,97.849035 36.341296,98.523513 36.341299,99.377674 L 36.341299,104.32299 L 34.81686,104.32299 L 34.81686,95.572987 L 36.341299,95.572987 L 36.341299,96.932362 C 36.703864,96.406328 37.129609,96.013099 37.618531,95.752674 C 38.112938,95.492266 38.681512,95.362058 39.324254,95.362049 C 40.384488,95.362058 41.186534,95.674558 41.730395,96.299549 C 42.274241,96.919348 42.546167,97.83341 42.546176,99.041737 M 45.529132,92.166737 L 47.053571,92.166737 L 47.053571,99.346424 L 51.577446,95.572987 L 53.513896,95.572987 L 48.61921,99.666737 L 53.7199,104.32299 L 51.74225,104.32299 L 47.053571,100.04955 L 47.053571,104.32299 L 45.529132,104.32299 L 45.529132,92.166737 M 63.014856,99.041737 L 63.014856,104.32299 L 61.498658,104.32299 L 61.498658,99.088612 C 61.498651,98.260493 61.328352,97.640702 60.987765,97.229237 C 60.647163,96.817786 60.13627,96.612057 59.455086,96.612049 C 58.636554,96.612057 57.991071,96.859452 57.518636,97.354237 C 57.046195,97.849035 56.809976,98.523513 56.809979,99.377674 L 56.809979,104.32299 L 55.28554,104.32299 L 55.28554,95.572987 L 56.809979,95.572987 L 56.809979,96.932362 C 57.172544,96.406328 57.598289,96.013099 58.087211,95.752674 C 58.581619,95.492266 59.150192,95.362058 59.792934,95.362049 C 60.853168,95.362058 61.655214,95.674558 62.199075,96.299549 C 62.742921,96.919348 63.014847,97.83341 63.014856,99.041737 M 69.631745,96.580799 C 68.818706,96.580807 68.175971,96.88289 67.703535,97.487049 C 67.231094,98.086014 66.994875,98.908929 66.994878,99.955799 C 66.994875,101.00268 67.228347,101.8282 67.695295,102.43236 C 68.16773,103.03132 68.813213,103.3308 69.631745,103.3308 C 70.439279,103.3308 71.079268,103.02872 71.551713,102.42455 C 72.024145,101.82038 72.260364,100.99747 72.260371,99.955799 C 72.260364,98.919346 72.024145,98.099034 71.551713,97.494862 C 71.079268,96.885494 70.439279,96.580807 69.631745,96.580799 M 69.631745,95.362049 C 70.950171,95.362058 71.98569,95.768308 72.738304,96.580799 C 73.4909,97.393306 73.867203,98.518305 73.867212,99.955799 C 73.867203,101.38809 73.4909,102.51309 72.738304,103.3308 C 71.98569,104.1433 70.950171,104.54955 69.631745,104.54955 C 68.307814,104.54955 67.269549,104.1433 66.516945,103.3308 C 65.769832,102.51309 65.396276,101.38809 65.396276,99.955799 C 65.396276,98.518305 65.769832,97.393306 66.516945,96.580799 C 67.269549,95.768308 68.307814,95.362058 69.631745,95.362049 M 77.871955,93.088612 L 77.871955,95.572987 L 80.994993,95.572987 L 80.994993,96.690174 L 77.871955,96.690174 L 77.871955,101.44017 C 77.871951,102.15372 77.97358,102.61205 78.176842,102.81517 C 78.38559,103.0183 78.80584,103.11986 79.437593,103.11986 L 80.994993,103.11986 L 80.994993,104.32299 L 79.437593,104.32299 C 78.26748,104.32299 77.459941,104.11726 77.014973,103.7058 C 76.569999,103.28913 76.347514,102.53393 76.347515,101.44017 L 76.347515,96.690174 L 75.235088,96.690174 L 75.235088,95.572987 L 76.347515,95.572987 L 76.347515,93.088612 L 77.871955,93.088612"
       style="font-size:16px"
       id="flowRoot9254" />
    <g
       transform="matrix(1.0547468,0,0,1,57.351783,-235.28529)"
       id="g9278">
      <path
         d="M 16.492188,90.033924 C 17.247389,90.195389 17.83593,90.531326 18.257812,91.041737 C 18.684887,91.552158 18.898429,92.182366 18.898438,92.932362 C 18.898429,94.083405 18.502596,94.97403 17.710938,95.604237 C 16.919264,96.234445 15.794265,96.549549 14.335938,96.549549 C 13.84635,96.549549 13.341142,96.50007 12.820312,96.401112 C 12.304685,96.307362 11.770832,96.164133 11.21875,95.971424 L 11.21875,94.447987 C 11.656248,94.703197 12.135415,94.895905 12.65625,95.026112 C 13.17708,95.156321 13.72135,95.221425 14.289062,95.221424 C 15.278641,95.221425 16.031244,95.026113 16.546875,94.635487 C 17.067701,94.244864 17.328118,93.677156 17.328125,92.932362 C 17.328118,92.244866 17.08593,91.708408 16.601562,91.322987 C 16.12239,90.932367 15.45312,90.737055 14.59375,90.737049 L 13.234375,90.737049 L 13.234375,89.440174 L 14.65625,89.440174 C 15.432286,89.440181 16.026036,89.286535 16.4375,88.979237 C 16.848951,88.666744 17.05468,88.218828 17.054688,87.635487 C 17.05468,87.036538 16.841139,86.578205 16.414062,86.260487 C 15.992182,85.93758 15.385411,85.776122 14.59375,85.776112 C 14.161454,85.776122 13.697913,85.822997 13.203125,85.916737 C 12.708331,86.010497 12.16406,86.15633 11.570312,86.354237 L 11.570312,84.947987 C 12.169269,84.781331 12.729164,84.656332 13.25,84.572987 C 13.776038,84.489665 14.270829,84.447998 14.734375,84.447987 C 15.932286,84.447998 16.880201,84.721436 17.578125,85.268299 C 18.276033,85.809976 18.624991,86.544351 18.625,87.471424 C 18.624991,88.117266 18.440096,88.66414 18.070312,89.112049 C 17.700513,89.554764 17.174472,89.862056 16.492188,90.033924"
         transform="translate(64.82812,241.00404)"
         style="font-size:16px"
         id="flowRoot9262" />
      <path
         d="M 86.488281,347.3399 L 88.421875,347.3399 L 88.421875,340.66607 L 86.318359,341.08794 L 86.318359,340.00982 L 88.410156,339.58794 L 89.59375,339.58794 L 89.59375,347.3399 L 91.527344,347.3399 L 91.527344,348.33599 L 86.488281,348.33599 L 86.488281,347.3399"
         transform="translate(-1,-3)"
         id="flowRoot9270" />
    </g>
    <g
       transform="matrix(1.0547468,0,0,1,153.05757,-235.28529)"
       id="g9288">
      <path
         d="M 16.046875,86.033924 L 12.0625,92.260487 L 16.046875,92.260487 L 16.046875,86.033924 M 15.632812,84.658924 L 17.617188,84.658924 L 17.617188,92.260487 L 19.28125,92.260487 L 19.28125,93.572987 L 17.617188,93.572987 L 17.617188,96.322987 L 16.046875,96.322987 L 16.046875,93.572987 L 10.78125,93.572987 L 10.78125,92.049549 L 15.632812,84.658924"
         transform="translate(64.82812,241.00404)"
         style="font-size:16px"
         id="flowRoot9290" />
      <path
         d="M 86.488281,347.3399 L 88.421875,347.3399 L 88.421875,340.66607 L 86.318359,341.08794 L 86.318359,340.00982 L 88.410156,339.58794 L 89.59375,339.58794 L 89.59375,347.3399 L 91.527344,347.3399 L 91.527344,348.33599 L 86.488281,348.33599 L 86.488281,347.3399"
         transform="translate(-1,-3)"
         id="flowRoot9298" />
    </g>
    <g
       transform="matrix(1.0547468,0,0,1,242.76337,-235.28529)"
       id="g9306">
      <path
         d="M 11.726562,84.658924 L 17.921875,84.658924 L 17.921875,85.987049 L 13.171875,85.987049 L 13.171875,88.846424 C 13.401038,88.768307 13.630205,88.711015 13.859375,88.674549 C 14.088538,88.63289 14.317704,88.612057 14.546875,88.612049 C 15.848952,88.612057 16.880201,88.968827 17.640625,89.682362 C 18.401033,90.395909 18.781241,91.362054 18.78125,92.580799 C 18.781241,93.83601 18.390617,94.812571 17.609375,95.510487 C 16.828118,96.203195 15.726557,96.549549 14.304688,96.549549 C 13.8151,96.549549 13.315101,96.507882 12.804688,96.424549 C 12.299477,96.341216 11.77604,96.216216 11.234375,96.049549 L 11.234375,94.463612 C 11.703123,94.718822 12.187498,94.908925 12.6875,95.033924 C 13.187497,95.158925 13.716142,95.221425 14.273438,95.221424 C 15.174474,95.221425 15.888015,94.984446 16.414062,94.510487 C 16.940097,94.036531 17.203118,93.393302 17.203125,92.580799 C 17.203118,91.768304 16.940097,91.125075 16.414062,90.651112 C 15.888015,90.177159 15.174474,89.94018 14.273438,89.940174 C 13.851559,89.94018 13.429684,89.987055 13.007812,90.080799 C 12.591143,90.174555 12.16406,90.320388 11.726562,90.518299 L 11.726562,84.658924"
         transform="translate(64.82812,241.00404)"
         style="font-size:16px"
         id="flowRoot9308" />
      <path
         d="M 86.488281,347.3399 L 88.421875,347.3399 L 88.421875,340.66607 L 86.318359,341.08794 L 86.318359,340.00982 L 88.410156,339.58794 L 89.59375,339.58794 L 89.59375,347.3399 L 91.527344,347.3399 L 91.527344,348.33599 L 86.488281,348.33599 L 86.488281,347.3399"
         transform="translate(-1,-3)"
         id="flowRoot9316" />
    </g>
    <g
       transform="matrix(1.0547468,0,0,1,330.46914,-235.28529)"
       id="g9324">
      <path
         d="M 11.726562,84.658924 L 17.921875,84.658924 L 17.921875,85.987049 L 13.171875,85.987049 L 13.171875,88.846424 C 13.401038,88.768307 13.630205,88.711015 13.859375,88.674549 C 14.088538,88.63289 14.317704,88.612057 14.546875,88.612049 C 15.848952,88.612057 16.880201,88.968827 17.640625,89.682362 C 18.401033,90.395909 18.781241,91.362054 18.78125,92.580799 C 18.781241,93.83601 18.390617,94.812571 17.609375,95.510487 C 16.828118,96.203195 15.726557,96.549549 14.304688,96.549549 C 13.8151,96.549549 13.315101,96.507882 12.804688,96.424549 C 12.299477,96.341216 11.77604,96.216216 11.234375,96.049549 L 11.234375,94.463612 C 11.703123,94.718822 12.187498,94.908925 12.6875,95.033924 C 13.187497,95.158925 13.716142,95.221425 14.273438,95.221424 C 15.174474,95.221425 15.888015,94.984446 16.414062,94.510487 C 16.940097,94.036531 17.203118,93.393302 17.203125,92.580799 C 17.203118,91.768304 16.940097,91.125075 16.414062,90.651112 C 15.888015,90.177159 15.174474,89.94018 14.273438,89.940174 C 13.851559,89.94018 13.429684,89.987055 13.007812,90.080799 C 12.591143,90.174555 12.16406,90.320388 11.726562,90.518299 L 11.726562,84.658924"
         transform="translate(64.82812,241.00404)"
         style="font-size:16px"
         id="flowRoot9326" />
      <path
         d="M 87.302734,347.3399 L 91.433594,347.3399 L 91.433594,348.33599 L 85.878906,348.33599 L 85.878906,347.3399 C 86.328124,346.87505 86.939451,346.25201 87.712891,345.47076 C 88.490231,344.6856 88.978512,344.17974 89.177734,343.95318 C 89.556636,343.5274 89.820308,343.16803 89.96875,342.87505 C 90.121089,342.57818 90.19726,342.28717 90.197266,342.00201 C 90.19726,341.53717 90.033198,341.15826 89.705078,340.86529 C 89.380855,340.57233 88.957027,340.42584 88.433594,340.42583 C 88.062497,340.42584 87.669919,340.49029 87.255859,340.61919 C 86.845701,340.74811 86.406249,340.94342 85.9375,341.20513 L 85.9375,340.00982 C 86.414061,339.81842 86.859373,339.67389 87.273438,339.57622 C 87.687497,339.47858 88.066403,339.42975 88.410156,339.42974 C 89.316402,339.42975 90.039057,339.65631 90.578125,340.10943 C 91.117181,340.56256 91.386712,341.16803 91.386719,341.92583 C 91.386712,342.28521 91.318353,342.62701 91.181641,342.95122 C 91.048822,343.27154 90.804682,343.65045 90.449219,344.08794 C 90.351557,344.20123 90.041011,344.52935 89.517578,345.07232 C 88.994137,345.61138 88.255856,346.36724 87.302734,347.3399"
         transform="translate(-1,-3)"
         id="flowRoot9334" />
    </g>
    <g
       transform="translate(-29.794288,-126.82088)"
       id="g9342">
      <path
         d="M 15.28125,89.862049 C 14.572912,89.862056 14.010413,90.104243 13.59375,90.588612 C 13.182288,91.072992 12.97656,91.737054 12.976562,92.580799 C 12.97656,93.419344 13.182288,94.083405 13.59375,94.572987 C 14.010413,95.057363 14.572912,95.29955 15.28125,95.299549 C 15.989577,95.29955 16.549473,95.057363 16.960938,94.572987 C 17.377597,94.083405 17.58593,93.419344 17.585938,92.580799 C 17.58593,91.737054 17.377597,91.072992 16.960938,90.588612 C 16.549473,90.104243 15.989577,89.862056 15.28125,89.862049 M 18.414062,84.916737 L 18.414062,86.354237 C 18.018221,86.166747 17.61718,86.023518 17.210938,85.924549 C 16.809889,85.825601 16.411452,85.776122 16.015625,85.776112 C 14.973953,85.776122 14.177079,86.127684 13.625,86.830799 C 13.078122,87.533933 12.765622,88.596432 12.6875,90.018299 C 12.994789,89.565181 13.380205,89.218827 13.84375,88.979237 C 14.307287,88.734452 14.817704,88.612057 15.375,88.612049 C 16.546868,88.612057 17.471347,88.968827 18.148438,89.682362 C 18.83072,90.390701 19.171866,91.356846 19.171875,92.580799 C 19.171866,93.778718 18.8177,94.739655 18.109375,95.463612 C 17.401034,96.18757 16.458327,96.549549 15.28125,96.549549 C 13.932288,96.549549 12.901039,96.033924 12.1875,95.002674 C 11.473957,93.966218 11.117186,92.46622 11.117188,90.502674 C 11.117186,88.658932 11.554686,87.190183 12.429688,86.096424 C 13.304684,84.997477 14.479162,84.447998 15.953125,84.447987 C 16.348952,84.447998 16.747389,84.487061 17.148438,84.565174 C 17.55468,84.643311 17.976555,84.760498 18.414062,84.916737"
         transform="translate(64.82812,241.00404)"
         style="font-size:16px"
         id="flowRoot9344" />
      <path
         d="M 86.488281,347.3399 L 88.421875,347.3399 L 88.421875,340.66607 L 86.318359,341.08794 L 86.318359,340.00982 L 88.410156,339.58794 L 89.59375,339.58794 L 89.59375,347.3399 L 91.527344,347.3399 L 91.527344,348.33599 L 86.488281,348.33599 L 86.488281,347.3399"
         transform="translate(-1,-3)"
         id="flowRoot9352" />
    </g>
    <g
       transform="translate(60.712893,-126.82088)"
       id="g9360">
      <path
         d="M 15.28125,89.862049 C 14.572912,89.862056 14.010413,90.104243 13.59375,90.588612 C 13.182288,91.072992 12.97656,91.737054 12.976562,92.580799 C 12.97656,93.419344 13.182288,94.083405 13.59375,94.572987 C 14.010413,95.057363 14.572912,95.29955 15.28125,95.299549 C 15.989577,95.29955 16.549473,95.057363 16.960938,94.572987 C 17.377597,94.083405 17.58593,93.419344 17.585938,92.580799 C 17.58593,91.737054 17.377597,91.072992 16.960938,90.588612 C 16.549473,90.104243 15.989577,89.862056 15.28125,89.862049 M 18.414062,84.916737 L 18.414062,86.354237 C 18.018221,86.166747 17.61718,86.023518 17.210938,85.924549 C 16.809889,85.825601 16.411452,85.776122 16.015625,85.776112 C 14.973953,85.776122 14.177079,86.127684 13.625,86.830799 C 13.078122,87.533933 12.765622,88.596432 12.6875,90.018299 C 12.994789,89.565181 13.380205,89.218827 13.84375,88.979237 C 14.307287,88.734452 14.817704,88.612057 15.375,88.612049 C 16.546868,88.612057 17.471347,88.968827 18.148438,89.682362 C 18.83072,90.390701 19.171866,91.356846 19.171875,92.580799 C 19.171866,93.778718 18.8177,94.739655 18.109375,95.463612 C 17.401034,96.18757 16.458327,96.549549 15.28125,96.549549 C 13.932288,96.549549 12.901039,96.033924 12.1875,95.002674 C 11.473957,93.966218 11.117186,92.46622 11.117188,90.502674 C 11.117186,88.658932 11.554686,87.190183 12.429688,86.096424 C 13.304684,84.997477 14.479162,84.447998 15.953125,84.447987 C 16.348952,84.447998 16.747389,84.487061 17.148438,84.565174 C 17.55468,84.643311 17.976555,84.760498 18.414062,84.916737"
         transform="translate(64.82812,241.00404)"
         style="font-size:16px"
         id="flowRoot9362" />
      <path
         d="M 87.302734,347.3399 L 91.433594,347.3399 L 91.433594,348.33599 L 85.878906,348.33599 L 85.878906,347.3399 C 86.328124,346.87505 86.939451,346.25201 87.712891,345.47076 C 88.490231,344.6856 88.978512,344.17974 89.177734,343.95318 C 89.556636,343.5274 89.820308,343.16803 89.96875,342.87505 C 90.121089,342.57818 90.19726,342.28717 90.197266,342.00201 C 90.19726,341.53717 90.033198,341.15826 89.705078,340.86529 C 89.380855,340.57233 88.957027,340.42584 88.433594,340.42583 C 88.062497,340.42584 87.669919,340.49029 87.255859,340.61919 C 86.845701,340.74811 86.406249,340.94342 85.9375,341.20513 L 85.9375,340.00982 C 86.414061,339.81842 86.859373,339.67389 87.273438,339.57622 C 87.687497,339.47858 88.066403,339.42975 88.410156,339.42974 C 89.316402,339.42975 90.039057,339.65631 90.578125,340.10943 C 91.117181,340.56256 91.386712,341.16803 91.386719,341.92583 C 91.386712,342.28521 91.318353,342.62701 91.181641,342.95122 C 91.048822,343.27154 90.804682,343.65045 90.449219,344.08794 C 90.351557,344.20123 90.041011,344.52935 89.517578,345.07232 C 88.994137,345.61138 88.255856,346.36724 87.302734,347.3399"
         transform="translate(-1,-3)"
         id="flowRoot9370" />
    </g>
    <g
       transform="translate(154.71289,-126.82088)"
       id="g9378">
      <path
         d="M 15.28125,89.862049 C 14.572912,89.862056 14.010413,90.104243 13.59375,90.588612 C 13.182288,91.072992 12.97656,91.737054 12.976562,92.580799 C 12.97656,93.419344 13.182288,94.083405 13.59375,94.572987 C 14.010413,95.057363 14.572912,95.29955 15.28125,95.299549 C 15.989577,95.29955 16.549473,95.057363 16.960938,94.572987 C 17.377597,94.083405 17.58593,93.419344 17.585938,92.580799 C 17.58593,91.737054 17.377597,91.072992 16.960938,90.588612 C 16.549473,90.104243 15.989577,89.862056 15.28125,89.862049 M 18.414062,84.916737 L 18.414062,86.354237 C 18.018221,86.166747 17.61718,86.023518 17.210938,85.924549 C 16.809889,85.825601 16.411452,85.776122 16.015625,85.776112 C 14.973953,85.776122 14.177079,86.127684 13.625,86.830799 C 13.078122,87.533933 12.765622,88.596432 12.6875,90.018299 C 12.994789,89.565181 13.380205,89.218827 13.84375,88.979237 C 14.307287,88.734452 14.817704,88.612057 15.375,88.612049 C 16.546868,88.612057 17.471347,88.968827 18.148438,89.682362 C 18.83072,90.390701 19.171866,91.356846 19.171875,92.580799 C 19.171866,93.778718 18.8177,94.739655 18.109375,95.463612 C 17.401034,96.18757 16.458327,96.549549 15.28125,96.549549 C 13.932288,96.549549 12.901039,96.033924 12.1875,95.002674 C 11.473957,93.966218 11.117186,92.46622 11.117188,90.502674 C 11.117186,88.658932 11.554686,87.190183 12.429688,86.096424 C 13.304684,84.997477 14.479162,84.447998 15.953125,84.447987 C 16.348952,84.447998 16.747389,84.487061 17.148438,84.565174 C 17.55468,84.643311 17.976555,84.760498 18.414062,84.916737"
         transform="translate(64.82812,241.00404)"
         style="font-size:16px"
         id="flowRoot9380" />
      <path
         d="M 89.869141,343.61919 C 90.435541,343.74029 90.876947,343.99224 91.193359,344.37505 C 91.513665,344.75787 91.673821,345.23052 91.673828,345.79302 C 91.673821,346.6563 91.376947,347.32427 90.783203,347.79693 C 90.189448,348.26958 89.345699,348.50591 88.251953,348.50591 C 87.884763,348.50591 87.505857,348.4688 87.115234,348.39458 C 86.728514,348.32427 86.328124,348.21685 85.914062,348.07232 L 85.914062,346.92974 C 86.242186,347.12115 86.601561,347.26568 86.992188,347.36333 C 87.38281,347.46099 87.791013,347.50982 88.216797,347.50982 C 88.95898,347.50982 89.523433,347.36333 89.910156,347.07036 C 90.300776,346.7774 90.496088,346.35162 90.496094,345.79302 C 90.496088,345.2774 90.314448,344.87506 89.951172,344.58599 C 89.591792,344.29303 89.08984,344.14654 88.445312,344.14654 L 87.425781,344.14654 L 87.425781,343.17388 L 88.492188,343.17388 C 89.074215,343.17389 89.519527,343.05865 89.828125,342.82818 C 90.136714,342.59381 90.29101,342.25787 90.291016,341.82036 C 90.29101,341.37115 90.130854,341.0274 89.810547,340.78911 C 89.494136,340.54694 89.039058,340.42584 88.445312,340.42583 C 88.121091,340.42584 87.773435,340.461 87.402344,340.5313 C 87.031248,340.60162 86.623045,340.711 86.177734,340.85943 L 86.177734,339.80474 C 86.626951,339.67975 87.046873,339.586 87.4375,339.52349 C 87.832028,339.461 88.203122,339.42975 88.550781,339.42974 C 89.449214,339.42975 90.160151,339.63483 90.683594,340.04497 C 91.207025,340.45123 91.468744,341.00201 91.46875,341.69732 C 91.468744,342.1817 91.330072,342.59186 91.052734,342.92779 C 90.775385,343.25982 90.380854,343.49029 89.869141,343.61919"
         transform="translate(-1,-3)"
         id="flowRoot9388" />
    </g>
    <g
       transform="translate(246.71289,-127.03182)"
       id="g9396">
      <path
         d="M 11.3125,84.658924 L 18.8125,84.658924 L 18.8125,85.330799 L 14.578125,96.322987 L 12.929688,96.322987 L 16.914062,85.987049 L 11.3125,85.987049 L 11.3125,84.658924"
         transform="translate(64.82812,241.00404)"
         style="font-size:16px"
         id="flowRoot9398" />
      <path
         d="M 86.488281,347.3399 L 88.421875,347.3399 L 88.421875,340.66607 L 86.318359,341.08794 L 86.318359,340.00982 L 88.410156,339.58794 L 89.59375,339.58794 L 89.59375,347.3399 L 91.527344,347.3399 L 91.527344,348.33599 L 86.488281,348.33599 L 86.488281,347.3399"
         transform="translate(-1,-3)"
         id="flowRoot9406" />
    </g>
    <g
       transform="translate(339.71289,-127.03182)"
       id="g9414">
      <path
         d="M 11.3125,84.658924 L 18.8125,84.658924 L 18.8125,85.330799 L 14.578125,96.322987 L 12.929688,96.322987 L 16.914062,85.987049 L 11.3125,85.987049 L 11.3125,84.658924"
         transform="translate(64.82812,241.00404)"
         style="font-size:16px"
         id="flowRoot9416" />
      <path
         d="M 87.302734,347.3399 L 91.433594,347.3399 L 91.433594,348.33599 L 85.878906,348.33599 L 85.878906,347.3399 C 86.328124,346.87505 86.939451,346.25201 87.712891,345.47076 C 88.490231,344.6856 88.978512,344.17974 89.177734,343.95318 C 89.556636,343.5274 89.820308,343.16803 89.96875,342.87505 C 90.121089,342.57818 90.19726,342.28717 90.197266,342.00201 C 90.19726,341.53717 90.033198,341.15826 89.705078,340.86529 C 89.380855,340.57233 88.957027,340.42584 88.433594,340.42583 C 88.062497,340.42584 87.669919,340.49029 87.255859,340.61919 C 86.845701,340.74811 86.406249,340.94342 85.9375,341.20513 L 85.9375,340.00982 C 86.414061,339.81842 86.859373,339.67389 87.273438,339.57622 C 87.687497,339.47858 88.066403,339.42975 88.410156,339.42974 C 89.316402,339.42975 90.039057,339.65631 90.578125,340.10943 C 91.117181,340.56256 91.386712,341.16803 91.386719,341.92583 C 91.386712,342.28521 91.318353,342.62701 91.181641,342.95122 C 91.048822,343.27154 90.804682,343.65045 90.449219,344.08794 C 90.351557,344.20123 90.041011,344.52935 89.517578,345.07232 C 88.994137,345.61138 88.255856,346.36724 87.302734,347.3399"
         transform="translate(-1,-3)"
         id="flowRoot9424" />
    </g>
    <g
       transform="translate(-29.287107,-10.031822)"
       id="g9432">
      <path
         d="M 11.3125,84.658924 L 18.8125,84.658924 L 18.8125,85.330799 L 14.578125,96.322987 L 12.929688,96.322987 L 16.914062,85.987049 L 11.3125,85.987049 L 11.3125,84.658924"
         transform="translate(64.82812,241.00404)"
         style="font-size:16px"
         id="flowRoot9434" />
      <path
         d="M 89.869141,343.61919 C 90.435541,343.74029 90.876947,343.99224 91.193359,344.37505 C 91.513665,344.75787 91.673821,345.23052 91.673828,345.79302 C 91.673821,346.6563 91.376947,347.32427 90.783203,347.79693 C 90.189448,348.26958 89.345699,348.50591 88.251953,348.50591 C 87.884763,348.50591 87.505857,348.4688 87.115234,348.39458 C 86.728514,348.32427 86.328124,348.21685 85.914062,348.07232 L 85.914062,346.92974 C 86.242186,347.12115 86.601561,347.26568 86.992188,347.36333 C 87.38281,347.46099 87.791013,347.50982 88.216797,347.50982 C 88.95898,347.50982 89.523433,347.36333 89.910156,347.07036 C 90.300776,346.7774 90.496088,346.35162 90.496094,345.79302 C 90.496088,345.2774 90.314448,344.87506 89.951172,344.58599 C 89.591792,344.29303 89.08984,344.14654 88.445312,344.14654 L 87.425781,344.14654 L 87.425781,343.17388 L 88.492188,343.17388 C 89.074215,343.17389 89.519527,343.05865 89.828125,342.82818 C 90.136714,342.59381 90.29101,342.25787 90.291016,341.82036 C 90.29101,341.37115 90.130854,341.0274 89.810547,340.78911 C 89.494136,340.54694 89.039058,340.42584 88.445312,340.42583 C 88.121091,340.42584 87.773435,340.461 87.402344,340.5313 C 87.031248,340.60162 86.623045,340.711 86.177734,340.85943 L 86.177734,339.80474 C 86.626951,339.67975 87.046873,339.586 87.4375,339.52349 C 87.832028,339.461 88.203122,339.42975 88.550781,339.42974 C 89.449214,339.42975 90.160151,339.63483 90.683594,340.04497 C 91.207025,340.45123 91.468744,341.00201 91.46875,341.69732 C 91.468744,342.1817 91.330072,342.59186 91.052734,342.92779 C 90.775385,343.25982 90.380854,343.49029 89.869141,343.61919"
         transform="translate(-1,-3)"
         id="flowRoot9442" />
    </g>
    <g
       transform="translate(61.712892,-10.031822)"
       id="g9450">
      <path
         d="M 11.3125,84.658924 L 18.8125,84.658924 L 18.8125,85.330799 L 14.578125,96.322987 L 12.929688,96.322987 L 16.914062,85.987049 L 11.3125,85.987049 L 11.3125,84.658924"
         transform="translate(64.82812,241.00404)"
         style="font-size:16px"
         id="flowRoot9452" />
      <path
         d="M 89.535156,340.61919 L 86.546875,345.28911 L 89.535156,345.28911 L 89.535156,340.61919 M 89.224609,339.58794 L 90.712891,339.58794 L 90.712891,345.28911 L 91.960938,345.28911 L 91.960938,346.27349 L 90.712891,346.27349 L 90.712891,348.33599 L 89.535156,348.33599 L 89.535156,346.27349 L 85.585938,346.27349 L 85.585938,345.13091 L 89.224609,339.58794"
         transform="translate(-1,-3)"
         id="flowRoot9460" />
    </g>
    <g
       transform="translate(153.71289,-10.031822)"
       id="g9468">
      <path
         d="M 11.3125,84.658924 L 18.8125,84.658924 L 18.8125,85.330799 L 14.578125,96.322987 L 12.929688,96.322987 L 16.914062,85.987049 L 11.3125,85.987049 L 11.3125,84.658924"
         transform="translate(64.82812,241.00404)"
         style="font-size:16px"
         id="flowRoot9470" />
      <path
         d="M 86.294922,339.58794 L 90.941406,339.58794 L 90.941406,340.58404 L 87.378906,340.58404 L 87.378906,342.72857 C 87.550779,342.66998 87.722654,342.62701 87.894531,342.59966 C 88.066403,342.56842 88.238278,342.55279 88.410156,342.55279 C 89.386714,342.55279 90.160151,342.82037 90.730469,343.35552 C 91.300775,343.89068 91.585931,344.61529 91.585938,345.52935 C 91.585931,346.47076 91.292962,347.20318 90.707031,347.72661 C 90.121089,348.24615 89.294918,348.50591 88.228516,348.50591 C 87.861325,348.50591 87.486326,348.47466 87.103516,348.41216 C 86.724608,348.34966 86.33203,348.25591 85.925781,348.13091 L 85.925781,346.94146 C 86.277342,347.13287 86.640623,347.27544 87.015625,347.36919 C 87.390623,347.46294 87.787107,347.50982 88.205078,347.50982 C 88.880855,347.50982 89.416011,347.33208 89.810547,346.97661 C 90.205073,346.62115 90.402338,346.13873 90.402344,345.52935 C 90.402338,344.91998 90.205073,344.43756 89.810547,344.08208 C 89.416011,343.72662 88.880855,343.54889 88.205078,343.54888 C 87.888669,343.54889 87.572263,343.58404 87.255859,343.65435 C 86.943357,343.72467 86.623045,343.83404 86.294922,343.98247 L 86.294922,339.58794"
         transform="translate(-1,-3)"
         id="flowRoot9478" />
    </g>
    <g
       transform="translate(243.71289,-10.031822)"
       id="g9486">
      <path
         d="M 11.3125,84.658924 L 18.8125,84.658924 L 18.8125,85.330799 L 14.578125,96.322987 L 12.929688,96.322987 L 16.914062,85.987049 L 11.3125,85.987049 L 11.3125,84.658924"
         transform="translate(64.82812,241.00404)"
         style="font-size:16px"
         id="flowRoot9488" />
      <path
         d="M 88.960938,343.49029 C 88.429684,343.49029 88.007809,343.67193 87.695312,344.03521 C 87.386716,344.39849 87.23242,344.89654 87.232422,345.52935 C 87.23242,346.15826 87.386716,346.6563 87.695312,347.02349 C 88.007809,347.38677 88.429684,347.56841 88.960938,347.56841 C 89.492183,347.56841 89.912104,347.38677 90.220703,347.02349 C 90.533198,346.6563 90.689447,346.15826 90.689453,345.52935 C 90.689447,344.89654 90.533198,344.39849 90.220703,344.03521 C 89.912104,343.67193 89.492183,343.49029 88.960938,343.49029 M 91.310547,339.7813 L 91.310547,340.85943 C 91.013666,340.71881 90.712885,340.61139 90.408203,340.53716 C 90.107417,340.46295 89.808589,340.42584 89.511719,340.42583 C 88.730465,340.42584 88.132809,340.68951 87.71875,341.21685 C 87.308591,341.7442 87.074217,342.54107 87.015625,343.60747 C 87.246092,343.26764 87.535154,343.00787 87.882812,342.82818 C 88.230466,342.64459 88.613278,342.55279 89.03125,342.55279 C 89.910151,342.55279 90.60351,342.82037 91.111328,343.35552 C 91.62304,343.88678 91.878899,344.61138 91.878906,345.52935 C 91.878899,346.42779 91.613275,347.14849 91.082031,347.69146 C 90.550776,348.23443 89.843745,348.50591 88.960938,348.50591 C 87.949216,348.50591 87.175779,348.11919 86.640625,347.34576 C 86.105468,346.56841 85.83789,345.44341 85.837891,343.97076 C 85.83789,342.58795 86.166014,341.48639 86.822266,340.66607 C 87.478513,339.84186 88.359372,339.42975 89.464844,339.42974 C 89.761714,339.42975 90.060542,339.45905 90.361328,339.51763 C 90.66601,339.57623 90.982416,339.66412 91.310547,339.7813"
         transform="translate(-1,-3)"
         id="flowRoot9496" />
    </g>
    <g
       transform="translate(336.71289,-10.031822)"
       id="g9504">
      <path
         d="M 11.3125,84.658924 L 18.8125,84.658924 L 18.8125,85.330799 L 14.578125,96.322987 L 12.929688,96.322987 L 16.914062,85.987049 L 11.3125,85.987049 L 11.3125,84.658924"
         transform="translate(64.82812,241.00404)"
         style="font-size:16px"
         id="flowRoot9506" />
      <path
         d="M 85.984375,339.58794 L 91.609375,339.58794 L 91.609375,340.09185 L 88.433594,348.33599 L 87.197266,348.33599 L 90.185547,340.58404 L 85.984375,340.58404 L 85.984375,339.58794"
         transform="translate(-1,-3)"
         id="flowRoot9514" />
    </g>
  </g>
  <g
     inkscape:groupmode="layer"
     id="layer1"
     inkscape:label="Graphes">
    <path
       sodipodi:type="arc"
       style="fill:#008000"
       id="path2442"
       sodipodi:cx="51.388889"
       sodipodi:cy="50"
       sodipodi:rx="3.2407408"
       sodipodi:ry="3.7037036"
       d="M 54.62963,50 A 3.2407408,3.7037036 0 1 1 48.148149,50 A 3.2407408,3.7037036 0 1 1 54.62963,50 z" />
    <path
       sodipodi:type="arc"
       style="fill:#008000"
       id="path2444"
       sodipodi:cx="51.388889"
       sodipodi:cy="50"
       sodipodi:rx="3.2407408"
       sodipodi:ry="3.7037036"
       d="M 54.62963,50 A 3.2407408,3.7037036 0 1 1 48.148149,50 A 3.2407408,3.7037036 0 1 1 54.62963,50 z"
       transform="matrix(1,0,0,-1,97.68518,74.07408)"
       inkscape:transform-center-x="297.22222"
       inkscape:transform-center-y="110.18519" />
    <path
       sodipodi:type="arc"
       style="fill:#008000"
       id="path2446"
       sodipodi:cx="51.388889"
       sodipodi:cy="50"
       sodipodi:rx="3.2407408"
       sodipodi:ry="3.7037036"
       d="M 54.62963,50 A 3.2407408,3.7037036 0 1 1 48.148149,50 A 3.2407408,3.7037036 0 1 1 54.62963,50 z"
       transform="translate(68.055554,17.592597)" />
    <path
       sodipodi:type="arc"
       style="fill:#008000"
       id="path2448"
       sodipodi:cx="51.388889"
       sodipodi:cy="50"
       sodipodi:rx="3.2407408"
       sodipodi:ry="3.7037036"
       d="M 54.62963,50 A 3.2407408,3.7037036 0 1 1 48.148149,50 A 3.2407408,3.7037036 0 1 1 54.62963,50 z"
       transform="translate(111.57407,24.074074)"
       inkscape:transform-center-x="43.518519"
       inkscape:transform-center-y="3.7037036" />
    <path
       sodipodi:type="arc"
       style="fill:#008000"
       id="path2450"
       sodipodi:cx="51.388889"
       sodipodi:cy="50"
       sodipodi:rx="3.2407408"
       sodipodi:ry="3.7037036"
       d="M 54.62963,50 A 3.2407408,3.7037036 0 1 1 48.148149,50 A 3.2407408,3.7037036 0 1 1 54.62963,50 z"
       transform="translate(186.57407,-29.629629)"
       inkscape:transform-center-x="30.555556"
       inkscape:transform-center-y="-67.592593" />
    <path
       sodipodi:type="arc"
       style="fill:#008000"
       id="path2452"
       sodipodi:cx="51.388889"
       sodipodi:cy="50"
       sodipodi:rx="3.2407408"
       sodipodi:ry="3.7037036"
       d="M 54.62963,50 A 3.2407408,3.7037036 0 1 1 48.148149,50 A 3.2407408,3.7037036 0 1 1 54.62963,50 z"
       transform="translate(207.87037,12.037037)"
       inkscape:transform-center-x="81.481481"
       inkscape:transform-center-y="-101.85185" />
    <path
       sodipodi:type="arc"
       style="fill:#008000"
       id="path2454"
       sodipodi:cx="51.388889"
       sodipodi:cy="50"
       sodipodi:rx="3.2407408"
       sodipodi:ry="3.7037036"
       d="M 54.62963,50 A 3.2407408,3.7037036 0 1 1 48.148149,50 A 3.2407408,3.7037036 0 1 1 54.62963,50 z"
       transform="translate(165.27778,11.111111)" />
    <path
       sodipodi:type="arc"
       style="fill:#008000"
       id="path2456"
       sodipodi:cx="51.388889"
       sodipodi:cy="50"
       sodipodi:rx="3.2407408"
       sodipodi:ry="3.7037036"
       d="M 54.62963,50 A 3.2407408,3.7037036 0 1 1 48.148149,50 A 3.2407408,3.7037036 0 1 1 54.62963,50 z"
       transform="translate(268.05556,-25.925926)" />
    <path
       sodipodi:type="arc"
       style="fill:#008000"
       id="path2458"
       sodipodi:cx="51.388889"
       sodipodi:cy="50"
       sodipodi:rx="3.2407408"
       sodipodi:ry="3.7037036"
       d="M 54.62963,50 A 3.2407408,3.7037036 0 1 1 48.148149,50 A 3.2407408,3.7037036 0 1 1 54.62963,50 z"
       transform="translate(300.46296,-14.814815)" />
    <path
       sodipodi:type="arc"
       style="fill:#008000"
       id="path2460"
       sodipodi:cx="51.388889"
       sodipodi:cy="50"
       sodipodi:rx="3.2407408"
       sodipodi:ry="3.7037036"
       d="M 54.62963,50 A 3.2407408,3.7037036 0 1 1 48.148149,50 A 3.2407408,3.7037036 0 1 1 54.62963,50 z"
       transform="translate(304.16667,17.592593)" />
    <path
       sodipodi:type="arc"
       style="fill:#008000"
       id="path2462"
       sodipodi:cx="51.388889"
       sodipodi:cy="50"
       sodipodi:rx="3.2407408"
       sodipodi:ry="3.7037036"
       d="M 54.62963,50 A 3.2407408,3.7037036 0 1 1 48.148149,50 A 3.2407408,3.7037036 0 1 1 54.62963,50 z"
       transform="translate(272.68518,29.62963)" />
    <path
       sodipodi:type="arc"
       style="fill:#008000"
       id="path2464"
       sodipodi:cx="51.388889"
       sodipodi:cy="50"
       sodipodi:rx="3.2407408"
       sodipodi:ry="3.7037036"
       d="M 54.62963,50 A 3.2407408,3.7037036 0 1 1 48.148149,50 A 3.2407408,3.7037036 0 1 1 54.62963,50 z"
       transform="translate(250.46296,4.6296296)" />
    <path
       sodipodi:type="arc"
       style="fill:#008000"
       id="path2466"
       sodipodi:cx="51.388889"
       sodipodi:cy="50"
       sodipodi:rx="3.2407408"
       sodipodi:ry="3.7037036"
       d="M 54.62963,50 A 3.2407408,3.7037036 0 1 1 48.148149,50 A 3.2407408,3.7037036 0 1 1 54.62963,50 z"
       transform="translate(368.98148,-29.62963)" />
    <path
       sodipodi:type="arc"
       style="fill:#008000"
       id="path2468"
       sodipodi:cx="51.388889"
       sodipodi:cy="50"
       sodipodi:rx="3.2407408"
       sodipodi:ry="3.7037036"
       d="M 54.62963,50 A 3.2407408,3.7037036 0 1 1 48.148149,50 A 3.2407408,3.7037036 0 1 1 54.62963,50 z"
       transform="translate(343.05556,6.4814815)" />
    <path
       sodipodi:type="arc"
       style="fill:#008000"
       id="path2470"
       sodipodi:cx="51.388889"
       sodipodi:cy="50"
       sodipodi:rx="3.2407408"
       sodipodi:ry="3.7037036"
       d="M 54.62963,50 A 3.2407408,3.7037036 0 1 1 48.148149,50 A 3.2407408,3.7037036 0 1 1 54.62963,50 z"
       transform="translate(389.35185,8.3333333)" />
    <path
       sodipodi:type="arc"
       style="fill:#008000"
       id="path2472"
       sodipodi:cx="51.388889"
       sodipodi:cy="50"
       sodipodi:rx="3.2407408"
       sodipodi:ry="3.7037036"
       d="M 54.62963,50 A 3.2407408,3.7037036 0 1 1 48.148149,50 A 3.2407408,3.7037036 0 1 1 54.62963,50 z"
       transform="translate(0.4629625,79.62963)" />
    <path
       sodipodi:type="arc"
       style="fill:#008000"
       id="path2474"
       sodipodi:cx="51.388889"
       sodipodi:cy="50"
       sodipodi:rx="3.2407408"
       sodipodi:ry="3.7037036"
       d="M 54.62963,50 A 3.2407408,3.7037036 0 1 1 48.148149,50 A 3.2407408,3.7037036 0 1 1 54.62963,50 z"
       transform="translate(-28.240741,106.48148)" />
    <path
       sodipodi:type="arc"
       style="fill:#008000"
       id="path2476"
       sodipodi:cx="51.388889"
       sodipodi:cy="50"
       sodipodi:rx="3.2407408"
       sodipodi:ry="3.7037036"
       d="M 54.62963,50 A 3.2407408,3.7037036 0 1 1 48.148149,50 A 3.2407408,3.7037036 0 1 1 54.62963,50 z"
       transform="translate(-8.7962967,131.48148)" />
    <path
       sodipodi:type="arc"
       style="fill:#008000"
       id="path2478"
       sodipodi:cx="51.388889"
       sodipodi:cy="50"
       sodipodi:rx="3.2407408"
       sodipodi:ry="3.7037036"
       d="M 54.62963,50 A 3.2407408,3.7037036 0 1 1 48.148149,50 A 3.2407408,3.7037036 0 1 1 54.62963,50 z"
       transform="translate(22.685185,123.14815)" />
    <path
       sodipodi:type="arc"
       style="fill:#008000"
       id="path2480"
       sodipodi:cx="51.388889"
       sodipodi:cy="50"
       sodipodi:rx="3.2407408"
       sodipodi:ry="3.7037036"
       d="M 54.62963,50 A 3.2407408,3.7037036 0 1 1 48.148149,50 A 3.2407408,3.7037036 0 1 1 54.62963,50 z"
       transform="translate(24.537037,93.518519)" />
    <path
       sodipodi:type="arc"
       style="fill:#008000"
       id="path2482"
       sodipodi:cx="51.388889"
       sodipodi:cy="50"
       sodipodi:rx="3.2407408"
       sodipodi:ry="3.7037036"
       d="M 54.62963,50 A 3.2407408,3.7037036 0 1 1 48.148149,50 A 3.2407408,3.7037036 0 1 1 54.62963,50 z"
       transform="translate(66.203703,79.62963)" />
    <path
       sodipodi:type="arc"
       style="fill:#008000"
       id="path2484"
       sodipodi:cx="51.388889"
       sodipodi:cy="50"
       sodipodi:rx="3.2407408"
       sodipodi:ry="3.7037036"
       d="M 54.62963,50 A 3.2407408,3.7037036 0 1 1 48.148149,50 A 3.2407408,3.7037036 0 1 1 54.62963,50 z"
       transform="translate(68.055555,106.48148)" />
    <path
       sodipodi:type="arc"
       style="fill:#008000"
       id="path2486"
       sodipodi:cx="51.388889"
       sodipodi:cy="50"
       sodipodi:rx="3.2407408"
       sodipodi:ry="3.7037036"
       d="M 54.62963,50 A 3.2407408,3.7037036 0 1 1 48.148149,50 A 3.2407408,3.7037036 0 1 1 54.62963,50 z"
       transform="translate(86.574074,134.25926)" />
    <path
       sodipodi:type="arc"
       style="fill:#008000"
       id="path2488"
       sodipodi:cx="51.388889"
       sodipodi:cy="50"
       sodipodi:rx="3.2407408"
       sodipodi:ry="3.7037036"
       d="M 54.62963,50 A 3.2407408,3.7037036 0 1 1 48.148149,50 A 3.2407408,3.7037036 0 1 1 54.62963,50 z"
       transform="translate(113.42593,104.62963)" />
    <path
       sodipodi:type="arc"
       style="fill:#008000"
       id="path2490"
       sodipodi:cx="51.388889"
       sodipodi:cy="50"
       sodipodi:rx="3.2407408"
       sodipodi:ry="3.7037036"
       d="M 54.62963,50 A 3.2407408,3.7037036 0 1 1 48.148149,50 A 3.2407408,3.7037036 0 1 1 54.62963,50 z"
       transform="translate(106.01852,75.925926)" />
    <path
       sodipodi:type="arc"
       style="fill:#008000"
       id="path2492"
       sodipodi:cx="51.388889"
       sodipodi:cy="50"
       sodipodi:rx="3.2407408"
       sodipodi:ry="3.7037036"
       d="M 54.62963,50 A 3.2407408,3.7037036 0 1 1 48.148149,50 A 3.2407408,3.7037036 0 1 1 54.62963,50 z"
       transform="translate(174.53704,92.592593)" />
    <path
       sodipodi:type="arc"
       style="fill:#008000"
       id="path2494"
       sodipodi:cx="51.388889"
       sodipodi:cy="50"
       sodipodi:rx="3.2407408"
       sodipodi:ry="3.7037036"
       d="M 54.62963,50 A 3.2407408,3.7037036 0 1 1 48.148149,50 A 3.2407408,3.7037036 0 1 1 54.62963,50 z"
       transform="translate(166.2037,127.77778)" />
    <path
       sodipodi:type="arc"
       style="fill:#008000"
       id="path2496"
       sodipodi:cx="51.388889"
       sodipodi:cy="50"
       sodipodi:rx="3.2407408"
       sodipodi:ry="3.7037036"
       d="M 54.62963,50 A 3.2407408,3.7037036 0 1 1 48.148149,50 A 3.2407408,3.7037036 0 1 1 54.62963,50 z"
       transform="translate(202.31481,118.51852)" />
    <path
       sodipodi:type="arc"
       style="fill:#008000"
       id="path2498"
       sodipodi:cx="51.388889"
       sodipodi:cy="50"
       sodipodi:rx="3.2407408"
       sodipodi:ry="3.7037036"
       d="M 54.62963,50 A 3.2407408,3.7037036 0 1 1 48.148149,50 A 3.2407408,3.7037036 0 1 1 54.62963,50 z"
       transform="translate(209.72222,81.481481)" />
    <path
       sodipodi:type="arc"
       style="fill:#008000"
       id="path2500"
       sodipodi:cx="51.388889"
       sodipodi:cy="50"
       sodipodi:rx="3.2407408"
       sodipodi:ry="3.7037036"
       d="M 54.62963,50 A 3.2407408,3.7037036 0 1 1 48.148149,50 A 3.2407408,3.7037036 0 1 1 54.62963,50 z"
       transform="translate(254.16667,82.407407)" />
    <path
       sodipodi:type="arc"
       style="fill:#008000"
       id="path2502"
       sodipodi:cx="51.388889"
       sodipodi:cy="50"
       sodipodi:rx="3.2407408"
       sodipodi:ry="3.7037036"
       d="M 54.62963,50 A 3.2407408,3.7037036 0 1 1 48.148149,50 A 3.2407408,3.7037036 0 1 1 54.62963,50 z"
       transform="translate(278.24074,73.148148)" />
    <path
       sodipodi:type="arc"
       style="fill:#008000"
       id="path2504"
       sodipodi:cx="51.388889"
       sodipodi:cy="50"
       sodipodi:rx="3.2407408"
       sodipodi:ry="3.7037036"
       d="M 54.62963,50 A 3.2407408,3.7037036 0 1 1 48.148149,50 A 3.2407408,3.7037036 0 1 1 54.62963,50 z"
       transform="translate(303.24074,87.037037)" />
    <path
       sodipodi:type="arc"
       style="fill:#008000"
       id="path2506"
       sodipodi:cx="51.388889"
       sodipodi:cy="50"
       sodipodi:rx="3.2407408"
       sodipodi:ry="3.7037036"
       d="M 54.62963,50 A 3.2407408,3.7037036 0 1 1 48.148149,50 A 3.2407408,3.7037036 0 1 1 54.62963,50 z"
       transform="translate(307.87037,117.59259)" />
    <path
       sodipodi:type="arc"
       style="fill:#008000"
       id="path2508"
       sodipodi:cx="51.388889"
       sodipodi:cy="50"
       sodipodi:rx="3.2407408"
       sodipodi:ry="3.7037036"
       d="M 54.62963,50 A 3.2407408,3.7037036 0 1 1 48.148149,50 A 3.2407408,3.7037036 0 1 1 54.62963,50 z"
       transform="translate(291.2037,137.96296)" />
    <path
       sodipodi:type="arc"
       style="fill:#008000"
       id="path2510"
       sodipodi:cx="51.388889"
       sodipodi:cy="50"
       sodipodi:rx="3.2407408"
       sodipodi:ry="3.7037036"
       d="M 54.62963,50 A 3.2407408,3.7037036 0 1 1 48.148149,50 A 3.2407408,3.7037036 0 1 1 54.62963,50 z"
       transform="translate(266.2037,137.03704)" />
    <path
       sodipodi:type="arc"
       style="fill:#008000"
       id="path2512"
       sodipodi:cx="51.388889"
       sodipodi:cy="50"
       sodipodi:rx="3.2407408"
       sodipodi:ry="3.7037036"
       d="M 54.62963,50 A 3.2407408,3.7037036 0 1 1 48.148149,50 A 3.2407408,3.7037036 0 1 1 54.62963,50 z"
       transform="translate(243.98148,111.11111)" />
    <path
       sodipodi:type="arc"
       style="fill:#008000"
       id="path2514"
       sodipodi:cx="51.388889"
       sodipodi:cy="50"
       sodipodi:rx="3.2407408"
       sodipodi:ry="3.7037036"
       d="M 54.62963,50 A 3.2407408,3.7037036 0 1 1 48.148149,50 A 3.2407408,3.7037036 0 1 1 54.62963,50 z"
       transform="translate(353.24074,75)" />
    <path
       sodipodi:type="arc"
       style="fill:#008000"
       id="path2516"
       sodipodi:cx="51.388889"
       sodipodi:cy="50"
       sodipodi:rx="3.2407408"
       sodipodi:ry="3.7037036"
       d="M 54.62963,50 A 3.2407408,3.7037036 0 1 1 48.148149,50 A 3.2407408,3.7037036 0 1 1 54.62963,50 z"
       transform="translate(380.09259,78.703704)" />
    <path
       sodipodi:type="arc"
       style="fill:#008000"
       id="path2518"
       sodipodi:cx="51.388889"
       sodipodi:cy="50"
       sodipodi:rx="3.2407408"
       sodipodi:ry="3.7037036"
       d="M 54.62963,50 A 3.2407408,3.7037036 0 1 1 48.148149,50 A 3.2407408,3.7037036 0 1 1 54.62963,50 z"
       transform="translate(396.75926,107.40741)" />
    <path
       sodipodi:type="arc"
       style="fill:#008000"
       id="path2520"
       sodipodi:cx="51.388889"
       sodipodi:cy="50"
       sodipodi:rx="3.2407408"
       sodipodi:ry="3.7037036"
       d="M 54.62963,50 A 3.2407408,3.7037036 0 1 1 48.148149,50 A 3.2407408,3.7037036 0 1 1 54.62963,50 z"
       transform="translate(385.64815,127.77778)" />
    <path
       sodipodi:type="arc"
       style="fill:#008000"
       id="path2522"
       sodipodi:cx="51.388889"
       sodipodi:cy="50"
       sodipodi:rx="3.2407408"
       sodipodi:ry="3.7037036"
       d="M 54.62963,50 A 3.2407408,3.7037036 0 1 1 48.148149,50 A 3.2407408,3.7037036 0 1 1 54.62963,50 z"
       transform="translate(357.87037,122.22222)" />
    <path
       sodipodi:type="arc"
       style="fill:#008000"
       id="path2524"
       sodipodi:cx="51.388889"
       sodipodi:cy="50"
       sodipodi:rx="3.2407408"
       sodipodi:ry="3.7037036"
       d="M 54.62963,50 A 3.2407408,3.7037036 0 1 1 48.148149,50 A 3.2407408,3.7037036 0 1 1 54.62963,50 z"
       transform="translate(338.42593,94.444444)" />
    <path
       sodipodi:type="arc"
       style="fill:#008000"
       id="path2526"
       sodipodi:cx="51.388889"
       sodipodi:cy="50"
       sodipodi:rx="3.2407408"
       sodipodi:ry="3.7037036"
       d="M 54.62963,50 A 3.2407408,3.7037036 0 1 1 48.148149,50 A 3.2407408,3.7037036 0 1 1 54.62963,50 z"
       transform="translate(398.1918,205.71131)" />
    <path
       sodipodi:type="arc"
       style="fill:#008000"
       id="path2528"
       sodipodi:cx="51.388889"
       sodipodi:cy="50"
       sodipodi:rx="3.2407408"
       sodipodi:ry="3.7037036"
       d="M 54.62963,50 A 3.2407408,3.7037036 0 1 1 48.148149,50 A 3.2407408,3.7037036 0 1 1 54.62963,50 z"
       transform="translate(369.64386,188.80158)" />
    <path
       sodipodi:type="arc"
       style="fill:#008000"
       id="path2530"
       sodipodi:cx="51.388889"
       sodipodi:cy="50"
       sodipodi:rx="3.2407408"
       sodipodi:ry="3.7037036"
       d="M 54.62963,50 A 3.2407408,3.7037036 0 1 1 48.148149,50 A 3.2407408,3.7037036 0 1 1 54.62963,50 z"
       transform="translate(336.12566,198.665)" />
    <path
       sodipodi:type="arc"
       style="fill:#008000"
       id="path2532"
       sodipodi:cx="51.388889"
       sodipodi:cy="50"
       sodipodi:rx="3.2407408"
       sodipodi:ry="3.7037036"
       d="M 54.62963,50 A 3.2407408,3.7037036 0 1 1 48.148149,50 A 3.2407408,3.7037036 0 1 1 54.62963,50 z"
       transform="translate(351.38889,238.88889)" />
    <path
       sodipodi:type="arc"
       style="fill:#008000"
       id="path2534"
       sodipodi:cx="51.388889"
       sodipodi:cy="50"
       sodipodi:rx="3.2407408"
       sodipodi:ry="3.7037036"
       d="M 54.62963,50 A 3.2407408,3.7037036 0 1 1 48.148149,50 A 3.2407408,3.7037036 0 1 1 54.62963,50 z"
       transform="translate(382.87037,242.59259)" />
    <path
       sodipodi:type="arc"
       style="fill:#008000"
       id="path2536"
       sodipodi:cx="51.388889"
       sodipodi:cy="50"
       sodipodi:rx="3.2407408"
       sodipodi:ry="3.7037036"
       d="M 54.62963,50 A 3.2407408,3.7037036 0 1 1 48.148149,50 A 3.2407408,3.7037036 0 1 1 54.62963,50 z"
       transform="translate(242.96121,200.22421)" />
    <path
       sodipodi:type="arc"
       style="fill:#008000"
       id="path2538"
       sodipodi:cx="51.388889"
       sodipodi:cy="50"
       sodipodi:rx="3.2407408"
       sodipodi:ry="3.7037036"
       d="M 54.62963,50 A 3.2407408,3.7037036 0 1 1 48.148149,50 A 3.2407408,3.7037036 0 1 1 54.62963,50 z"
       transform="translate(296.31085,235.17495)" />
    <path
       sodipodi:type="arc"
       style="fill:#008000"
       id="path2540"
       sodipodi:cx="51.388889"
       sodipodi:cy="50"
       sodipodi:rx="3.2407408"
       sodipodi:ry="3.7037036"
       d="M 54.62963,50 A 3.2407408,3.7037036 0 1 1 48.148149,50 A 3.2407408,3.7037036 0 1 1 54.62963,50 z"
       transform="translate(283.52252,188.0023)" />
    <path
       sodipodi:type="arc"
       style="fill:#008000"
       id="path2542"
       sodipodi:cx="51.388889"
       sodipodi:cy="50"
       sodipodi:rx="3.2407408"
       sodipodi:ry="3.7037036"
       d="M 54.62963,50 A 3.2407408,3.7037036 0 1 1 48.148149,50 A 3.2407408,3.7037036 0 1 1 54.62963,50 z"
       transform="translate(255.57011,227.1154)" />
    <path
       sodipodi:type="arc"
       style="fill:#008000"
       id="path2544"
       sodipodi:cx="51.388889"
       sodipodi:cy="50"
       sodipodi:rx="3.2407408"
       sodipodi:ry="3.7037036"
       d="M 54.62963,50 A 3.2407408,3.7037036 0 1 1 48.148149,50 A 3.2407408,3.7037036 0 1 1 54.62963,50 z"
       transform="translate(266.955,250.47751)" />
    <path
       sodipodi:type="arc"
       style="fill:#008000"
       id="path2546"
       sodipodi:cx="51.388889"
       sodipodi:cy="50"
       sodipodi:rx="3.2407408"
       sodipodi:ry="3.7037036"
       d="M 54.62963,50 A 3.2407408,3.7037036 0 1 1 48.148149,50 A 3.2407408,3.7037036 0 1 1 54.62963,50 z"
       transform="translate(203.29895,196.03275)" />
    <path
       sodipodi:type="arc"
       style="fill:#008000"
       id="path2548"
       sodipodi:cx="51.388889"
       sodipodi:cy="50"
       sodipodi:rx="3.2407408"
       sodipodi:ry="3.7037036"
       d="M 54.62963,50 A 3.2407408,3.7037036 0 1 1 48.148149,50 A 3.2407408,3.7037036 0 1 1 54.62963,50 z"
       transform="translate(169.74142,187.65144)" />
    <path
       sodipodi:type="arc"
       style="fill:#008000"
       id="path2550"
       sodipodi:cx="51.388889"
       sodipodi:cy="50"
       sodipodi:rx="3.2407408"
       sodipodi:ry="3.7037036"
       d="M 54.62963,50 A 3.2407408,3.7037036 0 1 1 48.148149,50 A 3.2407408,3.7037036 0 1 1 54.62963,50 z"
       transform="translate(158.76719,220.05885)" />
    <path
       sodipodi:type="arc"
       style="fill:#008000"
       id="path2552"
       sodipodi:cx="51.388889"
       sodipodi:cy="50"
       sodipodi:rx="3.2407408"
       sodipodi:ry="3.7037036"
       d="M 54.62963,50 A 3.2407408,3.7037036 0 1 1 48.148149,50 A 3.2407408,3.7037036 0 1 1 54.62963,50 z"
       transform="translate(177.67591,251.02348)" />
    <path
       sodipodi:type="arc"
       style="fill:#008000"
       id="path2554"
       sodipodi:cx="51.388889"
       sodipodi:cy="50"
       sodipodi:rx="3.2407408"
       sodipodi:ry="3.7037036"
       d="M 54.62963,50 A 3.2407408,3.7037036 0 1 1 48.148149,50 A 3.2407408,3.7037036 0 1 1 54.62963,50 z"
       transform="matrix(1,0,0,-1,205.2877,326.93917)" />
    <path
       sodipodi:type="arc"
       style="fill:#008000"
       id="path2556"
       sodipodi:cx="51.388889"
       sodipodi:cy="50"
       sodipodi:rx="3.2407408"
       sodipodi:ry="3.7037036"
       d="M 54.62963,50 A 3.2407408,3.7037036 0 1 1 48.148149,50 A 3.2407408,3.7037036 0 1 1 54.62963,50 z"
       transform="translate(119.90741,198.14815)" />
    <path
       sodipodi:type="arc"
       style="fill:#008000"
       id="path2558"
       sodipodi:cx="51.388889"
       sodipodi:cy="50"
       sodipodi:rx="3.2407408"
       sodipodi:ry="3.7037036"
       d="M 54.62963,50 A 3.2407408,3.7037036 0 1 1 48.148149,50 A 3.2407408,3.7037036 0 1 1 54.62963,50 z"
       transform="translate(122.68518,240.74074)" />
    <path
       sodipodi:type="arc"
       style="fill:#008000"
       id="path2560"
       sodipodi:cx="51.388889"
       sodipodi:cy="50"
       sodipodi:rx="3.2407408"
       sodipodi:ry="3.7037036"
       d="M 54.62963,50 A 3.2407408,3.7037036 0 1 1 48.148149,50 A 3.2407408,3.7037036 0 1 1 54.62963,50 z"
       transform="translate(91.203703,242.59259)" />
  </g>
  <path
     sodipodi:type="arc"
     style="fill:#008000"
     id="path2562"
     sodipodi:cx="51.388889"
     sodipodi:cy="50"
     sodipodi:rx="3.2407408"
     sodipodi:ry="3.7037036"
     d="M 54.62963,50 A 3.2407408,3.7037036 0 1 1 48.148149,50 A 3.2407408,3.7037036 0 1 1 54.62963,50 z"
     transform="translate(62.5,241.66667)" />
  <path
     sodipodi:type="arc"
     style="fill:#008000"
     id="path2564"
     sodipodi:cx="51.388889"
     sodipodi:cy="50"
     sodipodi:rx="3.2407408"
     sodipodi:ry="3.7037036"
     d="M 54.62963,50 A 3.2407408,3.7037036 0 1 1 48.148149,50 A 3.2407408,3.7037036 0 1 1 54.62963,50 z"
     transform="translate(61.574074,197.22222)" />
  <path
     sodipodi:type="arc"
     style="fill:#008000"
     id="path2566"
     sodipodi:cx="51.388889"
     sodipodi:cy="50"
     sodipodi:rx="3.2407408"
     sodipodi:ry="3.7037036"
     d="M 54.62963,50 A 3.2407408,3.7037036 0 1 1 48.148149,50 A 3.2407408,3.7037036 0 1 1 54.62963,50 z"
     transform="translate(91.203703,195.37037)" />
  <path
     sodipodi:type="arc"
     style="fill:#008000"
     id="path2568"
     sodipodi:cx="51.388889"
     sodipodi:cy="50"
     sodipodi:rx="3.2407408"
     sodipodi:ry="3.7037036"
     d="M 54.62963,50 A 3.2407408,3.7037036 0 1 1 48.148149,50 A 3.2407408,3.7037036 0 1 1 54.62963,50 z"
     transform="translate(21.759259,198.14815)" />
  <path
     sodipodi:type="arc"
     style="fill:#008000"
     id="path2570"
     sodipodi:cx="51.388889"
     sodipodi:cy="50"
     sodipodi:rx="3.2407408"
     sodipodi:ry="3.7037036"
     d="M 54.62963,50 A 3.2407408,3.7037036 0 1 1 48.148149,50 A 3.2407408,3.7037036 0 1 1 54.62963,50 z"
     transform="translate(-2.3148152,187.03704)" />
  <path
     sodipodi:type="arc"
     style="fill:#008000"
     id="path2572"
     sodipodi:cx="51.388889"
     sodipodi:cy="50"
     sodipodi:rx="3.2407408"
     sodipodi:ry="3.7037036"
     d="M 54.62963,50 A 3.2407408,3.7037036 0 1 1 48.148149,50 A 3.2407408,3.7037036 0 1 1 54.62963,50 z"
     transform="translate(-27.314815,195.37037)" />
  <path
     sodipodi:type="arc"
     style="fill:#008000"
     id="path2574"
     sodipodi:cx="51.388889"
     sodipodi:cy="50"
     sodipodi:rx="3.2407408"
     sodipodi:ry="3.7037036"
     d="M 54.62963,50 A 3.2407408,3.7037036 0 1 1 48.148149,50 A 3.2407408,3.7037036 0 1 1 54.62963,50 z"
     transform="translate(-25.462963,228.7037)" />
  <path
     sodipodi:type="arc"
     style="fill:#008000"
     id="path2576"
     sodipodi:cx="51.388889"
     sodipodi:cy="50"
     sodipodi:rx="3.2407408"
     sodipodi:ry="3.7037036"
     d="M 54.62963,50 A 3.2407408,3.7037036 0 1 1 48.148149,50 A 3.2407408,3.7037036 0 1 1 54.62963,50 z"
     transform="translate(22.685185,237.03704)" />
</svg>
