<?xml version="1.0" encoding="utf-8"?>
<!-- Generator: Adobe Illustrator 18.0.0, SVG Export Plug-In . SVG Version: 6.00 Build 0)  -->
<!DOCTYPE svg PUBLIC "-//W3C//DTD SVG 1.1//EN" "http://www.w3.org/Graphics/SVG/1.1/DTD/svg11.dtd">
<svg version="1.1" id="Layer_1" xmlns="http://www.w3.org/2000/svg" xmlns:xlink="http://www.w3.org/1999/xlink" x="0px" y="0px"
	 viewBox="0 0 225.7 222.1" enable-background="new 0 0 225.7 222.1" xml:space="preserve">
<g>
	<g>
		
			<ellipse fill="#FFFFFF" stroke="#000000" stroke-width="10" stroke-linecap="round" stroke-miterlimit="10" cx="112.9" cy="111.1" rx="107.9" ry="106.1"/>
		<g>
			<g opacity="0.5">
				<ellipse fill="#E6E7E8" cx="112.9" cy="111.3" rx="90.1" ry="88.6"/>
				
					<ellipse fill="none" stroke="#000000" stroke-width="3" stroke-linecap="round" stroke-miterlimit="10" stroke-dasharray="12.1984,12.1984" cx="112.9" cy="111.3" rx="90.1" ry="88.6"/>
			</g>
			
				<ellipse transform="matrix(0.4067 -0.9135 0.9135 0.4067 -30.8996 197.163)" opacity="0.6" fill="#FFF200" cx="136.4" cy="122.4" rx="41.9" ry="61.6"/>
			<ellipse opacity="0.5" fill="#ED1C24" cx="113.4" cy="83.9" rx="39.9" ry="61.6"/>
			
				<ellipse transform="matrix(0.4067 0.9135 -0.9135 0.4067 164.3567 -10.5931)" opacity="0.4" fill="#00AEEF" cx="90.3" cy="121.2" rx="41.4" ry="61.6"/>
			<g id="Brain_2_">
				<g>
					<path fill="#FFFFFF" stroke="#000000" stroke-width="2" stroke-linecap="round" stroke-miterlimit="10" d="M117.2,112
						c-11.5-0.4-9.4,2.4-11.4,3.9c-1.3,1.1-8.9,4.1-8.4,8.2c0.5,4.2,5.4,6.1,9.9,4.9c1.8-0.5,3.7-2.2,5.7-2.6
						c2.1-0.5,5.4-0.7,7.5-0.6c5.7,0.1,9,6.1,13.7,0.3c3.9-4.7,1.5-8.6,0.2-14.1c-0.1-0.7-1.6-5.6-2.1-5.6c-2.6-3-2.3-2.1-6.6-5.3
						c-5.1-3.8-9.2-1.7-12.3-1.6c-0.9,0-2.5-0.6-3.4-0.7c-2.4-0.2-4.4,0.8-6.6,1.3c-0.6,0.1-1.2,0.2-1.7,0.4c-1,0.3-2.2,0.7-3.2,1.1
						c-1.9,0.9-3.8,1.8-5.5,3.3c-1.7,1.5-2.7,3.5-3.9,5.4c-0.8,1.2-0.9,2.9-1.1,4.4c-0.2,1.6-0.2,3.1,0.3,4.6c0.4,1.2,1.2,2.1,2,3
						c0.7,0.7,1.2,1.5,2,2.1c0.8,0.5,2,1.1,3,1.2c0.5,0.1,2.1-0.5,2-1.2"/>
					<path fill="#FFFFFF" stroke="#000000" stroke-width="2" stroke-linecap="round" stroke-miterlimit="10" d="M105.4,111.3
						c0.6-1.6,1.4-3,2-3.6c0.4-0.4,2.4-1.2,2.8-1.7c0.9-1,1-2.6,1.6-3.8c0.5-0.9,1.4-2,1.4-2.8"/>
				</g>
				<path fill="#FFFFFF" stroke="#000000" stroke-linecap="round" stroke-miterlimit="10" d="M104.1,104.4c-0.3,1-2.2,1-3,1.1
					c-1.2,0.1-2.1-0.2-3.2,0.2c-2.3,0.8-3.9,2.5-5.5,4.4c-0.3,0.4-0.5,0.8-0.7,1.2c-0.3,0.5-0.4,1.1-0.7,1.5"/>
				<path fill="#FFFFFF" stroke="#000000" stroke-linecap="round" stroke-miterlimit="10" d="M101.5,109c0.2-0.6,1-1.4-0.1-2
					c-0.5-0.3-1.8-0.1-2.4,0c-0.6,0.1-1.3,0.5-1.8,0.9c-0.4,0.3-2,1.8-2.2,2.1"/>
				<path fill="#FFFFFF" stroke="#000000" stroke-linecap="round" stroke-miterlimit="10" d="M120.1,101.6c0,0.8-1.6,1.9-2.3,2
					c-0.7,0.1-1.2-0.1-1.8,0.4c-0.5,0.4-0.6,0.9-1,1.3"/>
				<path fill="#FFFFFF" stroke="#000000" stroke-linecap="round" stroke-miterlimit="10" d="M126.2,106.9c0.2-1.4-1.1-3.2-2.2-4"/>
				<path fill="#FFFFFF" stroke="#000000" stroke-linecap="round" stroke-miterlimit="10" d="M122.9,109c0,0.2,0,0.3,0,0.5"/>
				<path fill="#FFFFFF" stroke="#000000" stroke-linecap="round" stroke-miterlimit="10" d="M132.2,121.9c0.6-0.7,0.9-2.8,0.2-3.6"
					/>
				<path fill="#FFFFFF" stroke="#000000" stroke-linecap="round" stroke-miterlimit="10" d="M117.8,114.2c-0.9,0-2.5-0.3-3.3,0"/>
				<path fill="#FFFFFF" stroke="#000000" stroke-linecap="round" stroke-miterlimit="10" d="M110.9,114.9c-0.3,0.1-0.6,0.2-0.8,0.4
					"/>
				<path fill="#FFFFFF" stroke="#000000" stroke-linecap="round" stroke-miterlimit="10" d="M105.3,120.6c-0.5-0.3-2.6,0.6-3,1.1"
					/>
				<path fill="#FFFFFF" stroke="#000000" stroke-linecap="round" stroke-miterlimit="10" d="M100,117.9c0-0.9-1.2-2.2-1.8-2.9
					c-0.4-0.5-0.9-1-1.3-1.5"/>
				<path fill="#FFFFFF" stroke="#000000" stroke-linecap="round" stroke-miterlimit="10" d="M100.2,113.1c-0.6-0.4-1.1-1.5-1.5-2.2
					"/>
			</g>
		</g>
		<g>
			<g>
				
					<line fill="none" stroke="#000000" stroke-width="3" stroke-linecap="round" stroke-miterlimit="10" x1="21.9" y1="153" x2="27.4" y2="149.9"/>
				
					<line fill="none" stroke="#000000" stroke-width="3" stroke-linecap="round" stroke-miterlimit="10" x1="23.5" y1="147.5" x2="27.4" y2="149.9"/>
			</g>
			<g>
				
					<line fill="none" stroke="#000000" stroke-width="3" stroke-linecap="round" stroke-miterlimit="10" x1="29.7" y1="154.3" x2="24.1" y2="157.3"/>
				
					<line fill="none" stroke="#000000" stroke-width="3" stroke-linecap="round" stroke-miterlimit="10" x1="28.1" y1="159.7" x2="24.1" y2="157.3"/>
			</g>
		</g>
		<g display="none">
			<path display="inline" fill="none" stroke="#000000" stroke-width="3" stroke-linecap="round" stroke-miterlimit="10" d="
				M224.6,111.1c0,0.9-7.2,1.6-7.2,2.5c0,0.9,7.1,2,7.1,2.8c0,0.8-7.3,1.3-7.3,2.1c-0.1,0.8,7,2.3,7,3.1c-0.1,0.8-7.3,0.9-7.4,1.8
				c-0.1,0.8,6.9,2.6,6.8,3.5c-0.1,0.8-7.4,0.6-7.5,1.4c-0.1,0.8,6.8,3,6.6,3.8c-0.2,0.8-7.4,0.2-7.6,1c-0.2,0.8,6.6,3.3,6.4,4.1
				c-0.2,0.8-7.4-0.2-7.6,0.6c-0.2,0.8,6.5,3.6,6.2,4.4c-0.2,0.8-7.4-0.5-7.6,0.3c-0.3,0.8,6.3,3.9,6,4.7c-0.3,0.8-7.3-0.9-7.6-0.1
				c-0.3,0.8,6.1,4.2,5.8,5c-0.3,0.8-7.3-1.3-7.6-0.5c-0.3,0.8,5.9,4.5,5.5,5.3c-0.4,0.8-7.2-1.6-7.6-0.8c-0.4,0.8,5.6,4.8,5.2,5.6
				c-0.4,0.8-7.1-2-7.5-1.2c-0.4,0.7,5.4,5.1,5,5.8c-0.4,0.7-7-2.3-7.5-1.6c-0.5,0.7,5.1,5.3,4.7,6c-0.5,0.7-6.9-2.6-7.4-1.9
				c-0.5,0.7,4.9,5.6,4.4,6.3c-0.5,0.7-6.8-3-7.3-2.3c-0.5,0.7,4.6,5.8,4.1,6.5c-0.5,0.7-6.6-3.3-7.2-2.6c-0.5,0.6,4.3,6,3.8,6.6
				c-0.6,0.6-6.5-3.6-7-3c-0.6,0.6,4,6.2,3.4,6.8c-0.6,0.6-6.3-3.9-6.9-3.3c-0.6,0.6,3.7,6.4,3.1,7c-0.6,0.6-6.1-4.2-6.7-3.6
				c-0.6,0.6,3.4,6.6,2.8,7.1c-0.6,0.5-5.9-4.5-6.5-3.9c-0.7,0.5,3.1,6.7,2.5,7.2c-0.7,0.5-5.7-4.7-6.4-4.2
				c-0.7,0.5,2.8,6.9,2.1,7.3c-0.7,0.5-5.4-5-6.1-4.5c-0.7,0.5,2.5,7,1.8,7.4c-0.7,0.5-5.2-5.2-5.9-4.8c-0.7,0.4,2.1,7.1,1.4,7.5
				c-0.7,0.4-4.9-5.5-5.7-5.1c-0.7,0.4,1.8,7.2,1.1,7.6c-0.8,0.4-4.7-5.7-5.4-5.3c-0.8,0.4,1.5,7.3,0.7,7.6
				c-0.8,0.3-4.4-5.9-5.2-5.6c-0.8,0.3,1.1,7.3,0.3,7.6c-0.8,0.3-4.1-6.1-4.9-5.8c-0.8,0.3,0.8,7.4,0,7.6c-0.8,0.3-3.8-6.3-4.6-6.1
				c-0.8,0.3,0.4,7.4-0.4,7.6c-0.8,0.2-3.5-6.5-4.4-6.3c-0.8,0.2,0.1,7.4-0.7,7.6c-0.8,0.2-3.2-6.6-4.1-6.5
				c-0.8,0.2-0.3,7.4-1.1,7.6c-0.8,0.2-2.9-6.8-3.7-6.7c-0.8,0.1-0.6,7.4-1.4,7.5c-0.8,0.1-2.6-6.9-3.4-6.8
				c-0.8,0.1-0.9,7.3-1.8,7.4c-0.8,0.1-2.3-7-3.1-7c-0.8,0.1-1.3,7.3-2.1,7.3c-0.8,0-1.9-7.1-2.8-7.1c-0.8,0-1.6,7.2-2.5,7.2
				c-0.9,0-1.6-7.2-2.5-7.2c-0.9,0-1.9,7.1-2.8,7.1c-0.8,0-1.3-7.3-2.1-7.3c-0.8-0.1-2.3,7.1-3.1,7c-0.8-0.1-0.9-7.3-1.8-7.4
				c-0.8-0.1-2.6,6.9-3.4,6.8c-0.8-0.1-0.6-7.4-1.4-7.5c-0.8-0.1-2.9,6.8-3.7,6.7c-0.8-0.2-0.3-7.4-1.1-7.6
				c-0.8-0.2-3.2,6.7-4.1,6.5c-0.8-0.2,0.1-7.4-0.7-7.6c-0.8-0.2-3.5,6.5-4.4,6.3c-0.8-0.2,0.4-7.4-0.4-7.6
				c-0.8-0.3-3.8,6.3-4.6,6.1c-0.8-0.3,0.8-7.3,0-7.6c-0.8-0.3-4.1,6.1-4.9,5.8c-0.8-0.3,1.1-7.3,0.3-7.6c-0.8-0.3-4.4,5.9-5.2,5.6
				c-0.8-0.3,1.5-7.2,0.7-7.6c-0.8-0.4-4.7,5.7-5.5,5.3c-0.8-0.4,1.8-7.2,1.1-7.6c-0.7-0.4-5,5.5-5.7,5.1c-0.7-0.4,2.1-7.1,1.4-7.5
				c-0.7-0.4-5.2,5.3-5.9,4.8c-0.7-0.5,2.5-7,1.8-7.4c-0.7-0.5-5.5,5-6.1,4.5c-0.7-0.5,2.8-6.8,2.1-7.3c-0.7-0.5-5.7,4.8-6.4,4.2
				c-0.7-0.5,3.1-6.7,2.5-7.2c-0.7-0.5-5.9,4.5-6.5,3.9c-0.6-0.5,3.4-6.5,2.8-7.1c-0.6-0.6-6.1,4.2-6.7,3.6c-0.6-0.6,3.7-6.4,3.1-7
				c-0.6-0.6-6.3,3.9-6.9,3.3c-0.6-0.6,4-6.2,3.4-6.8c-0.6-0.6-6.5,3.6-7,3c-0.6-0.6,4.3-6,3.8-6.6c-0.5-0.6-6.6,3.3-7.2,2.6
				c-0.5-0.7,4.6-5.8,4.1-6.5c-0.5-0.7-6.8,3-7.3,2.3c-0.5-0.7,4.9-5.6,4.4-6.3c-0.5-0.7-6.9,2.6-7.4,1.9c-0.5-0.7,5.1-5.3,4.7-6
				c-0.5-0.7-7,2.3-7.5,1.6c-0.4-0.7,5.4-5.1,5-5.8c-0.4-0.7-7.1,2-7.5,1.2c-0.4-0.7,5.6-4.8,5.2-5.6c-0.4-0.8-7.2,1.6-7.6,0.8
				c-0.4-0.8,5.8-4.5,5.5-5.3c-0.3-0.8-7.3,1.3-7.6,0.5c-0.3-0.8,6.1-4.2,5.8-5c-0.3-0.8-7.4,0.9-7.6,0.1c-0.3-0.8,6.3-3.9,6-4.7
				c-0.3-0.8-7.4,0.5-7.6-0.3c-0.2-0.8,6.4-3.6,6.2-4.4c-0.2-0.8-7.4,0.2-7.6-0.6c-0.2-0.8,6.6-3.3,6.4-4.1c-0.2-0.8-7.4-0.2-7.6-1
				c-0.2-0.8,6.8-3,6.6-3.8c-0.1-0.8-7.4-0.5-7.5-1.4c-0.1-0.8,6.9-2.6,6.8-3.5c-0.1-0.8-7.4-0.9-7.4-1.8c-0.1-0.8,7-2.3,7-3.1
				c-0.1-0.8-7.3-1.3-7.3-2.1c0-0.8,7.1-2,7.1-2.8c0-0.8-7.2-1.6-7.2-2.5c0-0.9,7.2-1.6,7.2-2.5c0-0.9-7.1-2-7.1-2.8
				c0-0.8,7.3-1.3,7.3-2.1c0.1-0.8-7-2.3-7-3.1c0.1-0.8,7.3-0.9,7.4-1.8c0.1-0.8-6.9-2.6-6.8-3.5c0.1-0.8,7.4-0.6,7.5-1.4
				c0.1-0.8-6.8-3-6.6-3.8c0.2-0.8,7.4-0.2,7.6-1c0.2-0.8-6.6-3.3-6.4-4.1c0.2-0.8,7.4,0.2,7.6-0.6c0.2-0.8-6.5-3.6-6.2-4.4
				c0.2-0.8,7.4,0.5,7.6-0.3c0.3-0.8-6.3-3.9-6-4.7c0.3-0.8,7.3,0.9,7.6,0.1c0.3-0.8-6.1-4.2-5.8-5c0.3-0.8,7.3,1.3,7.6,0.5
				c0.3-0.8-5.9-4.5-5.5-5.3c0.4-0.8,7.2,1.6,7.6,0.8c0.4-0.8-5.6-4.8-5.2-5.6c0.4-0.8,7.1,2,7.5,1.2c0.4-0.7-5.4-5.1-5-5.8
				c0.4-0.7,7,2.3,7.5,1.6c0.5-0.7-5.1-5.3-4.7-6c0.5-0.7,6.9,2.6,7.4,1.9c0.5-0.7-4.9-5.6-4.4-6.3c0.5-0.7,6.8,3,7.3,2.3
				c0.5-0.7-4.6-5.8-4.1-6.5c0.5-0.7,6.6,3.3,7.2,2.6c0.5-0.6-4.3-6-3.8-6.6c0.6-0.6,6.5,3.6,7,3c0.6-0.6-4-6.2-3.4-6.8
				c0.6-0.6,6.3,3.9,6.9,3.3c0.6-0.6-3.7-6.4-3.1-7c0.6-0.6,6.1,4.2,6.7,3.6c0.6-0.6-3.4-6.6-2.8-7.1c0.6-0.5,5.9,4.5,6.5,3.9
				c0.7-0.5-3.1-6.7-2.5-7.2c0.7-0.5,5.7,4.7,6.4,4.2c0.7-0.5-2.8-6.9-2.1-7.3c0.7-0.5,5.4,5,6.1,4.5c0.7-0.5-2.5-7-1.8-7.4
				c0.7-0.5,5.2,5.2,5.9,4.8c0.7-0.4-2.1-7.1-1.4-7.5c0.7-0.4,4.9,5.5,5.7,5.1c0.7-0.4-1.8-7.2-1.1-7.6c0.8-0.4,4.7,5.7,5.4,5.3
				c0.8-0.4-1.5-7.3-0.7-7.6c0.8-0.3,4.4,5.9,5.2,5.6c0.8-0.3-1.1-7.3-0.3-7.6c0.8-0.3,4.1,6.1,4.9,5.8c0.8-0.3-0.8-7.4,0-7.6
				c0.8-0.3,3.8,6.3,4.6,6.1c0.8-0.3-0.4-7.4,0.4-7.6c0.8-0.2,3.5,6.5,4.4,6.3c0.8-0.2-0.1-7.4,0.7-7.6c0.8-0.2,3.2,6.6,4.1,6.5
				c0.8-0.2,0.3-7.4,1.1-7.6C93,3.2,95.1,10.1,96,10c0.8-0.1,0.6-7.4,1.4-7.5c0.8-0.1,2.6,6.9,3.4,6.8c0.8-0.1,0.9-7.3,1.8-7.4
				c0.8-0.1,2.3,7,3.1,7c0.8-0.1,1.3-7.3,2.1-7.3c0.8,0,1.9,7.1,2.8,7.1c0.8,0,1.6-7.2,2.5-7.2c0.9,0,1.6,7.2,2.5,7.2
				c0.9,0,1.9-7.1,2.8-7.1c0.8,0,1.3,7.3,2.1,7.3c0.8,0.1,2.3-7.1,3.1-7c0.8,0.1,0.9,7.3,1.8,7.4c0.8,0.1,2.6-6.9,3.4-6.8
				c0.8,0.1,0.6,7.4,1.4,7.5c0.8,0.1,2.9-6.8,3.7-6.7c0.8,0.2,0.3,7.4,1.1,7.6c0.8,0.2,3.2-6.7,4.1-6.5c0.8,0.2-0.1,7.4,0.7,7.6
				c0.8,0.2,3.5-6.5,4.4-6.3c0.8,0.2-0.4,7.4,0.4,7.6c0.8,0.3,3.8-6.3,4.6-6.1c0.8,0.3-0.8,7.3,0,7.6c0.8,0.3,4.1-6.1,4.9-5.8
				c0.8,0.3-1.1,7.3-0.3,7.6c0.8,0.3,4.4-5.9,5.2-5.6c0.8,0.3-1.5,7.2-0.7,7.6c0.8,0.4,4.7-5.7,5.5-5.3c0.8,0.4-1.8,7.2-1.1,7.6
				c0.7,0.4,5-5.5,5.7-5.1c0.7,0.4-2.1,7.1-1.4,7.5c0.7,0.4,5.2-5.3,5.9-4.8c0.7,0.5-2.5,7-1.8,7.4c0.7,0.5,5.5-5,6.1-4.5
				c0.7,0.5-2.8,6.8-2.1,7.3c0.7,0.5,5.7-4.8,6.4-4.2c0.7,0.5-3.1,6.7-2.5,7.2c0.7,0.5,5.9-4.5,6.5-3.9c0.6,0.5-3.4,6.5-2.8,7.1
				c0.6,0.6,6.1-4.2,6.7-3.6c0.6,0.6-3.7,6.4-3.1,7c0.6,0.6,6.3-3.9,6.9-3.3c0.6,0.6-4,6.2-3.4,6.8c0.6,0.6,6.5-3.6,7-3
				c0.6,0.6-4.3,6-3.8,6.6c0.5,0.6,6.6-3.3,7.2-2.6c0.5,0.7-4.6,5.8-4.1,6.5c0.5,0.7,6.8-3,7.3-2.3c0.5,0.7-4.9,5.6-4.4,6.3
				c0.5,0.7,6.9-2.6,7.4-1.9c0.5,0.7-5.1,5.3-4.7,6c0.5,0.7,7-2.3,7.5-1.6c0.4,0.7-5.4,5.1-5,5.8c0.4,0.7,7.1-2,7.5-1.2
				c0.4,0.7-5.6,4.8-5.2,5.6c0.4,0.8,7.2-1.6,7.6-0.8c0.4,0.8-5.8,4.5-5.5,5.3c0.3,0.8,7.3-1.3,7.6-0.5c0.3,0.8-6.1,4.2-5.8,5
				c0.3,0.8,7.4-0.9,7.6-0.1c0.3,0.8-6.3,3.9-6,4.7c0.3,0.8,7.4-0.5,7.6,0.3c0.2,0.8-6.4,3.6-6.2,4.4c0.2,0.8,7.4-0.2,7.6,0.6
				c0.2,0.8-6.6,3.3-6.4,4.1c0.2,0.8,7.4,0.2,7.6,1c0.2,0.8-6.8,3-6.6,3.8c0.1,0.8,7.4,0.5,7.5,1.4c0.1,0.8-6.9,2.6-6.8,3.5
				c0.1,0.8,7.4,0.9,7.4,1.8c0.1,0.8-7,2.3-7,3.1c0.1,0.8,7.3,1.3,7.3,2.1c0,0.8-7.1,2-7.1,2.8C217.4,109.5,224.6,110.2,224.6,111.1
				z"/>
		</g>
		<g>
			<path id="path2498_2_" fill="none" stroke="#010101" stroke-width="0.1" stroke-miterlimit="10" d="M119.2,22.4
				c-13.1-2.5-26.4,4.3-34.6,14.3c-10,11.9-14.6,27.6-15.3,43c-0.4,11.5,1.8,23,6,33.7c6.5,15.6,15.9,30.5,29.3,41
				c2.1-1.2,4.3-2.5,6.3-3.9c-5-4.4-10.2-8.8-14.2-14.2c-10.6-13.8-18.5-30.3-20-47.9c-1-15.6,2.3-32,11.5-44.8
				c5.7-7.9,14.4-14.1,24.3-14.8c9.3-0.4,17.9,4.9,23.9,11.7c8.4,9.8,12.4,22.5,13.7,35.2c2.4,0.7,4.8,1.6,7.2,2.6
				c-0.5-12.5-3.9-24.9-10.4-35.6C140.5,32.9,130.9,24.6,119.2,22.4z"/>
			<path id="path2500_2_" fill="#010101" d="M119.2,22.4c-13.1-2.5-26.4,4.3-34.6,14.3c-10,11.9-14.6,27.6-15.3,43
				c-0.4,11.5,1.8,23,6,33.7c6.5,15.6,15.9,30.5,29.3,41c2.1-1.2,4.3-2.5,6.3-3.9c-5-4.4-10.2-8.8-14.2-14.2
				c-10.6-13.8-18.5-30.3-20-47.9c-1-15.6,2.3-32,11.5-44.8c5.7-7.9,14.4-14.1,24.3-14.8c9.3-0.4,17.9,4.9,23.9,11.7
				c8.4,9.8,12.4,22.5,13.7,35.2c2.4,0.7,4.8,1.6,7.2,2.6c-0.5-12.5-3.9-24.9-10.4-35.6C140.5,32.9,130.9,24.6,119.2,22.4z"/>
			<path id="path2502_2_" fill="none" stroke="#010101" stroke-width="0.1" stroke-miterlimit="10" d="M155.7,81.8
				c-14.4-6.4-30.4-7.9-45.9-7.5c-10,0.1-20.2,0.8-29.8,3.9c-0.2,2.5-0.3,4.9-0.2,7.4c10.8-3.5,22.2-4.4,33.5-4.3
				c11.8,0.1,23.8,1.1,34.9,5.2c16,5.7,30.5,16.8,38.4,32c3.5,7.3,5.8,15.8,3.4,23.7c-2.3,10.3-11.3,17.8-21.1,20.6
				c-14.9,4.8-31,1.4-44.9-4.6c-2,1.7-4.2,3.2-6.3,4.8c11.9,5.9,25,9.5,38.4,9.2c10.6-0.4,21.4-3.5,29.7-10.3
				c8.8-7,13.4-18.6,12.3-29.7c-1-11.2-6.6-21.5-13.8-29.9C176.3,93.4,166.5,86.3,155.7,81.8z"/>
			<path id="path2504_2_" fill="#010101" d="M155.7,81.8c-14.4-6.4-30.4-7.9-45.9-7.5c-10,0.1-20.2,0.8-29.8,3.9
				c-0.2,2.5-0.3,4.9-0.2,7.4c10.8-3.5,22.2-4.4,33.5-4.3c11.8,0.1,23.8,1.1,34.9,5.2c16,5.7,30.5,16.8,38.4,32
				c3.5,7.3,5.8,15.8,3.4,23.7c-2.3,10.3-11.3,17.8-21.1,20.6c-14.9,4.8-31,1.4-44.9-4.6c-2,1.7-4.2,3.2-6.3,4.8
				c11.9,5.9,25,9.5,38.4,9.2c10.6-0.4,21.4-3.5,29.7-10.3c8.8-7,13.4-18.6,12.3-29.7c-1-11.2-6.6-21.5-13.8-29.9
				C176.3,93.4,166.5,86.3,155.7,81.8z"/>
			<path id="path2506_2_" fill="none" stroke="#010101" stroke-width="0.1" stroke-miterlimit="10" d="M65.6,84
				c-11,5.4-20.5,13.6-27.6,23.5c-5.4,8.1-9.5,17.4-9.7,27.3c-0.3,10.8,4.5,21.7,13,28.5c10.3,8.3,24.3,11.3,37.4,9.9
				c13.6-1.1,26.7-6.2,38-13.8c13.7-9.2,23.8-22.9,30.8-37.7c4.4-8.7,7.5-18.2,9.1-27.9c-2.2-1.2-4.4-2.2-6.7-3.2
				c-1.8,14-7.4,27.1-14.8,39c-8.7,14.3-21.9,25.9-37.6,31.8c-10.7,4.1-22.4,5.9-33.8,4.1c-9.6-1.8-19.3-6.8-24.3-15.5
				c-4.4-7.7-5-17.3-1.9-25.7c4.9-14.1,15.9-25.6,28.8-32.7C66.1,89.2,65.8,86.6,65.6,84z"/>
			<path id="path2508_2_" fill="#010101" d="M65.6,84c-11,5.4-20.5,13.6-27.6,23.5c-5.4,8.1-9.5,17.4-9.7,27.3
				c-0.3,10.8,4.5,21.7,13,28.5c10.3,8.3,24.3,11.3,37.4,9.9c13.6-1.1,26.7-6.2,38-13.8c13.7-9.2,23.8-22.9,30.8-37.7
				c4.4-8.7,7.5-18.2,9.1-27.9c-2.2-1.2-4.4-2.2-6.7-3.2c-1.8,14-7.4,27.1-14.8,39c-8.7,14.3-21.9,25.9-37.6,31.8
				c-10.7,4.1-22.4,5.9-33.8,4.1c-9.6-1.8-19.3-6.8-24.3-15.5c-4.4-7.7-5-17.3-1.9-25.7c4.9-14.1,15.9-25.6,28.8-32.7
				C66.1,89.2,65.8,86.6,65.6,84z"/>
		</g>
		<g>
			<g>
				
					<line fill="none" stroke="#000000" stroke-width="3" stroke-linecap="round" stroke-miterlimit="10" x1="203.8" y1="152.5" x2="198.3" y2="149.5"/>
				
					<line fill="none" stroke="#000000" stroke-width="3" stroke-linecap="round" stroke-miterlimit="10" x1="202.2" y1="147" x2="198.2" y2="149.5"/>
			</g>
			<g>
				
					<line fill="none" stroke="#000000" stroke-width="3" stroke-linecap="round" stroke-miterlimit="10" x1="196" y1="153.8" x2="201.5" y2="156.9"/>
				
					<line fill="none" stroke="#000000" stroke-width="3" stroke-linecap="round" stroke-miterlimit="10" x1="197.6" y1="159.3" x2="201.6" y2="156.9"/>
			</g>
		</g>
	</g>
</g>
</svg>
