<?xml version="1.0" encoding="UTF-8" standalone="no"?>
<!DOCTYPE svg PUBLIC "-//W3C//DTD SVG 1.1//EN"
 "http://www.w3.org/Graphics/SVG/1.1/DTD/svg11.dtd">
<!-- Generated by graphviz version 2.38.0 (20140413.2041)
 -->
<!-- Title: G Pages: 1 -->
<svg width="94pt" height="192pt"
 viewBox="0.00 0.00 94.00 192.00" xmlns="http://www.w3.org/2000/svg" xmlns:xlink="http://www.w3.org/1999/xlink">
<g id="graph0" class="graph" transform="scale(1 1) rotate(0) translate(4 188)">
<title>G</title>
<polygon fill="white" stroke="none" points="-4,4 -4,-188 90,-188 90,4 -4,4"/>
<g id="clust1" class="cluster"><title>cluster_SemFrame</title>
<polygon fill="lightcoral" stroke="black" points="5.16279,-8 5.16279,-93 81.8372,-93 81.8372,-8 5.16279,-8"/>
<text text-anchor="middle" x="43.5" y="-77.8" font-family="consolas" font-size="14.00">SemFrame</text>
</g>
<g id="clust2" class="cluster"><title>cluster_SynForm</title>
<polygon fill="lightblue" stroke="black" points="8,-101 8,-176 78,-176 78,-101 8,-101"/>
<text text-anchor="middle" x="43" y="-160.8" font-family="consolas" font-size="14.00">SynForm</text>
</g>
<!-- N1 -->
<g id="node1" class="node"><title>N1</title>
<ellipse fill="white" stroke="black" cx="43" cy="-39" rx="18.7039" ry="18.7039"/>
<ellipse fill="none" stroke="black" cx="43" cy="-39" rx="22.6756" ry="22.6756"/>
<text text-anchor="middle" x="43" y="-36.5" font-family="Times New Roman,serif" font-size="10.00">BIG</text>
</g>
<!-- S1 -->
<g id="node2" class="node"><title>S1</title>
<polygon fill="white" stroke="black" points="70,-145 16,-145 16,-109 70,-109 70,-145"/>
<text text-anchor="middle" x="43" y="-124.5" font-family="Times New Roman,serif" font-size="10.00">big</text>
</g>
</g>
</svg>
