<?xml version="1.0" encoding="UTF-8" standalone="no"?>
<!DOCTYPE svg PUBLIC "-//W3C//DTD SVG 1.1//EN"
 "http://www.w3.org/Graphics/SVG/1.1/DTD/svg11.dtd">
<!-- Generated by graphviz version 2.38.0 (20140413.2041)
 -->
<!-- Title: G Pages: 1 -->
<svg width="94pt" height="196pt"
 viewBox="0.00 0.00 94.00 196.00" xmlns="http://www.w3.org/2000/svg" xmlns:xlink="http://www.w3.org/1999/xlink">
<g id="graph0" class="graph" transform="scale(1 1) rotate(0) translate(4 192)">
<title>G</title>
<polygon fill="white" stroke="none" points="-4,4 -4,-192 90,-192 90,4 -4,4"/>
<g id="clust1" class="cluster"><title>cluster_SemFrame</title>
<polygon fill="lightcoral" stroke="black" points="5.3968,-8 5.3968,-97 81.6032,-97 81.6032,-8 5.3968,-8"/>
<text text-anchor="middle" x="43.5" y="-81.8" font-family="consolas" font-size="14.00">SemFrame</text>
</g>
<g id="clust2" class="cluster"><title>cluster_SynForm</title>
<polygon fill="lightblue" stroke="black" points="8,-105 8,-180 78,-180 78,-105 8,-105"/>
<text text-anchor="middle" x="43" y="-164.8" font-family="consolas" font-size="14.00">SynForm</text>
</g>
<!-- N1 -->
<g id="node1" class="node"><title>N1</title>
<ellipse fill="white" stroke="black" cx="43" cy="-41" rx="20.69" ry="20.69"/>
<ellipse fill="none" stroke="black" cx="43" cy="-41" rx="24.7068" ry="24.7068"/>
<text text-anchor="middle" x="43" y="-38.5" font-family="Times New Roman,serif" font-size="10.00">BOY</text>
</g>
<!-- S1 -->
<g id="node2" class="node"><title>S1</title>
<polygon fill="white" stroke="black" points="70,-149 16,-149 16,-113 70,-113 70,-149"/>
<text text-anchor="middle" x="43" y="-128.5" font-family="Times New Roman,serif" font-size="10.00">boy</text>
</g>
</g>
</svg>
