<?xml version="1.0" encoding="UTF-8" standalone="no"?>
<!DOCTYPE svg PUBLIC "-//W3C//DTD SVG 1.1//EN"
 "http://www.w3.org/Graphics/SVG/1.1/DTD/svg11.dtd">
<!-- Generated by graphviz version 2.38.0 (20140413.2041)
 -->
<!-- Title: G Pages: 1 -->
<svg width="554pt" height="222pt"
 viewBox="0.00 0.00 553.57 222.00" xmlns="http://www.w3.org/2000/svg" xmlns:xlink="http://www.w3.org/1999/xlink">
<g id="graph0" class="graph" transform="scale(1 1) rotate(0) translate(4 218)">
<title>G</title>
<polygon fill="white" stroke="none" points="-4,4 -4,-218 549.57,-218 549.57,4 -4,4"/>
<g id="clust1" class="cluster"><title>cluster_SemFrame</title>
<polygon fill="lightcoral" stroke="black" points="8,-91 8,-206 309.57,-206 309.57,-91 8,-91"/>
<text text-anchor="middle" x="158.785" y="-190.8" font-family="consolas" font-size="14.00">SemFrame</text>
</g>
<g id="clust2" class="cluster"><title>cluster_SynForm</title>
<polygon fill="lightblue" stroke="black" points="228.427,-8 228.427,-83 537.57,-83 537.57,-8 228.427,-8"/>
<text text-anchor="middle" x="382.999" y="-67.8" font-family="consolas" font-size="14.00">SynForm</text>
</g>
<!-- EVT1 -->
<g id="node1" class="node"><title>EVT1</title>
<ellipse fill="white" stroke="black" cx="54.1425" cy="-137" rx="34.2704" ry="34.2704"/>
<ellipse fill="none" stroke="black" cx="54.1425" cy="-137" rx="38.2854" ry="38.2854"/>
<text text-anchor="middle" x="54.1425" y="-134.5" font-family="Times New Roman,serif" font-size="10.00">ACTION+</text>
</g>
<!-- EVT2 -->
<g id="node2" class="node"><title>EVT2</title>
<ellipse fill="white" stroke="black" cx="263.427" cy="-137" rx="34.2704" ry="34.2704"/>
<ellipse fill="none" stroke="black" cx="263.427" cy="-137" rx="38.2854" ry="38.2854"/>
<text text-anchor="middle" x="263.427" y="-134.5" font-family="Times New Roman,serif" font-size="10.00">ACTION+</text>
</g>
<!-- EVT1&#45;&gt;EVT2 -->
<g id="edge1" class="edge"><title>EVT1&#45;&gt;EVT2</title>
<path fill="none" stroke="black" d="M92.6802,-137C127.019,-137 177.973,-137 215.092,-137"/>
<polygon fill="black" stroke="black" points="215.169,-140.5 225.169,-137 215.169,-133.5 215.169,-140.5"/>
<text text-anchor="middle" x="158.785" y="-140.8" font-family="Times New Roman,serif" font-size="14.00">CONCURRENT</text>
</g>
<!-- S1 -->
<g id="node3" class="node"><title>S1</title>
<polygon fill="white" stroke="black" points="290.427,-52 236.427,-52 236.427,-16 290.427,-16 290.427,-52"/>
<text text-anchor="middle" x="263.427" y="-31.5" font-family="Times New Roman,serif" font-size="10.00">[S]</text>
</g>
<!-- EVT1&#45;&gt;S1 -->
<g id="edge4" class="edge"><title>EVT1&#45;&gt;S1</title>
<path fill="none" stroke="red" d="M88.9077,-120.222C130.092,-99.7574 198.831,-65.6009 236.236,-47.0144"/>
</g>
<!-- S3 -->
<g id="node5" class="node"><title>S3</title>
<polygon fill="white" stroke="black" points="529.57,-52 475.57,-52 475.57,-16 529.57,-16 529.57,-52"/>
<text text-anchor="middle" x="502.57" y="-31.5" font-family="Times New Roman,serif" font-size="10.00">[S]</text>
</g>
<!-- EVT2&#45;&gt;S3 -->
<g id="edge5" class="edge"><title>EVT2&#45;&gt;S3</title>
<path fill="none" stroke="red" d="M298.657,-122.133C346.5,-101.353 432.327,-64.0748 475.402,-45.3655"/>
</g>
<!-- S2 -->
<g id="node4" class="node"><title>S2</title>
<polygon fill="white" stroke="black" points="415.57,-52 361.57,-52 361.57,-16 415.57,-16 415.57,-52"/>
<text text-anchor="middle" x="388.57" y="-31.5" font-family="Times New Roman,serif" font-size="10.00">while</text>
</g>
<!-- S1&#45;&gt;S2 -->
<g id="edge2" class="edge"><title>S1&#45;&gt;S2</title>
<path fill="none" stroke="black" d="M290.543,-34C308.257,-34 331.91,-34 351.428,-34"/>
<polygon fill="black" stroke="black" points="351.492,-37.5001 361.492,-34 351.492,-30.5001 351.492,-37.5001"/>
<text text-anchor="middle" x="331.57" y="-37.8" font-family="Times New Roman,serif" font-size="14.00">next</text>
</g>
<!-- S2&#45;&gt;S3 -->
<g id="edge3" class="edge"><title>S2&#45;&gt;S3</title>
<path fill="none" stroke="black" d="M415.829,-34C430.573,-34 449.193,-34 465.311,-34"/>
<polygon fill="black" stroke="black" points="465.475,-37.5001 475.475,-34 465.475,-30.5001 465.475,-37.5001"/>
<text text-anchor="middle" x="445.57" y="-37.8" font-family="Times New Roman,serif" font-size="14.00">next</text>
</g>
</g>
</svg>
