<?xml version="1.0" encoding="UTF-8" standalone="no"?>
<!DOCTYPE svg PUBLIC "-//W3C//DTD SVG 1.1//EN"
 "http://www.w3.org/Graphics/SVG/1.1/DTD/svg11.dtd">
<!-- Generated by graphviz version 2.38.0 (20140413.2041)
 -->
<!-- Title: G Pages: 1 -->
<svg width="237pt" height="220pt"
 viewBox="0.00 0.00 236.93 220.00" xmlns="http://www.w3.org/2000/svg" xmlns:xlink="http://www.w3.org/1999/xlink">
<g id="graph0" class="graph" transform="scale(1 1) rotate(0) translate(4 216)">
<title>G</title>
<polygon fill="white" stroke="none" points="-4,4 -4,-216 232.93,-216 232.93,4 -4,4"/>
<g id="clust1" class="cluster"><title>cluster_SemFrame</title>
<polygon fill="lightcoral" stroke="black" points="8,-91 8,-204 97.9302,-204 97.9302,-91 8,-91"/>
<text text-anchor="middle" x="52.9651" y="-188.8" font-family="consolas" font-size="14.00">SemFrame</text>
</g>
<g id="clust2" class="cluster"><title>cluster_SynForm</title>
<polygon fill="lightblue" stroke="black" points="17.9651,-8 17.9651,-83 220.93,-83 220.93,-8 17.9651,-8"/>
<text text-anchor="middle" x="119.448" y="-67.8" font-family="consolas" font-size="14.00">SynForm</text>
</g>
<!-- SUBJ -->
<g id="node1" class="node"><title>SUBJ</title>
<ellipse fill="white" stroke="black" cx="52.9651" cy="-136" rx="32.9341" ry="32.9341"/>
<ellipse fill="none" stroke="black" cx="52.9651" cy="-136" rx="36.9303" ry="36.9303"/>
<text text-anchor="middle" x="52.9651" y="-133.5" font-family="Times New Roman,serif" font-size="10.00">OBJECT+</text>
</g>
<!-- S2 -->
<g id="node3" class="node"><title>S2</title>
<polygon fill="white" stroke="black" points="212.93,-52 149.93,-52 149.93,-16 212.93,-16 212.93,-52"/>
<text text-anchor="middle" x="181.43" y="-31.5" font-family="Times New Roman,serif" font-size="10.00">[NC, NP, N]</text>
</g>
<!-- SUBJ&#45;&gt;S2 -->
<g id="edge2" class="edge"><title>SUBJ&#45;&gt;S2</title>
<path fill="none" stroke="red" d="M82.3464,-113.109C105.213,-94.666 136.923,-69.0905 158.029,-52.0676"/>
</g>
<!-- S1 -->
<g id="node2" class="node"><title>S1</title>
<polygon fill="white" stroke="black" points="79.9651,-52 25.9651,-52 25.9651,-16 79.9651,-16 79.9651,-52"/>
<text text-anchor="middle" x="52.9651" y="-31.5" font-family="Times New Roman,serif" font-size="10.00">there is</text>
</g>
<!-- S1&#45;&gt;S2 -->
<g id="edge1" class="edge"><title>S1&#45;&gt;S2</title>
<path fill="none" stroke="black" d="M80.1688,-34C97.3402,-34 120.137,-34 139.653,-34"/>
<polygon fill="black" stroke="black" points="139.807,-37.5001 149.806,-34 139.806,-30.5001 139.807,-37.5001"/>
<text text-anchor="middle" x="119.93" y="-37.8" font-family="Times New Roman,serif" font-size="14.00">next</text>
</g>
</g>
</svg>
