<?xml version="1.0" encoding="UTF-8" standalone="no"?>
<!DOCTYPE svg PUBLIC "-//W3C//DTD SVG 1.1//EN"
 "http://www.w3.org/Graphics/SVG/1.1/DTD/svg11.dtd">
<!-- Generated by graphviz version 2.38.0 (20140413.2041)
 -->
<!-- Title: G Pages: 1 -->
<svg width="94pt" height="200pt"
 viewBox="0.00 0.00 94.00 200.00" xmlns="http://www.w3.org/2000/svg" xmlns:xlink="http://www.w3.org/1999/xlink">
<g id="graph0" class="graph" transform="scale(1 1) rotate(0) translate(4 196)">
<title>G</title>
<polygon fill="white" stroke="none" points="-4,4 -4,-196 90,-196 90,4 -4,4"/>
<g id="clust1" class="cluster"><title>cluster_SemFrame</title>
<polygon fill="lightcoral" stroke="black" points="5.04215,-8 5.04215,-101 81.9579,-101 81.9579,-8 5.04215,-8"/>
<text text-anchor="middle" x="43.5" y="-85.8" font-family="consolas" font-size="14.00">SemFrame</text>
</g>
<g id="clust2" class="cluster"><title>cluster_SynForm</title>
<polygon fill="lightblue" stroke="black" points="8,-109 8,-184 78,-184 78,-109 8,-109"/>
<text text-anchor="middle" x="43" y="-168.8" font-family="consolas" font-size="14.00">SynForm</text>
</g>
<!-- N1 -->
<g id="node1" class="node"><title>N1</title>
<ellipse fill="white" stroke="black" cx="43" cy="-43" rx="22.922" ry="22.922"/>
<ellipse fill="none" stroke="black" cx="43" cy="-43" rx="26.9158" ry="26.9158"/>
<text text-anchor="middle" x="43" y="-40.5" font-family="Times New Roman,serif" font-size="10.00">KICK</text>
</g>
<!-- S1 -->
<g id="node2" class="node"><title>S1</title>
<polygon fill="white" stroke="black" points="70,-153 16,-153 16,-117 70,-117 70,-153"/>
<text text-anchor="middle" x="43" y="-132.5" font-family="Times New Roman,serif" font-size="10.00">kick</text>
</g>
</g>
</svg>
