<?xml version="1.0" encoding="UTF-8" standalone="no"?>
<!DOCTYPE svg PUBLIC "-//W3C//DTD SVG 1.1//EN"
 "http://www.w3.org/Graphics/SVG/1.1/DTD/svg11.dtd">
<!-- Generated by graphviz version 2.38.0 (20140413.2041)
 -->
<!-- Title: G Pages: 1 -->
<svg width="106pt" height="212pt"
 viewBox="0.00 0.00 105.69 212.00" xmlns="http://www.w3.org/2000/svg" xmlns:xlink="http://www.w3.org/1999/xlink">
<g id="graph0" class="graph" transform="scale(1 1) rotate(0) translate(4 208)">
<title>G</title>
<polygon fill="white" stroke="none" points="-4,4 -4,-208 101.689,-208 101.689,4 -4,4"/>
<g id="clust1" class="cluster"><title>cluster_SemFrame</title>
<polygon fill="lightcoral" stroke="black" points="8,-8 8,-113 89.689,-113 89.689,-8 8,-8"/>
<text text-anchor="middle" x="48.8445" y="-97.8" font-family="consolas" font-size="14.00">SemFrame</text>
</g>
<g id="clust2" class="cluster"><title>cluster_SynForm</title>
<polygon fill="lightblue" stroke="black" points="13.8445,-121 13.8445,-196 83.8445,-196 83.8445,-121 13.8445,-121"/>
<text text-anchor="middle" x="48.8445" y="-180.8" font-family="consolas" font-size="14.00">SynForm</text>
</g>
<!-- N1 -->
<g id="node1" class="node"><title>N1</title>
<ellipse fill="white" stroke="black" cx="48.8445" cy="-49" rx="28.7086" ry="28.7086"/>
<ellipse fill="none" stroke="black" cx="48.8445" cy="-49" rx="32.6897" ry="32.6897"/>
<text text-anchor="middle" x="48.8445" y="-46.5" font-family="Times New Roman,serif" font-size="10.00">LAUGH</text>
</g>
<!-- S1 -->
<g id="node2" class="node"><title>S1</title>
<polygon fill="white" stroke="black" points="75.8445,-165 21.8445,-165 21.8445,-129 75.8445,-129 75.8445,-165"/>
<text text-anchor="middle" x="48.8445" y="-144.5" font-family="Times New Roman,serif" font-size="10.00">laugh</text>
</g>
</g>
</svg>
