<?xml version="1.0" encoding="UTF-8" standalone="no"?>
<!DOCTYPE svg PUBLIC "-//W3C//DTD SVG 1.1//EN"
 "http://www.w3.org/Graphics/SVG/1.1/DTD/svg11.dtd">
<!-- Generated by graphviz version 2.38.0 (20140413.2041)
 -->
<!-- Title: G Pages: 1 -->
<svg width="95pt" height="202pt"
 viewBox="0.00 0.00 95.09 202.00" xmlns="http://www.w3.org/2000/svg" xmlns:xlink="http://www.w3.org/1999/xlink">
<g id="graph0" class="graph" transform="scale(1 1) rotate(0) translate(4 198)">
<title>G</title>
<polygon fill="white" stroke="none" points="-4,4 -4,-198 91.093,-198 91.093,4 -4,4"/>
<g id="clust1" class="cluster"><title>cluster_SemFrame</title>
<polygon fill="lightcoral" stroke="black" points="6,-8 6,-103 82.093,-103 82.093,-8 6,-8"/>
<text text-anchor="middle" x="44.0465" y="-87.8" font-family="consolas" font-size="14.00">SemFrame</text>
</g>
<g id="clust2" class="cluster"><title>cluster_SynForm</title>
<polygon fill="lightblue" stroke="black" points="8.54652,-111 8.54652,-186 78.5465,-186 78.5465,-111 8.54652,-111"/>
<text text-anchor="middle" x="43.5465" y="-170.8" font-family="consolas" font-size="14.00">SynForm</text>
</g>
<!-- N1 -->
<g id="node1" class="node"><title>N1</title>
<ellipse fill="white" stroke="black" cx="43.5465" cy="-44" rx="23.5863" ry="23.5863"/>
<ellipse fill="none" stroke="black" cx="43.5465" cy="-44" rx="27.5931" ry="27.5931"/>
<text text-anchor="middle" x="43.5465" y="-41.5" font-family="Times New Roman,serif" font-size="10.00">MAN</text>
</g>
<!-- S1 -->
<g id="node2" class="node"><title>S1</title>
<polygon fill="white" stroke="black" points="70.5465,-155 16.5465,-155 16.5465,-119 70.5465,-119 70.5465,-155"/>
<text text-anchor="middle" x="43.5465" y="-134.5" font-family="Times New Roman,serif" font-size="10.00">man</text>
</g>
</g>
</svg>
