<?xml version="1.0" encoding="UTF-8" standalone="no"?>
<!DOCTYPE svg PUBLIC "-//W3C//DTD SVG 1.1//EN"
 "http://www.w3.org/Graphics/SVG/1.1/DTD/svg11.dtd">
<!-- Generated by graphviz version 2.38.0 (20140413.2041)
 -->
<!-- Title: G Pages: 1 -->
<svg width="849pt" height="230pt"
 viewBox="0.00 0.00 849.04 230.00" xmlns="http://www.w3.org/2000/svg" xmlns:xlink="http://www.w3.org/1999/xlink">
<g id="graph0" class="graph" transform="scale(1 1) rotate(0) translate(4 226)">
<title>G</title>
<polygon fill="white" stroke="none" points="-4,4 -4,-226 845.038,-226 845.038,4 -4,4"/>
<g id="clust1" class="cluster"><title>cluster_SemFrame</title>
<polygon fill="lightcoral" stroke="black" points="8,-20 8,-214 268.038,-214 268.038,-20 8,-20"/>
<text text-anchor="middle" x="138.019" y="-198.8" font-family="consolas" font-size="14.00">SemFrame</text>
</g>
<g id="clust2" class="cluster"><title>cluster_SynForm</title>
<polygon fill="lightblue" stroke="black" points="289.038,-38 289.038,-113 833.038,-113 833.038,-38 289.038,-38"/>
<text text-anchor="middle" x="561.038" y="-97.8" font-family="consolas" font-size="14.00">SynForm</text>
</g>
<!-- SUBJ -->
<g id="node1" class="node"><title>SUBJ</title>
<ellipse fill="white" stroke="black" cx="223.661" cy="-151" rx="32.2534" ry="32.2534"/>
<text text-anchor="middle" x="223.661" y="-148.5" font-family="Times New Roman,serif" font-size="10.00">ENTITY+</text>
</g>
<!-- S5 -->
<g id="node8" class="node"><title>S5</title>
<polygon fill="white" stroke="black" points="825.038,-82 762.038,-82 762.038,-46 825.038,-46 825.038,-82"/>
<text text-anchor="middle" x="793.538" y="-61.5" font-family="Times New Roman,serif" font-size="10.00">[NC, NP, N]</text>
</g>
<!-- SUBJ&#45;&gt;S5 -->
<g id="edge7" class="edge"><title>SUBJ&#45;&gt;S5</title>
<path fill="none" stroke="red" d="M254.942,-141.483C275.262,-135.927 302.747,-130 327.538,-130 327.538,-130 327.538,-130 676.038,-130 715.091,-130 753.059,-101.576 774.548,-82.0348"/>
</g>
<!-- OBJ -->
<g id="node2" class="node"><title>OBJ</title>
<ellipse fill="white" stroke="black" cx="223.661" cy="-64" rx="32.2669" ry="32.2669"/>
<ellipse fill="none" stroke="black" cx="223.661" cy="-64" rx="36.2533" ry="36.2533"/>
<text text-anchor="middle" x="223.661" y="-61.5" font-family="Times New Roman,serif" font-size="10.00">ENTITY+</text>
</g>
<!-- S1 -->
<g id="node4" class="node"><title>S1</title>
<polygon fill="white" stroke="black" points="360.038,-82 297.038,-82 297.038,-46 360.038,-46 360.038,-82"/>
<text text-anchor="middle" x="328.538" y="-61.5" font-family="Times New Roman,serif" font-size="10.00">[NC, NP, N]</text>
</g>
<!-- OBJ&#45;&gt;S1 -->
<g id="edge8" class="edge"><title>OBJ&#45;&gt;S1</title>
<path fill="none" stroke="red" d="M260.066,-64C272.039,-64 285.3,-64 296.874,-64"/>
</g>
<!-- ACT -->
<g id="node3" class="node"><title>ACT</title>
<ellipse fill="white" stroke="black" cx="54.1425" cy="-66" rx="34.2704" ry="34.2704"/>
<ellipse fill="none" stroke="black" cx="54.1425" cy="-66" rx="38.2854" ry="38.2854"/>
<text text-anchor="middle" x="54.1425" y="-63.5" font-family="Times New Roman,serif" font-size="10.00">ACTION+</text>
</g>
<!-- ACT&#45;&gt;SUBJ -->
<g id="edge1" class="edge"><title>ACT&#45;&gt;SUBJ</title>
<path fill="none" stroke="black" d="M88.6398,-82.9967C116.641,-97.2045 156.534,-117.447 185.51,-132.149"/>
<polygon fill="black" stroke="black" points="184.004,-135.31 194.505,-136.713 187.171,-129.067 184.004,-135.31"/>
<text text-anchor="middle" x="139.785" y="-126.8" font-family="Times New Roman,serif" font-size="14.00">AGENT</text>
</g>
<!-- ACT&#45;&gt;OBJ -->
<g id="edge2" class="edge"><title>ACT&#45;&gt;OBJ</title>
<path fill="none" stroke="black" d="M92.3203,-65.5561C117.253,-65.2585 150.261,-64.8644 176.821,-64.5473"/>
<polygon fill="black" stroke="black" points="177.065,-68.0447 187.023,-64.4255 176.982,-61.0452 177.065,-68.0447"/>
<text text-anchor="middle" x="139.785" y="-69.8" font-family="Times New Roman,serif" font-size="14.00">PATIENT</text>
</g>
<!-- S3 -->
<g id="node6" class="node"><title>S3</title>
<polygon fill="white" stroke="black" points="588.038,-82 534.038,-82 534.038,-46 588.038,-46 588.038,-82"/>
<text text-anchor="middle" x="561.038" y="-61.5" font-family="Times New Roman,serif" font-size="10.00">[VP, V]</text>
</g>
<!-- ACT&#45;&gt;S3 -->
<g id="edge9" class="edge"><title>ACT&#45;&gt;S3</title>
<path fill="none" stroke="red" d="M86.4366,-45.479C119.052,-26.1045 172.334,-0 222.661,-0 222.661,-0 222.661,-0 448.038,-0 485.214,-0 521.27,-26.9102 542.027,-45.8314"/>
</g>
<!-- S2 -->
<g id="node5" class="node"><title>S2</title>
<polygon fill="white" stroke="black" points="474.038,-82 420.038,-82 420.038,-46 474.038,-46 474.038,-82"/>
<text text-anchor="middle" x="447.038" y="-61.5" font-family="Times New Roman,serif" font-size="10.00">is</text>
</g>
<!-- S1&#45;&gt;S2 -->
<g id="edge3" class="edge"><title>S1&#45;&gt;S2</title>
<path fill="none" stroke="black" d="M360.147,-64C375.41,-64 393.97,-64 409.926,-64"/>
<polygon fill="black" stroke="black" points="409.975,-67.5001 419.975,-64 409.975,-60.5001 409.975,-67.5001"/>
<text text-anchor="middle" x="390.038" y="-67.8" font-family="Times New Roman,serif" font-size="14.00">next</text>
</g>
<!-- S2&#45;&gt;S3 -->
<g id="edge4" class="edge"><title>S2&#45;&gt;S3</title>
<path fill="none" stroke="black" d="M474.297,-64C489.041,-64 507.661,-64 523.779,-64"/>
<polygon fill="black" stroke="black" points="523.943,-67.5001 533.943,-64 523.943,-60.5001 523.943,-67.5001"/>
<text text-anchor="middle" x="504.038" y="-67.8" font-family="Times New Roman,serif" font-size="14.00">next</text>
</g>
<!-- S4 -->
<g id="node7" class="node"><title>S4</title>
<polygon fill="white" stroke="black" points="702.038,-82 648.038,-82 648.038,-46 702.038,-46 702.038,-82"/>
<text text-anchor="middle" x="675.038" y="-61.5" font-family="Times New Roman,serif" font-size="10.00">&#45;ed by</text>
</g>
<!-- S3&#45;&gt;S4 -->
<g id="edge5" class="edge"><title>S3&#45;&gt;S4</title>
<path fill="none" stroke="black" d="M588.297,-64C603.041,-64 621.661,-64 637.779,-64"/>
<polygon fill="black" stroke="black" points="637.943,-67.5001 647.943,-64 637.943,-60.5001 637.943,-67.5001"/>
<text text-anchor="middle" x="618.038" y="-67.8" font-family="Times New Roman,serif" font-size="14.00">next</text>
</g>
<!-- S4&#45;&gt;S5 -->
<g id="edge6" class="edge"><title>S4&#45;&gt;S5</title>
<path fill="none" stroke="black" d="M702.183,-64C716.711,-64 735.114,-64 751.515,-64"/>
<polygon fill="black" stroke="black" points="751.943,-67.5001 761.943,-64 751.943,-60.5001 751.943,-67.5001"/>
<text text-anchor="middle" x="732.038" y="-67.8" font-family="Times New Roman,serif" font-size="14.00">next</text>
</g>
</g>
</svg>
