<?xml version="1.0" encoding="UTF-8" standalone="no"?>
<!DOCTYPE svg PUBLIC "-//W3C//DTD SVG 1.1//EN"
 "http://www.w3.org/Graphics/SVG/1.1/DTD/svg11.dtd">
<!-- Generated by graphviz version 2.38.0 (20140413.2041)
 -->
<!-- Title: G Pages: 1 -->
<svg width="469pt" height="222pt"
 viewBox="0.00 0.00 469.04 222.00" xmlns="http://www.w3.org/2000/svg" xmlns:xlink="http://www.w3.org/1999/xlink">
<g id="graph0" class="graph" transform="scale(1 1) rotate(0) translate(4 218)">
<title>G</title>
<polygon fill="white" stroke="none" points="-4,4 -4,-218 465.038,-218 465.038,4 -4,4"/>
<g id="clust1" class="cluster"><title>cluster_SemFrame</title>
<polygon fill="lightcoral" stroke="black" points="8,-91 8,-206 216.038,-206 216.038,-91 8,-91"/>
<text text-anchor="middle" x="112.019" y="-190.8" font-family="consolas" font-size="14.00">SemFrame</text>
</g>
<g id="clust2" class="cluster"><title>cluster_SynForm</title>
<polygon fill="lightblue" stroke="black" points="140.661,-8 140.661,-83 453.038,-83 453.038,-8 140.661,-8"/>
<text text-anchor="middle" x="296.85" y="-67.8" font-family="consolas" font-size="14.00">SynForm</text>
</g>
<!-- EVT -->
<g id="node1" class="node"><title>EVT</title>
<ellipse fill="white" stroke="black" cx="54.1425" cy="-137" rx="34.2704" ry="34.2704"/>
<ellipse fill="none" stroke="black" cx="54.1425" cy="-137" rx="38.2854" ry="38.2854"/>
<text text-anchor="middle" x="54.1425" y="-134.5" font-family="Times New Roman,serif" font-size="10.00">ACTION+</text>
</g>
<!-- PLACE -->
<g id="node2" class="node"><title>PLACE</title>
<ellipse fill="white" stroke="black" cx="175.661" cy="-132" rx="32.2534" ry="32.2534"/>
<text text-anchor="middle" x="175.661" y="-129.5" font-family="Times New Roman,serif" font-size="10.00">ENTITY+</text>
</g>
<!-- EVT&#45;&gt;PLACE -->
<g id="edge1" class="edge"><title>EVT&#45;&gt;PLACE</title>
<path fill="none" stroke="black" d="M92.3038,-135.445C105.173,-134.907 119.681,-134.3 132.895,-133.747"/>
<polygon fill="black" stroke="black" points="133.314,-137.233 143.159,-133.318 133.021,-130.239 133.314,-137.233"/>
<text text-anchor="middle" x="117.785" y="-137.8" font-family="Times New Roman,serif" font-size="14.00">IN</text>
</g>
<!-- S1 -->
<g id="node3" class="node"><title>S1</title>
<polygon fill="white" stroke="black" points="202.661,-52 148.661,-52 148.661,-16 202.661,-16 202.661,-52"/>
<text text-anchor="middle" x="175.661" y="-31.5" font-family="Times New Roman,serif" font-size="10.00">[S]</text>
</g>
<!-- EVT&#45;&gt;S1 -->
<g id="edge5" class="edge"><title>EVT&#45;&gt;S1</title>
<path fill="none" stroke="red" d="M83.4668,-112.59C105.004,-94.0298 134.157,-68.9063 153.646,-52.1107"/>
</g>
<!-- S3 -->
<g id="node5" class="node"><title>S3</title>
<polygon fill="white" stroke="black" points="445.038,-52 382.038,-52 382.038,-16 445.038,-16 445.038,-52"/>
<text text-anchor="middle" x="413.538" y="-31.5" font-family="Times New Roman,serif" font-size="10.00">[NC, NP, N]</text>
</g>
<!-- PLACE&#45;&gt;S3 -->
<g id="edge4" class="edge"><title>PLACE&#45;&gt;S3</title>
<path fill="none" stroke="red" d="M206.058,-119.786C251.012,-101.11 336.408,-65.6297 382.022,-46.6784"/>
</g>
<!-- S2 -->
<g id="node4" class="node"><title>S2</title>
<polygon fill="white" stroke="black" points="322.038,-52 268.038,-52 268.038,-16 322.038,-16 322.038,-52"/>
<text text-anchor="middle" x="295.038" y="-31.5" font-family="Times New Roman,serif" font-size="10.00">in</text>
</g>
<!-- S1&#45;&gt;S2 -->
<g id="edge2" class="edge"><title>S1&#45;&gt;S2</title>
<path fill="none" stroke="black" d="M202.711,-34C218.858,-34 239.839,-34 257.618,-34"/>
<polygon fill="black" stroke="black" points="257.655,-37.5001 267.655,-34 257.655,-30.5001 257.655,-37.5001"/>
<text text-anchor="middle" x="238.038" y="-37.8" font-family="Times New Roman,serif" font-size="14.00">next</text>
</g>
<!-- S2&#45;&gt;S3 -->
<g id="edge3" class="edge"><title>S2&#45;&gt;S3</title>
<path fill="none" stroke="black" d="M322.183,-34C336.711,-34 355.114,-34 371.515,-34"/>
<polygon fill="black" stroke="black" points="371.943,-37.5001 381.943,-34 371.943,-30.5001 371.943,-37.5001"/>
<text text-anchor="middle" x="352.038" y="-37.8" font-family="Times New Roman,serif" font-size="14.00">next</text>
</g>
</g>
</svg>
