<?xml version="1.0" encoding="UTF-8" standalone="no"?>
<!DOCTYPE svg PUBLIC "-//W3C//DTD SVG 1.1//EN"
 "http://www.w3.org/Graphics/SVG/1.1/DTD/svg11.dtd">
<!-- Generated by graphviz version 2.38.0 (20140413.2041)
 -->
<!-- Title: G Pages: 1 -->
<svg width="108pt" height="214pt"
 viewBox="0.00 0.00 108.04 214.00" xmlns="http://www.w3.org/2000/svg" xmlns:xlink="http://www.w3.org/1999/xlink">
<g id="graph0" class="graph" transform="scale(1 1) rotate(0) translate(4 210)">
<title>G</title>
<polygon fill="white" stroke="none" points="-4,4 -4,-210 104.044,-210 104.044,4 -4,4"/>
<g id="clust1" class="cluster"><title>cluster_SemFrame</title>
<polygon fill="lightcoral" stroke="black" points="8,-8 8,-115 92.0436,-115 92.0436,-8 8,-8"/>
<text text-anchor="middle" x="50.0218" y="-99.8" font-family="consolas" font-size="14.00">SemFrame</text>
</g>
<g id="clust2" class="cluster"><title>cluster_SynForm</title>
<polygon fill="lightblue" stroke="black" points="15.0218,-123 15.0218,-198 85.0218,-198 85.0218,-123 15.0218,-123"/>
<text text-anchor="middle" x="50.0218" y="-182.8" font-family="consolas" font-size="14.00">SynForm</text>
</g>
<!-- N1 -->
<g id="node1" class="node"><title>N1</title>
<ellipse fill="white" stroke="black" cx="50.0218" cy="-50" rx="30.0411" ry="30.0411"/>
<ellipse fill="none" stroke="black" cx="50.0218" cy="-50" rx="34.0436" ry="34.0436"/>
<text text-anchor="middle" x="50.0218" y="-47.5" font-family="Times New Roman,serif" font-size="10.00">PRETTY</text>
</g>
<!-- S1 -->
<g id="node2" class="node"><title>S1</title>
<polygon fill="white" stroke="black" points="77.0218,-167 23.0218,-167 23.0218,-131 77.0218,-131 77.0218,-167"/>
<text text-anchor="middle" x="50.0218" y="-146.5" font-family="Times New Roman,serif" font-size="10.00">pretty</text>
</g>
</g>
</svg>
