<?xml version="1.0" encoding="UTF-8" standalone="no"?>
<!DOCTYPE svg PUBLIC "-//W3C//DTD SVG 1.1//EN"
 "http://www.w3.org/Graphics/SVG/1.1/DTD/svg11.dtd">
<!-- Generated by graphviz version 2.38.0 (20140413.2041)
 -->
<!-- Title: G Pages: 1 -->
<svg width="710pt" height="218pt"
 viewBox="0.00 0.00 710.04 218.00" xmlns="http://www.w3.org/2000/svg" xmlns:xlink="http://www.w3.org/1999/xlink">
<g id="graph0" class="graph" transform="scale(1 1) rotate(0) translate(4 214)">
<title>G</title>
<polygon fill="white" stroke="none" points="-4,4 -4,-214 706.038,-214 706.038,4 -4,4"/>
<g id="clust1" class="cluster"><title>cluster_SemFrame</title>
<polygon fill="lightcoral" stroke="black" points="8,-20 8,-202 252.038,-202 252.038,-20 8,-20"/>
<text text-anchor="middle" x="130.019" y="-186.8" font-family="consolas" font-size="14.00">SemFrame</text>
</g>
<g id="clust2" class="cluster"><title>cluster_SynForm</title>
<polygon fill="lightblue" stroke="black" points="273.038,-32 273.038,-107 694.038,-107 694.038,-32 273.038,-32"/>
<text text-anchor="middle" x="483.538" y="-91.8" font-family="consolas" font-size="14.00">SynForm</text>
</g>
<!-- SUBJ -->
<g id="node1" class="node"><title>SUBJ</title>
<ellipse fill="white" stroke="black" cx="211.661" cy="-58" rx="26.481" ry="26.481"/>
<ellipse fill="none" stroke="black" cx="211.661" cy="-58" rx="30.4797" ry="30.4797"/>
<text text-anchor="middle" x="211.661" y="-55.5" font-family="Times New Roman,serif" font-size="10.00">ITEM+</text>
</g>
<!-- S1 -->
<g id="node4" class="node"><title>S1</title>
<polygon fill="white" stroke="black" points="335.038,-76 281.038,-76 281.038,-40 335.038,-40 335.038,-76"/>
<text text-anchor="middle" x="308.038" y="-55.5" font-family="Times New Roman,serif" font-size="10.00">[NP, N]</text>
</g>
<!-- SUBJ&#45;&gt;S1 -->
<g id="edge8" class="edge"><title>SUBJ&#45;&gt;S1</title>
<path fill="none" stroke="red" d="M242.264,-58C254.589,-58 268.782,-58 280.735,-58"/>
</g>
<!-- OBJ -->
<g id="node2" class="node"><title>OBJ</title>
<ellipse fill="white" stroke="black" cx="211.661" cy="-139" rx="32.2534" ry="32.2534"/>
<text text-anchor="middle" x="211.661" y="-136.5" font-family="Times New Roman,serif" font-size="10.00">ENTITY+</text>
</g>
<!-- S4 -->
<g id="node7" class="node"><title>S4</title>
<polygon fill="white" stroke="black" points="686.038,-76 623.038,-76 623.038,-40 686.038,-40 686.038,-76"/>
<text text-anchor="middle" x="654.538" y="-55.5" font-family="Times New Roman,serif" font-size="10.00">[NC, NP, N]</text>
</g>
<!-- OBJ&#45;&gt;S4 -->
<g id="edge7" class="edge"><title>OBJ&#45;&gt;S4</title>
<path fill="none" stroke="red" d="M242.985,-130.211C261.355,-125.642 285.354,-121 307.038,-121 307.038,-121 307.038,-121 537.038,-121 574.977,-121 612.407,-94.8285 634.223,-76.2222"/>
</g>
<!-- ACTION -->
<g id="node3" class="node"><title>ACTION</title>
<ellipse fill="white" stroke="black" cx="50.1425" cy="-62" rx="34.2855" ry="34.2855"/>
<text text-anchor="middle" x="50.1425" y="-59.5" font-family="Times New Roman,serif" font-size="10.00">ACTION+</text>
</g>
<!-- ACTION&#45;&gt;SUBJ -->
<g id="edge1" class="edge"><title>ACTION&#45;&gt;SUBJ</title>
<path fill="none" stroke="black" d="M84.5828,-61.1615C109.747,-60.5305 144.324,-59.6634 170.904,-58.9969"/>
<polygon fill="black" stroke="black" points="171.116,-62.4928 181.025,-58.7431 170.94,-55.495 171.116,-62.4928"/>
<text text-anchor="middle" x="131.785" y="-64.8" font-family="Times New Roman,serif" font-size="14.00">AGENT</text>
</g>
<!-- ACTION&#45;&gt;OBJ -->
<g id="edge2" class="edge"><title>ACTION&#45;&gt;OBJ</title>
<path fill="none" stroke="black" d="M81.1467,-76.4831C107.175,-89.047 144.974,-107.293 173.024,-120.833"/>
<polygon fill="black" stroke="black" points="171.605,-124.034 182.133,-125.229 174.648,-117.73 171.605,-124.034"/>
<text text-anchor="middle" x="131.785" y="-117.8" font-family="Times New Roman,serif" font-size="14.00">PATIENT</text>
</g>
<!-- S3 -->
<g id="node6" class="node"><title>S3</title>
<polygon fill="white" stroke="black" points="563.038,-76 509.038,-76 509.038,-40 563.038,-40 563.038,-76"/>
<text text-anchor="middle" x="536.038" y="-55.5" font-family="Times New Roman,serif" font-size="10.00">[VP, V]</text>
</g>
<!-- ACTION&#45;&gt;S3 -->
<g id="edge6" class="edge"><title>ACTION&#45;&gt;S3</title>
<path fill="none" stroke="red" d="M79.2607,-43.7333C110.171,-25.4448 161.933,-0 210.661,-0 210.661,-0 210.661,-0 423.038,-0 458.292,-0 493.502,-22.9403 514.779,-39.9664"/>
</g>
<!-- S2 -->
<g id="node5" class="node"><title>S2</title>
<polygon fill="white" stroke="black" points="449.038,-76 395.038,-76 395.038,-40 449.038,-40 449.038,-76"/>
<text text-anchor="middle" x="422.038" y="-55.5" font-family="Times New Roman,serif" font-size="10.00">which</text>
</g>
<!-- S1&#45;&gt;S2 -->
<g id="edge3" class="edge"><title>S1&#45;&gt;S2</title>
<path fill="none" stroke="black" d="M335.297,-58C350.041,-58 368.661,-58 384.779,-58"/>
<polygon fill="black" stroke="black" points="384.943,-61.5001 394.943,-58 384.943,-54.5001 384.943,-61.5001"/>
<text text-anchor="middle" x="365.038" y="-61.8" font-family="Times New Roman,serif" font-size="14.00">next</text>
</g>
<!-- S2&#45;&gt;S3 -->
<g id="edge4" class="edge"><title>S2&#45;&gt;S3</title>
<path fill="none" stroke="black" d="M449.297,-58C464.041,-58 482.661,-58 498.779,-58"/>
<polygon fill="black" stroke="black" points="498.943,-61.5001 508.943,-58 498.943,-54.5001 498.943,-61.5001"/>
<text text-anchor="middle" x="479.038" y="-61.8" font-family="Times New Roman,serif" font-size="14.00">next</text>
</g>
<!-- S3&#45;&gt;S4 -->
<g id="edge5" class="edge"><title>S3&#45;&gt;S4</title>
<path fill="none" stroke="black" d="M563.183,-58C577.711,-58 596.114,-58 612.515,-58"/>
<polygon fill="black" stroke="black" points="612.943,-61.5001 622.943,-58 612.943,-54.5001 612.943,-61.5001"/>
<text text-anchor="middle" x="593.038" y="-61.8" font-family="Times New Roman,serif" font-size="14.00">next</text>
</g>
</g>
</svg>
