<?xml version="1.0" encoding="UTF-8" standalone="no"?>
<!DOCTYPE svg PUBLIC "-//W3C//DTD SVG 1.1//EN"
 "http://www.w3.org/Graphics/SVG/1.1/DTD/svg11.dtd">
<!-- Generated by graphviz version 2.38.0 (20140413.2041)
 -->
<!-- Title: G Pages: 1 -->
<svg width="622pt" height="165pt"
 viewBox="0.00 0.00 621.71 165.00" xmlns="http://www.w3.org/2000/svg" xmlns:xlink="http://www.w3.org/1999/xlink">
<g id="graph0" class="graph" transform="scale(1 1) rotate(0) translate(4 161)">
<title>G</title>
<polygon fill="white" stroke="none" points="-4,4 -4,-161 617.712,-161 617.712,4 -4,4"/>
<g id="clust1" class="cluster"><title>cluster_SemFrame</title>
<polygon fill="lightcoral" stroke="black" points="8,-8 8,-149 286.712,-149 286.712,-8 8,-8"/>
<text text-anchor="middle" x="147.356" y="-133.8" font-family="consolas" font-size="14.00">SemFrame</text>
</g>
<g id="clust2" class="cluster"><title>cluster_SynForm</title>
<polygon fill="lightblue" stroke="black" points="307.712,-34 307.712,-109 605.712,-109 605.712,-34 307.712,-34"/>
<text text-anchor="middle" x="456.712" y="-93.8" font-family="consolas" font-size="14.00">SynForm</text>
</g>
<!-- SUBJ -->
<g id="node1" class="node"><title>SUBJ</title>
<ellipse fill="white" stroke="black" cx="239.981" cy="-76" rx="34.9396" ry="34.9396"/>
<ellipse fill="none" stroke="black" cx="239.981" cy="-76" rx="38.9636" ry="38.9636"/>
<text text-anchor="middle" x="239.981" y="-73.5" font-family="Times New Roman,serif" font-size="10.00">HUMAN+</text>
</g>
<!-- S1 -->
<g id="node3" class="node"><title>S1</title>
<polygon fill="white" stroke="black" points="369.712,-78 315.712,-78 315.712,-42 369.712,-42 369.712,-78"/>
<text text-anchor="middle" x="342.712" y="-57.5" font-family="Times New Roman,serif" font-size="10.00">[NP, N]</text>
</g>
<!-- SUBJ&#45;&gt;S1 -->
<g id="edge5" class="edge"><title>SUBJ&#45;&gt;S1</title>
<path fill="none" stroke="red" d="M278.49,-70.0422C290.796,-68.0875 304.199,-65.9586 315.485,-64.166"/>
</g>
<!-- ACTION -->
<g id="node2" class="node"><title>ACTION</title>
<ellipse fill="white" stroke="black" cx="66.625" cy="-67" rx="50.7503" ry="50.7503"/>
<text text-anchor="middle" x="66.625" y="-64.5" font-family="Times New Roman,serif" font-size="10.00">INTRANSITIVE+</text>
</g>
<!-- ACTION&#45;&gt;SUBJ -->
<g id="edge1" class="edge"><title>ACTION&#45;&gt;SUBJ</title>
<path fill="none" stroke="black" d="M117.188,-69.6032C140.417,-70.8232 167.982,-72.2709 191.007,-73.4803"/>
<polygon fill="black" stroke="black" points="191.066,-76.9881 201.235,-74.0175 191.433,-69.9977 191.066,-76.9881"/>
<text text-anchor="middle" x="159.25" y="-76.8" font-family="Times New Roman,serif" font-size="14.00">AGENT</text>
</g>
<!-- S3 -->
<g id="node5" class="node"><title>S3</title>
<polygon fill="white" stroke="black" points="597.712,-78 543.712,-78 543.712,-42 597.712,-42 597.712,-78"/>
<text text-anchor="middle" x="570.712" y="-57.5" font-family="Times New Roman,serif" font-size="10.00">[VP, V]</text>
</g>
<!-- ACTION&#45;&gt;S3 -->
<g id="edge4" class="edge"><title>ACTION&#45;&gt;S3</title>
<path fill="none" stroke="red" d="M111.705,-43.2418C145.527,-27.2243 193.912,-9 238.981,-9 238.981,-9 238.981,-9 457.712,-9 490.401,-9 524.022,-27.2168 545.785,-41.8757"/>
</g>
<!-- S2 -->
<g id="node4" class="node"><title>S2</title>
<polygon fill="white" stroke="black" points="483.712,-78 429.712,-78 429.712,-42 483.712,-42 483.712,-78"/>
<text text-anchor="middle" x="456.712" y="-57.5" font-family="Times New Roman,serif" font-size="10.00">who</text>
</g>
<!-- S1&#45;&gt;S2 -->
<g id="edge2" class="edge"><title>S1&#45;&gt;S2</title>
<path fill="none" stroke="black" d="M369.971,-60C384.716,-60 403.336,-60 419.453,-60"/>
<polygon fill="black" stroke="black" points="419.618,-63.5001 429.618,-60 419.618,-56.5001 419.618,-63.5001"/>
<text text-anchor="middle" x="399.712" y="-63.8" font-family="Times New Roman,serif" font-size="14.00">next</text>
</g>
<!-- S2&#45;&gt;S3 -->
<g id="edge3" class="edge"><title>S2&#45;&gt;S3</title>
<path fill="none" stroke="black" d="M483.971,-60C498.716,-60 517.336,-60 533.453,-60"/>
<polygon fill="black" stroke="black" points="533.618,-63.5001 543.618,-60 533.618,-56.5001 533.618,-63.5001"/>
<text text-anchor="middle" x="513.712" y="-63.8" font-family="Times New Roman,serif" font-size="14.00">next</text>
</g>
</g>
</svg>
