<?xml version="1.0" encoding="UTF-8" standalone="no"?>
<!DOCTYPE svg PUBLIC "-//W3C//DTD SVG 1.1//EN"
 "http://www.w3.org/Graphics/SVG/1.1/DTD/svg11.dtd">
<!-- Generated by graphviz version 2.38.0 (20140413.2041)
 -->
<!-- Title: G Pages: 1 -->
<svg width="608pt" height="154pt"
 viewBox="0.00 0.00 607.52 154.00" xmlns="http://www.w3.org/2000/svg" xmlns:xlink="http://www.w3.org/1999/xlink">
<g id="graph0" class="graph" transform="scale(1 1) rotate(0) translate(4 150)">
<title>G</title>
<polygon fill="white" stroke="none" points="-4,4 -4,-150 603.52,-150 603.52,4 -4,4"/>
<g id="clust1" class="cluster"><title>cluster_SemFrame</title>
<polygon fill="lightcoral" stroke="black" points="8,-19 8,-138 272.52,-138 272.52,-19 8,-19"/>
<text text-anchor="middle" x="140.26" y="-122.8" font-family="consolas" font-size="14.00">SemFrame</text>
</g>
<g id="clust2" class="cluster"><title>cluster_SynForm</title>
<polygon fill="lightblue" stroke="black" points="293.52,-25 293.52,-100 591.52,-100 591.52,-25 293.52,-25"/>
<text text-anchor="middle" x="442.52" y="-84.8" font-family="consolas" font-size="14.00">SynForm</text>
</g>
<!-- OBJ -->
<g id="node1" class="node"><title>OBJ</title>
<ellipse fill="white" stroke="black" cx="225.789" cy="-67" rx="34.9396" ry="34.9396"/>
<ellipse fill="none" stroke="black" cx="225.789" cy="-67" rx="38.9636" ry="38.9636"/>
<text text-anchor="middle" x="225.789" y="-64.5" font-family="Times New Roman,serif" font-size="10.00">HUMAN+</text>
</g>
<!-- S1 -->
<g id="node3" class="node"><title>S1</title>
<polygon fill="white" stroke="black" points="355.52,-69 301.52,-69 301.52,-33 355.52,-33 355.52,-69"/>
<text text-anchor="middle" x="328.52" y="-48.5" font-family="Times New Roman,serif" font-size="10.00">[NP, N]</text>
</g>
<!-- OBJ&#45;&gt;S1 -->
<g id="edge4" class="edge"><title>OBJ&#45;&gt;S1</title>
<path fill="none" stroke="red" d="M264.298,-61.0422C276.604,-59.0875 290.007,-56.9586 301.293,-55.166"/>
</g>
<!-- ATTR -->
<g id="node2" class="node"><title>ATTR</title>
<ellipse fill="white" stroke="black" cx="56.0291" cy="-67" rx="40.0582" ry="40.0582"/>
<text text-anchor="middle" x="56.0291" y="-64.5" font-family="Times New Roman,serif" font-size="10.00">PROPERTY+</text>
</g>
<!-- ATTR&#45;&gt;OBJ -->
<g id="edge1" class="edge"><title>ATTR&#45;&gt;OBJ</title>
<path fill="none" stroke="black" d="M96.3614,-67C120.365,-67 151.224,-67 176.677,-67"/>
<polygon fill="black" stroke="black" points="176.858,-70.5001 186.858,-67 176.858,-63.5001 176.858,-70.5001"/>
<text text-anchor="middle" x="141.558" y="-70.8" font-family="Times New Roman,serif" font-size="14.00">MODIFY</text>
</g>
<!-- S3 -->
<g id="node5" class="node"><title>S3</title>
<polygon fill="white" stroke="black" points="583.52,-69 529.52,-69 529.52,-33 583.52,-33 583.52,-69"/>
<text text-anchor="middle" x="556.52" y="-48.5" font-family="Times New Roman,serif" font-size="10.00">[A]</text>
</g>
<!-- ATTR&#45;&gt;S3 -->
<g id="edge5" class="edge"><title>ATTR&#45;&gt;S3</title>
<path fill="none" stroke="red" d="M89.8647,-45.247C122.617,-25.6835 175.081,-0 224.789,-0 224.789,-0 224.789,-0 443.52,-0 476.21,-0 509.831,-18.2168 531.593,-32.8757"/>
</g>
<!-- S2 -->
<g id="node4" class="node"><title>S2</title>
<polygon fill="white" stroke="black" points="469.52,-69 415.52,-69 415.52,-33 469.52,-33 469.52,-69"/>
<text text-anchor="middle" x="442.52" y="-48.5" font-family="Times New Roman,serif" font-size="10.00">who is</text>
</g>
<!-- S1&#45;&gt;S2 -->
<g id="edge2" class="edge"><title>S1&#45;&gt;S2</title>
<path fill="none" stroke="black" d="M355.779,-51C370.524,-51 389.144,-51 405.261,-51"/>
<polygon fill="black" stroke="black" points="405.426,-54.5001 415.426,-51 405.426,-47.5001 405.426,-54.5001"/>
<text text-anchor="middle" x="385.52" y="-54.8" font-family="Times New Roman,serif" font-size="14.00">next</text>
</g>
<!-- S2&#45;&gt;S3 -->
<g id="edge3" class="edge"><title>S2&#45;&gt;S3</title>
<path fill="none" stroke="black" d="M469.779,-51C484.524,-51 503.144,-51 519.261,-51"/>
<polygon fill="black" stroke="black" points="519.426,-54.5001 529.426,-51 519.426,-47.5001 519.426,-54.5001"/>
<text text-anchor="middle" x="499.52" y="-54.8" font-family="Times New Roman,serif" font-size="14.00">next</text>
</g>
</g>
</svg>
