<?xml version="1.0" encoding="UTF-8" standalone="no"?>
<!DOCTYPE svg PUBLIC "-//W3C//DTD SVG 1.1//EN"
 "http://www.w3.org/Graphics/SVG/1.1/DTD/svg11.dtd">
<!-- Generated by graphviz version 2.38.0 (20140413.2041)
 -->
<!-- Title: G Pages: 1 -->
<svg width="520pt" height="173pt"
 viewBox="0.00 0.00 520.00 173.00" xmlns="http://www.w3.org/2000/svg" xmlns:xlink="http://www.w3.org/1999/xlink">
<g id="graph0" class="graph" transform="scale(1 1) rotate(0) translate(4 169)">
<title>G</title>
<polygon fill="white" stroke="none" points="-4,4 -4,-169 516.003,-169 516.003,4 -4,4"/>
<g id="clust1" class="cluster"><title>cluster_SemFrame</title>
<polygon fill="lightcoral" stroke="black" points="8,-8 8,-157 290.003,-157 290.003,-8 8,-8"/>
<text text-anchor="middle" x="149.001" y="-141.8" font-family="consolas" font-size="14.00">SemFrame</text>
</g>
<g id="clust2" class="cluster"><title>cluster_SynForm</title>
<polygon fill="lightblue" stroke="black" points="311.003,-45 311.003,-120 504.003,-120 504.003,-45 311.003,-45"/>
<text text-anchor="middle" x="407.503" y="-104.8" font-family="consolas" font-size="14.00">SynForm</text>
</g>
<!-- SUBJ -->
<g id="node1" class="node"><title>SUBJ</title>
<ellipse fill="white" stroke="black" cx="245.626" cy="-85" rx="32.2669" ry="32.2669"/>
<ellipse fill="none" stroke="black" cx="245.626" cy="-85" rx="36.2533" ry="36.2533"/>
<text text-anchor="middle" x="245.626" y="-82.5" font-family="Times New Roman,serif" font-size="10.00">ENTITY+</text>
</g>
<!-- S1 -->
<g id="node3" class="node"><title>S1</title>
<polygon fill="white" stroke="black" points="382.003,-89 319.003,-89 319.003,-53 382.003,-53 382.003,-89"/>
<text text-anchor="middle" x="350.503" y="-68.5" font-family="Times New Roman,serif" font-size="10.00">[NC, NP, N]</text>
</g>
<!-- SUBJ&#45;&gt;S1 -->
<g id="edge3" class="edge"><title>SUBJ&#45;&gt;S1</title>
<path fill="none" stroke="red" d="M281.743,-80.2212C293.734,-78.5894 307.045,-76.7779 318.673,-75.1956"/>
</g>
<!-- ACT -->
<g id="node2" class="node"><title>ACT</title>
<ellipse fill="white" stroke="black" cx="70.625" cy="-71" rx="50.7411" ry="50.7411"/>
<ellipse fill="none" stroke="black" cx="70.625" cy="-71" rx="54.7503" ry="54.7503"/>
<text text-anchor="middle" x="70.625" y="-68.5" font-family="Times New Roman,serif" font-size="10.00">INTRANSITIVE+</text>
</g>
<!-- ACT&#45;&gt;SUBJ -->
<g id="edge1" class="edge"><title>ACT&#45;&gt;SUBJ</title>
<path fill="none" stroke="black" d="M125.415,-75.3529C149.07,-77.2672 176.551,-79.4911 199.163,-81.3209"/>
<polygon fill="black" stroke="black" points="198.929,-84.8133 209.178,-82.1314 199.493,-77.8361 198.929,-84.8133"/>
<text text-anchor="middle" x="167.25" y="-83.8" font-family="Times New Roman,serif" font-size="14.00">AGENT</text>
</g>
<!-- S2 -->
<g id="node4" class="node"><title>S2</title>
<polygon fill="white" stroke="black" points="496.003,-89 442.003,-89 442.003,-53 496.003,-53 496.003,-89"/>
<text text-anchor="middle" x="469.003" y="-68.5" font-family="Times New Roman,serif" font-size="10.00">[VP, V]</text>
</g>
<!-- ACT&#45;&gt;S2 -->
<g id="edge4" class="edge"><title>ACT&#45;&gt;S2</title>
<path fill="none" stroke="red" d="M123.445,-56.4725C149.042,-50.0309 180.527,-43.1949 209.25,-40 285.579,-31.5098 306.361,-30.7171 382.003,-44 402.503,-47.5998 424.914,-54.7468 441.718,-60.7836"/>
</g>
<!-- S1&#45;&gt;S2 -->
<g id="edge2" class="edge"><title>S1&#45;&gt;S2</title>
<path fill="none" stroke="black" d="M382.112,-71C397.375,-71 415.935,-71 431.891,-71"/>
<polygon fill="black" stroke="black" points="431.94,-74.5001 441.94,-71 431.94,-67.5001 431.94,-74.5001"/>
<text text-anchor="middle" x="412.003" y="-74.8" font-family="Times New Roman,serif" font-size="14.00">next</text>
</g>
</g>
</svg>
