<?xml version="1.0" encoding="UTF-8" standalone="no"?>
<!DOCTYPE svg PUBLIC "-//W3C//DTD SVG 1.1//EN"
 "http://www.w3.org/Graphics/SVG/1.1/DTD/svg11.dtd">
<!-- Generated by graphviz version 2.38.0 (20140413.2041)
 -->
<!-- Title: G Pages: 1 -->
<svg width="109pt" height="216pt"
 viewBox="0.00 0.00 109.22 216.00" xmlns="http://www.w3.org/2000/svg" xmlns:xlink="http://www.w3.org/1999/xlink">
<g id="graph0" class="graph" transform="scale(1 1) rotate(0) translate(4 212)">
<title>G</title>
<polygon fill="white" stroke="none" points="-4,4 -4,-212 105.221,-212 105.221,4 -4,4"/>
<g id="clust1" class="cluster"><title>cluster_SemFrame</title>
<polygon fill="lightcoral" stroke="black" points="8,-8 8,-117 93.2209,-117 93.2209,-8 8,-8"/>
<text text-anchor="middle" x="50.6105" y="-101.8" font-family="consolas" font-size="14.00">SemFrame</text>
</g>
<g id="clust2" class="cluster"><title>cluster_SynForm</title>
<polygon fill="lightblue" stroke="black" points="15.6105,-125 15.6105,-200 85.6105,-200 85.6105,-125 15.6105,-125"/>
<text text-anchor="middle" x="50.6105" y="-184.8" font-family="consolas" font-size="14.00">SynForm</text>
</g>
<!-- N1 -->
<g id="node1" class="node"><title>N1</title>
<ellipse fill="white" stroke="black" cx="50.6105" cy="-51" rx="30.7085" ry="30.7085"/>
<ellipse fill="none" stroke="black" cx="50.6105" cy="-51" rx="34.7213" ry="34.7213"/>
<text text-anchor="middle" x="50.6105" y="-48.5" font-family="Times New Roman,serif" font-size="10.00">TURTLE</text>
</g>
<!-- S1 -->
<g id="node2" class="node"><title>S1</title>
<polygon fill="white" stroke="black" points="77.6105,-169 23.6105,-169 23.6105,-133 77.6105,-133 77.6105,-169"/>
<text text-anchor="middle" x="50.6105" y="-148.5" font-family="Times New Roman,serif" font-size="10.00">turtle</text>
</g>
</g>
</svg>
