<?xml version="1.0" encoding="UTF-8" standalone="no"?>
<!DOCTYPE svg PUBLIC "-//W3C//DTD SVG 1.1//EN"
 "http://www.w3.org/Graphics/SVG/1.1/DTD/svg11.dtd">
<!-- Generated by graphviz version 2.38.0 (20140413.2041)
 -->
<!-- Title: G Pages: 1 -->
<svg width="2904pt" height="376pt"
 viewBox="0.00 0.00 2903.50 376.00" xmlns="http://www.w3.org/2000/svg" xmlns:xlink="http://www.w3.org/1999/xlink">
<g id="graph0" class="graph" transform="scale(1 1) rotate(0) translate(4 372)">
<title>G</title>
<polygon fill="white" stroke="none" points="-4,4 -4,-372 2899.5,-372 2899.5,4 -4,4"/>
<!-- 0 -->
<g id="node1" class="node"><title>0</title>
<polygon fill="white" stroke="black" points="1457,-368 1403,-368 1403,-332 1457,-332 1457,-368"/>
<text text-anchor="middle" x="1430" y="-347.5" font-family="Times New Roman,serif" font-size="10.00">ACTION</text>
</g>
<!-- 0&#45;&gt;0 -->
<g id="edge1" class="edge"><title>0&#45;&gt;0</title>
<path fill="none" stroke="black" d="M1457.24,-342.507C1467.02,-342.346 1475,-344.844 1475,-350 1475,-353.142 1472.04,-355.297 1467.51,-356.464"/>
<polygon fill="black" stroke="black" points="1466.84,-353.014 1457.24,-357.493 1467.54,-359.979 1466.84,-353.014"/>
<text text-anchor="middle" x="1483.5" y="-347.5" font-family="Times New Roman,serif" font-size="10.00">is_a</text>
</g>
<!-- 1 -->
<g id="node2" class="node"><title>1</title>
<polygon fill="white" stroke="black" points="882,-285 828,-285 828,-249 882,-249 882,-285"/>
<text text-anchor="middle" x="855" y="-264.5" font-family="Times New Roman,serif" font-size="10.00">TOKENS</text>
</g>
<!-- 1&#45;&gt;0 -->
<g id="edge2" class="edge"><title>1&#45;&gt;0</title>
<path fill="none" stroke="black" d="M882.347,-271.852C976.195,-285.073 1285.29,-328.614 1392.77,-343.755"/>
<polygon fill="black" stroke="black" points="1392.43,-347.242 1402.82,-345.171 1393.41,-340.31 1392.43,-347.242"/>
<text text-anchor="middle" x="1185.5" y="-306" font-family="Times New Roman,serif" font-size="10.00">is_a</text>
</g>
<!-- 2 -->
<g id="node3" class="node"><title>2</title>
<polygon fill="white" stroke="black" points="597,-202 543,-202 543,-166 597,-166 597,-202"/>
<text text-anchor="middle" x="570" y="-181.5" font-family="Times New Roman,serif" font-size="10.00">A3_HIT</text>
</g>
<!-- 2&#45;&gt;1 -->
<g id="edge3" class="edge"><title>2&#45;&gt;1</title>
<path fill="none" stroke="black" d="M597.29,-198.542C600.199,-199.788 603.139,-200.968 606,-202 679.491,-228.525 768.901,-248.699 818.098,-258.806"/>
<polygon fill="black" stroke="black" points="817.469,-262.249 827.965,-260.808 818.861,-255.389 817.469,-262.249"/>
<text text-anchor="middle" x="702.5" y="-223" font-family="Times New Roman,serif" font-size="10.00">is_a</text>
</g>
<!-- 3 -->
<g id="node4" class="node"><title>3</title>
<polygon fill="white" stroke="black" points="685,-202 615,-202 615,-166 685,-166 685,-202"/>
<text text-anchor="middle" x="650" y="-181.5" font-family="Times New Roman,serif" font-size="10.00">A7_WATCH</text>
</g>
<!-- 3&#45;&gt;1 -->
<g id="edge4" class="edge"><title>3&#45;&gt;1</title>
<path fill="none" stroke="black" d="M685.241,-198.924C722.336,-213.582 780.475,-236.554 818.162,-251.444"/>
<polygon fill="black" stroke="black" points="817.159,-254.811 827.745,-255.231 819.731,-248.301 817.159,-254.811"/>
<text text-anchor="middle" x="773.5" y="-223" font-family="Times New Roman,serif" font-size="10.00">is_a</text>
</g>
<!-- 4 -->
<g id="node5" class="node"><title>4</title>
<polygon fill="white" stroke="black" points="771,-202 703,-202 703,-166 771,-166 771,-202"/>
<text text-anchor="middle" x="737" y="-181.5" font-family="Times New Roman,serif" font-size="10.00">A1_SQUIRT</text>
</g>
<!-- 4&#45;&gt;1 -->
<g id="edge5" class="edge"><title>4&#45;&gt;1</title>
<path fill="none" stroke="black" d="M762.025,-202.178C779.39,-214.098 802.712,-230.108 821.654,-243.11"/>
<polygon fill="black" stroke="black" points="819.786,-246.073 830.011,-248.847 823.748,-240.302 819.786,-246.073"/>
<text text-anchor="middle" x="812.5" y="-223" font-family="Times New Roman,serif" font-size="10.00">is_a</text>
</g>
<!-- 5 -->
<g id="node6" class="node"><title>5</title>
<polygon fill="white" stroke="black" points="845,-202 789,-202 789,-166 845,-166 845,-202"/>
<text text-anchor="middle" x="817" y="-181.5" font-family="Times New Roman,serif" font-size="10.00">A5_KICK</text>
</g>
<!-- 5&#45;&gt;1 -->
<g id="edge6" class="edge"><title>5&#45;&gt;1</title>
<path fill="none" stroke="black" d="M825.059,-202.178C830.147,-213.024 836.824,-227.256 842.581,-239.528"/>
<polygon fill="black" stroke="black" points="839.537,-241.28 846.953,-248.847 845.874,-238.307 839.537,-241.28"/>
<text text-anchor="middle" x="847.5" y="-223" font-family="Times New Roman,serif" font-size="10.00">is_a</text>
</g>
<!-- 6 -->
<g id="node7" class="node"><title>6</title>
<polygon fill="white" stroke="black" points="922.5,-202 863.5,-202 863.5,-166 922.5,-166 922.5,-202"/>
<text text-anchor="middle" x="893" y="-181.5" font-family="Times New Roman,serif" font-size="10.00">A2_TALK</text>
</g>
<!-- 6&#45;&gt;1 -->
<g id="edge7" class="edge"><title>6&#45;&gt;1</title>
<path fill="none" stroke="black" d="M884.941,-202.178C879.853,-213.024 873.176,-227.256 867.419,-239.528"/>
<polygon fill="black" stroke="black" points="864.126,-238.307 863.047,-248.847 870.463,-241.28 864.126,-238.307"/>
<text text-anchor="middle" x="885.5" y="-223" font-family="Times New Roman,serif" font-size="10.00">is_a</text>
</g>
<!-- 7 -->
<g id="node8" class="node"><title>7</title>
<polygon fill="white" stroke="black" points="1003,-202 941,-202 941,-166 1003,-166 1003,-202"/>
<text text-anchor="middle" x="972" y="-181.5" font-family="Times New Roman,serif" font-size="10.00">A4_WEAR</text>
</g>
<!-- 7&#45;&gt;1 -->
<g id="edge8" class="edge"><title>7&#45;&gt;1</title>
<path fill="none" stroke="black" d="M947.187,-202.178C929.969,-214.098 906.845,-230.108 888.064,-243.11"/>
<polygon fill="black" stroke="black" points="886.007,-240.277 879.777,-248.847 889.991,-246.032 886.007,-240.277"/>
<text text-anchor="middle" x="929.5" y="-223" font-family="Times New Roman,serif" font-size="10.00">is_a</text>
</g>
<!-- 8 -->
<g id="node9" class="node"><title>8</title>
<polygon fill="white" stroke="black" points="1087,-202 1021,-202 1021,-166 1087,-166 1087,-202"/>
<text text-anchor="middle" x="1054" y="-181.5" font-family="Times New Roman,serif" font-size="10.00">A6_LAUGH</text>
</g>
<!-- 8&#45;&gt;1 -->
<g id="edge9" class="edge"><title>8&#45;&gt;1</title>
<path fill="none" stroke="black" d="M1020.7,-198.75C998.438,-207.925 968.483,-220.234 942,-231 925.388,-237.753 906.967,-245.173 891.367,-251.437"/>
<polygon fill="black" stroke="black" points="890.038,-248.2 882.06,-255.172 892.645,-254.696 890.038,-248.2"/>
<text text-anchor="middle" x="975.5" y="-223" font-family="Times New Roman,serif" font-size="10.00">is_a</text>
</g>
<!-- 9 -->
<g id="node10" class="node"><title>9</title>
<polygon fill="white" stroke="black" points="1358.5,-285 1295.5,-285 1295.5,-249 1358.5,-249 1358.5,-285"/>
<text text-anchor="middle" x="1327" y="-264.5" font-family="Times New Roman,serif" font-size="10.00">RELATION</text>
</g>
<!-- 9&#45;&gt;0 -->
<g id="edge10" class="edge"><title>9&#45;&gt;0</title>
<path fill="none" stroke="black" d="M1348.84,-285.178C1363.73,-296.884 1383.63,-312.532 1400,-325.404"/>
<polygon fill="black" stroke="black" points="1398.16,-328.416 1408.19,-331.847 1402.49,-322.914 1398.16,-328.416"/>
<text text-anchor="middle" x="1393.5" y="-306" font-family="Times New Roman,serif" font-size="10.00">is_a</text>
</g>
<!-- 10 -->
<g id="node11" class="node"><title>10</title>
<polygon fill="white" stroke="black" points="1179,-202 1105,-202 1105,-166 1179,-166 1179,-202"/>
<text text-anchor="middle" x="1142" y="-181.5" font-family="Times New Roman,serif" font-size="10.00">ACTION_REL</text>
</g>
<!-- 10&#45;&gt;9 -->
<g id="edge11" class="edge"><title>10&#45;&gt;9</title>
<path fill="none" stroke="black" d="M1179.44,-201.392C1210.34,-214.923 1254.14,-234.1 1285.99,-248.045"/>
<polygon fill="black" stroke="black" points="1284.9,-251.387 1295.46,-252.192 1287.71,-244.975 1284.9,-251.387"/>
<text text-anchor="middle" x="1254.5" y="-223" font-family="Times New Roman,serif" font-size="10.00">is_a</text>
</g>
<!-- 11 -->
<g id="node12" class="node"><title>11</title>
<polygon fill="white" stroke="black" points="654,-119 600,-119 600,-83 654,-83 654,-119"/>
<text text-anchor="middle" x="627" y="-98.5" font-family="Times New Roman,serif" font-size="10.00">TOKENS</text>
</g>
<!-- 11&#45;&gt;10 -->
<g id="edge12" class="edge"><title>11&#45;&gt;10</title>
<path fill="none" stroke="black" d="M654.093,-103.622C725.291,-108.32 923.422,-124.199 1094.86,-166.016"/>
<polygon fill="black" stroke="black" points="1094.26,-169.475 1104.81,-168.481 1095.94,-162.68 1094.26,-169.475"/>
<text text-anchor="middle" x="1016.5" y="-140" font-family="Times New Roman,serif" font-size="10.00">is_a</text>
</g>
<!-- 12 -->
<g id="node13" class="node"><title>12</title>
<polygon fill="white" stroke="black" points="72,-36 0,-36 0,-0 72,-0 72,-36"/>
<text text-anchor="middle" x="36" y="-15.5" font-family="Times New Roman,serif" font-size="10.00">R4_WEARER</text>
</g>
<!-- 12&#45;&gt;11 -->
<g id="edge13" class="edge"><title>12&#45;&gt;11</title>
<path fill="none" stroke="black" d="M72.1908,-33.2042C75.1532,-34.204 78.116,-35.1507 81,-36 139.869,-53.3368 155.305,-55.9338 216,-65 352.758,-85.4278 517.031,-94.9515 589.513,-98.3987"/>
<polygon fill="black" stroke="black" points="589.782,-101.915 599.933,-98.8822 590.106,-94.9224 589.782,-101.915"/>
<text text-anchor="middle" x="224.5" y="-57" font-family="Times New Roman,serif" font-size="10.00">is_a</text>
</g>
<!-- 13 -->
<g id="node14" class="node"><title>13</title>
<polygon fill="white" stroke="black" points="153.5,-36 90.5,-36 90.5,-0 153.5,-0 153.5,-36"/>
<text text-anchor="middle" x="122" y="-15.5" font-family="Times New Roman,serif" font-size="10.00">R10_HITEE</text>
</g>
<!-- 13&#45;&gt;11 -->
<g id="edge14" class="edge"><title>13&#45;&gt;11</title>
<path fill="none" stroke="black" d="M153.647,-33.1799C156.445,-34.2103 159.256,-35.1691 162,-36 316.323,-82.7253 509.879,-95.4547 589.828,-98.8265"/>
<polygon fill="black" stroke="black" points="589.765,-102.327 599.896,-99.2263 590.042,-95.3321 589.765,-102.327"/>
<text text-anchor="middle" x="283.5" y="-57" font-family="Times New Roman,serif" font-size="10.00">is_a</text>
</g>
<!-- 14 -->
<g id="node15" class="node"><title>14</title>
<polygon fill="white" stroke="black" points="248.5,-36 171.5,-36 171.5,-0 248.5,-0 248.5,-36"/>
<text text-anchor="middle" x="210" y="-15.5" font-family="Times New Roman,serif" font-size="10.00">R8_SQUIRTEE</text>
</g>
<!-- 14&#45;&gt;11 -->
<g id="edge15" class="edge"><title>14&#45;&gt;11</title>
<path fill="none" stroke="black" d="M248.582,-33.4643C251.416,-34.3697 254.243,-35.2264 257,-36 376.157,-69.4364 522.062,-88.4774 589.515,-96.0857"/>
<polygon fill="black" stroke="black" points="589.327,-99.5861 599.651,-97.2091 590.098,-92.6287 589.327,-99.5861"/>
<text text-anchor="middle" x="386.5" y="-57" font-family="Times New Roman,serif" font-size="10.00">is_a</text>
</g>
<!-- 15 -->
<g id="node16" class="node"><title>15</title>
<polygon fill="white" stroke="black" points="343.5,-36 266.5,-36 266.5,-0 343.5,-0 343.5,-36"/>
<text text-anchor="middle" x="305" y="-15.5" font-family="Times New Roman,serif" font-size="10.00">R1_SQUIRTER</text>
</g>
<!-- 15&#45;&gt;11 -->
<g id="edge16" class="edge"><title>15&#45;&gt;11</title>
<path fill="none" stroke="black" d="M343.652,-33.104C346.801,-34.1263 349.946,-35.1054 353,-36 436.725,-60.5225 536.985,-81.9778 589.961,-92.7106"/>
<polygon fill="black" stroke="black" points="589.413,-96.1704 599.907,-94.7119 590.794,-89.3079 589.413,-96.1704"/>
<text text-anchor="middle" x="466.5" y="-57" font-family="Times New Roman,serif" font-size="10.00">is_a</text>
</g>
<!-- 16 -->
<g id="node17" class="node"><title>16</title>
<polygon fill="white" stroke="black" points="442,-36 362,-36 362,-0 442,-0 442,-36"/>
<text text-anchor="middle" x="402" y="-15.5" font-family="Times New Roman,serif" font-size="10.00">R7_WATCHER</text>
</g>
<!-- 16&#45;&gt;11 -->
<g id="edge17" class="edge"><title>16&#45;&gt;11</title>
<path fill="none" stroke="black" d="M442.225,-33.4812C484.264,-48.6151 549.652,-72.1548 590.318,-86.7945"/>
<polygon fill="black" stroke="black" points="589.251,-90.1303 599.846,-90.2245 591.622,-83.5441 589.251,-90.1303"/>
<text text-anchor="middle" x="536.5" y="-57" font-family="Times New Roman,serif" font-size="10.00">is_a</text>
</g>
<!-- 17 -->
<g id="node18" class="node"><title>17</title>
<polygon fill="white" stroke="black" points="526,-36 460,-36 460,-0 526,-0 526,-36"/>
<text text-anchor="middle" x="493" y="-15.5" font-family="Times New Roman,serif" font-size="10.00">R5_KICKER</text>
</g>
<!-- 17&#45;&gt;11 -->
<g id="edge18" class="edge"><title>17&#45;&gt;11</title>
<path fill="none" stroke="black" d="M521.418,-36.178C541.81,-48.5043 569.434,-65.2029 591.312,-78.4276"/>
<polygon fill="black" stroke="black" points="589.625,-81.4976 599.994,-83.6755 593.247,-75.507 589.625,-81.4976"/>
<text text-anchor="middle" x="577.5" y="-57" font-family="Times New Roman,serif" font-size="10.00">is_a</text>
</g>
<!-- 18 -->
<g id="node19" class="node"><title>18</title>
<polygon fill="white" stroke="black" points="620,-36 544,-36 544,-0 620,-0 620,-36"/>
<text text-anchor="middle" x="582" y="-15.5" font-family="Times New Roman,serif" font-size="10.00">R6_LAUGHER</text>
</g>
<!-- 18&#45;&gt;11 -->
<g id="edge19" class="edge"><title>18&#45;&gt;11</title>
<path fill="none" stroke="black" d="M591.543,-36.178C597.629,-47.1318 605.632,-61.5384 612.495,-73.8916"/>
<polygon fill="black" stroke="black" points="609.554,-75.8049 617.47,-82.8467 615.673,-72.4054 609.554,-75.8049"/>
<text text-anchor="middle" x="616.5" y="-57" font-family="Times New Roman,serif" font-size="10.00">is_a</text>
</g>
<!-- 19 -->
<g id="node20" class="node"><title>19</title>
<polygon fill="white" stroke="black" points="708,-36 638,-36 638,-0 708,-0 708,-36"/>
<text text-anchor="middle" x="673" y="-15.5" font-family="Times New Roman,serif" font-size="10.00">R12_KICKEE</text>
</g>
<!-- 19&#45;&gt;11 -->
<g id="edge20" class="edge"><title>19&#45;&gt;11</title>
<path fill="none" stroke="black" d="M663.245,-36.178C657.024,-47.1318 648.842,-61.5384 641.827,-73.8916"/>
<polygon fill="black" stroke="black" points="638.636,-72.4227 636.741,-82.8467 644.723,-75.8795 638.636,-72.4227"/>
<text text-anchor="middle" x="661.5" y="-57" font-family="Times New Roman,serif" font-size="10.00">is_a</text>
</g>
<!-- 20 -->
<g id="node21" class="node"><title>20</title>
<polygon fill="white" stroke="black" points="795.5,-36 726.5,-36 726.5,-0 795.5,-0 795.5,-36"/>
<text text-anchor="middle" x="761" y="-15.5" font-family="Times New Roman,serif" font-size="10.00">R2_TALKER</text>
</g>
<!-- 20&#45;&gt;11 -->
<g id="edge21" class="edge"><title>20&#45;&gt;11</title>
<path fill="none" stroke="black" d="M732.582,-36.178C712.19,-48.5043 684.566,-65.2029 662.688,-78.4276"/>
<polygon fill="black" stroke="black" points="660.753,-75.507 654.006,-83.6755 664.375,-81.4976 660.753,-75.507"/>
<text text-anchor="middle" x="711.5" y="-57" font-family="Times New Roman,serif" font-size="10.00">is_a</text>
</g>
<!-- 21 -->
<g id="node22" class="node"><title>21</title>
<polygon fill="white" stroke="black" points="872.5,-36 813.5,-36 813.5,-0 872.5,-0 872.5,-36"/>
<text text-anchor="middle" x="843" y="-15.5" font-family="Times New Roman,serif" font-size="10.00">R3_HITER</text>
</g>
<!-- 21&#45;&gt;11 -->
<g id="edge22" class="edge"><title>21&#45;&gt;11</title>
<path fill="none" stroke="black" d="M813.271,-32.1896C810.152,-33.5042 807.019,-34.7963 804,-36 756.003,-55.1381 699.766,-75.0527 663.782,-87.4821"/>
<polygon fill="black" stroke="black" points="662.51,-84.2183 654.194,-90.7825 664.788,-90.8372 662.51,-84.2183"/>
<text text-anchor="middle" x="764.5" y="-57" font-family="Times New Roman,serif" font-size="10.00">is_a</text>
</g>
<!-- 22 -->
<g id="node23" class="node"><title>22</title>
<polygon fill="white" stroke="black" points="967,-36 891,-36 891,-0 967,-0 967,-36"/>
<text text-anchor="middle" x="929" y="-15.5" font-family="Times New Roman,serif" font-size="10.00">R11_WEAREE</text>
</g>
<!-- 22&#45;&gt;11 -->
<g id="edge23" class="edge"><title>22&#45;&gt;11</title>
<path fill="none" stroke="black" d="M890.827,-32.7848C887.513,-33.901 884.203,-34.9875 881,-36 805.097,-59.9927 714.236,-81.0977 664.363,-92.046"/>
<polygon fill="black" stroke="black" points="663.388,-88.6762 654.362,-94.2255 664.878,-95.5157 663.388,-88.6762"/>
<text text-anchor="middle" x="827.5" y="-57" font-family="Times New Roman,serif" font-size="10.00">is_a</text>
</g>
<!-- 23 -->
<g id="node24" class="node"><title>23</title>
<polygon fill="white" stroke="black" points="1054.5,-36 985.5,-36 985.5,-0 1054.5,-0 1054.5,-36"/>
<text text-anchor="middle" x="1020" y="-15.5" font-family="Times New Roman,serif" font-size="10.00">R9_HEARER</text>
</g>
<!-- 23&#45;&gt;11 -->
<g id="edge24" class="edge"><title>23&#45;&gt;11</title>
<path fill="none" stroke="black" d="M985.109,-33.0556C982.049,-34.113 978.983,-35.112 976,-36 864.987,-69.0541 728.77,-88.0791 664.264,-95.8514"/>
<polygon fill="black" stroke="black" points="663.694,-92.3944 654.174,-97.0453 664.516,-99.3459 663.694,-92.3944"/>
<text text-anchor="middle" x="909.5" y="-57" font-family="Times New Roman,serif" font-size="10.00">is_a</text>
</g>
<!-- 24 -->
<g id="node25" class="node"><title>24</title>
<polygon fill="white" stroke="black" points="1155.5,-36 1072.5,-36 1072.5,-0 1155.5,-0 1155.5,-36"/>
<text text-anchor="middle" x="1114" y="-15.5" font-family="Times New Roman,serif" font-size="10.00">R13_WATCHEE</text>
</g>
<!-- 24&#45;&gt;11 -->
<g id="edge25" class="edge"><title>24&#45;&gt;11</title>
<path fill="none" stroke="black" d="M1072.37,-33.3237C1069.21,-34.273 1066.06,-35.1772 1063,-36 918.509,-74.7935 740.355,-91.6646 664.279,-97.469"/>
<polygon fill="black" stroke="black" points="663.949,-93.9838 654.236,-98.2157 664.468,-100.965 663.949,-93.9838"/>
<text text-anchor="middle" x="989.5" y="-57" font-family="Times New Roman,serif" font-size="10.00">is_a</text>
</g>
<!-- 25 -->
<g id="node26" class="node"><title>25</title>
<polygon fill="white" stroke="black" points="1277,-202 1197,-202 1197,-166 1277,-166 1277,-202"/>
<text text-anchor="middle" x="1237" y="-181.5" font-family="Times New Roman,serif" font-size="10.00">QUALITY_REL</text>
</g>
<!-- 25&#45;&gt;9 -->
<g id="edge26" class="edge"><title>25&#45;&gt;9</title>
<path fill="none" stroke="black" d="M1256.09,-202.178C1268.97,-213.776 1286.16,-229.245 1300.39,-242.049"/>
<polygon fill="black" stroke="black" points="1298.17,-244.759 1307.94,-248.847 1302.85,-239.556 1298.17,-244.759"/>
<text text-anchor="middle" x="1296.5" y="-223" font-family="Times New Roman,serif" font-size="10.00">is_a</text>
</g>
<!-- 26 -->
<g id="node27" class="node"><title>26</title>
<polygon fill="white" stroke="black" points="1257,-119 1203,-119 1203,-83 1257,-83 1257,-119"/>
<text text-anchor="middle" x="1230" y="-98.5" font-family="Times New Roman,serif" font-size="10.00">TOKENS</text>
</g>
<!-- 26&#45;&gt;25 -->
<g id="edge27" class="edge"><title>26&#45;&gt;25</title>
<path fill="none" stroke="black" d="M1231.48,-119.178C1232.4,-129.81 1233.6,-143.694 1234.65,-155.796"/>
<polygon fill="black" stroke="black" points="1231.17,-156.185 1235.52,-165.847 1238.14,-155.583 1231.17,-156.185"/>
<text text-anchor="middle" x="1242.5" y="-140" font-family="Times New Roman,serif" font-size="10.00">is_a</text>
</g>
<!-- 27 -->
<g id="node28" class="node"><title>27</title>
<polygon fill="white" stroke="black" points="1266,-36 1174,-36 1174,-0 1266,-0 1266,-36"/>
<text text-anchor="middle" x="1220" y="-15.5" font-family="Times New Roman,serif" font-size="10.00">R9_HAS_PARAM</text>
</g>
<!-- 27&#45;&gt;26 -->
<g id="edge28" class="edge"><title>27&#45;&gt;26</title>
<path fill="none" stroke="black" d="M1222.12,-36.178C1223.43,-46.8097 1225.15,-60.694 1226.64,-72.7965"/>
<polygon fill="black" stroke="black" points="1223.18,-73.351 1227.88,-82.8467 1230.13,-72.4932 1223.18,-73.351"/>
<text text-anchor="middle" x="1234.5" y="-57" font-family="Times New Roman,serif" font-size="10.00">is_a</text>
</g>
<!-- 28 -->
<g id="node29" class="node"><title>28</title>
<polygon fill="white" stroke="black" points="1359,-202 1295,-202 1295,-166 1359,-166 1359,-202"/>
<text text-anchor="middle" x="1327" y="-181.5" font-family="Times New Roman,serif" font-size="10.00">TEMP_REL</text>
</g>
<!-- 28&#45;&gt;9 -->
<g id="edge29" class="edge"><title>28&#45;&gt;9</title>
<path fill="none" stroke="black" d="M1327,-202.178C1327,-212.81 1327,-226.694 1327,-238.796"/>
<polygon fill="black" stroke="black" points="1323.5,-238.847 1327,-248.847 1330.5,-238.847 1323.5,-238.847"/>
<text text-anchor="middle" x="1335.5" y="-223" font-family="Times New Roman,serif" font-size="10.00">is_a</text>
</g>
<!-- 29 -->
<g id="node30" class="node"><title>29</title>
<polygon fill="white" stroke="black" points="1357,-119 1303,-119 1303,-83 1357,-83 1357,-119"/>
<text text-anchor="middle" x="1330" y="-98.5" font-family="Times New Roman,serif" font-size="10.00">TOKENS</text>
</g>
<!-- 29&#45;&gt;28 -->
<g id="edge30" class="edge"><title>29&#45;&gt;28</title>
<path fill="none" stroke="black" d="M1329.36,-119.178C1328.97,-129.81 1328.46,-143.694 1328.01,-155.796"/>
<polygon fill="black" stroke="black" points="1324.51,-155.724 1327.64,-165.847 1331.5,-155.983 1324.51,-155.724"/>
<text text-anchor="middle" x="1337.5" y="-140" font-family="Times New Roman,serif" font-size="10.00">is_a</text>
</g>
<!-- 30 -->
<g id="node31" class="node"><title>30</title>
<polygon fill="white" stroke="black" points="1375.5,-36 1284.5,-36 1284.5,-0 1375.5,-0 1375.5,-36"/>
<text text-anchor="middle" x="1330" y="-15.5" font-family="Times New Roman,serif" font-size="10.00">R12_SUCCESSIVE</text>
</g>
<!-- 30&#45;&gt;29 -->
<g id="edge31" class="edge"><title>30&#45;&gt;29</title>
<path fill="none" stroke="black" d="M1330,-36.178C1330,-46.8097 1330,-60.694 1330,-72.7965"/>
<polygon fill="black" stroke="black" points="1326.5,-72.8467 1330,-82.8467 1333.5,-72.8468 1326.5,-72.8467"/>
<text text-anchor="middle" x="1338.5" y="-57" font-family="Times New Roman,serif" font-size="10.00">is_a</text>
</g>
<!-- 31 -->
<g id="node32" class="node"><title>31</title>
<polygon fill="white" stroke="black" points="1492.5,-36 1393.5,-36 1393.5,-0 1492.5,-0 1492.5,-36"/>
<text text-anchor="middle" x="1443" y="-15.5" font-family="Times New Roman,serif" font-size="10.00">R11_CONCURRENT</text>
</g>
<!-- 31&#45;&gt;29 -->
<g id="edge32" class="edge"><title>31&#45;&gt;29</title>
<path fill="none" stroke="black" d="M1419.04,-36.178C1402.56,-47.991 1380.47,-63.8195 1362.42,-76.7577"/>
<polygon fill="black" stroke="black" points="1360.02,-74.1761 1353.93,-82.8467 1364.1,-79.8654 1360.02,-74.1761"/>
<text text-anchor="middle" x="1402.5" y="-57" font-family="Times New Roman,serif" font-size="10.00">is_a</text>
</g>
<!-- 32 -->
<g id="node33" class="node"><title>32</title>
<polygon fill="white" stroke="black" points="1455,-202 1377,-202 1377,-166 1455,-166 1455,-202"/>
<text text-anchor="middle" x="1416" y="-181.5" font-family="Times New Roman,serif" font-size="10.00">SPATIAL_REL</text>
</g>
<!-- 32&#45;&gt;9 -->
<g id="edge33" class="edge"><title>32&#45;&gt;9</title>
<path fill="none" stroke="black" d="M1397.13,-202.178C1384.38,-213.776 1367.38,-229.245 1353.32,-242.049"/>
<polygon fill="black" stroke="black" points="1350.89,-239.527 1345.85,-248.847 1355.6,-244.704 1350.89,-239.527"/>
<text text-anchor="middle" x="1385.5" y="-223" font-family="Times New Roman,serif" font-size="10.00">is_a</text>
</g>
<!-- 33 -->
<g id="node34" class="node"><title>33</title>
<polygon fill="white" stroke="black" points="1437,-119 1383,-119 1383,-83 1437,-83 1437,-119"/>
<text text-anchor="middle" x="1410" y="-98.5" font-family="Times New Roman,serif" font-size="10.00">TOKENS</text>
</g>
<!-- 33&#45;&gt;32 -->
<g id="edge34" class="edge"><title>33&#45;&gt;32</title>
<path fill="none" stroke="black" d="M1411.27,-119.178C1412.06,-129.81 1413.09,-143.694 1413.98,-155.796"/>
<polygon fill="black" stroke="black" points="1410.5,-156.133 1414.73,-165.847 1417.48,-155.615 1410.5,-156.133"/>
<text text-anchor="middle" x="1422.5" y="-140" font-family="Times New Roman,serif" font-size="10.00">is_a</text>
</g>
<!-- 34 -->
<g id="node35" class="node"><title>34</title>
<polygon fill="white" stroke="black" points="1585.5,-36 1510.5,-36 1510.5,-0 1585.5,-0 1585.5,-36"/>
<text text-anchor="middle" x="1548" y="-15.5" font-family="Times New Roman,serif" font-size="10.00">R8_CONTAIN</text>
</g>
<!-- 34&#45;&gt;33 -->
<g id="edge35" class="edge"><title>34&#45;&gt;33</title>
<path fill="none" stroke="black" d="M1518.73,-36.178C1497.5,-48.6411 1468.65,-65.574 1446.01,-78.8665"/>
<polygon fill="black" stroke="black" points="1444.2,-75.8681 1437.35,-83.9486 1447.74,-81.905 1444.2,-75.8681"/>
<text text-anchor="middle" x="1496.5" y="-57" font-family="Times New Roman,serif" font-size="10.00">is_a</text>
</g>
<!-- 35 -->
<g id="node36" class="node"><title>35</title>
<polygon fill="white" stroke="black" points="1561,-285 1507,-285 1507,-249 1561,-249 1561,-285"/>
<text text-anchor="middle" x="1534" y="-264.5" font-family="Times New Roman,serif" font-size="10.00">OBJECT</text>
</g>
<!-- 35&#45;&gt;0 -->
<g id="edge36" class="edge"><title>35&#45;&gt;0</title>
<path fill="none" stroke="black" d="M1511.94,-285.178C1496.91,-296.884 1476.82,-312.532 1460.3,-325.404"/>
<polygon fill="black" stroke="black" points="1457.76,-322.941 1452.02,-331.847 1462.06,-328.463 1457.76,-322.941"/>
<text text-anchor="middle" x="1497.5" y="-306" font-family="Times New Roman,serif" font-size="10.00">is_a</text>
</g>
<!-- 36 -->
<g id="node37" class="node"><title>36</title>
<polygon fill="white" stroke="black" points="1989,-202 1935,-202 1935,-166 1989,-166 1989,-202"/>
<text text-anchor="middle" x="1962" y="-181.5" font-family="Times New Roman,serif" font-size="10.00">TOKENS</text>
</g>
<!-- 36&#45;&gt;35 -->
<g id="edge37" class="edge"><title>36&#45;&gt;35</title>
<path fill="none" stroke="black" d="M1934.9,-190.128C1860.99,-204.116 1655.79,-242.951 1571.19,-258.961"/>
<polygon fill="black" stroke="black" points="1570.43,-255.543 1561.26,-260.842 1571.73,-262.421 1570.43,-255.543"/>
<text text-anchor="middle" x="1782.5" y="-223" font-family="Times New Roman,serif" font-size="10.00">is_a</text>
</g>
<!-- 37 -->
<g id="node38" class="node"><title>37</title>
<polygon fill="white" stroke="black" points="1550.5,-119 1455.5,-119 1455.5,-83 1550.5,-83 1550.5,-119"/>
<text text-anchor="middle" x="1503" y="-98.5" font-family="Times New Roman,serif" font-size="10.00">O11_BOXINGRING</text>
</g>
<!-- 37&#45;&gt;36 -->
<g id="edge38" class="edge"><title>37&#45;&gt;36</title>
<path fill="none" stroke="black" d="M1550.51,-116.483C1553.71,-117.363 1556.9,-118.21 1560,-119 1620.32,-134.351 1635.66,-137.473 1697,-148 1777.87,-161.879 1873.45,-173.283 1924.84,-179.009"/>
<polygon fill="black" stroke="black" points="1924.49,-182.492 1934.81,-180.111 1925.25,-175.534 1924.49,-182.492"/>
<text text-anchor="middle" x="1705.5" y="-140" font-family="Times New Roman,serif" font-size="10.00">is_a</text>
</g>
<!-- 38 -->
<g id="node39" class="node"><title>38</title>
<polygon fill="white" stroke="black" points="1641,-119 1569,-119 1569,-83 1641,-83 1641,-119"/>
<text text-anchor="middle" x="1605" y="-98.5" font-family="Times New Roman,serif" font-size="10.00">O6_ANIMAL</text>
</g>
<!-- 38&#45;&gt;36 -->
<g id="edge39" class="edge"><title>38&#45;&gt;36</title>
<path fill="none" stroke="black" d="M1641.24,-116.05C1644.19,-117.084 1647.14,-118.081 1650,-119 1746.85,-150.089 1865.61,-169.545 1924.79,-178.033"/>
<polygon fill="black" stroke="black" points="1924.39,-181.512 1934.79,-179.444 1925.37,-174.581 1924.39,-181.512"/>
<text text-anchor="middle" x="1760.5" y="-140" font-family="Times New Roman,serif" font-size="10.00">is_a</text>
</g>
<!-- 39 -->
<g id="node40" class="node"><title>39</title>
<polygon fill="white" stroke="black" points="1713,-119 1659,-119 1659,-83 1713,-83 1713,-119"/>
<text text-anchor="middle" x="1686" y="-98.5" font-family="Times New Roman,serif" font-size="10.00">O4_GIRL</text>
</g>
<!-- 39&#45;&gt;36 -->
<g id="edge40" class="edge"><title>39&#45;&gt;36</title>
<path fill="none" stroke="black" d="M1713.33,-115.444C1716.23,-116.709 1719.16,-117.92 1722,-119 1791.85,-145.538 1877.11,-165.473 1924.9,-175.585"/>
<polygon fill="black" stroke="black" points="1924.29,-179.033 1934.8,-177.651 1925.72,-172.181 1924.29,-179.033"/>
<text text-anchor="middle" x="1815.5" y="-140" font-family="Times New Roman,serif" font-size="10.00">is_a</text>
</g>
<!-- 40 -->
<g id="node41" class="node"><title>40</title>
<polygon fill="white" stroke="black" points="1787,-119 1731,-119 1731,-83 1787,-83 1787,-119"/>
<text text-anchor="middle" x="1759" y="-98.5" font-family="Times New Roman,serif" font-size="10.00">O1_MAN</text>
</g>
<!-- 40&#45;&gt;36 -->
<g id="edge41" class="edge"><title>40&#45;&gt;36</title>
<path fill="none" stroke="black" d="M1787.2,-115.178C1790.16,-116.495 1793.13,-117.791 1796,-119 1840.03,-137.581 1891.48,-157.081 1925.29,-169.601"/>
<polygon fill="black" stroke="black" points="1924.17,-172.918 1934.76,-173.097 1926.59,-166.351 1924.17,-172.918"/>
<text text-anchor="middle" x="1872.5" y="-140" font-family="Times New Roman,serif" font-size="10.00">is_a</text>
</g>
<!-- 41 -->
<g id="node42" class="node"><title>41</title>
<polygon fill="white" stroke="black" points="1871,-119 1805,-119 1805,-83 1871,-83 1871,-119"/>
<text text-anchor="middle" x="1838" y="-98.5" font-family="Times New Roman,serif" font-size="10.00">O7_MOUSE</text>
</g>
<!-- 41&#45;&gt;36 -->
<g id="edge42" class="edge"><title>41&#45;&gt;36</title>
<path fill="none" stroke="black" d="M1864.3,-119.178C1882.63,-131.152 1907.27,-147.252 1927.23,-160.285"/>
<polygon fill="black" stroke="black" points="1925.45,-163.308 1935.74,-165.847 1929.28,-157.448 1925.45,-163.308"/>
<text text-anchor="middle" x="1916.5" y="-140" font-family="Times New Roman,serif" font-size="10.00">is_a</text>
</g>
<!-- 42 -->
<g id="node43" class="node"><title>42</title>
<polygon fill="white" stroke="black" points="1951,-119 1889,-119 1889,-83 1951,-83 1951,-119"/>
<text text-anchor="middle" x="1920" y="-98.5" font-family="Times New Roman,serif" font-size="10.00">O9_DRESS</text>
</g>
<!-- 42&#45;&gt;36 -->
<g id="edge43" class="edge"><title>42&#45;&gt;36</title>
<path fill="none" stroke="black" d="M1928.91,-119.178C1934.59,-130.132 1942.06,-144.538 1948.46,-156.892"/>
<polygon fill="black" stroke="black" points="1945.4,-158.58 1953.11,-165.847 1951.61,-155.358 1945.4,-158.58"/>
<text text-anchor="middle" x="1952.5" y="-140" font-family="Times New Roman,serif" font-size="10.00">is_a</text>
</g>
<!-- 43 -->
<g id="node44" class="node"><title>43</title>
<polygon fill="white" stroke="black" points="2037,-119 1969,-119 1969,-83 2037,-83 2037,-119"/>
<text text-anchor="middle" x="2003" y="-98.5" font-family="Times New Roman,serif" font-size="10.00">O8_TURTLE</text>
</g>
<!-- 43&#45;&gt;36 -->
<g id="edge44" class="edge"><title>43&#45;&gt;36</title>
<path fill="none" stroke="black" d="M1994.3,-119.178C1988.76,-130.132 1981.47,-144.538 1975.22,-156.892"/>
<polygon fill="black" stroke="black" points="1972.08,-155.344 1970.68,-165.847 1978.32,-158.505 1972.08,-155.344"/>
<text text-anchor="middle" x="1993.5" y="-140" font-family="Times New Roman,serif" font-size="10.00">is_a</text>
</g>
<!-- 44 -->
<g id="node45" class="node"><title>44</title>
<polygon fill="white" stroke="black" points="2125,-119 2055,-119 2055,-83 2125,-83 2125,-119"/>
<text text-anchor="middle" x="2090" y="-98.5" font-family="Times New Roman,serif" font-size="10.00">O5_HUMAN</text>
</g>
<!-- 44&#45;&gt;36 -->
<g id="edge45" class="edge"><title>44&#45;&gt;36</title>
<path fill="none" stroke="black" d="M2062.85,-119.178C2043.85,-131.206 2018.26,-147.396 1997.62,-160.461"/>
<polygon fill="black" stroke="black" points="1995.68,-157.542 1989.11,-165.847 1999.43,-163.457 1995.68,-157.542"/>
<text text-anchor="middle" x="2042.5" y="-140" font-family="Times New Roman,serif" font-size="10.00">is_a</text>
</g>
<!-- 45 -->
<g id="node46" class="node"><title>45</title>
<polygon fill="white" stroke="black" points="2206.5,-119 2143.5,-119 2143.5,-83 2206.5,-83 2206.5,-119"/>
<text text-anchor="middle" x="2175" y="-98.5" font-family="Times New Roman,serif" font-size="10.00">O12_PARK</text>
</g>
<!-- 45&#45;&gt;36 -->
<g id="edge46" class="edge"><title>45&#45;&gt;36</title>
<path fill="none" stroke="black" d="M2143.26,-115.295C2140.14,-116.562 2137.01,-117.816 2134,-119 2087.72,-137.199 2033.93,-156.999 1999,-169.681"/>
<polygon fill="black" stroke="black" points="1997.44,-166.523 1989.23,-173.22 1999.82,-173.104 1997.44,-166.523"/>
<text text-anchor="middle" x="2095.5" y="-140" font-family="Times New Roman,serif" font-size="10.00">is_a</text>
</g>
<!-- 46 -->
<g id="node47" class="node"><title>46</title>
<polygon fill="white" stroke="black" points="2279,-119 2225,-119 2225,-83 2279,-83 2279,-119"/>
<text text-anchor="middle" x="2252" y="-98.5" font-family="Times New Roman,serif" font-size="10.00">O2_BOY</text>
</g>
<!-- 46&#45;&gt;36 -->
<g id="edge47" class="edge"><title>46&#45;&gt;36</title>
<path fill="none" stroke="black" d="M2224.73,-115.141C2221.48,-116.524 2218.19,-117.844 2215,-119 2140.24,-146.094 2049.07,-166.12 1999.13,-176.034"/>
<polygon fill="black" stroke="black" points="1998.26,-172.638 1989.12,-177.995 1999.6,-179.507 1998.26,-172.638"/>
<text text-anchor="middle" x="2162.5" y="-140" font-family="Times New Roman,serif" font-size="10.00">is_a</text>
</g>
<!-- 47 -->
<g id="node48" class="node"><title>47</title>
<polygon fill="white" stroke="black" points="2368.5,-119 2297.5,-119 2297.5,-83 2368.5,-83 2368.5,-119"/>
<text text-anchor="middle" x="2333" y="-98.5" font-family="Times New Roman,serif" font-size="10.00">O10_TSHIRT</text>
</g>
<!-- 47&#45;&gt;36 -->
<g id="edge48" class="edge"><title>47&#45;&gt;36</title>
<path fill="none" stroke="black" d="M2297.26,-115.906C2294.15,-116.996 2291.03,-118.043 2288,-119 2185.85,-151.297 2060.3,-170.42 1999.09,-178.483"/>
<polygon fill="black" stroke="black" points="1998.6,-175.018 1989.13,-179.772 1999.5,-181.96 1998.6,-175.018"/>
<text text-anchor="middle" x="2226.5" y="-140" font-family="Times New Roman,serif" font-size="10.00">is_a</text>
</g>
<!-- 48 -->
<g id="node49" class="node"><title>48</title>
<polygon fill="white" stroke="black" points="2459.5,-119 2386.5,-119 2386.5,-83 2459.5,-83 2459.5,-119"/>
<text text-anchor="middle" x="2423" y="-98.5" font-family="Times New Roman,serif" font-size="10.00">O3_WOMAN</text>
</g>
<!-- 48&#45;&gt;36 -->
<g id="edge49" class="edge"><title>48&#45;&gt;36</title>
<path fill="none" stroke="black" d="M2386.25,-116.122C2383.14,-117.152 2380.03,-118.128 2377,-119 2241.13,-158.153 2072.92,-174.716 1999.37,-180.444"/>
<polygon fill="black" stroke="black" points="1998.92,-176.967 1989.22,-181.212 1999.45,-183.947 1998.92,-176.967"/>
<text text-anchor="middle" x="2308.5" y="-140" font-family="Times New Roman,serif" font-size="10.00">is_a</text>
</g>
<!-- 49 -->
<g id="node50" class="node"><title>49</title>
<polygon fill="white" stroke="black" points="2548.5,-119 2477.5,-119 2477.5,-83 2548.5,-83 2548.5,-119"/>
<text text-anchor="middle" x="2513" y="-98.5" font-family="Times New Roman,serif" font-size="10.00">O13_PEOPLE</text>
</g>
<!-- 49&#45;&gt;36 -->
<g id="edge50" class="edge"><title>49&#45;&gt;36</title>
<path fill="none" stroke="black" d="M2477.32,-116.093C2474.19,-117.142 2471.05,-118.129 2468,-119 2403.96,-137.275 2386.88,-138.313 2321,-148 2204.21,-165.171 2064.76,-176.032 1999.35,-180.565"/>
<polygon fill="black" stroke="black" points="1998.87,-177.09 1989.13,-181.263 1999.35,-184.073 1998.87,-177.09"/>
<text text-anchor="middle" x="2401.5" y="-140" font-family="Times New Roman,serif" font-size="10.00">is_a</text>
</g>
<!-- 50 -->
<g id="node51" class="node"><title>50</title>
<polygon fill="white" stroke="black" points="2623,-285 2565,-285 2565,-249 2623,-249 2623,-285"/>
<text text-anchor="middle" x="2594" y="-264.5" font-family="Times New Roman,serif" font-size="10.00">QUALITY</text>
</g>
<!-- 50&#45;&gt;0 -->
<g id="edge51" class="edge"><title>50&#45;&gt;0</title>
<path fill="none" stroke="black" d="M2564.94,-270.022C2406.3,-281.062 1645.6,-333.997 1467.41,-346.397"/>
<polygon fill="black" stroke="black" points="1466.96,-342.92 1457.22,-347.105 1467.44,-349.903 1466.96,-342.92"/>
<text text-anchor="middle" x="2090.5" y="-306" font-family="Times New Roman,serif" font-size="10.00">is_a</text>
</g>
<!-- 51 -->
<g id="node52" class="node"><title>51</title>
<polygon fill="white" stroke="black" points="2621,-202 2567,-202 2567,-166 2621,-166 2621,-202"/>
<text text-anchor="middle" x="2594" y="-181.5" font-family="Times New Roman,serif" font-size="10.00">COLOR</text>
</g>
<!-- 51&#45;&gt;50 -->
<g id="edge52" class="edge"><title>51&#45;&gt;50</title>
<path fill="none" stroke="black" d="M2594,-202.178C2594,-212.81 2594,-226.694 2594,-238.796"/>
<polygon fill="black" stroke="black" points="2590.5,-238.847 2594,-248.847 2597.5,-238.847 2590.5,-238.847"/>
<text text-anchor="middle" x="2602.5" y="-223" font-family="Times New Roman,serif" font-size="10.00">is_a</text>
</g>
<!-- 52 -->
<g id="node53" class="node"><title>52</title>
<polygon fill="white" stroke="black" points="2621,-119 2567,-119 2567,-83 2621,-83 2621,-119"/>
<text text-anchor="middle" x="2594" y="-98.5" font-family="Times New Roman,serif" font-size="10.00">TOKENS</text>
</g>
<!-- 52&#45;&gt;51 -->
<g id="edge53" class="edge"><title>52&#45;&gt;51</title>
<path fill="none" stroke="black" d="M2594,-119.178C2594,-129.81 2594,-143.694 2594,-155.796"/>
<polygon fill="black" stroke="black" points="2590.5,-155.847 2594,-165.847 2597.5,-155.847 2590.5,-155.847"/>
<text text-anchor="middle" x="2602.5" y="-140" font-family="Times New Roman,serif" font-size="10.00">is_a</text>
</g>
<!-- 53 -->
<g id="node54" class="node"><title>53</title>
<polygon fill="white" stroke="black" points="2420,-36 2366,-36 2366,-0 2420,-0 2420,-36"/>
<text text-anchor="middle" x="2393" y="-15.5" font-family="Times New Roman,serif" font-size="10.00">Q1_RED</text>
</g>
<!-- 53&#45;&gt;52 -->
<g id="edge54" class="edge"><title>53&#45;&gt;52</title>
<path fill="none" stroke="black" d="M2420.03,-32.0343C2423.04,-33.4061 2426.08,-34.7535 2429,-36 2462.26,-50.1737 2471.02,-52.641 2505,-65 2527.98,-73.3605 2534.31,-73.8839 2557,-83 2557.1,-83.0395 2557.2,-83.0792 2557.3,-83.1189"/>
<polygon fill="black" stroke="black" points="2556.08,-86.4036 2566.65,-87.0738 2558.8,-79.9561 2556.08,-86.4036"/>
<text text-anchor="middle" x="2513.5" y="-57" font-family="Times New Roman,serif" font-size="10.00">is_a</text>
</g>
<!-- 54 -->
<g id="node55" class="node"><title>54</title>
<polygon fill="white" stroke="black" points="2503.5,-36 2438.5,-36 2438.5,-0 2503.5,-0 2503.5,-36"/>
<text text-anchor="middle" x="2471" y="-15.5" font-family="Times New Roman,serif" font-size="10.00">Q6_BLACK</text>
</g>
<!-- 54&#45;&gt;52 -->
<g id="edge55" class="edge"><title>54&#45;&gt;52</title>
<path fill="none" stroke="black" d="M2497.09,-36.178C2515.27,-48.152 2539.72,-64.252 2559.51,-77.2854"/>
<polygon fill="black" stroke="black" points="2557.68,-80.2699 2567.95,-82.8467 2561.53,-74.4237 2557.68,-80.2699"/>
<text text-anchor="middle" x="2548.5" y="-57" font-family="Times New Roman,serif" font-size="10.00">is_a</text>
</g>
<!-- 55 -->
<g id="node56" class="node"><title>55</title>
<polygon fill="white" stroke="black" points="2584,-36 2522,-36 2522,-0 2584,-0 2584,-36"/>
<text text-anchor="middle" x="2553" y="-15.5" font-family="Times New Roman,serif" font-size="10.00">Q3_GREEN</text>
</g>
<!-- 55&#45;&gt;52 -->
<g id="edge56" class="edge"><title>55&#45;&gt;52</title>
<path fill="none" stroke="black" d="M2561.7,-36.178C2567.24,-47.1318 2574.53,-61.5384 2580.78,-73.8916"/>
<polygon fill="black" stroke="black" points="2577.68,-75.5053 2585.32,-82.8467 2583.92,-72.3439 2577.68,-75.5053"/>
<text text-anchor="middle" x="2584.5" y="-57" font-family="Times New Roman,serif" font-size="10.00">is_a</text>
</g>
<!-- 56 -->
<g id="node57" class="node"><title>56</title>
<polygon fill="white" stroke="black" points="2666,-36 2602,-36 2602,-0 2666,-0 2666,-36"/>
<text text-anchor="middle" x="2634" y="-15.5" font-family="Times New Roman,serif" font-size="10.00">Q7_WHITE</text>
</g>
<!-- 56&#45;&gt;52 -->
<g id="edge57" class="edge"><title>56&#45;&gt;52</title>
<path fill="none" stroke="black" d="M2625.52,-36.178C2620.16,-47.0244 2613.13,-61.2563 2607.07,-73.5277"/>
<polygon fill="black" stroke="black" points="2603.76,-72.3307 2602.47,-82.8467 2610.04,-75.4302 2603.76,-72.3307"/>
<text text-anchor="middle" x="2625.5" y="-57" font-family="Times New Roman,serif" font-size="10.00">is_a</text>
</g>
<!-- 57 -->
<g id="node58" class="node"><title>57</title>
<polygon fill="white" stroke="black" points="2740,-36 2684,-36 2684,-0 2740,-0 2740,-36"/>
<text text-anchor="middle" x="2712" y="-15.5" font-family="Times New Roman,serif" font-size="10.00">Q2_BLUE</text>
</g>
<!-- 57&#45;&gt;52 -->
<g id="edge58" class="edge"><title>57&#45;&gt;52</title>
<path fill="none" stroke="black" d="M2686.98,-36.178C2669.61,-48.0984 2646.29,-64.1076 2627.35,-77.1099"/>
<polygon fill="black" stroke="black" points="2625.25,-74.3018 2618.99,-82.8467 2629.21,-80.0729 2625.25,-74.3018"/>
<text text-anchor="middle" x="2669.5" y="-57" font-family="Times New Roman,serif" font-size="10.00">is_a</text>
</g>
<!-- 58 -->
<g id="node59" class="node"><title>58</title>
<polygon fill="white" stroke="black" points="2732,-202 2678,-202 2678,-166 2732,-166 2732,-202"/>
<text text-anchor="middle" x="2705" y="-181.5" font-family="Times New Roman,serif" font-size="10.00">SIZE</text>
</g>
<!-- 58&#45;&gt;50 -->
<g id="edge59" class="edge"><title>58&#45;&gt;50</title>
<path fill="none" stroke="black" d="M2681.46,-202.178C2665.27,-213.991 2643.58,-229.82 2625.85,-242.758"/>
<polygon fill="black" stroke="black" points="2623.52,-240.125 2617.51,-248.847 2627.65,-245.779 2623.52,-240.125"/>
<text text-anchor="middle" x="2665.5" y="-223" font-family="Times New Roman,serif" font-size="10.00">is_a</text>
</g>
<!-- 59 -->
<g id="node60" class="node"><title>59</title>
<polygon fill="white" stroke="black" points="2812,-119 2758,-119 2758,-83 2812,-83 2812,-119"/>
<text text-anchor="middle" x="2785" y="-98.5" font-family="Times New Roman,serif" font-size="10.00">TOKENS</text>
</g>
<!-- 59&#45;&gt;58 -->
<g id="edge60" class="edge"><title>59&#45;&gt;58</title>
<path fill="none" stroke="black" d="M2768.03,-119.178C2756.69,-130.669 2741.58,-145.959 2729.01,-158.693"/>
<polygon fill="black" stroke="black" points="2726.48,-156.272 2721.94,-165.847 2731.46,-161.191 2726.48,-156.272"/>
<text text-anchor="middle" x="2758.5" y="-140" font-family="Times New Roman,serif" font-size="10.00">is_a</text>
</g>
<!-- 60 -->
<g id="node61" class="node"><title>60</title>
<polygon fill="white" stroke="black" points="2812,-36 2758,-36 2758,-0 2812,-0 2812,-36"/>
<text text-anchor="middle" x="2785" y="-15.5" font-family="Times New Roman,serif" font-size="10.00">Q5_BIG</text>
</g>
<!-- 60&#45;&gt;59 -->
<g id="edge61" class="edge"><title>60&#45;&gt;59</title>
<path fill="none" stroke="black" d="M2785,-36.178C2785,-46.8097 2785,-60.694 2785,-72.7965"/>
<polygon fill="black" stroke="black" points="2781.5,-72.8467 2785,-82.8467 2788.5,-72.8468 2781.5,-72.8467"/>
<text text-anchor="middle" x="2793.5" y="-57" font-family="Times New Roman,serif" font-size="10.00">is_a</text>
</g>
<!-- 61 -->
<g id="node62" class="node"><title>61</title>
<polygon fill="white" stroke="black" points="2895.5,-36 2830.5,-36 2830.5,-0 2895.5,-0 2895.5,-36"/>
<text text-anchor="middle" x="2863" y="-15.5" font-family="Times New Roman,serif" font-size="10.00">Q4_SMALL</text>
</g>
<!-- 61&#45;&gt;59 -->
<g id="edge62" class="edge"><title>61&#45;&gt;59</title>
<path fill="none" stroke="black" d="M2846.46,-36.178C2835.5,-47.5614 2820.94,-62.6737 2808.75,-75.3351"/>
<polygon fill="black" stroke="black" points="2805.93,-73.2158 2801.52,-82.8467 2810.98,-78.0713 2805.93,-73.2158"/>
<text text-anchor="middle" x="2837.5" y="-57" font-family="Times New Roman,serif" font-size="10.00">is_a</text>
</g>
</g>
</svg>
