<?xml version="1.0" encoding="UTF-8" standalone="no"?>
<!DOCTYPE svg PUBLIC "-//W3C//DTD SVG 1.1//EN"
 "http://www.w3.org/Graphics/SVG/1.1/DTD/svg11.dtd">
<!-- Generated by graphviz version 2.38.0 (20140413.2041)
 -->
<!-- Title: G Pages: 1 -->
<svg width="2123pt" height="479pt"
 viewBox="0.00 0.00 2123.00 479.00" xmlns="http://www.w3.org/2000/svg" xmlns:xlink="http://www.w3.org/1999/xlink">
<g id="graph0" class="graph" transform="scale(1 1) rotate(0) translate(4 475)">
<title>G</title>
<polygon fill="white" stroke="none" points="-4,4 -4,-475 2119,-475 2119,4 -4,4"/>
<!-- SEM_RELATIONS -->
<g id="node1" class="node"><title>SEM_RELATIONS</title>
<polygon fill="white" stroke="black" points="370,-210 239,-210 239,-174 370,-174 370,-210"/>
<text text-anchor="middle" x="304.5" y="-188.3" font-family="Times New Roman,serif" font-size="14.00">SEM_RELATIONS</text>
</g>
<!-- THEMATIC -->
<g id="node2" class="node"><title>THEMATIC</title>
<polygon fill="white" stroke="black" points="170,-123 81,-123 81,-87 170,-87 170,-123"/>
<text text-anchor="middle" x="125.5" y="-101.3" font-family="Times New Roman,serif" font-size="14.00">THEMATIC</text>
</g>
<!-- THEMATIC&#45;&gt;SEM_RELATIONS -->
<g id="edge1" class="edge"><title>THEMATIC&#45;&gt;SEM_RELATIONS</title>
<path fill="none" stroke="black" d="M161.723,-123.201C189.96,-136.61 229.321,-155.3 259.565,-169.662"/>
<polygon fill="black" stroke="black" points="258.102,-172.842 268.636,-173.97 261.105,-166.519 258.102,-172.842"/>
<text text-anchor="middle" x="238" y="-144.8" font-family="Times New Roman,serif" font-size="14.00">is_a</text>
</g>
<!-- PATIENT -->
<g id="node3" class="node"><title>PATIENT</title>
<polygon fill="white" stroke="black" points="75,-36 0,-36 0,-0 75,-0 75,-36"/>
<text text-anchor="middle" x="37.5" y="-14.3" font-family="Times New Roman,serif" font-size="14.00">PATIENT</text>
</g>
<!-- PATIENT&#45;&gt;THEMATIC -->
<g id="edge2" class="edge"><title>PATIENT&#45;&gt;THEMATIC</title>
<path fill="none" stroke="black" d="M55.3081,-36.201C68.1902,-48.6439 85.7816,-65.6356 100.131,-79.4956"/>
<polygon fill="black" stroke="black" points="98.0941,-82.3946 107.718,-86.8246 102.957,-77.3597 98.0941,-82.3946"/>
<text text-anchor="middle" x="99" y="-57.8" font-family="Times New Roman,serif" font-size="14.00">is_a</text>
</g>
<!-- AGENT -->
<g id="node4" class="node"><title>AGENT</title>
<polygon fill="white" stroke="black" points="157.5,-36 93.5,-36 93.5,-0 157.5,-0 157.5,-36"/>
<text text-anchor="middle" x="125.5" y="-14.3" font-family="Times New Roman,serif" font-size="14.00">AGENT</text>
</g>
<!-- AGENT&#45;&gt;THEMATIC -->
<g id="edge3" class="edge"><title>AGENT&#45;&gt;THEMATIC</title>
<path fill="none" stroke="black" d="M125.5,-36.201C125.5,-47.8374 125.5,-63.4521 125.5,-76.7632"/>
<polygon fill="black" stroke="black" points="122,-76.8245 125.5,-86.8246 129,-76.8246 122,-76.8245"/>
<text text-anchor="middle" x="137" y="-57.8" font-family="Times New Roman,serif" font-size="14.00">is_a</text>
</g>
<!-- TEMPORAL -->
<g id="node5" class="node"><title>TEMPORAL</title>
<polygon fill="white" stroke="black" points="287.5,-123 195.5,-123 195.5,-87 287.5,-87 287.5,-123"/>
<text text-anchor="middle" x="241.5" y="-101.3" font-family="Times New Roman,serif" font-size="14.00">TEMPORAL</text>
</g>
<!-- TEMPORAL&#45;&gt;SEM_RELATIONS -->
<g id="edge4" class="edge"><title>TEMPORAL&#45;&gt;SEM_RELATIONS</title>
<path fill="none" stroke="black" d="M254.249,-123.201C263.301,-135.413 275.6,-152.008 285.765,-165.722"/>
<polygon fill="black" stroke="black" points="283.004,-167.875 291.77,-173.825 288.627,-163.707 283.004,-167.875"/>
<text text-anchor="middle" x="289" y="-144.8" font-family="Times New Roman,serif" font-size="14.00">is_a</text>
</g>
<!-- CONCURRENT -->
<g id="node6" class="node"><title>CONCURRENT</title>
<polygon fill="white" stroke="black" points="289,-36 176,-36 176,-0 289,-0 289,-36"/>
<text text-anchor="middle" x="232.5" y="-14.3" font-family="Times New Roman,serif" font-size="14.00">CONCURRENT</text>
</g>
<!-- CONCURRENT&#45;&gt;TEMPORAL -->
<g id="edge5" class="edge"><title>CONCURRENT&#45;&gt;TEMPORAL</title>
<path fill="none" stroke="black" d="M234.321,-36.201C235.553,-47.8374 237.207,-63.4521 238.616,-76.7632"/>
<polygon fill="black" stroke="black" points="235.148,-77.2487 239.681,-86.8246 242.109,-76.5116 235.148,-77.2487"/>
<text text-anchor="middle" x="250" y="-57.8" font-family="Times New Roman,serif" font-size="14.00">is_a</text>
</g>
<!-- SUCCESSIVE -->
<g id="node7" class="node"><title>SUCCESSIVE</title>
<polygon fill="white" stroke="black" points="408,-36 307,-36 307,-0 408,-0 408,-36"/>
<text text-anchor="middle" x="357.5" y="-14.3" font-family="Times New Roman,serif" font-size="14.00">SUCCESSIVE</text>
</g>
<!-- SUCCESSIVE&#45;&gt;TEMPORAL -->
<g id="edge6" class="edge"><title>SUCCESSIVE&#45;&gt;TEMPORAL</title>
<path fill="none" stroke="black" d="M334.026,-36.201C316.494,-49.0471 292.347,-66.7417 273.116,-80.8329"/>
<polygon fill="black" stroke="black" points="270.937,-78.0907 264.939,-86.8246 275.074,-83.7371 270.937,-78.0907"/>
<text text-anchor="middle" x="318" y="-57.8" font-family="Times New Roman,serif" font-size="14.00">is_a</text>
</g>
<!-- MODIFY -->
<g id="node8" class="node"><title>MODIFY</title>
<polygon fill="white" stroke="black" points="377,-123 306,-123 306,-87 377,-87 377,-123"/>
<text text-anchor="middle" x="341.5" y="-101.3" font-family="Times New Roman,serif" font-size="14.00">MODIFY</text>
</g>
<!-- MODIFY&#45;&gt;SEM_RELATIONS -->
<g id="edge7" class="edge"><title>MODIFY&#45;&gt;SEM_RELATIONS</title>
<path fill="none" stroke="black" d="M334.012,-123.201C328.847,-135.068 321.88,-151.072 316.013,-164.551"/>
<polygon fill="black" stroke="black" points="312.758,-163.259 311.976,-173.825 319.177,-166.053 312.758,-163.259"/>
<text text-anchor="middle" x="337" y="-144.8" font-family="Times New Roman,serif" font-size="14.00">is_a</text>
</g>
<!-- SPATIAL -->
<g id="node9" class="node"><title>SPATIAL</title>
<polygon fill="white" stroke="black" points="483.5,-123 409.5,-123 409.5,-87 483.5,-87 483.5,-123"/>
<text text-anchor="middle" x="446.5" y="-101.3" font-family="Times New Roman,serif" font-size="14.00">SPATIAL</text>
</g>
<!-- SPATIAL&#45;&gt;SEM_RELATIONS -->
<g id="edge8" class="edge"><title>SPATIAL&#45;&gt;SEM_RELATIONS</title>
<path fill="none" stroke="black" d="M417.764,-123.201C395.919,-136.278 365.68,-154.378 341.942,-168.588"/>
<polygon fill="black" stroke="black" points="339.976,-165.685 333.193,-173.825 343.571,-171.692 339.976,-165.685"/>
<text text-anchor="middle" x="396" y="-144.8" font-family="Times New Roman,serif" font-size="14.00">is_a</text>
</g>
<!-- IN -->
<g id="node10" class="node"><title>IN</title>
<polygon fill="white" stroke="black" points="480.5,-36 426.5,-36 426.5,-0 480.5,-0 480.5,-36"/>
<text text-anchor="middle" x="453.5" y="-14.3" font-family="Times New Roman,serif" font-size="14.00">IN</text>
</g>
<!-- IN&#45;&gt;SPATIAL -->
<g id="edge9" class="edge"><title>IN&#45;&gt;SPATIAL</title>
<path fill="none" stroke="black" d="M452.083,-36.201C451.125,-47.8374 449.839,-63.4521 448.743,-76.7632"/>
<polygon fill="black" stroke="black" points="445.247,-76.571 447.914,-86.8246 452.223,-77.1456 445.247,-76.571"/>
<text text-anchor="middle" x="462" y="-57.8" font-family="Times New Roman,serif" font-size="14.00">is_a</text>
</g>
<!-- CONCEPTUAL_KNOWLEDGE -->
<g id="node11" class="node"><title>CONCEPTUAL_KNOWLEDGE</title>
<polygon fill="white" stroke="black" points="1441.5,-471 1235.5,-471 1235.5,-435 1441.5,-435 1441.5,-471"/>
<text text-anchor="middle" x="1338.5" y="-449.3" font-family="Times New Roman,serif" font-size="14.00">CONCEPTUAL_KNOWLEDGE</text>
</g>
<!-- PROPERTY -->
<g id="node12" class="node"><title>PROPERTY</title>
<polygon fill="white" stroke="black" points="819.5,-384 729.5,-384 729.5,-348 819.5,-348 819.5,-384"/>
<text text-anchor="middle" x="774.5" y="-362.3" font-family="Times New Roman,serif" font-size="14.00">PROPERTY</text>
</g>
<!-- PROPERTY&#45;&gt;CONCEPTUAL_KNOWLEDGE -->
<g id="edge10" class="edge"><title>PROPERTY&#45;&gt;CONCEPTUAL_KNOWLEDGE</title>
<path fill="none" stroke="black" d="M819.701,-373.812C906.932,-386.959 1100.85,-416.184 1225.32,-434.943"/>
<polygon fill="black" stroke="black" points="1224.87,-438.414 1235.28,-436.443 1225.91,-431.492 1224.87,-438.414"/>
<text text-anchor="middle" x="1102" y="-405.8" font-family="Times New Roman,serif" font-size="14.00">is_a</text>
</g>
<!-- COLOR -->
<g id="node13" class="node"><title>COLOR</title>
<polygon fill="white" stroke="black" points="847,-297 782,-297 782,-261 847,-261 847,-297"/>
<text text-anchor="middle" x="814.5" y="-275.3" font-family="Times New Roman,serif" font-size="14.00">COLOR</text>
</g>
<!-- COLOR&#45;&gt;PROPERTY -->
<g id="edge11" class="edge"><title>COLOR&#45;&gt;PROPERTY</title>
<path fill="none" stroke="black" d="M806.405,-297.201C800.821,-309.068 793.29,-325.072 786.946,-338.551"/>
<polygon fill="black" stroke="black" points="783.674,-337.286 782.583,-347.825 790.007,-340.267 783.674,-337.286"/>
<text text-anchor="middle" x="809" y="-318.8" font-family="Times New Roman,serif" font-size="14.00">is_a</text>
</g>
<!-- BLUE -->
<g id="node14" class="node"><title>BLUE</title>
<polygon fill="white" stroke="black" points="879.5,-210 825.5,-210 825.5,-174 879.5,-174 879.5,-210"/>
<text text-anchor="middle" x="852.5" y="-188.3" font-family="Times New Roman,serif" font-size="14.00">BLUE</text>
</g>
<!-- BLUE&#45;&gt;COLOR -->
<g id="edge12" class="edge"><title>BLUE&#45;&gt;COLOR</title>
<path fill="none" stroke="black" d="M844.81,-210.201C839.505,-222.068 832.35,-238.072 826.324,-251.551"/>
<polygon fill="black" stroke="black" points="823.065,-250.267 822.178,-260.825 829.455,-253.124 823.065,-250.267"/>
<text text-anchor="middle" x="848" y="-231.8" font-family="Times New Roman,serif" font-size="14.00">is_a</text>
</g>
<!-- GREEN -->
<g id="node15" class="node"><title>GREEN</title>
<polygon fill="white" stroke="black" points="961,-210 898,-210 898,-174 961,-174 961,-210"/>
<text text-anchor="middle" x="929.5" y="-188.3" font-family="Times New Roman,serif" font-size="14.00">GREEN</text>
</g>
<!-- GREEN&#45;&gt;COLOR -->
<g id="edge13" class="edge"><title>GREEN&#45;&gt;COLOR</title>
<path fill="none" stroke="black" d="M907.315,-210.052C894.564,-219.791 878.205,-232.181 863.5,-243 858.25,-246.862 852.651,-250.919 847.185,-254.847"/>
<polygon fill="black" stroke="black" points="844.868,-252.2 838.772,-260.866 848.942,-257.893 844.868,-252.2"/>
<text text-anchor="middle" x="896" y="-231.8" font-family="Times New Roman,serif" font-size="14.00">is_a</text>
</g>
<!-- BLACK -->
<g id="node16" class="node"><title>BLACK</title>
<polygon fill="white" stroke="black" points="807,-210 744,-210 744,-174 807,-174 807,-210"/>
<text text-anchor="middle" x="775.5" y="-188.3" font-family="Times New Roman,serif" font-size="14.00">BLACK</text>
</g>
<!-- BLACK&#45;&gt;COLOR -->
<g id="edge14" class="edge"><title>BLACK&#45;&gt;COLOR</title>
<path fill="none" stroke="black" d="M783.392,-210.201C788.837,-222.068 796.18,-238.072 802.365,-251.551"/>
<polygon fill="black" stroke="black" points="799.268,-253.195 806.62,-260.825 805.63,-250.276 799.268,-253.195"/>
<text text-anchor="middle" x="809" y="-231.8" font-family="Times New Roman,serif" font-size="14.00">is_a</text>
</g>
<!-- APPEARANCE -->
<g id="node17" class="node"><title>APPEARANCE</title>
<polygon fill="white" stroke="black" points="578.5,-297 470.5,-297 470.5,-261 578.5,-261 578.5,-297"/>
<text text-anchor="middle" x="524.5" y="-275.3" font-family="Times New Roman,serif" font-size="14.00">APPEARANCE</text>
</g>
<!-- APPEARANCE&#45;&gt;PROPERTY -->
<g id="edge15" class="edge"><title>APPEARANCE&#45;&gt;PROPERTY</title>
<path fill="none" stroke="black" d="M574.79,-297.099C616.812,-311.386 676.626,-331.723 719.827,-346.411"/>
<polygon fill="black" stroke="black" points="718.735,-349.737 729.329,-349.642 720.988,-343.109 718.735,-349.737"/>
<text text-anchor="middle" x="676" y="-318.8" font-family="Times New Roman,serif" font-size="14.00">is_a</text>
</g>
<!-- PRETTY -->
<g id="node18" class="node"><title>PRETTY</title>
<polygon fill="white" stroke="black" points="459,-210 388,-210 388,-174 459,-174 459,-210"/>
<text text-anchor="middle" x="423.5" y="-188.3" font-family="Times New Roman,serif" font-size="14.00">PRETTY</text>
</g>
<!-- PRETTY&#45;&gt;APPEARANCE -->
<g id="edge16" class="edge"><title>PRETTY&#45;&gt;APPEARANCE</title>
<path fill="none" stroke="black" d="M443.939,-210.201C458.998,-222.874 479.664,-240.266 496.294,-254.262"/>
<polygon fill="black" stroke="black" points="494.187,-257.063 504.092,-260.825 498.694,-251.708 494.187,-257.063"/>
<text text-anchor="middle" x="492" y="-231.8" font-family="Times New Roman,serif" font-size="14.00">is_a</text>
</g>
<!-- HANDSOME -->
<g id="node19" class="node"><title>HANDSOME</title>
<polygon fill="white" stroke="black" points="572,-210 477,-210 477,-174 572,-174 572,-210"/>
<text text-anchor="middle" x="524.5" y="-188.3" font-family="Times New Roman,serif" font-size="14.00">HANDSOME</text>
</g>
<!-- HANDSOME&#45;&gt;APPEARANCE -->
<g id="edge17" class="edge"><title>HANDSOME&#45;&gt;APPEARANCE</title>
<path fill="none" stroke="black" d="M524.5,-210.201C524.5,-221.837 524.5,-237.452 524.5,-250.763"/>
<polygon fill="black" stroke="black" points="521,-250.825 524.5,-260.825 528,-250.825 521,-250.825"/>
<text text-anchor="middle" x="536" y="-231.8" font-family="Times New Roman,serif" font-size="14.00">is_a</text>
</g>
<!-- SIZE -->
<g id="node20" class="node"><title>SIZE</title>
<polygon fill="white" stroke="black" points="725.5,-297 671.5,-297 671.5,-261 725.5,-261 725.5,-297"/>
<text text-anchor="middle" x="698.5" y="-275.3" font-family="Times New Roman,serif" font-size="14.00">SIZE</text>
</g>
<!-- SIZE&#45;&gt;PROPERTY -->
<g id="edge18" class="edge"><title>SIZE&#45;&gt;PROPERTY</title>
<path fill="none" stroke="black" d="M713.88,-297.201C724.902,-309.529 739.917,-326.321 752.245,-340.11"/>
<polygon fill="black" stroke="black" points="749.869,-342.703 759.143,-347.825 755.087,-338.037 749.869,-342.703"/>
<text text-anchor="middle" x="753" y="-318.8" font-family="Times New Roman,serif" font-size="14.00">is_a</text>
</g>
<!-- SMALL -->
<g id="node21" class="node"><title>SMALL</title>
<polygon fill="white" stroke="black" points="653,-210 590,-210 590,-174 653,-174 653,-210"/>
<text text-anchor="middle" x="621.5" y="-188.3" font-family="Times New Roman,serif" font-size="14.00">SMALL</text>
</g>
<!-- SMALL&#45;&gt;SIZE -->
<g id="edge19" class="edge"><title>SMALL&#45;&gt;SIZE</title>
<path fill="none" stroke="black" d="M637.082,-210.201C648.25,-222.529 663.462,-239.321 675.952,-253.11"/>
<polygon fill="black" stroke="black" points="673.633,-255.763 682.941,-260.825 678.821,-251.064 673.633,-255.763"/>
<text text-anchor="middle" x="677" y="-231.8" font-family="Times New Roman,serif" font-size="14.00">is_a</text>
</g>
<!-- BIG -->
<g id="node22" class="node"><title>BIG</title>
<polygon fill="white" stroke="black" points="725.5,-210 671.5,-210 671.5,-174 725.5,-174 725.5,-210"/>
<text text-anchor="middle" x="698.5" y="-188.3" font-family="Times New Roman,serif" font-size="14.00">BIG</text>
</g>
<!-- BIG&#45;&gt;SIZE -->
<g id="edge20" class="edge"><title>BIG&#45;&gt;SIZE</title>
<path fill="none" stroke="black" d="M698.5,-210.201C698.5,-221.837 698.5,-237.452 698.5,-250.763"/>
<polygon fill="black" stroke="black" points="695,-250.825 698.5,-260.825 702,-250.825 695,-250.825"/>
<text text-anchor="middle" x="710" y="-231.8" font-family="Times New Roman,serif" font-size="14.00">is_a</text>
</g>
<!-- ENTITY -->
<g id="node23" class="node"><title>ENTITY</title>
<polygon fill="white" stroke="black" points="1249,-384 1182,-384 1182,-348 1249,-348 1249,-384"/>
<text text-anchor="middle" x="1215.5" y="-362.3" font-family="Times New Roman,serif" font-size="14.00">ENTITY</text>
</g>
<!-- ENTITY&#45;&gt;CONCEPTUAL_KNOWLEDGE -->
<g id="edge21" class="edge"><title>ENTITY&#45;&gt;CONCEPTUAL_KNOWLEDGE</title>
<path fill="none" stroke="black" d="M1220.49,-384.367C1224.37,-395.08 1230.77,-408.375 1240.5,-417 1246.39,-422.223 1253.12,-426.683 1260.23,-430.487"/>
<polygon fill="black" stroke="black" points="1258.88,-433.722 1269.4,-434.963 1261.95,-427.431 1258.88,-433.722"/>
<text text-anchor="middle" x="1252" y="-405.8" font-family="Times New Roman,serif" font-size="14.00">is_a</text>
</g>
<!-- OBJECT -->
<g id="node24" class="node"><title>OBJECT</title>
<polygon fill="white" stroke="black" points="1373.5,-297 1305.5,-297 1305.5,-261 1373.5,-261 1373.5,-297"/>
<text text-anchor="middle" x="1339.5" y="-275.3" font-family="Times New Roman,serif" font-size="14.00">OBJECT</text>
</g>
<!-- OBJECT&#45;&gt;ENTITY -->
<g id="edge22" class="edge"><title>OBJECT&#45;&gt;ENTITY</title>
<path fill="none" stroke="black" d="M1330.83,-297.256C1324.72,-307.925 1315.65,-321.212 1304.5,-330 1291.23,-340.453 1274.46,-348.125 1259.06,-353.575"/>
<polygon fill="black" stroke="black" points="1257.58,-350.378 1249.19,-356.843 1259.78,-357.023 1257.58,-350.378"/>
<text text-anchor="middle" x="1330" y="-318.8" font-family="Times New Roman,serif" font-size="14.00">is_a</text>
</g>
<!-- ITEM -->
<g id="node25" class="node"><title>ITEM</title>
<polygon fill="white" stroke="black" points="1228.5,-210 1174.5,-210 1174.5,-174 1228.5,-174 1228.5,-210"/>
<text text-anchor="middle" x="1201.5" y="-188.3" font-family="Times New Roman,serif" font-size="14.00">ITEM</text>
</g>
<!-- ITEM&#45;&gt;OBJECT -->
<g id="edge23" class="edge"><title>ITEM&#45;&gt;OBJECT</title>
<path fill="none" stroke="black" d="M1228.76,-209.793C1250.08,-222.921 1279.9,-241.29 1303.23,-255.659"/>
<polygon fill="black" stroke="black" points="1301.47,-258.686 1311.82,-260.951 1305.14,-252.726 1301.47,-258.686"/>
<text text-anchor="middle" x="1291" y="-231.8" font-family="Times New Roman,serif" font-size="14.00">is_a</text>
</g>
<!-- CLOTHING -->
<g id="node26" class="node"><title>CLOTHING</title>
<polygon fill="white" stroke="black" points="1181,-123 1092,-123 1092,-87 1181,-87 1181,-123"/>
<text text-anchor="middle" x="1136.5" y="-101.3" font-family="Times New Roman,serif" font-size="14.00">CLOTHING</text>
</g>
<!-- CLOTHING&#45;&gt;ITEM -->
<g id="edge24" class="edge"><title>CLOTHING&#45;&gt;ITEM</title>
<path fill="none" stroke="black" d="M1149.65,-123.201C1158.99,-135.413 1171.68,-152.008 1182.17,-165.722"/>
<polygon fill="black" stroke="black" points="1179.51,-168.007 1188.37,-173.825 1185.07,-163.755 1179.51,-168.007"/>
<text text-anchor="middle" x="1185" y="-144.8" font-family="Times New Roman,serif" font-size="14.00">is_a</text>
</g>
<!-- TSHIRT -->
<g id="node27" class="node"><title>TSHIRT</title>
<polygon fill="white" stroke="black" points="1129,-36 1062,-36 1062,-0 1129,-0 1129,-36"/>
<text text-anchor="middle" x="1095.5" y="-14.3" font-family="Times New Roman,serif" font-size="14.00">TSHIRT</text>
</g>
<!-- TSHIRT&#45;&gt;CLOTHING -->
<g id="edge25" class="edge"><title>TSHIRT&#45;&gt;CLOTHING</title>
<path fill="none" stroke="black" d="M1103.8,-36.201C1109.52,-48.0678 1117.24,-64.0721 1123.74,-77.5512"/>
<polygon fill="black" stroke="black" points="1120.72,-79.3382 1128.22,-86.8246 1127.02,-76.297 1120.72,-79.3382"/>
<text text-anchor="middle" x="1130" y="-57.8" font-family="Times New Roman,serif" font-size="14.00">is_a</text>
</g>
<!-- DRESS -->
<g id="node28" class="node"><title>DRESS</title>
<polygon fill="white" stroke="black" points="1208,-36 1147,-36 1147,-0 1208,-0 1208,-36"/>
<text text-anchor="middle" x="1177.5" y="-14.3" font-family="Times New Roman,serif" font-size="14.00">DRESS</text>
</g>
<!-- DRESS&#45;&gt;CLOTHING -->
<g id="edge26" class="edge"><title>DRESS&#45;&gt;CLOTHING</title>
<path fill="none" stroke="black" d="M1169.2,-36.201C1163.48,-48.0678 1155.76,-64.0721 1149.26,-77.5512"/>
<polygon fill="black" stroke="black" points="1145.98,-76.297 1144.78,-86.8246 1152.28,-79.3382 1145.98,-76.297"/>
<text text-anchor="middle" x="1171" y="-57.8" font-family="Times New Roman,serif" font-size="14.00">is_a</text>
</g>
<!-- ANIMAL -->
<g id="node29" class="node"><title>ANIMAL</title>
<polygon fill="white" stroke="black" points="1494,-210 1423,-210 1423,-174 1494,-174 1494,-210"/>
<text text-anchor="middle" x="1458.5" y="-188.3" font-family="Times New Roman,serif" font-size="14.00">ANIMAL</text>
</g>
<!-- ANIMAL&#45;&gt;OBJECT -->
<g id="edge27" class="edge"><title>ANIMAL&#45;&gt;OBJECT</title>
<path fill="none" stroke="black" d="M1439.03,-210.132C1425.07,-222.296 1407.39,-237.418 1399.5,-243 1393.41,-247.308 1386.76,-251.579 1380.17,-255.578"/>
<polygon fill="black" stroke="black" points="1378.11,-252.732 1371.29,-260.841 1381.68,-258.754 1378.11,-252.732"/>
<text text-anchor="middle" x="1429" y="-231.8" font-family="Times New Roman,serif" font-size="14.00">is_a</text>
</g>
<!-- ANIMATE -->
<g id="node52" class="node"><title>ANIMATE</title>
<polygon fill="white" stroke="black" points="1471.5,-297 1391.5,-297 1391.5,-261 1471.5,-261 1471.5,-297"/>
<text text-anchor="middle" x="1431.5" y="-275.3" font-family="Times New Roman,serif" font-size="14.00">ANIMATE</text>
</g>
<!-- ANIMAL&#45;&gt;ANIMATE -->
<g id="edge53" class="edge"><title>ANIMAL&#45;&gt;ANIMATE</title>
<path fill="none" stroke="black" d="M1454.58,-210.28C1452.23,-219.983 1449.03,-232.263 1445.5,-243 1444.6,-245.74 1443.59,-248.573 1442.55,-251.387"/>
<polygon fill="black" stroke="black" points="1439.28,-250.124 1438.92,-260.713 1445.81,-252.664 1439.28,-250.124"/>
<text text-anchor="middle" x="1462" y="-231.8" font-family="Times New Roman,serif" font-size="14.00">is_a</text>
</g>
<!-- TURTLE -->
<g id="node30" class="node"><title>TURTLE</title>
<polygon fill="white" stroke="black" points="1519,-123 1448,-123 1448,-87 1519,-87 1519,-123"/>
<text text-anchor="middle" x="1483.5" y="-101.3" font-family="Times New Roman,serif" font-size="14.00">TURTLE</text>
</g>
<!-- TURTLE&#45;&gt;ANIMAL -->
<g id="edge28" class="edge"><title>TURTLE&#45;&gt;ANIMAL</title>
<path fill="none" stroke="black" d="M1478.44,-123.201C1474.98,-134.953 1470.33,-150.762 1466.39,-164.158"/>
<polygon fill="black" stroke="black" points="1463.02,-163.243 1463.55,-173.825 1469.73,-165.219 1463.02,-163.243"/>
<text text-anchor="middle" x="1484" y="-144.8" font-family="Times New Roman,serif" font-size="14.00">is_a</text>
</g>
<!-- MOUSE -->
<g id="node31" class="node"><title>MOUSE</title>
<polygon fill="white" stroke="black" points="1675,-123 1610,-123 1610,-87 1675,-87 1675,-123"/>
<text text-anchor="middle" x="1642.5" y="-101.3" font-family="Times New Roman,serif" font-size="14.00">MOUSE</text>
</g>
<!-- MOUSE&#45;&gt;ANIMAL -->
<g id="edge29" class="edge"><title>MOUSE&#45;&gt;ANIMAL</title>
<path fill="none" stroke="black" d="M1638.7,-123.028C1635.31,-134.169 1629.17,-148.079 1618.5,-156 1579.06,-185.277 1555.74,-163.438 1504.26,-174.062"/>
<polygon fill="black" stroke="black" points="1503.22,-170.712 1494.31,-176.443 1504.85,-177.519 1503.22,-170.712"/>
<text text-anchor="middle" x="1642" y="-144.8" font-family="Times New Roman,serif" font-size="14.00">is_a</text>
</g>
<!-- HUMAN -->
<g id="node32" class="node"><title>HUMAN</title>
<polygon fill="white" stroke="black" points="1404.5,-210 1336.5,-210 1336.5,-174 1404.5,-174 1404.5,-210"/>
<text text-anchor="middle" x="1370.5" y="-188.3" font-family="Times New Roman,serif" font-size="14.00">HUMAN</text>
</g>
<!-- HUMAN&#45;&gt;OBJECT -->
<g id="edge30" class="edge"><title>HUMAN&#45;&gt;OBJECT</title>
<path fill="none" stroke="black" d="M1344.1,-210.35C1338.6,-215.339 1333.55,-221.278 1330.5,-228 1327.26,-235.148 1327.36,-243.37 1328.87,-251.054"/>
<polygon fill="black" stroke="black" points="1325.49,-251.985 1331.5,-260.711 1332.24,-250.142 1325.49,-251.985"/>
<text text-anchor="middle" x="1342" y="-231.8" font-family="Times New Roman,serif" font-size="14.00">is_a</text>
</g>
<!-- HUMAN&#45;&gt;ANIMATE -->
<g id="edge54" class="edge"><title>HUMAN&#45;&gt;ANIMATE</title>
<path fill="none" stroke="black" d="M1369.03,-210.423C1368.99,-220.638 1370.45,-233.381 1376.5,-243 1379.15,-247.209 1382.51,-251.004 1386.26,-254.403"/>
<polygon fill="black" stroke="black" points="1384.38,-257.379 1394.39,-260.831 1388.72,-251.886 1384.38,-257.379"/>
<text text-anchor="middle" x="1388" y="-231.8" font-family="Times New Roman,serif" font-size="14.00">is_a</text>
</g>
<!-- PEOPLE -->
<g id="node33" class="node"><title>PEOPLE</title>
<polygon fill="white" stroke="black" points="1429.5,-123 1361.5,-123 1361.5,-87 1429.5,-87 1429.5,-123"/>
<text text-anchor="middle" x="1395.5" y="-101.3" font-family="Times New Roman,serif" font-size="14.00">PEOPLE</text>
</g>
<!-- PEOPLE&#45;&gt;HUMAN -->
<g id="edge31" class="edge"><title>PEOPLE&#45;&gt;HUMAN</title>
<path fill="none" stroke="black" d="M1390.44,-123.201C1386.98,-134.953 1382.33,-150.762 1378.39,-164.158"/>
<polygon fill="black" stroke="black" points="1375.02,-163.243 1375.55,-173.825 1381.73,-165.219 1375.02,-163.243"/>
<text text-anchor="middle" x="1396" y="-144.8" font-family="Times New Roman,serif" font-size="14.00">is_a</text>
</g>
<!-- BOY -->
<g id="node34" class="node"><title>BOY</title>
<polygon fill="white" stroke="black" points="1851.5,-123 1797.5,-123 1797.5,-87 1851.5,-87 1851.5,-123"/>
<text text-anchor="middle" x="1824.5" y="-101.3" font-family="Times New Roman,serif" font-size="14.00">BOY</text>
</g>
<!-- BOY&#45;&gt;HUMAN -->
<g id="edge32" class="edge"><title>BOY&#45;&gt;HUMAN</title>
<path fill="none" stroke="black" d="M1797.46,-116.083C1764.8,-127.797 1707.95,-146.701 1657.5,-156 1553.7,-175.133 1521.38,-151.216 1414.8,-174.137"/>
<polygon fill="black" stroke="black" points="1413.94,-170.743 1404.95,-176.343 1415.47,-177.574 1413.94,-170.743"/>
<text text-anchor="middle" x="1729" y="-144.8" font-family="Times New Roman,serif" font-size="14.00">is_a</text>
</g>
<!-- MALE -->
<g id="node53" class="node"><title>MALE</title>
<polygon fill="white" stroke="black" points="2115,-210 2060,-210 2060,-174 2115,-174 2115,-210"/>
<text text-anchor="middle" x="2087.5" y="-188.3" font-family="Times New Roman,serif" font-size="14.00">MALE</text>
</g>
<!-- BOY&#45;&gt;MALE -->
<g id="edge56" class="edge"><title>BOY&#45;&gt;MALE</title>
<path fill="none" stroke="black" d="M1851.69,-112.875C1894.55,-124.001 1980.17,-147.41 2050.5,-174 2050.6,-174.036 2050.69,-174.072 2050.79,-174.108"/>
<polygon fill="black" stroke="black" points="2049.21,-177.247 2059.79,-177.771 2051.85,-170.763 2049.21,-177.247"/>
<text text-anchor="middle" x="2007" y="-144.8" font-family="Times New Roman,serif" font-size="14.00">is_a</text>
</g>
<!-- GIRL -->
<g id="node35" class="node"><title>GIRL</title>
<polygon fill="white" stroke="black" points="1343.5,-123 1289.5,-123 1289.5,-87 1343.5,-87 1343.5,-123"/>
<text text-anchor="middle" x="1316.5" y="-101.3" font-family="Times New Roman,serif" font-size="14.00">GIRL</text>
</g>
<!-- GIRL&#45;&gt;HUMAN -->
<g id="edge33" class="edge"><title>GIRL&#45;&gt;HUMAN</title>
<path fill="none" stroke="black" d="M1327.43,-123.201C1335.11,-135.298 1345.53,-151.695 1354.19,-165.333"/>
<polygon fill="black" stroke="black" points="1351.27,-167.261 1359.59,-173.825 1357.18,-163.507 1351.27,-167.261"/>
<text text-anchor="middle" x="1359" y="-144.8" font-family="Times New Roman,serif" font-size="14.00">is_a</text>
</g>
<!-- FEMALE -->
<g id="node41" class="node"><title>FEMALE</title>
<polygon fill="white" stroke="black" points="1318,-210 1247,-210 1247,-174 1318,-174 1318,-210"/>
<text text-anchor="middle" x="1282.5" y="-188.3" font-family="Times New Roman,serif" font-size="14.00">FEMALE</text>
</g>
<!-- GIRL&#45;&gt;FEMALE -->
<g id="edge40" class="edge"><title>GIRL&#45;&gt;FEMALE</title>
<path fill="none" stroke="black" d="M1309.62,-123.201C1304.92,-134.953 1298.6,-150.762 1293.24,-164.158"/>
<polygon fill="black" stroke="black" points="1289.83,-163.24 1289.37,-173.825 1296.33,-165.84 1289.83,-163.24"/>
<text text-anchor="middle" x="1314" y="-144.8" font-family="Times New Roman,serif" font-size="14.00">is_a</text>
</g>
<!-- WOMAN -->
<g id="node36" class="node"><title>WOMAN</title>
<polygon fill="white" stroke="black" points="1271.5,-123 1199.5,-123 1199.5,-87 1271.5,-87 1271.5,-123"/>
<text text-anchor="middle" x="1235.5" y="-101.3" font-family="Times New Roman,serif" font-size="14.00">WOMAN</text>
</g>
<!-- WOMAN&#45;&gt;HUMAN -->
<g id="edge34" class="edge"><title>WOMAN&#45;&gt;HUMAN</title>
<path fill="none" stroke="black" d="M1243.72,-123.021C1249.75,-133.869 1258.9,-147.446 1270.5,-156 1291.54,-171.519 1301.85,-165.285 1326.5,-174 1326.6,-174.036 1326.7,-174.072 1326.8,-174.108"/>
<polygon fill="black" stroke="black" points="1325.87,-177.492 1336.46,-177.626 1328.26,-170.915 1325.87,-177.492"/>
<text text-anchor="middle" x="1282" y="-144.8" font-family="Times New Roman,serif" font-size="14.00">is_a</text>
</g>
<!-- WOMAN&#45;&gt;FEMALE -->
<g id="edge41" class="edge"><title>WOMAN&#45;&gt;FEMALE</title>
<path fill="none" stroke="black" d="M1219.18,-123.197C1211.82,-133.096 1206.07,-145.596 1212.5,-156 1215.8,-161.335 1225.82,-167.374 1237.29,-172.915"/>
<polygon fill="black" stroke="black" points="1236.15,-176.242 1246.7,-177.23 1239.06,-169.879 1236.15,-176.242"/>
<text text-anchor="middle" x="1224" y="-144.8" font-family="Times New Roman,serif" font-size="14.00">is_a</text>
</g>
<!-- MAN -->
<g id="node37" class="node"><title>MAN</title>
<polygon fill="white" stroke="black" points="1591.5,-123 1537.5,-123 1537.5,-87 1591.5,-87 1591.5,-123"/>
<text text-anchor="middle" x="1564.5" y="-101.3" font-family="Times New Roman,serif" font-size="14.00">MAN</text>
</g>
<!-- MAN&#45;&gt;HUMAN -->
<g id="edge35" class="edge"><title>MAN&#45;&gt;HUMAN</title>
<path fill="none" stroke="black" d="M1546.91,-123.085C1534.59,-134.104 1517.22,-147.851 1499.5,-156 1466.65,-171.104 1452.97,-164.054 1414.37,-174.142"/>
<polygon fill="black" stroke="black" points="1413.25,-170.822 1404.58,-176.919 1415.16,-177.557 1413.25,-170.822"/>
<text text-anchor="middle" x="1537" y="-144.8" font-family="Times New Roman,serif" font-size="14.00">is_a</text>
</g>
<!-- MAN&#45;&gt;MALE -->
<g id="edge57" class="edge"><title>MAN&#45;&gt;MALE</title>
<path fill="none" stroke="black" d="M1569.06,-123.486C1573,-134.831 1579.95,-148.798 1591.5,-156 1632.78,-181.734 1967.25,-163.971 2049.4,-174.982"/>
<polygon fill="black" stroke="black" points="2049.16,-178.495 2059.63,-176.824 2050.41,-171.606 2049.16,-178.495"/>
<text text-anchor="middle" x="1603" y="-144.8" font-family="Times New Roman,serif" font-size="14.00">is_a</text>
</g>
<!-- PLACE -->
<g id="node38" class="node"><title>PLACE</title>
<polygon fill="white" stroke="black" points="1160,-297 1099,-297 1099,-261 1160,-261 1160,-297"/>
<text text-anchor="middle" x="1129.5" y="-275.3" font-family="Times New Roman,serif" font-size="14.00">PLACE</text>
</g>
<!-- PLACE&#45;&gt;ENTITY -->
<g id="edge36" class="edge"><title>PLACE&#45;&gt;ENTITY</title>
<path fill="none" stroke="black" d="M1146.9,-297.201C1159.49,-309.644 1176.68,-326.636 1190.71,-340.496"/>
<polygon fill="black" stroke="black" points="1188.55,-343.284 1198.12,-347.825 1193.47,-338.306 1188.55,-343.284"/>
<text text-anchor="middle" x="1190" y="-318.8" font-family="Times New Roman,serif" font-size="14.00">is_a</text>
</g>
<!-- BOXINGRING -->
<g id="node39" class="node"><title>BOXINGRING</title>
<polygon fill="white" stroke="black" points="1084,-210 979,-210 979,-174 1084,-174 1084,-210"/>
<text text-anchor="middle" x="1031.5" y="-188.3" font-family="Times New Roman,serif" font-size="14.00">BOXINGRING</text>
</g>
<!-- BOXINGRING&#45;&gt;PLACE -->
<g id="edge37" class="edge"><title>BOXINGRING&#45;&gt;PLACE</title>
<path fill="none" stroke="black" d="M1051.33,-210.201C1065.94,-222.874 1086,-240.266 1102.13,-254.262"/>
<polygon fill="black" stroke="black" points="1099.85,-256.916 1109.7,-260.825 1104.44,-251.628 1099.85,-256.916"/>
<text text-anchor="middle" x="1098" y="-231.8" font-family="Times New Roman,serif" font-size="14.00">is_a</text>
</g>
<!-- PARK -->
<g id="node40" class="node"><title>PARK</title>
<polygon fill="white" stroke="black" points="1156.5,-210 1102.5,-210 1102.5,-174 1156.5,-174 1156.5,-210"/>
<text text-anchor="middle" x="1129.5" y="-188.3" font-family="Times New Roman,serif" font-size="14.00">PARK</text>
</g>
<!-- PARK&#45;&gt;PLACE -->
<g id="edge38" class="edge"><title>PARK&#45;&gt;PLACE</title>
<path fill="none" stroke="black" d="M1129.5,-210.201C1129.5,-221.837 1129.5,-237.452 1129.5,-250.763"/>
<polygon fill="black" stroke="black" points="1126,-250.825 1129.5,-260.825 1133,-250.825 1126,-250.825"/>
<text text-anchor="middle" x="1141" y="-231.8" font-family="Times New Roman,serif" font-size="14.00">is_a</text>
</g>
<!-- FEMALE&#45;&gt;CONCEPTUAL_KNOWLEDGE -->
<g id="edge39" class="edge"><title>FEMALE&#45;&gt;CONCEPTUAL_KNOWLEDGE</title>
<path fill="none" stroke="black" d="M1278.99,-210.156C1274.27,-236.383 1267.55,-287.842 1277.5,-330 1285.89,-365.559 1306.33,-402.571 1321.24,-426.368"/>
<polygon fill="black" stroke="black" points="1318.31,-428.278 1326.65,-434.811 1324.2,-424.502 1318.31,-428.278"/>
<text text-anchor="middle" x="1289" y="-318.8" font-family="Times New Roman,serif" font-size="14.00">is_a</text>
</g>
<!-- ACTION -->
<g id="node42" class="node"><title>ACTION</title>
<polygon fill="white" stroke="black" points="1622.5,-384 1552.5,-384 1552.5,-348 1622.5,-348 1622.5,-384"/>
<text text-anchor="middle" x="1587.5" y="-362.3" font-family="Times New Roman,serif" font-size="14.00">ACTION</text>
</g>
<!-- ACTION&#45;&gt;CONCEPTUAL_KNOWLEDGE -->
<g id="edge42" class="edge"><title>ACTION&#45;&gt;CONCEPTUAL_KNOWLEDGE</title>
<path fill="none" stroke="black" d="M1552.35,-378.998C1512.34,-392.655 1446.32,-415.194 1398.2,-431.621"/>
<polygon fill="black" stroke="black" points="1396.86,-428.381 1388.52,-434.924 1399.12,-435.006 1396.86,-428.381"/>
<text text-anchor="middle" x="1490" y="-405.8" font-family="Times New Roman,serif" font-size="14.00">is_a</text>
</g>
<!-- INTRANSITIVE -->
<g id="node43" class="node"><title>INTRANSITIVE</title>
<polygon fill="white" stroke="black" points="1644,-297 1531,-297 1531,-261 1644,-261 1644,-297"/>
<text text-anchor="middle" x="1587.5" y="-275.3" font-family="Times New Roman,serif" font-size="14.00">INTRANSITIVE</text>
</g>
<!-- INTRANSITIVE&#45;&gt;ACTION -->
<g id="edge43" class="edge"><title>INTRANSITIVE&#45;&gt;ACTION</title>
<path fill="none" stroke="black" d="M1587.5,-297.201C1587.5,-308.837 1587.5,-324.452 1587.5,-337.763"/>
<polygon fill="black" stroke="black" points="1584,-337.825 1587.5,-347.825 1591,-337.825 1584,-337.825"/>
<text text-anchor="middle" x="1599" y="-318.8" font-family="Times New Roman,serif" font-size="14.00">is_a</text>
</g>
<!-- WATCH -->
<g id="node44" class="node"><title>WATCH</title>
<polygon fill="white" stroke="black" points="1663.5,-210 1595.5,-210 1595.5,-174 1663.5,-174 1663.5,-210"/>
<text text-anchor="middle" x="1629.5" y="-188.3" font-family="Times New Roman,serif" font-size="14.00">WATCH</text>
</g>
<!-- WATCH&#45;&gt;INTRANSITIVE -->
<g id="edge44" class="edge"><title>WATCH&#45;&gt;INTRANSITIVE</title>
<path fill="none" stroke="black" d="M1621,-210.201C1615.14,-222.068 1607.23,-238.072 1600.57,-251.551"/>
<polygon fill="black" stroke="black" points="1597.28,-250.309 1595.99,-260.825 1603.55,-253.41 1597.28,-250.309"/>
<text text-anchor="middle" x="1622" y="-231.8" font-family="Times New Roman,serif" font-size="14.00">is_a</text>
</g>
<!-- LAUGH -->
<g id="node45" class="node"><title>LAUGH</title>
<polygon fill="white" stroke="black" points="1577,-210 1512,-210 1512,-174 1577,-174 1577,-210"/>
<text text-anchor="middle" x="1544.5" y="-188.3" font-family="Times New Roman,serif" font-size="14.00">LAUGH</text>
</g>
<!-- LAUGH&#45;&gt;INTRANSITIVE -->
<g id="edge45" class="edge"><title>LAUGH&#45;&gt;INTRANSITIVE</title>
<path fill="none" stroke="black" d="M1553.2,-210.201C1559.2,-222.068 1567.3,-238.072 1574.12,-251.551"/>
<polygon fill="black" stroke="black" points="1571.17,-253.481 1578.81,-260.825 1577.42,-250.321 1571.17,-253.481"/>
<text text-anchor="middle" x="1580" y="-231.8" font-family="Times New Roman,serif" font-size="14.00">is_a</text>
</g>
<!-- TRANSITIVE -->
<g id="node46" class="node"><title>TRANSITIVE</title>
<polygon fill="white" stroke="black" points="1872,-297 1773,-297 1773,-261 1872,-261 1872,-297"/>
<text text-anchor="middle" x="1822.5" y="-275.3" font-family="Times New Roman,serif" font-size="14.00">TRANSITIVE</text>
</g>
<!-- TRANSITIVE&#45;&gt;ACTION -->
<g id="edge46" class="edge"><title>TRANSITIVE&#45;&gt;ACTION</title>
<path fill="none" stroke="black" d="M1775.23,-297.099C1733.53,-312.179 1673.21,-333.998 1632.28,-348.802"/>
<polygon fill="black" stroke="black" points="1631.05,-345.527 1622.83,-352.22 1633.43,-352.11 1631.05,-345.527"/>
<text text-anchor="middle" x="1730" y="-318.8" font-family="Times New Roman,serif" font-size="14.00">is_a</text>
</g>
<!-- SQUIRT -->
<g id="node47" class="node"><title>SQUIRT</title>
<polygon fill="white" stroke="black" points="1897.5,-210 1829.5,-210 1829.5,-174 1897.5,-174 1897.5,-210"/>
<text text-anchor="middle" x="1863.5" y="-188.3" font-family="Times New Roman,serif" font-size="14.00">SQUIRT</text>
</g>
<!-- SQUIRT&#45;&gt;TRANSITIVE -->
<g id="edge47" class="edge"><title>SQUIRT&#45;&gt;TRANSITIVE</title>
<path fill="none" stroke="black" d="M1855.2,-210.201C1849.48,-222.068 1841.76,-238.072 1835.26,-251.551"/>
<polygon fill="black" stroke="black" points="1831.98,-250.297 1830.78,-260.825 1838.28,-253.338 1831.98,-250.297"/>
<text text-anchor="middle" x="1856" y="-231.8" font-family="Times New Roman,serif" font-size="14.00">is_a</text>
</g>
<!-- HIT -->
<g id="node48" class="node"><title>HIT</title>
<polygon fill="white" stroke="black" points="1969.5,-210 1915.5,-210 1915.5,-174 1969.5,-174 1969.5,-210"/>
<text text-anchor="middle" x="1942.5" y="-188.3" font-family="Times New Roman,serif" font-size="14.00">HIT</text>
</g>
<!-- HIT&#45;&gt;TRANSITIVE -->
<g id="edge48" class="edge"><title>HIT&#45;&gt;TRANSITIVE</title>
<path fill="none" stroke="black" d="M1918.22,-210.201C1900,-223.105 1874.88,-240.901 1854.94,-255.022"/>
<polygon fill="black" stroke="black" points="1852.88,-252.188 1846.75,-260.825 1856.93,-257.9 1852.88,-252.188"/>
<text text-anchor="middle" x="1901" y="-231.8" font-family="Times New Roman,serif" font-size="14.00">is_a</text>
</g>
<!-- KICK -->
<g id="node49" class="node"><title>KICK</title>
<polygon fill="white" stroke="black" points="2041.5,-210 1987.5,-210 1987.5,-174 2041.5,-174 2041.5,-210"/>
<text text-anchor="middle" x="2014.5" y="-188.3" font-family="Times New Roman,serif" font-size="14.00">KICK</text>
</g>
<!-- KICK&#45;&gt;TRANSITIVE -->
<g id="edge49" class="edge"><title>KICK&#45;&gt;TRANSITIVE</title>
<path fill="none" stroke="black" d="M1987.45,-207.867C1967.99,-218.295 1940.98,-232.24 1916.5,-243 1905.29,-247.927 1893.15,-252.787 1881.43,-257.247"/>
<polygon fill="black" stroke="black" points="1879.85,-254.101 1871.72,-260.891 1882.31,-260.655 1879.85,-254.101"/>
<text text-anchor="middle" x="1958" y="-231.8" font-family="Times New Roman,serif" font-size="14.00">is_a</text>
</g>
<!-- TALK -->
<g id="node50" class="node"><title>TALK</title>
<polygon fill="white" stroke="black" points="1735.5,-210 1681.5,-210 1681.5,-174 1735.5,-174 1735.5,-210"/>
<text text-anchor="middle" x="1708.5" y="-188.3" font-family="Times New Roman,serif" font-size="14.00">TALK</text>
</g>
<!-- TALK&#45;&gt;TRANSITIVE -->
<g id="edge50" class="edge"><title>TALK&#45;&gt;TRANSITIVE</title>
<path fill="none" stroke="black" d="M1729.91,-210.18C1742.24,-219.961 1758.1,-232.35 1772.5,-243 1777.81,-246.929 1783.5,-251.02 1789.07,-254.961"/>
<polygon fill="black" stroke="black" points="1787.45,-258.104 1797.65,-260.986 1791.48,-252.375 1787.45,-258.104"/>
<text text-anchor="middle" x="1784" y="-231.8" font-family="Times New Roman,serif" font-size="14.00">is_a</text>
</g>
<!-- WEAR -->
<g id="node51" class="node"><title>WEAR</title>
<polygon fill="white" stroke="black" points="1811.5,-210 1753.5,-210 1753.5,-174 1811.5,-174 1811.5,-210"/>
<text text-anchor="middle" x="1782.5" y="-188.3" font-family="Times New Roman,serif" font-size="14.00">WEAR</text>
</g>
<!-- WEAR&#45;&gt;TRANSITIVE -->
<g id="edge51" class="edge"><title>WEAR&#45;&gt;TRANSITIVE</title>
<path fill="none" stroke="black" d="M1790.59,-210.201C1796.18,-222.068 1803.71,-238.072 1810.05,-251.551"/>
<polygon fill="black" stroke="black" points="1806.99,-253.267 1814.42,-260.825 1813.33,-250.286 1806.99,-253.267"/>
<text text-anchor="middle" x="1816" y="-231.8" font-family="Times New Roman,serif" font-size="14.00">is_a</text>
</g>
<!-- ANIMATE&#45;&gt;CONCEPTUAL_KNOWLEDGE -->
<g id="edge52" class="edge"><title>ANIMATE&#45;&gt;CONCEPTUAL_KNOWLEDGE</title>
<path fill="none" stroke="black" d="M1422.24,-297.121C1405.88,-327.385 1371.76,-390.493 1352.5,-426.104"/>
<polygon fill="black" stroke="black" points="1349.4,-424.487 1347.72,-434.948 1355.55,-427.817 1349.4,-424.487"/>
<text text-anchor="middle" x="1406" y="-362.3" font-family="Times New Roman,serif" font-size="14.00">is_a</text>
</g>
<!-- MALE&#45;&gt;CONCEPTUAL_KNOWLEDGE -->
<g id="edge55" class="edge"><title>MALE&#45;&gt;CONCEPTUAL_KNOWLEDGE</title>
<path fill="none" stroke="black" d="M2059.74,-208.506C2020.68,-229.971 1946.97,-269.229 1881.5,-297 1720.01,-365.505 1676.24,-376.775 1505.5,-417 1482.42,-422.439 1457.44,-427.899 1434,-432.835"/>
<polygon fill="black" stroke="black" points="1433.14,-429.441 1424.07,-434.917 1434.57,-436.292 1433.14,-429.441"/>
<text text-anchor="middle" x="1847" y="-318.8" font-family="Times New Roman,serif" font-size="14.00">is_a</text>
</g>
</g>
</svg>
